%TF.GenerationSoftware,KiCad,Pcbnew,9.0.6*%
%TF.CreationDate,2026-06-29T19:27:03+03:00*%
%TF.ProjectId,pcb,7063622e-6b69-4636-9164-5f7063625858,rev?*%
%TF.SameCoordinates,Original*%
%TF.FileFunction,Legend,Bot*%
%TF.FilePolarity,Positive*%
%FSLAX46Y46*%
G04 Gerber Fmt 4.6, Leading zero omitted, Abs format (unit mm)*
G04 Created by KiCad (PCBNEW 9.0.6) date 2026-06-29 19:27:03*
%MOMM*%
%LPD*%
G01*
G04 APERTURE LIST*
%ADD10C,0.125000*%
%ADD11C,0.150000*%
%ADD12C,0.100000*%
G04 APERTURE END LIST*
D10*
X153228880Y-90008240D02*
X153705071Y-90341573D01*
X153228880Y-90579668D02*
X154228880Y-90579668D01*
X154228880Y-90579668D02*
X154228880Y-90198716D01*
X154228880Y-90198716D02*
X154181261Y-90103478D01*
X154181261Y-90103478D02*
X154133642Y-90055859D01*
X154133642Y-90055859D02*
X154038404Y-90008240D01*
X154038404Y-90008240D02*
X153895547Y-90008240D01*
X153895547Y-90008240D02*
X153800309Y-90055859D01*
X153800309Y-90055859D02*
X153752690Y-90103478D01*
X153752690Y-90103478D02*
X153705071Y-90198716D01*
X153705071Y-90198716D02*
X153705071Y-90579668D01*
X153228880Y-89579668D02*
X154228880Y-89579668D01*
X153228880Y-89008240D02*
X153800309Y-89436811D01*
X154228880Y-89008240D02*
X153657452Y-89579668D01*
X154181261Y-88055859D02*
X154228880Y-88151097D01*
X154228880Y-88151097D02*
X154228880Y-88293954D01*
X154228880Y-88293954D02*
X154181261Y-88436811D01*
X154181261Y-88436811D02*
X154086023Y-88532049D01*
X154086023Y-88532049D02*
X153990785Y-88579668D01*
X153990785Y-88579668D02*
X153800309Y-88627287D01*
X153800309Y-88627287D02*
X153657452Y-88627287D01*
X153657452Y-88627287D02*
X153466976Y-88579668D01*
X153466976Y-88579668D02*
X153371738Y-88532049D01*
X153371738Y-88532049D02*
X153276500Y-88436811D01*
X153276500Y-88436811D02*
X153228880Y-88293954D01*
X153228880Y-88293954D02*
X153228880Y-88198716D01*
X153228880Y-88198716D02*
X153276500Y-88055859D01*
X153276500Y-88055859D02*
X153324119Y-88008240D01*
X153324119Y-88008240D02*
X153657452Y-88008240D01*
X153657452Y-88008240D02*
X153657452Y-88198716D01*
X153752690Y-87246335D02*
X153705071Y-87103478D01*
X153705071Y-87103478D02*
X153657452Y-87055859D01*
X153657452Y-87055859D02*
X153562214Y-87008240D01*
X153562214Y-87008240D02*
X153419357Y-87008240D01*
X153419357Y-87008240D02*
X153324119Y-87055859D01*
X153324119Y-87055859D02*
X153276500Y-87103478D01*
X153276500Y-87103478D02*
X153228880Y-87198716D01*
X153228880Y-87198716D02*
X153228880Y-87579668D01*
X153228880Y-87579668D02*
X154228880Y-87579668D01*
X154228880Y-87579668D02*
X154228880Y-87246335D01*
X154228880Y-87246335D02*
X154181261Y-87151097D01*
X154181261Y-87151097D02*
X154133642Y-87103478D01*
X154133642Y-87103478D02*
X154038404Y-87055859D01*
X154038404Y-87055859D02*
X153943166Y-87055859D01*
X153943166Y-87055859D02*
X153847928Y-87103478D01*
X153847928Y-87103478D02*
X153800309Y-87151097D01*
X153800309Y-87151097D02*
X153752690Y-87246335D01*
X153752690Y-87246335D02*
X153752690Y-87579668D01*
D11*
X121336779Y-88788866D02*
X122098684Y-88788866D01*
X121717731Y-89169819D02*
X121717731Y-88407914D01*
X139463220Y-92488866D02*
X138701316Y-92488866D01*
X139082268Y-92869819D02*
X139082268Y-92107914D01*
X137748935Y-91869819D02*
X138225125Y-91869819D01*
X138225125Y-91869819D02*
X138272744Y-92346009D01*
X138272744Y-92346009D02*
X138225125Y-92298390D01*
X138225125Y-92298390D02*
X138129887Y-92250771D01*
X138129887Y-92250771D02*
X137891792Y-92250771D01*
X137891792Y-92250771D02*
X137796554Y-92298390D01*
X137796554Y-92298390D02*
X137748935Y-92346009D01*
X137748935Y-92346009D02*
X137701316Y-92441247D01*
X137701316Y-92441247D02*
X137701316Y-92679342D01*
X137701316Y-92679342D02*
X137748935Y-92774580D01*
X137748935Y-92774580D02*
X137796554Y-92822200D01*
X137796554Y-92822200D02*
X137891792Y-92869819D01*
X137891792Y-92869819D02*
X138129887Y-92869819D01*
X138129887Y-92869819D02*
X138225125Y-92822200D01*
X138225125Y-92822200D02*
X138272744Y-92774580D01*
X137415601Y-91869819D02*
X137082268Y-92869819D01*
X137082268Y-92869819D02*
X136748935Y-91869819D01*
D10*
X127827287Y-92923500D02*
X127684430Y-92971119D01*
X127684430Y-92971119D02*
X127446335Y-92971119D01*
X127446335Y-92971119D02*
X127351097Y-92923500D01*
X127351097Y-92923500D02*
X127303478Y-92875880D01*
X127303478Y-92875880D02*
X127255859Y-92780642D01*
X127255859Y-92780642D02*
X127255859Y-92685404D01*
X127255859Y-92685404D02*
X127303478Y-92590166D01*
X127303478Y-92590166D02*
X127351097Y-92542547D01*
X127351097Y-92542547D02*
X127446335Y-92494928D01*
X127446335Y-92494928D02*
X127636811Y-92447309D01*
X127636811Y-92447309D02*
X127732049Y-92399690D01*
X127732049Y-92399690D02*
X127779668Y-92352071D01*
X127779668Y-92352071D02*
X127827287Y-92256833D01*
X127827287Y-92256833D02*
X127827287Y-92161595D01*
X127827287Y-92161595D02*
X127779668Y-92066357D01*
X127779668Y-92066357D02*
X127732049Y-92018738D01*
X127732049Y-92018738D02*
X127636811Y-91971119D01*
X127636811Y-91971119D02*
X127398716Y-91971119D01*
X127398716Y-91971119D02*
X127255859Y-92018738D01*
X126827287Y-92971119D02*
X126827287Y-91971119D01*
X125827288Y-92018738D02*
X125922526Y-91971119D01*
X125922526Y-91971119D02*
X126065383Y-91971119D01*
X126065383Y-91971119D02*
X126208240Y-92018738D01*
X126208240Y-92018738D02*
X126303478Y-92113976D01*
X126303478Y-92113976D02*
X126351097Y-92209214D01*
X126351097Y-92209214D02*
X126398716Y-92399690D01*
X126398716Y-92399690D02*
X126398716Y-92542547D01*
X126398716Y-92542547D02*
X126351097Y-92733023D01*
X126351097Y-92733023D02*
X126303478Y-92828261D01*
X126303478Y-92828261D02*
X126208240Y-92923500D01*
X126208240Y-92923500D02*
X126065383Y-92971119D01*
X126065383Y-92971119D02*
X125970145Y-92971119D01*
X125970145Y-92971119D02*
X125827288Y-92923500D01*
X125827288Y-92923500D02*
X125779669Y-92875880D01*
X125779669Y-92875880D02*
X125779669Y-92542547D01*
X125779669Y-92542547D02*
X125970145Y-92542547D01*
X125351097Y-92971119D02*
X125351097Y-91971119D01*
X125351097Y-91971119D02*
X124779669Y-92971119D01*
X124779669Y-92971119D02*
X124779669Y-91971119D01*
X124351097Y-92685404D02*
X123874907Y-92685404D01*
X124446335Y-92971119D02*
X124113002Y-91971119D01*
X124113002Y-91971119D02*
X123779669Y-92971119D01*
X122970145Y-92971119D02*
X123446335Y-92971119D01*
X123446335Y-92971119D02*
X123446335Y-91971119D01*
D11*
X132982561Y-89739411D02*
X133030180Y-89834649D01*
X133030180Y-89834649D02*
X133030180Y-89977506D01*
X133030180Y-89977506D02*
X132982561Y-90120363D01*
X132982561Y-90120363D02*
X132887323Y-90215601D01*
X132887323Y-90215601D02*
X132792085Y-90263220D01*
X132792085Y-90263220D02*
X132601609Y-90310839D01*
X132601609Y-90310839D02*
X132458752Y-90310839D01*
X132458752Y-90310839D02*
X132268276Y-90263220D01*
X132268276Y-90263220D02*
X132173038Y-90215601D01*
X132173038Y-90215601D02*
X132077800Y-90120363D01*
X132077800Y-90120363D02*
X132030180Y-89977506D01*
X132030180Y-89977506D02*
X132030180Y-89882268D01*
X132030180Y-89882268D02*
X132077800Y-89739411D01*
X132077800Y-89739411D02*
X132125419Y-89691792D01*
X132125419Y-89691792D02*
X132458752Y-89691792D01*
X132458752Y-89691792D02*
X132458752Y-89882268D01*
X132030180Y-89263220D02*
X133030180Y-89263220D01*
X133030180Y-89263220D02*
X132030180Y-88691792D01*
X132030180Y-88691792D02*
X133030180Y-88691792D01*
X132030180Y-88215601D02*
X133030180Y-88215601D01*
X133030180Y-88215601D02*
X133030180Y-87977506D01*
X133030180Y-87977506D02*
X132982561Y-87834649D01*
X132982561Y-87834649D02*
X132887323Y-87739411D01*
X132887323Y-87739411D02*
X132792085Y-87691792D01*
X132792085Y-87691792D02*
X132601609Y-87644173D01*
X132601609Y-87644173D02*
X132458752Y-87644173D01*
X132458752Y-87644173D02*
X132268276Y-87691792D01*
X132268276Y-87691792D02*
X132173038Y-87739411D01*
X132173038Y-87739411D02*
X132077800Y-87834649D01*
X132077800Y-87834649D02*
X132030180Y-87977506D01*
X132030180Y-87977506D02*
X132030180Y-88215601D01*
D10*
X100628880Y-89408240D02*
X101105071Y-89741573D01*
X100628880Y-89979668D02*
X101628880Y-89979668D01*
X101628880Y-89979668D02*
X101628880Y-89598716D01*
X101628880Y-89598716D02*
X101581261Y-89503478D01*
X101581261Y-89503478D02*
X101533642Y-89455859D01*
X101533642Y-89455859D02*
X101438404Y-89408240D01*
X101438404Y-89408240D02*
X101295547Y-89408240D01*
X101295547Y-89408240D02*
X101200309Y-89455859D01*
X101200309Y-89455859D02*
X101152690Y-89503478D01*
X101152690Y-89503478D02*
X101105071Y-89598716D01*
X101105071Y-89598716D02*
X101105071Y-89979668D01*
X100628880Y-88979668D02*
X101628880Y-88979668D01*
X100628880Y-88408240D02*
X101200309Y-88836811D01*
X101628880Y-88408240D02*
X101057452Y-88979668D01*
X101581261Y-87455859D02*
X101628880Y-87551097D01*
X101628880Y-87551097D02*
X101628880Y-87693954D01*
X101628880Y-87693954D02*
X101581261Y-87836811D01*
X101581261Y-87836811D02*
X101486023Y-87932049D01*
X101486023Y-87932049D02*
X101390785Y-87979668D01*
X101390785Y-87979668D02*
X101200309Y-88027287D01*
X101200309Y-88027287D02*
X101057452Y-88027287D01*
X101057452Y-88027287D02*
X100866976Y-87979668D01*
X100866976Y-87979668D02*
X100771738Y-87932049D01*
X100771738Y-87932049D02*
X100676500Y-87836811D01*
X100676500Y-87836811D02*
X100628880Y-87693954D01*
X100628880Y-87693954D02*
X100628880Y-87598716D01*
X100628880Y-87598716D02*
X100676500Y-87455859D01*
X100676500Y-87455859D02*
X100724119Y-87408240D01*
X100724119Y-87408240D02*
X101057452Y-87408240D01*
X101057452Y-87408240D02*
X101057452Y-87598716D01*
X101152690Y-86646335D02*
X101105071Y-86503478D01*
X101105071Y-86503478D02*
X101057452Y-86455859D01*
X101057452Y-86455859D02*
X100962214Y-86408240D01*
X100962214Y-86408240D02*
X100819357Y-86408240D01*
X100819357Y-86408240D02*
X100724119Y-86455859D01*
X100724119Y-86455859D02*
X100676500Y-86503478D01*
X100676500Y-86503478D02*
X100628880Y-86598716D01*
X100628880Y-86598716D02*
X100628880Y-86979668D01*
X100628880Y-86979668D02*
X101628880Y-86979668D01*
X101628880Y-86979668D02*
X101628880Y-86646335D01*
X101628880Y-86646335D02*
X101581261Y-86551097D01*
X101581261Y-86551097D02*
X101533642Y-86503478D01*
X101533642Y-86503478D02*
X101438404Y-86455859D01*
X101438404Y-86455859D02*
X101343166Y-86455859D01*
X101343166Y-86455859D02*
X101247928Y-86503478D01*
X101247928Y-86503478D02*
X101200309Y-86551097D01*
X101200309Y-86551097D02*
X101152690Y-86646335D01*
X101152690Y-86646335D02*
X101152690Y-86979668D01*
X100328880Y-49108240D02*
X100805071Y-49441573D01*
X100328880Y-49679668D02*
X101328880Y-49679668D01*
X101328880Y-49679668D02*
X101328880Y-49298716D01*
X101328880Y-49298716D02*
X101281261Y-49203478D01*
X101281261Y-49203478D02*
X101233642Y-49155859D01*
X101233642Y-49155859D02*
X101138404Y-49108240D01*
X101138404Y-49108240D02*
X100995547Y-49108240D01*
X100995547Y-49108240D02*
X100900309Y-49155859D01*
X100900309Y-49155859D02*
X100852690Y-49203478D01*
X100852690Y-49203478D02*
X100805071Y-49298716D01*
X100805071Y-49298716D02*
X100805071Y-49679668D01*
X100328880Y-48679668D02*
X101328880Y-48679668D01*
X100328880Y-48108240D02*
X100900309Y-48536811D01*
X101328880Y-48108240D02*
X100757452Y-48679668D01*
X101281261Y-47155859D02*
X101328880Y-47251097D01*
X101328880Y-47251097D02*
X101328880Y-47393954D01*
X101328880Y-47393954D02*
X101281261Y-47536811D01*
X101281261Y-47536811D02*
X101186023Y-47632049D01*
X101186023Y-47632049D02*
X101090785Y-47679668D01*
X101090785Y-47679668D02*
X100900309Y-47727287D01*
X100900309Y-47727287D02*
X100757452Y-47727287D01*
X100757452Y-47727287D02*
X100566976Y-47679668D01*
X100566976Y-47679668D02*
X100471738Y-47632049D01*
X100471738Y-47632049D02*
X100376500Y-47536811D01*
X100376500Y-47536811D02*
X100328880Y-47393954D01*
X100328880Y-47393954D02*
X100328880Y-47298716D01*
X100328880Y-47298716D02*
X100376500Y-47155859D01*
X100376500Y-47155859D02*
X100424119Y-47108240D01*
X100424119Y-47108240D02*
X100757452Y-47108240D01*
X100757452Y-47108240D02*
X100757452Y-47298716D01*
X100852690Y-46346335D02*
X100805071Y-46203478D01*
X100805071Y-46203478D02*
X100757452Y-46155859D01*
X100757452Y-46155859D02*
X100662214Y-46108240D01*
X100662214Y-46108240D02*
X100519357Y-46108240D01*
X100519357Y-46108240D02*
X100424119Y-46155859D01*
X100424119Y-46155859D02*
X100376500Y-46203478D01*
X100376500Y-46203478D02*
X100328880Y-46298716D01*
X100328880Y-46298716D02*
X100328880Y-46679668D01*
X100328880Y-46679668D02*
X101328880Y-46679668D01*
X101328880Y-46679668D02*
X101328880Y-46346335D01*
X101328880Y-46346335D02*
X101281261Y-46251097D01*
X101281261Y-46251097D02*
X101233642Y-46203478D01*
X101233642Y-46203478D02*
X101138404Y-46155859D01*
X101138404Y-46155859D02*
X101043166Y-46155859D01*
X101043166Y-46155859D02*
X100947928Y-46203478D01*
X100947928Y-46203478D02*
X100900309Y-46251097D01*
X100900309Y-46251097D02*
X100852690Y-46346335D01*
X100852690Y-46346335D02*
X100852690Y-46679668D01*
X153528880Y-48608240D02*
X154005071Y-48941573D01*
X153528880Y-49179668D02*
X154528880Y-49179668D01*
X154528880Y-49179668D02*
X154528880Y-48798716D01*
X154528880Y-48798716D02*
X154481261Y-48703478D01*
X154481261Y-48703478D02*
X154433642Y-48655859D01*
X154433642Y-48655859D02*
X154338404Y-48608240D01*
X154338404Y-48608240D02*
X154195547Y-48608240D01*
X154195547Y-48608240D02*
X154100309Y-48655859D01*
X154100309Y-48655859D02*
X154052690Y-48703478D01*
X154052690Y-48703478D02*
X154005071Y-48798716D01*
X154005071Y-48798716D02*
X154005071Y-49179668D01*
X153528880Y-48179668D02*
X154528880Y-48179668D01*
X153528880Y-47608240D02*
X154100309Y-48036811D01*
X154528880Y-47608240D02*
X153957452Y-48179668D01*
X154481261Y-46655859D02*
X154528880Y-46751097D01*
X154528880Y-46751097D02*
X154528880Y-46893954D01*
X154528880Y-46893954D02*
X154481261Y-47036811D01*
X154481261Y-47036811D02*
X154386023Y-47132049D01*
X154386023Y-47132049D02*
X154290785Y-47179668D01*
X154290785Y-47179668D02*
X154100309Y-47227287D01*
X154100309Y-47227287D02*
X153957452Y-47227287D01*
X153957452Y-47227287D02*
X153766976Y-47179668D01*
X153766976Y-47179668D02*
X153671738Y-47132049D01*
X153671738Y-47132049D02*
X153576500Y-47036811D01*
X153576500Y-47036811D02*
X153528880Y-46893954D01*
X153528880Y-46893954D02*
X153528880Y-46798716D01*
X153528880Y-46798716D02*
X153576500Y-46655859D01*
X153576500Y-46655859D02*
X153624119Y-46608240D01*
X153624119Y-46608240D02*
X153957452Y-46608240D01*
X153957452Y-46608240D02*
X153957452Y-46798716D01*
X154052690Y-45846335D02*
X154005071Y-45703478D01*
X154005071Y-45703478D02*
X153957452Y-45655859D01*
X153957452Y-45655859D02*
X153862214Y-45608240D01*
X153862214Y-45608240D02*
X153719357Y-45608240D01*
X153719357Y-45608240D02*
X153624119Y-45655859D01*
X153624119Y-45655859D02*
X153576500Y-45703478D01*
X153576500Y-45703478D02*
X153528880Y-45798716D01*
X153528880Y-45798716D02*
X153528880Y-46179668D01*
X153528880Y-46179668D02*
X154528880Y-46179668D01*
X154528880Y-46179668D02*
X154528880Y-45846335D01*
X154528880Y-45846335D02*
X154481261Y-45751097D01*
X154481261Y-45751097D02*
X154433642Y-45703478D01*
X154433642Y-45703478D02*
X154338404Y-45655859D01*
X154338404Y-45655859D02*
X154243166Y-45655859D01*
X154243166Y-45655859D02*
X154147928Y-45703478D01*
X154147928Y-45703478D02*
X154100309Y-45751097D01*
X154100309Y-45751097D02*
X154052690Y-45846335D01*
X154052690Y-45846335D02*
X154052690Y-46179668D01*
X144975880Y-59091759D02*
X145023500Y-59044140D01*
X145023500Y-59044140D02*
X145071119Y-58901283D01*
X145071119Y-58901283D02*
X145071119Y-58806045D01*
X145071119Y-58806045D02*
X145023500Y-58663188D01*
X145023500Y-58663188D02*
X144928261Y-58567950D01*
X144928261Y-58567950D02*
X144833023Y-58520331D01*
X144833023Y-58520331D02*
X144642547Y-58472712D01*
X144642547Y-58472712D02*
X144499690Y-58472712D01*
X144499690Y-58472712D02*
X144309214Y-58520331D01*
X144309214Y-58520331D02*
X144213976Y-58567950D01*
X144213976Y-58567950D02*
X144118738Y-58663188D01*
X144118738Y-58663188D02*
X144071119Y-58806045D01*
X144071119Y-58806045D02*
X144071119Y-58901283D01*
X144071119Y-58901283D02*
X144118738Y-59044140D01*
X144118738Y-59044140D02*
X144166357Y-59091759D01*
X145071119Y-59901283D02*
X144404452Y-59901283D01*
X144404452Y-59901283D02*
X144404452Y-59758426D01*
X144404452Y-59758426D02*
X144452071Y-59663188D01*
X144452071Y-59663188D02*
X144547309Y-59615569D01*
X144547309Y-59615569D02*
X144928261Y-59567950D01*
X144928261Y-59567950D02*
X145023500Y-59520331D01*
X145023500Y-59520331D02*
X145071119Y-59425093D01*
X145071119Y-60806045D02*
X144547309Y-60806045D01*
X144547309Y-60806045D02*
X144452071Y-60758426D01*
X144452071Y-60758426D02*
X144404452Y-60663188D01*
X144404452Y-60663188D02*
X144404452Y-60472712D01*
X144404452Y-60472712D02*
X144452071Y-60377474D01*
X145023500Y-60806045D02*
X145071119Y-60710807D01*
X145071119Y-60710807D02*
X145071119Y-60472712D01*
X145071119Y-60472712D02*
X145023500Y-60377474D01*
X145023500Y-60377474D02*
X144928261Y-60329855D01*
X144928261Y-60329855D02*
X144833023Y-60329855D01*
X144833023Y-60329855D02*
X144737785Y-60377474D01*
X144737785Y-60377474D02*
X144690166Y-60472712D01*
X144690166Y-60472712D02*
X144690166Y-60710807D01*
X144690166Y-60710807D02*
X144642547Y-60806045D01*
X144737785Y-61520331D02*
X144785404Y-61663188D01*
X144785404Y-61663188D02*
X144880642Y-61710807D01*
X144880642Y-61710807D02*
X144928261Y-61710807D01*
X144928261Y-61710807D02*
X145023500Y-61663188D01*
X145023500Y-61663188D02*
X145071119Y-61567950D01*
X145071119Y-61567950D02*
X145071119Y-61282236D01*
X145071119Y-61282236D02*
X144404452Y-61282236D01*
X144404452Y-61282236D02*
X144404452Y-61520331D01*
X144404452Y-61520331D02*
X144452071Y-61615569D01*
X144452071Y-61615569D02*
X144547309Y-61663188D01*
X144547309Y-61663188D02*
X144594928Y-61663188D01*
X144594928Y-61663188D02*
X144690166Y-61615569D01*
X144690166Y-61615569D02*
X144737785Y-61520331D01*
X144737785Y-61520331D02*
X144737785Y-61282236D01*
X145071119Y-62567950D02*
X144547309Y-62567950D01*
X144547309Y-62567950D02*
X144452071Y-62520331D01*
X144452071Y-62520331D02*
X144404452Y-62425093D01*
X144404452Y-62425093D02*
X144404452Y-62234617D01*
X144404452Y-62234617D02*
X144452071Y-62139379D01*
X145023500Y-62567950D02*
X145071119Y-62472712D01*
X145071119Y-62472712D02*
X145071119Y-62234617D01*
X145071119Y-62234617D02*
X145023500Y-62139379D01*
X145023500Y-62139379D02*
X144928261Y-62091760D01*
X144928261Y-62091760D02*
X144833023Y-62091760D01*
X144833023Y-62091760D02*
X144737785Y-62139379D01*
X144737785Y-62139379D02*
X144690166Y-62234617D01*
X144690166Y-62234617D02*
X144690166Y-62472712D01*
X144690166Y-62472712D02*
X144642547Y-62567950D01*
X144071119Y-63758427D02*
X144737785Y-64091760D01*
X144071119Y-64425093D02*
X144928261Y-63996522D01*
X144928261Y-63996522D02*
X145023500Y-63901284D01*
X145023500Y-63901284D02*
X145071119Y-63806046D01*
X145071119Y-63806046D02*
X145071119Y-63758427D01*
X144404452Y-64758427D02*
X145071119Y-64758427D01*
X144690166Y-64853665D02*
X145071119Y-65139379D01*
X144404452Y-65139379D02*
X144785404Y-64758427D01*
X144404452Y-65567951D02*
X145404452Y-65567951D01*
X144452071Y-65567951D02*
X144404452Y-65663189D01*
X144404452Y-65663189D02*
X144404452Y-65853665D01*
X144404452Y-65853665D02*
X144452071Y-65948903D01*
X144452071Y-65948903D02*
X144499690Y-65996522D01*
X144499690Y-65996522D02*
X144594928Y-66044141D01*
X144594928Y-66044141D02*
X144880642Y-66044141D01*
X144880642Y-66044141D02*
X144975880Y-65996522D01*
X144975880Y-65996522D02*
X145023500Y-65948903D01*
X145023500Y-65948903D02*
X145071119Y-65853665D01*
X145071119Y-65853665D02*
X145071119Y-65663189D01*
X145071119Y-65663189D02*
X145023500Y-65567951D01*
X145071119Y-66901284D02*
X144547309Y-66901284D01*
X144547309Y-66901284D02*
X144452071Y-66853665D01*
X144452071Y-66853665D02*
X144404452Y-66758427D01*
X144404452Y-66758427D02*
X144404452Y-66567951D01*
X144404452Y-66567951D02*
X144452071Y-66472713D01*
X145023500Y-66901284D02*
X145071119Y-66806046D01*
X145071119Y-66806046D02*
X145071119Y-66567951D01*
X145071119Y-66567951D02*
X145023500Y-66472713D01*
X145023500Y-66472713D02*
X144928261Y-66425094D01*
X144928261Y-66425094D02*
X144833023Y-66425094D01*
X144833023Y-66425094D02*
X144737785Y-66472713D01*
X144737785Y-66472713D02*
X144690166Y-66567951D01*
X144690166Y-66567951D02*
X144690166Y-66806046D01*
X144690166Y-66806046D02*
X144642547Y-66901284D01*
X144071119Y-67234618D02*
X144118738Y-67282237D01*
X144118738Y-67282237D02*
X144166357Y-67234618D01*
X144166357Y-67234618D02*
X144118738Y-67186999D01*
X144118738Y-67186999D02*
X144071119Y-67234618D01*
X144071119Y-67234618D02*
X144166357Y-67234618D01*
X144071119Y-67615570D02*
X144118738Y-67663189D01*
X144118738Y-67663189D02*
X144166357Y-67615570D01*
X144166357Y-67615570D02*
X144118738Y-67567951D01*
X144118738Y-67567951D02*
X144071119Y-67615570D01*
X144071119Y-67615570D02*
X144166357Y-67615570D01*
X145071119Y-67425094D02*
X144404452Y-67425094D01*
X144737785Y-67948904D02*
X144737785Y-68377475D01*
X144404452Y-67948904D02*
X145071119Y-67948904D01*
X144404452Y-68377475D02*
X145071119Y-68377475D01*
X145071119Y-68853666D02*
X144404452Y-68853666D01*
X144071119Y-68853666D02*
X144118738Y-68806047D01*
X144118738Y-68806047D02*
X144166357Y-68853666D01*
X144166357Y-68853666D02*
X144118738Y-68901285D01*
X144118738Y-68901285D02*
X144071119Y-68853666D01*
X144071119Y-68853666D02*
X144166357Y-68853666D01*
X136979668Y-51251231D02*
X136979668Y-50251231D01*
X136979668Y-50251231D02*
X136598716Y-50251231D01*
X136598716Y-50251231D02*
X136503478Y-50298850D01*
X136503478Y-50298850D02*
X136455859Y-50346469D01*
X136455859Y-50346469D02*
X136408240Y-50441707D01*
X136408240Y-50441707D02*
X136408240Y-50584564D01*
X136408240Y-50584564D02*
X136455859Y-50679802D01*
X136455859Y-50679802D02*
X136503478Y-50727421D01*
X136503478Y-50727421D02*
X136598716Y-50775040D01*
X136598716Y-50775040D02*
X136979668Y-50775040D01*
X135979668Y-51251231D02*
X135979668Y-50584564D01*
X135979668Y-50775040D02*
X135932049Y-50679802D01*
X135932049Y-50679802D02*
X135884430Y-50632183D01*
X135884430Y-50632183D02*
X135789192Y-50584564D01*
X135789192Y-50584564D02*
X135693954Y-50584564D01*
X135360620Y-51251231D02*
X135360620Y-50584564D01*
X135360620Y-50251231D02*
X135408239Y-50298850D01*
X135408239Y-50298850D02*
X135360620Y-50346469D01*
X135360620Y-50346469D02*
X135313001Y-50298850D01*
X135313001Y-50298850D02*
X135360620Y-50251231D01*
X135360620Y-50251231D02*
X135360620Y-50346469D01*
X134932049Y-51203612D02*
X134836811Y-51251231D01*
X134836811Y-51251231D02*
X134646335Y-51251231D01*
X134646335Y-51251231D02*
X134551097Y-51203612D01*
X134551097Y-51203612D02*
X134503478Y-51108373D01*
X134503478Y-51108373D02*
X134503478Y-51060754D01*
X134503478Y-51060754D02*
X134551097Y-50965516D01*
X134551097Y-50965516D02*
X134646335Y-50917897D01*
X134646335Y-50917897D02*
X134789192Y-50917897D01*
X134789192Y-50917897D02*
X134884430Y-50870278D01*
X134884430Y-50870278D02*
X134932049Y-50775040D01*
X134932049Y-50775040D02*
X134932049Y-50727421D01*
X134932049Y-50727421D02*
X134884430Y-50632183D01*
X134884430Y-50632183D02*
X134789192Y-50584564D01*
X134789192Y-50584564D02*
X134646335Y-50584564D01*
X134646335Y-50584564D02*
X134551097Y-50632183D01*
X134074906Y-51251231D02*
X134074906Y-50584564D01*
X134074906Y-50679802D02*
X134027287Y-50632183D01*
X134027287Y-50632183D02*
X133932049Y-50584564D01*
X133932049Y-50584564D02*
X133789192Y-50584564D01*
X133789192Y-50584564D02*
X133693954Y-50632183D01*
X133693954Y-50632183D02*
X133646335Y-50727421D01*
X133646335Y-50727421D02*
X133646335Y-51251231D01*
X133646335Y-50727421D02*
X133598716Y-50632183D01*
X133598716Y-50632183D02*
X133503478Y-50584564D01*
X133503478Y-50584564D02*
X133360621Y-50584564D01*
X133360621Y-50584564D02*
X133265382Y-50632183D01*
X133265382Y-50632183D02*
X133217763Y-50727421D01*
X133217763Y-50727421D02*
X133217763Y-51251231D01*
X132598716Y-51251231D02*
X132693954Y-51203612D01*
X132693954Y-51203612D02*
X132741573Y-51155992D01*
X132741573Y-51155992D02*
X132789192Y-51060754D01*
X132789192Y-51060754D02*
X132789192Y-50775040D01*
X132789192Y-50775040D02*
X132741573Y-50679802D01*
X132741573Y-50679802D02*
X132693954Y-50632183D01*
X132693954Y-50632183D02*
X132598716Y-50584564D01*
X132598716Y-50584564D02*
X132455859Y-50584564D01*
X132455859Y-50584564D02*
X132360621Y-50632183D01*
X132360621Y-50632183D02*
X132313002Y-50679802D01*
X132313002Y-50679802D02*
X132265383Y-50775040D01*
X132265383Y-50775040D02*
X132265383Y-51060754D01*
X132265383Y-51060754D02*
X132313002Y-51155992D01*
X132313002Y-51155992D02*
X132360621Y-51203612D01*
X132360621Y-51203612D02*
X132455859Y-51251231D01*
X132455859Y-51251231D02*
X132598716Y-51251231D01*
X130551097Y-51251231D02*
X131122525Y-51251231D01*
X130836811Y-51251231D02*
X130836811Y-50251231D01*
X130836811Y-50251231D02*
X130932049Y-50394088D01*
X130932049Y-50394088D02*
X131027287Y-50489326D01*
X131027287Y-50489326D02*
X131122525Y-50536945D01*
X130122525Y-51155992D02*
X130074906Y-51203612D01*
X130074906Y-51203612D02*
X130122525Y-51251231D01*
X130122525Y-51251231D02*
X130170144Y-51203612D01*
X130170144Y-51203612D02*
X130122525Y-51155992D01*
X130122525Y-51155992D02*
X130122525Y-51251231D01*
X129455859Y-50251231D02*
X129360621Y-50251231D01*
X129360621Y-50251231D02*
X129265383Y-50298850D01*
X129265383Y-50298850D02*
X129217764Y-50346469D01*
X129217764Y-50346469D02*
X129170145Y-50441707D01*
X129170145Y-50441707D02*
X129122526Y-50632183D01*
X129122526Y-50632183D02*
X129122526Y-50870278D01*
X129122526Y-50870278D02*
X129170145Y-51060754D01*
X129170145Y-51060754D02*
X129217764Y-51155992D01*
X129217764Y-51155992D02*
X129265383Y-51203612D01*
X129265383Y-51203612D02*
X129360621Y-51251231D01*
X129360621Y-51251231D02*
X129455859Y-51251231D01*
X129455859Y-51251231D02*
X129551097Y-51203612D01*
X129551097Y-51203612D02*
X129598716Y-51155992D01*
X129598716Y-51155992D02*
X129646335Y-51060754D01*
X129646335Y-51060754D02*
X129693954Y-50870278D01*
X129693954Y-50870278D02*
X129693954Y-50632183D01*
X129693954Y-50632183D02*
X129646335Y-50441707D01*
X129646335Y-50441707D02*
X129598716Y-50346469D01*
X129598716Y-50346469D02*
X129551097Y-50298850D01*
X129551097Y-50298850D02*
X129455859Y-50251231D01*
X128693954Y-51155992D02*
X128646335Y-51203612D01*
X128646335Y-51203612D02*
X128693954Y-51251231D01*
X128693954Y-51251231D02*
X128741573Y-51203612D01*
X128741573Y-51203612D02*
X128693954Y-51155992D01*
X128693954Y-51155992D02*
X128693954Y-51251231D01*
X128027288Y-50251231D02*
X127932050Y-50251231D01*
X127932050Y-50251231D02*
X127836812Y-50298850D01*
X127836812Y-50298850D02*
X127789193Y-50346469D01*
X127789193Y-50346469D02*
X127741574Y-50441707D01*
X127741574Y-50441707D02*
X127693955Y-50632183D01*
X127693955Y-50632183D02*
X127693955Y-50870278D01*
X127693955Y-50870278D02*
X127741574Y-51060754D01*
X127741574Y-51060754D02*
X127789193Y-51155992D01*
X127789193Y-51155992D02*
X127836812Y-51203612D01*
X127836812Y-51203612D02*
X127932050Y-51251231D01*
X127932050Y-51251231D02*
X128027288Y-51251231D01*
X128027288Y-51251231D02*
X128122526Y-51203612D01*
X128122526Y-51203612D02*
X128170145Y-51155992D01*
X128170145Y-51155992D02*
X128217764Y-51060754D01*
X128217764Y-51060754D02*
X128265383Y-50870278D01*
X128265383Y-50870278D02*
X128265383Y-50632183D01*
X128265383Y-50632183D02*
X128217764Y-50441707D01*
X128217764Y-50441707D02*
X128170145Y-50346469D01*
X128170145Y-50346469D02*
X128122526Y-50298850D01*
X128122526Y-50298850D02*
X128027288Y-50251231D01*
X127265383Y-50870278D02*
X126503479Y-50870278D01*
X125598717Y-51251231D02*
X125598717Y-50727421D01*
X125598717Y-50727421D02*
X125646336Y-50632183D01*
X125646336Y-50632183D02*
X125741574Y-50584564D01*
X125741574Y-50584564D02*
X125932050Y-50584564D01*
X125932050Y-50584564D02*
X126027288Y-50632183D01*
X125598717Y-51203612D02*
X125693955Y-51251231D01*
X125693955Y-51251231D02*
X125932050Y-51251231D01*
X125932050Y-51251231D02*
X126027288Y-51203612D01*
X126027288Y-51203612D02*
X126074907Y-51108373D01*
X126074907Y-51108373D02*
X126074907Y-51013135D01*
X126074907Y-51013135D02*
X126027288Y-50917897D01*
X126027288Y-50917897D02*
X125932050Y-50870278D01*
X125932050Y-50870278D02*
X125693955Y-50870278D01*
X125693955Y-50870278D02*
X125598717Y-50822659D01*
X124979669Y-51251231D02*
X125074907Y-51203612D01*
X125074907Y-51203612D02*
X125122526Y-51108373D01*
X125122526Y-51108373D02*
X125122526Y-50251231D01*
X124598716Y-50584564D02*
X124598716Y-51584564D01*
X124598716Y-50632183D02*
X124503478Y-50584564D01*
X124503478Y-50584564D02*
X124313002Y-50584564D01*
X124313002Y-50584564D02*
X124217764Y-50632183D01*
X124217764Y-50632183D02*
X124170145Y-50679802D01*
X124170145Y-50679802D02*
X124122526Y-50775040D01*
X124122526Y-50775040D02*
X124122526Y-51060754D01*
X124122526Y-51060754D02*
X124170145Y-51155992D01*
X124170145Y-51155992D02*
X124217764Y-51203612D01*
X124217764Y-51203612D02*
X124313002Y-51251231D01*
X124313002Y-51251231D02*
X124503478Y-51251231D01*
X124503478Y-51251231D02*
X124598716Y-51203612D01*
X123693954Y-51251231D02*
X123693954Y-50251231D01*
X123265383Y-51251231D02*
X123265383Y-50727421D01*
X123265383Y-50727421D02*
X123313002Y-50632183D01*
X123313002Y-50632183D02*
X123408240Y-50584564D01*
X123408240Y-50584564D02*
X123551097Y-50584564D01*
X123551097Y-50584564D02*
X123646335Y-50632183D01*
X123646335Y-50632183D02*
X123693954Y-50679802D01*
X122360621Y-51251231D02*
X122360621Y-50727421D01*
X122360621Y-50727421D02*
X122408240Y-50632183D01*
X122408240Y-50632183D02*
X122503478Y-50584564D01*
X122503478Y-50584564D02*
X122693954Y-50584564D01*
X122693954Y-50584564D02*
X122789192Y-50632183D01*
X122360621Y-51203612D02*
X122455859Y-51251231D01*
X122455859Y-51251231D02*
X122693954Y-51251231D01*
X122693954Y-51251231D02*
X122789192Y-51203612D01*
X122789192Y-51203612D02*
X122836811Y-51108373D01*
X122836811Y-51108373D02*
X122836811Y-51013135D01*
X122836811Y-51013135D02*
X122789192Y-50917897D01*
X122789192Y-50917897D02*
X122693954Y-50870278D01*
X122693954Y-50870278D02*
X122455859Y-50870278D01*
X122455859Y-50870278D02*
X122360621Y-50822659D01*
X121884430Y-51155992D02*
X121836811Y-51203612D01*
X121836811Y-51203612D02*
X121884430Y-51251231D01*
X121884430Y-51251231D02*
X121932049Y-51203612D01*
X121932049Y-51203612D02*
X121884430Y-51155992D01*
X121884430Y-51155992D02*
X121884430Y-51251231D01*
X120884431Y-51251231D02*
X121455859Y-51251231D01*
X121170145Y-51251231D02*
X121170145Y-50251231D01*
X121170145Y-50251231D02*
X121265383Y-50394088D01*
X121265383Y-50394088D02*
X121360621Y-50489326D01*
X121360621Y-50489326D02*
X121455859Y-50536945D01*
X136979668Y-52861175D02*
X136979668Y-51861175D01*
X136408240Y-52861175D02*
X136836811Y-52289746D01*
X136408240Y-51861175D02*
X136979668Y-52432603D01*
X136074906Y-52194508D02*
X135836811Y-52861175D01*
X135598716Y-52194508D02*
X135836811Y-52861175D01*
X135836811Y-52861175D02*
X135932049Y-53099270D01*
X135932049Y-53099270D02*
X135979668Y-53146889D01*
X135979668Y-53146889D02*
X136074906Y-53194508D01*
X135217763Y-52861175D02*
X135217763Y-52194508D01*
X135217763Y-51861175D02*
X135265382Y-51908794D01*
X135265382Y-51908794D02*
X135217763Y-51956413D01*
X135217763Y-51956413D02*
X135170144Y-51908794D01*
X135170144Y-51908794D02*
X135217763Y-51861175D01*
X135217763Y-51861175D02*
X135217763Y-51956413D01*
X134836811Y-52194508D02*
X134598716Y-52861175D01*
X134598716Y-52861175D02*
X134360621Y-52194508D01*
X133932049Y-52813556D02*
X133932049Y-52861175D01*
X133932049Y-52861175D02*
X133979668Y-52956413D01*
X133979668Y-52956413D02*
X134027287Y-53004032D01*
X132741573Y-51861175D02*
X132741573Y-52670698D01*
X132741573Y-52670698D02*
X132693954Y-52765936D01*
X132693954Y-52765936D02*
X132646335Y-52813556D01*
X132646335Y-52813556D02*
X132551097Y-52861175D01*
X132551097Y-52861175D02*
X132360621Y-52861175D01*
X132360621Y-52861175D02*
X132265383Y-52813556D01*
X132265383Y-52813556D02*
X132217764Y-52765936D01*
X132217764Y-52765936D02*
X132170145Y-52670698D01*
X132170145Y-52670698D02*
X132170145Y-51861175D01*
X131693954Y-52861175D02*
X131693954Y-51861175D01*
X131598716Y-52480222D02*
X131313002Y-52861175D01*
X131313002Y-52194508D02*
X131693954Y-52575460D01*
X130884430Y-52861175D02*
X130884430Y-52194508D01*
X130884430Y-52384984D02*
X130836811Y-52289746D01*
X130836811Y-52289746D02*
X130789192Y-52242127D01*
X130789192Y-52242127D02*
X130693954Y-52194508D01*
X130693954Y-52194508D02*
X130598716Y-52194508D01*
X129836811Y-52861175D02*
X129836811Y-52337365D01*
X129836811Y-52337365D02*
X129884430Y-52242127D01*
X129884430Y-52242127D02*
X129979668Y-52194508D01*
X129979668Y-52194508D02*
X130170144Y-52194508D01*
X130170144Y-52194508D02*
X130265382Y-52242127D01*
X129836811Y-52813556D02*
X129932049Y-52861175D01*
X129932049Y-52861175D02*
X130170144Y-52861175D01*
X130170144Y-52861175D02*
X130265382Y-52813556D01*
X130265382Y-52813556D02*
X130313001Y-52718317D01*
X130313001Y-52718317D02*
X130313001Y-52623079D01*
X130313001Y-52623079D02*
X130265382Y-52527841D01*
X130265382Y-52527841D02*
X130170144Y-52480222D01*
X130170144Y-52480222D02*
X129932049Y-52480222D01*
X129932049Y-52480222D02*
X129836811Y-52432603D01*
X129360620Y-52861175D02*
X129360620Y-52194508D01*
X129360620Y-51861175D02*
X129408239Y-51908794D01*
X129408239Y-51908794D02*
X129360620Y-51956413D01*
X129360620Y-51956413D02*
X129313001Y-51908794D01*
X129313001Y-51908794D02*
X129360620Y-51861175D01*
X129360620Y-51861175D02*
X129360620Y-51956413D01*
X128884430Y-52194508D02*
X128884430Y-52861175D01*
X128884430Y-52289746D02*
X128836811Y-52242127D01*
X128836811Y-52242127D02*
X128741573Y-52194508D01*
X128741573Y-52194508D02*
X128598716Y-52194508D01*
X128598716Y-52194508D02*
X128503478Y-52242127D01*
X128503478Y-52242127D02*
X128455859Y-52337365D01*
X128455859Y-52337365D02*
X128455859Y-52861175D01*
X127598716Y-52813556D02*
X127693954Y-52861175D01*
X127693954Y-52861175D02*
X127884430Y-52861175D01*
X127884430Y-52861175D02*
X127979668Y-52813556D01*
X127979668Y-52813556D02*
X128027287Y-52718317D01*
X128027287Y-52718317D02*
X128027287Y-52337365D01*
X128027287Y-52337365D02*
X127979668Y-52242127D01*
X127979668Y-52242127D02*
X127884430Y-52194508D01*
X127884430Y-52194508D02*
X127693954Y-52194508D01*
X127693954Y-52194508D02*
X127598716Y-52242127D01*
X127598716Y-52242127D02*
X127551097Y-52337365D01*
X127551097Y-52337365D02*
X127551097Y-52432603D01*
X127551097Y-52432603D02*
X128027287Y-52527841D01*
X136979668Y-54471119D02*
X136979668Y-53471119D01*
X136979668Y-53947309D02*
X136408240Y-53947309D01*
X136408240Y-54471119D02*
X136408240Y-53471119D01*
X135503478Y-54471119D02*
X135503478Y-53947309D01*
X135503478Y-53947309D02*
X135551097Y-53852071D01*
X135551097Y-53852071D02*
X135646335Y-53804452D01*
X135646335Y-53804452D02*
X135836811Y-53804452D01*
X135836811Y-53804452D02*
X135932049Y-53852071D01*
X135503478Y-54423500D02*
X135598716Y-54471119D01*
X135598716Y-54471119D02*
X135836811Y-54471119D01*
X135836811Y-54471119D02*
X135932049Y-54423500D01*
X135932049Y-54423500D02*
X135979668Y-54328261D01*
X135979668Y-54328261D02*
X135979668Y-54233023D01*
X135979668Y-54233023D02*
X135932049Y-54137785D01*
X135932049Y-54137785D02*
X135836811Y-54090166D01*
X135836811Y-54090166D02*
X135598716Y-54090166D01*
X135598716Y-54090166D02*
X135503478Y-54042547D01*
X134598716Y-54423500D02*
X134693954Y-54471119D01*
X134693954Y-54471119D02*
X134884430Y-54471119D01*
X134884430Y-54471119D02*
X134979668Y-54423500D01*
X134979668Y-54423500D02*
X135027287Y-54375880D01*
X135027287Y-54375880D02*
X135074906Y-54280642D01*
X135074906Y-54280642D02*
X135074906Y-53994928D01*
X135074906Y-53994928D02*
X135027287Y-53899690D01*
X135027287Y-53899690D02*
X134979668Y-53852071D01*
X134979668Y-53852071D02*
X134884430Y-53804452D01*
X134884430Y-53804452D02*
X134693954Y-53804452D01*
X134693954Y-53804452D02*
X134598716Y-53852071D01*
X134170144Y-54471119D02*
X134170144Y-53471119D01*
X134074906Y-54090166D02*
X133789192Y-54471119D01*
X133789192Y-53804452D02*
X134170144Y-54185404D01*
X132979668Y-54423500D02*
X133074906Y-54471119D01*
X133074906Y-54471119D02*
X133265382Y-54471119D01*
X133265382Y-54471119D02*
X133360620Y-54423500D01*
X133360620Y-54423500D02*
X133408239Y-54328261D01*
X133408239Y-54328261D02*
X133408239Y-53947309D01*
X133408239Y-53947309D02*
X133360620Y-53852071D01*
X133360620Y-53852071D02*
X133265382Y-53804452D01*
X133265382Y-53804452D02*
X133074906Y-53804452D01*
X133074906Y-53804452D02*
X132979668Y-53852071D01*
X132979668Y-53852071D02*
X132932049Y-53947309D01*
X132932049Y-53947309D02*
X132932049Y-54042547D01*
X132932049Y-54042547D02*
X133408239Y-54137785D01*
X132503477Y-54471119D02*
X132503477Y-53804452D01*
X132503477Y-53994928D02*
X132455858Y-53899690D01*
X132455858Y-53899690D02*
X132408239Y-53852071D01*
X132408239Y-53852071D02*
X132313001Y-53804452D01*
X132313001Y-53804452D02*
X132217763Y-53804452D01*
X131932048Y-54423500D02*
X131789191Y-54471119D01*
X131789191Y-54471119D02*
X131551096Y-54471119D01*
X131551096Y-54471119D02*
X131455858Y-54423500D01*
X131455858Y-54423500D02*
X131408239Y-54375880D01*
X131408239Y-54375880D02*
X131360620Y-54280642D01*
X131360620Y-54280642D02*
X131360620Y-54185404D01*
X131360620Y-54185404D02*
X131408239Y-54090166D01*
X131408239Y-54090166D02*
X131455858Y-54042547D01*
X131455858Y-54042547D02*
X131551096Y-53994928D01*
X131551096Y-53994928D02*
X131741572Y-53947309D01*
X131741572Y-53947309D02*
X131836810Y-53899690D01*
X131836810Y-53899690D02*
X131884429Y-53852071D01*
X131884429Y-53852071D02*
X131932048Y-53756833D01*
X131932048Y-53756833D02*
X131932048Y-53661595D01*
X131932048Y-53661595D02*
X131884429Y-53566357D01*
X131884429Y-53566357D02*
X131836810Y-53518738D01*
X131836810Y-53518738D02*
X131741572Y-53471119D01*
X131741572Y-53471119D02*
X131503477Y-53471119D01*
X131503477Y-53471119D02*
X131360620Y-53518738D01*
X130932048Y-53804452D02*
X130932048Y-54804452D01*
X130932048Y-53852071D02*
X130836810Y-53804452D01*
X130836810Y-53804452D02*
X130646334Y-53804452D01*
X130646334Y-53804452D02*
X130551096Y-53852071D01*
X130551096Y-53852071D02*
X130503477Y-53899690D01*
X130503477Y-53899690D02*
X130455858Y-53994928D01*
X130455858Y-53994928D02*
X130455858Y-54280642D01*
X130455858Y-54280642D02*
X130503477Y-54375880D01*
X130503477Y-54375880D02*
X130551096Y-54423500D01*
X130551096Y-54423500D02*
X130646334Y-54471119D01*
X130646334Y-54471119D02*
X130836810Y-54471119D01*
X130836810Y-54471119D02*
X130932048Y-54423500D01*
X129598715Y-54471119D02*
X129598715Y-53947309D01*
X129598715Y-53947309D02*
X129646334Y-53852071D01*
X129646334Y-53852071D02*
X129741572Y-53804452D01*
X129741572Y-53804452D02*
X129932048Y-53804452D01*
X129932048Y-53804452D02*
X130027286Y-53852071D01*
X129598715Y-54423500D02*
X129693953Y-54471119D01*
X129693953Y-54471119D02*
X129932048Y-54471119D01*
X129932048Y-54471119D02*
X130027286Y-54423500D01*
X130027286Y-54423500D02*
X130074905Y-54328261D01*
X130074905Y-54328261D02*
X130074905Y-54233023D01*
X130074905Y-54233023D02*
X130027286Y-54137785D01*
X130027286Y-54137785D02*
X129932048Y-54090166D01*
X129932048Y-54090166D02*
X129693953Y-54090166D01*
X129693953Y-54090166D02*
X129598715Y-54042547D01*
X128693953Y-54423500D02*
X128789191Y-54471119D01*
X128789191Y-54471119D02*
X128979667Y-54471119D01*
X128979667Y-54471119D02*
X129074905Y-54423500D01*
X129074905Y-54423500D02*
X129122524Y-54375880D01*
X129122524Y-54375880D02*
X129170143Y-54280642D01*
X129170143Y-54280642D02*
X129170143Y-53994928D01*
X129170143Y-53994928D02*
X129122524Y-53899690D01*
X129122524Y-53899690D02*
X129074905Y-53852071D01*
X129074905Y-53852071D02*
X128979667Y-53804452D01*
X128979667Y-53804452D02*
X128789191Y-53804452D01*
X128789191Y-53804452D02*
X128693953Y-53852071D01*
X127884429Y-54423500D02*
X127979667Y-54471119D01*
X127979667Y-54471119D02*
X128170143Y-54471119D01*
X128170143Y-54471119D02*
X128265381Y-54423500D01*
X128265381Y-54423500D02*
X128313000Y-54328261D01*
X128313000Y-54328261D02*
X128313000Y-53947309D01*
X128313000Y-53947309D02*
X128265381Y-53852071D01*
X128265381Y-53852071D02*
X128170143Y-53804452D01*
X128170143Y-53804452D02*
X127979667Y-53804452D01*
X127979667Y-53804452D02*
X127884429Y-53852071D01*
X127884429Y-53852071D02*
X127836810Y-53947309D01*
X127836810Y-53947309D02*
X127836810Y-54042547D01*
X127836810Y-54042547D02*
X128313000Y-54137785D01*
X126646333Y-54471119D02*
X126646333Y-53471119D01*
X126646333Y-53471119D02*
X126074905Y-54471119D01*
X126074905Y-54471119D02*
X126074905Y-53471119D01*
X125598714Y-53471119D02*
X125598714Y-54280642D01*
X125598714Y-54280642D02*
X125551095Y-54375880D01*
X125551095Y-54375880D02*
X125503476Y-54423500D01*
X125503476Y-54423500D02*
X125408238Y-54471119D01*
X125408238Y-54471119D02*
X125217762Y-54471119D01*
X125217762Y-54471119D02*
X125122524Y-54423500D01*
X125122524Y-54423500D02*
X125074905Y-54375880D01*
X125074905Y-54375880D02*
X125027286Y-54280642D01*
X125027286Y-54280642D02*
X125027286Y-53471119D01*
X124646333Y-53471119D02*
X124027286Y-53471119D01*
X124027286Y-53471119D02*
X124360619Y-53852071D01*
X124360619Y-53852071D02*
X124217762Y-53852071D01*
X124217762Y-53852071D02*
X124122524Y-53899690D01*
X124122524Y-53899690D02*
X124074905Y-53947309D01*
X124074905Y-53947309D02*
X124027286Y-54042547D01*
X124027286Y-54042547D02*
X124027286Y-54280642D01*
X124027286Y-54280642D02*
X124074905Y-54375880D01*
X124074905Y-54375880D02*
X124122524Y-54423500D01*
X124122524Y-54423500D02*
X124217762Y-54471119D01*
X124217762Y-54471119D02*
X124503476Y-54471119D01*
X124503476Y-54471119D02*
X124598714Y-54423500D01*
X124598714Y-54423500D02*
X124646333Y-54375880D01*
X123074905Y-54471119D02*
X123646333Y-54471119D01*
X123360619Y-54471119D02*
X123360619Y-53471119D01*
X123360619Y-53471119D02*
X123455857Y-53613976D01*
X123455857Y-53613976D02*
X123551095Y-53709214D01*
X123551095Y-53709214D02*
X123646333Y-53756833D01*
D11*
X145066666Y-46454819D02*
X145638094Y-46454819D01*
X145352380Y-46454819D02*
X145352380Y-45454819D01*
X145352380Y-45454819D02*
X145447618Y-45597676D01*
X145447618Y-45597676D02*
X145542856Y-45692914D01*
X145542856Y-45692914D02*
X145638094Y-45740533D01*
X144447618Y-45454819D02*
X144352380Y-45454819D01*
X144352380Y-45454819D02*
X144257142Y-45502438D01*
X144257142Y-45502438D02*
X144209523Y-45550057D01*
X144209523Y-45550057D02*
X144161904Y-45645295D01*
X144161904Y-45645295D02*
X144114285Y-45835771D01*
X144114285Y-45835771D02*
X144114285Y-46073866D01*
X144114285Y-46073866D02*
X144161904Y-46264342D01*
X144161904Y-46264342D02*
X144209523Y-46359580D01*
X144209523Y-46359580D02*
X144257142Y-46407200D01*
X144257142Y-46407200D02*
X144352380Y-46454819D01*
X144352380Y-46454819D02*
X144447618Y-46454819D01*
X144447618Y-46454819D02*
X144542856Y-46407200D01*
X144542856Y-46407200D02*
X144590475Y-46359580D01*
X144590475Y-46359580D02*
X144638094Y-46264342D01*
X144638094Y-46264342D02*
X144685713Y-46073866D01*
X144685713Y-46073866D02*
X144685713Y-45835771D01*
X144685713Y-45835771D02*
X144638094Y-45645295D01*
X144638094Y-45645295D02*
X144590475Y-45550057D01*
X144590475Y-45550057D02*
X144542856Y-45502438D01*
X144542856Y-45502438D02*
X144447618Y-45454819D01*
X143495237Y-45454819D02*
X143399999Y-45454819D01*
X143399999Y-45454819D02*
X143304761Y-45502438D01*
X143304761Y-45502438D02*
X143257142Y-45550057D01*
X143257142Y-45550057D02*
X143209523Y-45645295D01*
X143209523Y-45645295D02*
X143161904Y-45835771D01*
X143161904Y-45835771D02*
X143161904Y-46073866D01*
X143161904Y-46073866D02*
X143209523Y-46264342D01*
X143209523Y-46264342D02*
X143257142Y-46359580D01*
X143257142Y-46359580D02*
X143304761Y-46407200D01*
X143304761Y-46407200D02*
X143399999Y-46454819D01*
X143399999Y-46454819D02*
X143495237Y-46454819D01*
X143495237Y-46454819D02*
X143590475Y-46407200D01*
X143590475Y-46407200D02*
X143638094Y-46359580D01*
X143638094Y-46359580D02*
X143685713Y-46264342D01*
X143685713Y-46264342D02*
X143733332Y-46073866D01*
X143733332Y-46073866D02*
X143733332Y-45835771D01*
X143733332Y-45835771D02*
X143685713Y-45645295D01*
X143685713Y-45645295D02*
X143638094Y-45550057D01*
X143638094Y-45550057D02*
X143590475Y-45502438D01*
X143590475Y-45502438D02*
X143495237Y-45454819D01*
X108831009Y-59442857D02*
X108878628Y-59585714D01*
X108878628Y-59585714D02*
X108926247Y-59633333D01*
X108926247Y-59633333D02*
X109021485Y-59680952D01*
X109021485Y-59680952D02*
X109164342Y-59680952D01*
X109164342Y-59680952D02*
X109259580Y-59633333D01*
X109259580Y-59633333D02*
X109307200Y-59585714D01*
X109307200Y-59585714D02*
X109354819Y-59490476D01*
X109354819Y-59490476D02*
X109354819Y-59109524D01*
X109354819Y-59109524D02*
X108354819Y-59109524D01*
X108354819Y-59109524D02*
X108354819Y-59442857D01*
X108354819Y-59442857D02*
X108402438Y-59538095D01*
X108402438Y-59538095D02*
X108450057Y-59585714D01*
X108450057Y-59585714D02*
X108545295Y-59633333D01*
X108545295Y-59633333D02*
X108640533Y-59633333D01*
X108640533Y-59633333D02*
X108735771Y-59585714D01*
X108735771Y-59585714D02*
X108783390Y-59538095D01*
X108783390Y-59538095D02*
X108831009Y-59442857D01*
X108831009Y-59442857D02*
X108831009Y-59109524D01*
X109259580Y-60680952D02*
X109307200Y-60633333D01*
X109307200Y-60633333D02*
X109354819Y-60490476D01*
X109354819Y-60490476D02*
X109354819Y-60395238D01*
X109354819Y-60395238D02*
X109307200Y-60252381D01*
X109307200Y-60252381D02*
X109211961Y-60157143D01*
X109211961Y-60157143D02*
X109116723Y-60109524D01*
X109116723Y-60109524D02*
X108926247Y-60061905D01*
X108926247Y-60061905D02*
X108783390Y-60061905D01*
X108783390Y-60061905D02*
X108592914Y-60109524D01*
X108592914Y-60109524D02*
X108497676Y-60157143D01*
X108497676Y-60157143D02*
X108402438Y-60252381D01*
X108402438Y-60252381D02*
X108354819Y-60395238D01*
X108354819Y-60395238D02*
X108354819Y-60490476D01*
X108354819Y-60490476D02*
X108402438Y-60633333D01*
X108402438Y-60633333D02*
X108450057Y-60680952D01*
X108354819Y-61585714D02*
X108354819Y-61109524D01*
X108354819Y-61109524D02*
X108831009Y-61061905D01*
X108831009Y-61061905D02*
X108783390Y-61109524D01*
X108783390Y-61109524D02*
X108735771Y-61204762D01*
X108735771Y-61204762D02*
X108735771Y-61442857D01*
X108735771Y-61442857D02*
X108783390Y-61538095D01*
X108783390Y-61538095D02*
X108831009Y-61585714D01*
X108831009Y-61585714D02*
X108926247Y-61633333D01*
X108926247Y-61633333D02*
X109164342Y-61633333D01*
X109164342Y-61633333D02*
X109259580Y-61585714D01*
X109259580Y-61585714D02*
X109307200Y-61538095D01*
X109307200Y-61538095D02*
X109354819Y-61442857D01*
X109354819Y-61442857D02*
X109354819Y-61204762D01*
X109354819Y-61204762D02*
X109307200Y-61109524D01*
X109307200Y-61109524D02*
X109259580Y-61061905D01*
X108688152Y-62490476D02*
X109354819Y-62490476D01*
X108307200Y-62252381D02*
X109021485Y-62014286D01*
X109021485Y-62014286D02*
X109021485Y-62633333D01*
X108354819Y-62919048D02*
X108354819Y-63585714D01*
X108354819Y-63585714D02*
X109354819Y-63157143D01*
X110366666Y-49154819D02*
X110938094Y-49154819D01*
X110652380Y-49154819D02*
X110652380Y-48154819D01*
X110652380Y-48154819D02*
X110747618Y-48297676D01*
X110747618Y-48297676D02*
X110842856Y-48392914D01*
X110842856Y-48392914D02*
X110938094Y-48440533D01*
X109461904Y-48154819D02*
X109938094Y-48154819D01*
X109938094Y-48154819D02*
X109985713Y-48631009D01*
X109985713Y-48631009D02*
X109938094Y-48583390D01*
X109938094Y-48583390D02*
X109842856Y-48535771D01*
X109842856Y-48535771D02*
X109604761Y-48535771D01*
X109604761Y-48535771D02*
X109509523Y-48583390D01*
X109509523Y-48583390D02*
X109461904Y-48631009D01*
X109461904Y-48631009D02*
X109414285Y-48726247D01*
X109414285Y-48726247D02*
X109414285Y-48964342D01*
X109414285Y-48964342D02*
X109461904Y-49059580D01*
X109461904Y-49059580D02*
X109509523Y-49107200D01*
X109509523Y-49107200D02*
X109604761Y-49154819D01*
X109604761Y-49154819D02*
X109842856Y-49154819D01*
X109842856Y-49154819D02*
X109938094Y-49107200D01*
X109938094Y-49107200D02*
X109985713Y-49059580D01*
X108795237Y-48154819D02*
X108699999Y-48154819D01*
X108699999Y-48154819D02*
X108604761Y-48202438D01*
X108604761Y-48202438D02*
X108557142Y-48250057D01*
X108557142Y-48250057D02*
X108509523Y-48345295D01*
X108509523Y-48345295D02*
X108461904Y-48535771D01*
X108461904Y-48535771D02*
X108461904Y-48773866D01*
X108461904Y-48773866D02*
X108509523Y-48964342D01*
X108509523Y-48964342D02*
X108557142Y-49059580D01*
X108557142Y-49059580D02*
X108604761Y-49107200D01*
X108604761Y-49107200D02*
X108699999Y-49154819D01*
X108699999Y-49154819D02*
X108795237Y-49154819D01*
X108795237Y-49154819D02*
X108890475Y-49107200D01*
X108890475Y-49107200D02*
X108938094Y-49059580D01*
X108938094Y-49059580D02*
X108985713Y-48964342D01*
X108985713Y-48964342D02*
X109033332Y-48773866D01*
X109033332Y-48773866D02*
X109033332Y-48535771D01*
X109033332Y-48535771D02*
X108985713Y-48345295D01*
X108985713Y-48345295D02*
X108938094Y-48250057D01*
X108938094Y-48250057D02*
X108890475Y-48202438D01*
X108890475Y-48202438D02*
X108795237Y-48154819D01*
X114854819Y-72557142D02*
X114854819Y-71985714D01*
X114854819Y-72271428D02*
X113854819Y-72271428D01*
X113854819Y-72271428D02*
X113997676Y-72176190D01*
X113997676Y-72176190D02*
X114092914Y-72080952D01*
X114092914Y-72080952D02*
X114140533Y-71985714D01*
X113854819Y-73176190D02*
X113854819Y-73271428D01*
X113854819Y-73271428D02*
X113902438Y-73366666D01*
X113902438Y-73366666D02*
X113950057Y-73414285D01*
X113950057Y-73414285D02*
X114045295Y-73461904D01*
X114045295Y-73461904D02*
X114235771Y-73509523D01*
X114235771Y-73509523D02*
X114473866Y-73509523D01*
X114473866Y-73509523D02*
X114664342Y-73461904D01*
X114664342Y-73461904D02*
X114759580Y-73414285D01*
X114759580Y-73414285D02*
X114807200Y-73366666D01*
X114807200Y-73366666D02*
X114854819Y-73271428D01*
X114854819Y-73271428D02*
X114854819Y-73176190D01*
X114854819Y-73176190D02*
X114807200Y-73080952D01*
X114807200Y-73080952D02*
X114759580Y-73033333D01*
X114759580Y-73033333D02*
X114664342Y-72985714D01*
X114664342Y-72985714D02*
X114473866Y-72938095D01*
X114473866Y-72938095D02*
X114235771Y-72938095D01*
X114235771Y-72938095D02*
X114045295Y-72985714D01*
X114045295Y-72985714D02*
X113950057Y-73033333D01*
X113950057Y-73033333D02*
X113902438Y-73080952D01*
X113902438Y-73080952D02*
X113854819Y-73176190D01*
X113854819Y-74128571D02*
X113854819Y-74223809D01*
X113854819Y-74223809D02*
X113902438Y-74319047D01*
X113902438Y-74319047D02*
X113950057Y-74366666D01*
X113950057Y-74366666D02*
X114045295Y-74414285D01*
X114045295Y-74414285D02*
X114235771Y-74461904D01*
X114235771Y-74461904D02*
X114473866Y-74461904D01*
X114473866Y-74461904D02*
X114664342Y-74414285D01*
X114664342Y-74414285D02*
X114759580Y-74366666D01*
X114759580Y-74366666D02*
X114807200Y-74319047D01*
X114807200Y-74319047D02*
X114854819Y-74223809D01*
X114854819Y-74223809D02*
X114854819Y-74128571D01*
X114854819Y-74128571D02*
X114807200Y-74033333D01*
X114807200Y-74033333D02*
X114759580Y-73985714D01*
X114759580Y-73985714D02*
X114664342Y-73938095D01*
X114664342Y-73938095D02*
X114473866Y-73890476D01*
X114473866Y-73890476D02*
X114235771Y-73890476D01*
X114235771Y-73890476D02*
X114045295Y-73938095D01*
X114045295Y-73938095D02*
X113950057Y-73985714D01*
X113950057Y-73985714D02*
X113902438Y-74033333D01*
X113902438Y-74033333D02*
X113854819Y-74128571D01*
X113854819Y-75080952D02*
X113854819Y-75176190D01*
X113854819Y-75176190D02*
X113902438Y-75271428D01*
X113902438Y-75271428D02*
X113950057Y-75319047D01*
X113950057Y-75319047D02*
X114045295Y-75366666D01*
X114045295Y-75366666D02*
X114235771Y-75414285D01*
X114235771Y-75414285D02*
X114473866Y-75414285D01*
X114473866Y-75414285D02*
X114664342Y-75366666D01*
X114664342Y-75366666D02*
X114759580Y-75319047D01*
X114759580Y-75319047D02*
X114807200Y-75271428D01*
X114807200Y-75271428D02*
X114854819Y-75176190D01*
X114854819Y-75176190D02*
X114854819Y-75080952D01*
X114854819Y-75080952D02*
X114807200Y-74985714D01*
X114807200Y-74985714D02*
X114759580Y-74938095D01*
X114759580Y-74938095D02*
X114664342Y-74890476D01*
X114664342Y-74890476D02*
X114473866Y-74842857D01*
X114473866Y-74842857D02*
X114235771Y-74842857D01*
X114235771Y-74842857D02*
X114045295Y-74890476D01*
X114045295Y-74890476D02*
X113950057Y-74938095D01*
X113950057Y-74938095D02*
X113902438Y-74985714D01*
X113902438Y-74985714D02*
X113854819Y-75080952D01*
X153154819Y-74633333D02*
X153154819Y-74061905D01*
X153154819Y-74347619D02*
X152154819Y-74347619D01*
X152154819Y-74347619D02*
X152297676Y-74252381D01*
X152297676Y-74252381D02*
X152392914Y-74157143D01*
X152392914Y-74157143D02*
X152440533Y-74061905D01*
X152154819Y-75252381D02*
X152154819Y-75347619D01*
X152154819Y-75347619D02*
X152202438Y-75442857D01*
X152202438Y-75442857D02*
X152250057Y-75490476D01*
X152250057Y-75490476D02*
X152345295Y-75538095D01*
X152345295Y-75538095D02*
X152535771Y-75585714D01*
X152535771Y-75585714D02*
X152773866Y-75585714D01*
X152773866Y-75585714D02*
X152964342Y-75538095D01*
X152964342Y-75538095D02*
X153059580Y-75490476D01*
X153059580Y-75490476D02*
X153107200Y-75442857D01*
X153107200Y-75442857D02*
X153154819Y-75347619D01*
X153154819Y-75347619D02*
X153154819Y-75252381D01*
X153154819Y-75252381D02*
X153107200Y-75157143D01*
X153107200Y-75157143D02*
X153059580Y-75109524D01*
X153059580Y-75109524D02*
X152964342Y-75061905D01*
X152964342Y-75061905D02*
X152773866Y-75014286D01*
X152773866Y-75014286D02*
X152535771Y-75014286D01*
X152535771Y-75014286D02*
X152345295Y-75061905D01*
X152345295Y-75061905D02*
X152250057Y-75109524D01*
X152250057Y-75109524D02*
X152202438Y-75157143D01*
X152202438Y-75157143D02*
X152154819Y-75252381D01*
X152154819Y-76204762D02*
X152154819Y-76300000D01*
X152154819Y-76300000D02*
X152202438Y-76395238D01*
X152202438Y-76395238D02*
X152250057Y-76442857D01*
X152250057Y-76442857D02*
X152345295Y-76490476D01*
X152345295Y-76490476D02*
X152535771Y-76538095D01*
X152535771Y-76538095D02*
X152773866Y-76538095D01*
X152773866Y-76538095D02*
X152964342Y-76490476D01*
X152964342Y-76490476D02*
X153059580Y-76442857D01*
X153059580Y-76442857D02*
X153107200Y-76395238D01*
X153107200Y-76395238D02*
X153154819Y-76300000D01*
X153154819Y-76300000D02*
X153154819Y-76204762D01*
X153154819Y-76204762D02*
X153107200Y-76109524D01*
X153107200Y-76109524D02*
X153059580Y-76061905D01*
X153059580Y-76061905D02*
X152964342Y-76014286D01*
X152964342Y-76014286D02*
X152773866Y-75966667D01*
X152773866Y-75966667D02*
X152535771Y-75966667D01*
X152535771Y-75966667D02*
X152345295Y-76014286D01*
X152345295Y-76014286D02*
X152250057Y-76061905D01*
X152250057Y-76061905D02*
X152202438Y-76109524D01*
X152202438Y-76109524D02*
X152154819Y-76204762D01*
X110366666Y-43254819D02*
X110938094Y-43254819D01*
X110652380Y-43254819D02*
X110652380Y-42254819D01*
X110652380Y-42254819D02*
X110747618Y-42397676D01*
X110747618Y-42397676D02*
X110842856Y-42492914D01*
X110842856Y-42492914D02*
X110938094Y-42540533D01*
X109747618Y-42254819D02*
X109652380Y-42254819D01*
X109652380Y-42254819D02*
X109557142Y-42302438D01*
X109557142Y-42302438D02*
X109509523Y-42350057D01*
X109509523Y-42350057D02*
X109461904Y-42445295D01*
X109461904Y-42445295D02*
X109414285Y-42635771D01*
X109414285Y-42635771D02*
X109414285Y-42873866D01*
X109414285Y-42873866D02*
X109461904Y-43064342D01*
X109461904Y-43064342D02*
X109509523Y-43159580D01*
X109509523Y-43159580D02*
X109557142Y-43207200D01*
X109557142Y-43207200D02*
X109652380Y-43254819D01*
X109652380Y-43254819D02*
X109747618Y-43254819D01*
X109747618Y-43254819D02*
X109842856Y-43207200D01*
X109842856Y-43207200D02*
X109890475Y-43159580D01*
X109890475Y-43159580D02*
X109938094Y-43064342D01*
X109938094Y-43064342D02*
X109985713Y-42873866D01*
X109985713Y-42873866D02*
X109985713Y-42635771D01*
X109985713Y-42635771D02*
X109938094Y-42445295D01*
X109938094Y-42445295D02*
X109890475Y-42350057D01*
X109890475Y-42350057D02*
X109842856Y-42302438D01*
X109842856Y-42302438D02*
X109747618Y-42254819D01*
X108795237Y-42254819D02*
X108699999Y-42254819D01*
X108699999Y-42254819D02*
X108604761Y-42302438D01*
X108604761Y-42302438D02*
X108557142Y-42350057D01*
X108557142Y-42350057D02*
X108509523Y-42445295D01*
X108509523Y-42445295D02*
X108461904Y-42635771D01*
X108461904Y-42635771D02*
X108461904Y-42873866D01*
X108461904Y-42873866D02*
X108509523Y-43064342D01*
X108509523Y-43064342D02*
X108557142Y-43159580D01*
X108557142Y-43159580D02*
X108604761Y-43207200D01*
X108604761Y-43207200D02*
X108699999Y-43254819D01*
X108699999Y-43254819D02*
X108795237Y-43254819D01*
X108795237Y-43254819D02*
X108890475Y-43207200D01*
X108890475Y-43207200D02*
X108938094Y-43159580D01*
X108938094Y-43159580D02*
X108985713Y-43064342D01*
X108985713Y-43064342D02*
X109033332Y-42873866D01*
X109033332Y-42873866D02*
X109033332Y-42635771D01*
X109033332Y-42635771D02*
X108985713Y-42445295D01*
X108985713Y-42445295D02*
X108938094Y-42350057D01*
X108938094Y-42350057D02*
X108890475Y-42302438D01*
X108890475Y-42302438D02*
X108795237Y-42254819D01*
X147954819Y-74553333D02*
X147954819Y-73981905D01*
X147954819Y-74267619D02*
X146954819Y-74267619D01*
X146954819Y-74267619D02*
X147097676Y-74172381D01*
X147097676Y-74172381D02*
X147192914Y-74077143D01*
X147192914Y-74077143D02*
X147240533Y-73981905D01*
X146954819Y-75458095D02*
X146954819Y-74981905D01*
X146954819Y-74981905D02*
X147431009Y-74934286D01*
X147431009Y-74934286D02*
X147383390Y-74981905D01*
X147383390Y-74981905D02*
X147335771Y-75077143D01*
X147335771Y-75077143D02*
X147335771Y-75315238D01*
X147335771Y-75315238D02*
X147383390Y-75410476D01*
X147383390Y-75410476D02*
X147431009Y-75458095D01*
X147431009Y-75458095D02*
X147526247Y-75505714D01*
X147526247Y-75505714D02*
X147764342Y-75505714D01*
X147764342Y-75505714D02*
X147859580Y-75458095D01*
X147859580Y-75458095D02*
X147907200Y-75410476D01*
X147907200Y-75410476D02*
X147954819Y-75315238D01*
X147954819Y-75315238D02*
X147954819Y-75077143D01*
X147954819Y-75077143D02*
X147907200Y-74981905D01*
X147907200Y-74981905D02*
X147859580Y-74934286D01*
X146954819Y-76124762D02*
X146954819Y-76220000D01*
X146954819Y-76220000D02*
X147002438Y-76315238D01*
X147002438Y-76315238D02*
X147050057Y-76362857D01*
X147050057Y-76362857D02*
X147145295Y-76410476D01*
X147145295Y-76410476D02*
X147335771Y-76458095D01*
X147335771Y-76458095D02*
X147573866Y-76458095D01*
X147573866Y-76458095D02*
X147764342Y-76410476D01*
X147764342Y-76410476D02*
X147859580Y-76362857D01*
X147859580Y-76362857D02*
X147907200Y-76315238D01*
X147907200Y-76315238D02*
X147954819Y-76220000D01*
X147954819Y-76220000D02*
X147954819Y-76124762D01*
X147954819Y-76124762D02*
X147907200Y-76029524D01*
X147907200Y-76029524D02*
X147859580Y-75981905D01*
X147859580Y-75981905D02*
X147764342Y-75934286D01*
X147764342Y-75934286D02*
X147573866Y-75886667D01*
X147573866Y-75886667D02*
X147335771Y-75886667D01*
X147335771Y-75886667D02*
X147145295Y-75934286D01*
X147145295Y-75934286D02*
X147050057Y-75981905D01*
X147050057Y-75981905D02*
X147002438Y-76029524D01*
X147002438Y-76029524D02*
X146954819Y-76124762D01*
X110366666Y-46454819D02*
X110938094Y-46454819D01*
X110652380Y-46454819D02*
X110652380Y-45454819D01*
X110652380Y-45454819D02*
X110747618Y-45597676D01*
X110747618Y-45597676D02*
X110842856Y-45692914D01*
X110842856Y-45692914D02*
X110938094Y-45740533D01*
X109747618Y-45454819D02*
X109652380Y-45454819D01*
X109652380Y-45454819D02*
X109557142Y-45502438D01*
X109557142Y-45502438D02*
X109509523Y-45550057D01*
X109509523Y-45550057D02*
X109461904Y-45645295D01*
X109461904Y-45645295D02*
X109414285Y-45835771D01*
X109414285Y-45835771D02*
X109414285Y-46073866D01*
X109414285Y-46073866D02*
X109461904Y-46264342D01*
X109461904Y-46264342D02*
X109509523Y-46359580D01*
X109509523Y-46359580D02*
X109557142Y-46407200D01*
X109557142Y-46407200D02*
X109652380Y-46454819D01*
X109652380Y-46454819D02*
X109747618Y-46454819D01*
X109747618Y-46454819D02*
X109842856Y-46407200D01*
X109842856Y-46407200D02*
X109890475Y-46359580D01*
X109890475Y-46359580D02*
X109938094Y-46264342D01*
X109938094Y-46264342D02*
X109985713Y-46073866D01*
X109985713Y-46073866D02*
X109985713Y-45835771D01*
X109985713Y-45835771D02*
X109938094Y-45645295D01*
X109938094Y-45645295D02*
X109890475Y-45550057D01*
X109890475Y-45550057D02*
X109842856Y-45502438D01*
X109842856Y-45502438D02*
X109747618Y-45454819D01*
X108795237Y-45454819D02*
X108699999Y-45454819D01*
X108699999Y-45454819D02*
X108604761Y-45502438D01*
X108604761Y-45502438D02*
X108557142Y-45550057D01*
X108557142Y-45550057D02*
X108509523Y-45645295D01*
X108509523Y-45645295D02*
X108461904Y-45835771D01*
X108461904Y-45835771D02*
X108461904Y-46073866D01*
X108461904Y-46073866D02*
X108509523Y-46264342D01*
X108509523Y-46264342D02*
X108557142Y-46359580D01*
X108557142Y-46359580D02*
X108604761Y-46407200D01*
X108604761Y-46407200D02*
X108699999Y-46454819D01*
X108699999Y-46454819D02*
X108795237Y-46454819D01*
X108795237Y-46454819D02*
X108890475Y-46407200D01*
X108890475Y-46407200D02*
X108938094Y-46359580D01*
X108938094Y-46359580D02*
X108985713Y-46264342D01*
X108985713Y-46264342D02*
X109033332Y-46073866D01*
X109033332Y-46073866D02*
X109033332Y-45835771D01*
X109033332Y-45835771D02*
X108985713Y-45645295D01*
X108985713Y-45645295D02*
X108938094Y-45550057D01*
X108938094Y-45550057D02*
X108890475Y-45502438D01*
X108890475Y-45502438D02*
X108795237Y-45454819D01*
X150554819Y-74633333D02*
X150554819Y-74061905D01*
X150554819Y-74347619D02*
X149554819Y-74347619D01*
X149554819Y-74347619D02*
X149697676Y-74252381D01*
X149697676Y-74252381D02*
X149792914Y-74157143D01*
X149792914Y-74157143D02*
X149840533Y-74061905D01*
X149554819Y-75252381D02*
X149554819Y-75347619D01*
X149554819Y-75347619D02*
X149602438Y-75442857D01*
X149602438Y-75442857D02*
X149650057Y-75490476D01*
X149650057Y-75490476D02*
X149745295Y-75538095D01*
X149745295Y-75538095D02*
X149935771Y-75585714D01*
X149935771Y-75585714D02*
X150173866Y-75585714D01*
X150173866Y-75585714D02*
X150364342Y-75538095D01*
X150364342Y-75538095D02*
X150459580Y-75490476D01*
X150459580Y-75490476D02*
X150507200Y-75442857D01*
X150507200Y-75442857D02*
X150554819Y-75347619D01*
X150554819Y-75347619D02*
X150554819Y-75252381D01*
X150554819Y-75252381D02*
X150507200Y-75157143D01*
X150507200Y-75157143D02*
X150459580Y-75109524D01*
X150459580Y-75109524D02*
X150364342Y-75061905D01*
X150364342Y-75061905D02*
X150173866Y-75014286D01*
X150173866Y-75014286D02*
X149935771Y-75014286D01*
X149935771Y-75014286D02*
X149745295Y-75061905D01*
X149745295Y-75061905D02*
X149650057Y-75109524D01*
X149650057Y-75109524D02*
X149602438Y-75157143D01*
X149602438Y-75157143D02*
X149554819Y-75252381D01*
X149554819Y-76204762D02*
X149554819Y-76300000D01*
X149554819Y-76300000D02*
X149602438Y-76395238D01*
X149602438Y-76395238D02*
X149650057Y-76442857D01*
X149650057Y-76442857D02*
X149745295Y-76490476D01*
X149745295Y-76490476D02*
X149935771Y-76538095D01*
X149935771Y-76538095D02*
X150173866Y-76538095D01*
X150173866Y-76538095D02*
X150364342Y-76490476D01*
X150364342Y-76490476D02*
X150459580Y-76442857D01*
X150459580Y-76442857D02*
X150507200Y-76395238D01*
X150507200Y-76395238D02*
X150554819Y-76300000D01*
X150554819Y-76300000D02*
X150554819Y-76204762D01*
X150554819Y-76204762D02*
X150507200Y-76109524D01*
X150507200Y-76109524D02*
X150459580Y-76061905D01*
X150459580Y-76061905D02*
X150364342Y-76014286D01*
X150364342Y-76014286D02*
X150173866Y-75966667D01*
X150173866Y-75966667D02*
X149935771Y-75966667D01*
X149935771Y-75966667D02*
X149745295Y-76014286D01*
X149745295Y-76014286D02*
X149650057Y-76061905D01*
X149650057Y-76061905D02*
X149602438Y-76109524D01*
X149602438Y-76109524D02*
X149554819Y-76204762D01*
X102854819Y-75833333D02*
X102854819Y-75261905D01*
X102854819Y-75547619D02*
X101854819Y-75547619D01*
X101854819Y-75547619D02*
X101997676Y-75452381D01*
X101997676Y-75452381D02*
X102092914Y-75357143D01*
X102092914Y-75357143D02*
X102140533Y-75261905D01*
X101854819Y-76452381D02*
X101854819Y-76547619D01*
X101854819Y-76547619D02*
X101902438Y-76642857D01*
X101902438Y-76642857D02*
X101950057Y-76690476D01*
X101950057Y-76690476D02*
X102045295Y-76738095D01*
X102045295Y-76738095D02*
X102235771Y-76785714D01*
X102235771Y-76785714D02*
X102473866Y-76785714D01*
X102473866Y-76785714D02*
X102664342Y-76738095D01*
X102664342Y-76738095D02*
X102759580Y-76690476D01*
X102759580Y-76690476D02*
X102807200Y-76642857D01*
X102807200Y-76642857D02*
X102854819Y-76547619D01*
X102854819Y-76547619D02*
X102854819Y-76452381D01*
X102854819Y-76452381D02*
X102807200Y-76357143D01*
X102807200Y-76357143D02*
X102759580Y-76309524D01*
X102759580Y-76309524D02*
X102664342Y-76261905D01*
X102664342Y-76261905D02*
X102473866Y-76214286D01*
X102473866Y-76214286D02*
X102235771Y-76214286D01*
X102235771Y-76214286D02*
X102045295Y-76261905D01*
X102045295Y-76261905D02*
X101950057Y-76309524D01*
X101950057Y-76309524D02*
X101902438Y-76357143D01*
X101902438Y-76357143D02*
X101854819Y-76452381D01*
X101854819Y-77404762D02*
X101854819Y-77500000D01*
X101854819Y-77500000D02*
X101902438Y-77595238D01*
X101902438Y-77595238D02*
X101950057Y-77642857D01*
X101950057Y-77642857D02*
X102045295Y-77690476D01*
X102045295Y-77690476D02*
X102235771Y-77738095D01*
X102235771Y-77738095D02*
X102473866Y-77738095D01*
X102473866Y-77738095D02*
X102664342Y-77690476D01*
X102664342Y-77690476D02*
X102759580Y-77642857D01*
X102759580Y-77642857D02*
X102807200Y-77595238D01*
X102807200Y-77595238D02*
X102854819Y-77500000D01*
X102854819Y-77500000D02*
X102854819Y-77404762D01*
X102854819Y-77404762D02*
X102807200Y-77309524D01*
X102807200Y-77309524D02*
X102759580Y-77261905D01*
X102759580Y-77261905D02*
X102664342Y-77214286D01*
X102664342Y-77214286D02*
X102473866Y-77166667D01*
X102473866Y-77166667D02*
X102235771Y-77166667D01*
X102235771Y-77166667D02*
X102045295Y-77214286D01*
X102045295Y-77214286D02*
X101950057Y-77261905D01*
X101950057Y-77261905D02*
X101902438Y-77309524D01*
X101902438Y-77309524D02*
X101854819Y-77404762D01*
X113531009Y-59142857D02*
X113578628Y-59285714D01*
X113578628Y-59285714D02*
X113626247Y-59333333D01*
X113626247Y-59333333D02*
X113721485Y-59380952D01*
X113721485Y-59380952D02*
X113864342Y-59380952D01*
X113864342Y-59380952D02*
X113959580Y-59333333D01*
X113959580Y-59333333D02*
X114007200Y-59285714D01*
X114007200Y-59285714D02*
X114054819Y-59190476D01*
X114054819Y-59190476D02*
X114054819Y-58809524D01*
X114054819Y-58809524D02*
X113054819Y-58809524D01*
X113054819Y-58809524D02*
X113054819Y-59142857D01*
X113054819Y-59142857D02*
X113102438Y-59238095D01*
X113102438Y-59238095D02*
X113150057Y-59285714D01*
X113150057Y-59285714D02*
X113245295Y-59333333D01*
X113245295Y-59333333D02*
X113340533Y-59333333D01*
X113340533Y-59333333D02*
X113435771Y-59285714D01*
X113435771Y-59285714D02*
X113483390Y-59238095D01*
X113483390Y-59238095D02*
X113531009Y-59142857D01*
X113531009Y-59142857D02*
X113531009Y-58809524D01*
X113959580Y-60380952D02*
X114007200Y-60333333D01*
X114007200Y-60333333D02*
X114054819Y-60190476D01*
X114054819Y-60190476D02*
X114054819Y-60095238D01*
X114054819Y-60095238D02*
X114007200Y-59952381D01*
X114007200Y-59952381D02*
X113911961Y-59857143D01*
X113911961Y-59857143D02*
X113816723Y-59809524D01*
X113816723Y-59809524D02*
X113626247Y-59761905D01*
X113626247Y-59761905D02*
X113483390Y-59761905D01*
X113483390Y-59761905D02*
X113292914Y-59809524D01*
X113292914Y-59809524D02*
X113197676Y-59857143D01*
X113197676Y-59857143D02*
X113102438Y-59952381D01*
X113102438Y-59952381D02*
X113054819Y-60095238D01*
X113054819Y-60095238D02*
X113054819Y-60190476D01*
X113054819Y-60190476D02*
X113102438Y-60333333D01*
X113102438Y-60333333D02*
X113150057Y-60380952D01*
X113054819Y-61285714D02*
X113054819Y-60809524D01*
X113054819Y-60809524D02*
X113531009Y-60761905D01*
X113531009Y-60761905D02*
X113483390Y-60809524D01*
X113483390Y-60809524D02*
X113435771Y-60904762D01*
X113435771Y-60904762D02*
X113435771Y-61142857D01*
X113435771Y-61142857D02*
X113483390Y-61238095D01*
X113483390Y-61238095D02*
X113531009Y-61285714D01*
X113531009Y-61285714D02*
X113626247Y-61333333D01*
X113626247Y-61333333D02*
X113864342Y-61333333D01*
X113864342Y-61333333D02*
X113959580Y-61285714D01*
X113959580Y-61285714D02*
X114007200Y-61238095D01*
X114007200Y-61238095D02*
X114054819Y-61142857D01*
X114054819Y-61142857D02*
X114054819Y-60904762D01*
X114054819Y-60904762D02*
X114007200Y-60809524D01*
X114007200Y-60809524D02*
X113959580Y-60761905D01*
X113388152Y-62190476D02*
X114054819Y-62190476D01*
X113007200Y-61952381D02*
X113721485Y-61714286D01*
X113721485Y-61714286D02*
X113721485Y-62333333D01*
X113054819Y-62619048D02*
X113054819Y-63285714D01*
X113054819Y-63285714D02*
X114054819Y-62857143D01*
X105454819Y-75833333D02*
X105454819Y-75261905D01*
X105454819Y-75547619D02*
X104454819Y-75547619D01*
X104454819Y-75547619D02*
X104597676Y-75452381D01*
X104597676Y-75452381D02*
X104692914Y-75357143D01*
X104692914Y-75357143D02*
X104740533Y-75261905D01*
X104454819Y-76452381D02*
X104454819Y-76547619D01*
X104454819Y-76547619D02*
X104502438Y-76642857D01*
X104502438Y-76642857D02*
X104550057Y-76690476D01*
X104550057Y-76690476D02*
X104645295Y-76738095D01*
X104645295Y-76738095D02*
X104835771Y-76785714D01*
X104835771Y-76785714D02*
X105073866Y-76785714D01*
X105073866Y-76785714D02*
X105264342Y-76738095D01*
X105264342Y-76738095D02*
X105359580Y-76690476D01*
X105359580Y-76690476D02*
X105407200Y-76642857D01*
X105407200Y-76642857D02*
X105454819Y-76547619D01*
X105454819Y-76547619D02*
X105454819Y-76452381D01*
X105454819Y-76452381D02*
X105407200Y-76357143D01*
X105407200Y-76357143D02*
X105359580Y-76309524D01*
X105359580Y-76309524D02*
X105264342Y-76261905D01*
X105264342Y-76261905D02*
X105073866Y-76214286D01*
X105073866Y-76214286D02*
X104835771Y-76214286D01*
X104835771Y-76214286D02*
X104645295Y-76261905D01*
X104645295Y-76261905D02*
X104550057Y-76309524D01*
X104550057Y-76309524D02*
X104502438Y-76357143D01*
X104502438Y-76357143D02*
X104454819Y-76452381D01*
X104454819Y-77404762D02*
X104454819Y-77500000D01*
X104454819Y-77500000D02*
X104502438Y-77595238D01*
X104502438Y-77595238D02*
X104550057Y-77642857D01*
X104550057Y-77642857D02*
X104645295Y-77690476D01*
X104645295Y-77690476D02*
X104835771Y-77738095D01*
X104835771Y-77738095D02*
X105073866Y-77738095D01*
X105073866Y-77738095D02*
X105264342Y-77690476D01*
X105264342Y-77690476D02*
X105359580Y-77642857D01*
X105359580Y-77642857D02*
X105407200Y-77595238D01*
X105407200Y-77595238D02*
X105454819Y-77500000D01*
X105454819Y-77500000D02*
X105454819Y-77404762D01*
X105454819Y-77404762D02*
X105407200Y-77309524D01*
X105407200Y-77309524D02*
X105359580Y-77261905D01*
X105359580Y-77261905D02*
X105264342Y-77214286D01*
X105264342Y-77214286D02*
X105073866Y-77166667D01*
X105073866Y-77166667D02*
X104835771Y-77166667D01*
X104835771Y-77166667D02*
X104645295Y-77214286D01*
X104645295Y-77214286D02*
X104550057Y-77261905D01*
X104550057Y-77261905D02*
X104502438Y-77309524D01*
X104502438Y-77309524D02*
X104454819Y-77404762D01*
X118431009Y-59142857D02*
X118478628Y-59285714D01*
X118478628Y-59285714D02*
X118526247Y-59333333D01*
X118526247Y-59333333D02*
X118621485Y-59380952D01*
X118621485Y-59380952D02*
X118764342Y-59380952D01*
X118764342Y-59380952D02*
X118859580Y-59333333D01*
X118859580Y-59333333D02*
X118907200Y-59285714D01*
X118907200Y-59285714D02*
X118954819Y-59190476D01*
X118954819Y-59190476D02*
X118954819Y-58809524D01*
X118954819Y-58809524D02*
X117954819Y-58809524D01*
X117954819Y-58809524D02*
X117954819Y-59142857D01*
X117954819Y-59142857D02*
X118002438Y-59238095D01*
X118002438Y-59238095D02*
X118050057Y-59285714D01*
X118050057Y-59285714D02*
X118145295Y-59333333D01*
X118145295Y-59333333D02*
X118240533Y-59333333D01*
X118240533Y-59333333D02*
X118335771Y-59285714D01*
X118335771Y-59285714D02*
X118383390Y-59238095D01*
X118383390Y-59238095D02*
X118431009Y-59142857D01*
X118431009Y-59142857D02*
X118431009Y-58809524D01*
X118859580Y-60380952D02*
X118907200Y-60333333D01*
X118907200Y-60333333D02*
X118954819Y-60190476D01*
X118954819Y-60190476D02*
X118954819Y-60095238D01*
X118954819Y-60095238D02*
X118907200Y-59952381D01*
X118907200Y-59952381D02*
X118811961Y-59857143D01*
X118811961Y-59857143D02*
X118716723Y-59809524D01*
X118716723Y-59809524D02*
X118526247Y-59761905D01*
X118526247Y-59761905D02*
X118383390Y-59761905D01*
X118383390Y-59761905D02*
X118192914Y-59809524D01*
X118192914Y-59809524D02*
X118097676Y-59857143D01*
X118097676Y-59857143D02*
X118002438Y-59952381D01*
X118002438Y-59952381D02*
X117954819Y-60095238D01*
X117954819Y-60095238D02*
X117954819Y-60190476D01*
X117954819Y-60190476D02*
X118002438Y-60333333D01*
X118002438Y-60333333D02*
X118050057Y-60380952D01*
X117954819Y-61285714D02*
X117954819Y-60809524D01*
X117954819Y-60809524D02*
X118431009Y-60761905D01*
X118431009Y-60761905D02*
X118383390Y-60809524D01*
X118383390Y-60809524D02*
X118335771Y-60904762D01*
X118335771Y-60904762D02*
X118335771Y-61142857D01*
X118335771Y-61142857D02*
X118383390Y-61238095D01*
X118383390Y-61238095D02*
X118431009Y-61285714D01*
X118431009Y-61285714D02*
X118526247Y-61333333D01*
X118526247Y-61333333D02*
X118764342Y-61333333D01*
X118764342Y-61333333D02*
X118859580Y-61285714D01*
X118859580Y-61285714D02*
X118907200Y-61238095D01*
X118907200Y-61238095D02*
X118954819Y-61142857D01*
X118954819Y-61142857D02*
X118954819Y-60904762D01*
X118954819Y-60904762D02*
X118907200Y-60809524D01*
X118907200Y-60809524D02*
X118859580Y-60761905D01*
X118288152Y-62190476D02*
X118954819Y-62190476D01*
X117907200Y-61952381D02*
X118621485Y-61714286D01*
X118621485Y-61714286D02*
X118621485Y-62333333D01*
X117954819Y-62619048D02*
X117954819Y-63285714D01*
X117954819Y-63285714D02*
X118954819Y-62857143D01*
X123966666Y-82854819D02*
X124538094Y-82854819D01*
X124252380Y-82854819D02*
X124252380Y-81854819D01*
X124252380Y-81854819D02*
X124347618Y-81997676D01*
X124347618Y-81997676D02*
X124442856Y-82092914D01*
X124442856Y-82092914D02*
X124538094Y-82140533D01*
X123347618Y-81854819D02*
X123252380Y-81854819D01*
X123252380Y-81854819D02*
X123157142Y-81902438D01*
X123157142Y-81902438D02*
X123109523Y-81950057D01*
X123109523Y-81950057D02*
X123061904Y-82045295D01*
X123061904Y-82045295D02*
X123014285Y-82235771D01*
X123014285Y-82235771D02*
X123014285Y-82473866D01*
X123014285Y-82473866D02*
X123061904Y-82664342D01*
X123061904Y-82664342D02*
X123109523Y-82759580D01*
X123109523Y-82759580D02*
X123157142Y-82807200D01*
X123157142Y-82807200D02*
X123252380Y-82854819D01*
X123252380Y-82854819D02*
X123347618Y-82854819D01*
X123347618Y-82854819D02*
X123442856Y-82807200D01*
X123442856Y-82807200D02*
X123490475Y-82759580D01*
X123490475Y-82759580D02*
X123538094Y-82664342D01*
X123538094Y-82664342D02*
X123585713Y-82473866D01*
X123585713Y-82473866D02*
X123585713Y-82235771D01*
X123585713Y-82235771D02*
X123538094Y-82045295D01*
X123538094Y-82045295D02*
X123490475Y-81950057D01*
X123490475Y-81950057D02*
X123442856Y-81902438D01*
X123442856Y-81902438D02*
X123347618Y-81854819D01*
X122395237Y-81854819D02*
X122299999Y-81854819D01*
X122299999Y-81854819D02*
X122204761Y-81902438D01*
X122204761Y-81902438D02*
X122157142Y-81950057D01*
X122157142Y-81950057D02*
X122109523Y-82045295D01*
X122109523Y-82045295D02*
X122061904Y-82235771D01*
X122061904Y-82235771D02*
X122061904Y-82473866D01*
X122061904Y-82473866D02*
X122109523Y-82664342D01*
X122109523Y-82664342D02*
X122157142Y-82759580D01*
X122157142Y-82759580D02*
X122204761Y-82807200D01*
X122204761Y-82807200D02*
X122299999Y-82854819D01*
X122299999Y-82854819D02*
X122395237Y-82854819D01*
X122395237Y-82854819D02*
X122490475Y-82807200D01*
X122490475Y-82807200D02*
X122538094Y-82759580D01*
X122538094Y-82759580D02*
X122585713Y-82664342D01*
X122585713Y-82664342D02*
X122633332Y-82473866D01*
X122633332Y-82473866D02*
X122633332Y-82235771D01*
X122633332Y-82235771D02*
X122585713Y-82045295D01*
X122585713Y-82045295D02*
X122538094Y-81950057D01*
X122538094Y-81950057D02*
X122490475Y-81902438D01*
X122490475Y-81902438D02*
X122395237Y-81854819D01*
X145166666Y-49154819D02*
X145738094Y-49154819D01*
X145452380Y-49154819D02*
X145452380Y-48154819D01*
X145452380Y-48154819D02*
X145547618Y-48297676D01*
X145547618Y-48297676D02*
X145642856Y-48392914D01*
X145642856Y-48392914D02*
X145738094Y-48440533D01*
X144261904Y-48154819D02*
X144738094Y-48154819D01*
X144738094Y-48154819D02*
X144785713Y-48631009D01*
X144785713Y-48631009D02*
X144738094Y-48583390D01*
X144738094Y-48583390D02*
X144642856Y-48535771D01*
X144642856Y-48535771D02*
X144404761Y-48535771D01*
X144404761Y-48535771D02*
X144309523Y-48583390D01*
X144309523Y-48583390D02*
X144261904Y-48631009D01*
X144261904Y-48631009D02*
X144214285Y-48726247D01*
X144214285Y-48726247D02*
X144214285Y-48964342D01*
X144214285Y-48964342D02*
X144261904Y-49059580D01*
X144261904Y-49059580D02*
X144309523Y-49107200D01*
X144309523Y-49107200D02*
X144404761Y-49154819D01*
X144404761Y-49154819D02*
X144642856Y-49154819D01*
X144642856Y-49154819D02*
X144738094Y-49107200D01*
X144738094Y-49107200D02*
X144785713Y-49059580D01*
X143595237Y-48154819D02*
X143499999Y-48154819D01*
X143499999Y-48154819D02*
X143404761Y-48202438D01*
X143404761Y-48202438D02*
X143357142Y-48250057D01*
X143357142Y-48250057D02*
X143309523Y-48345295D01*
X143309523Y-48345295D02*
X143261904Y-48535771D01*
X143261904Y-48535771D02*
X143261904Y-48773866D01*
X143261904Y-48773866D02*
X143309523Y-48964342D01*
X143309523Y-48964342D02*
X143357142Y-49059580D01*
X143357142Y-49059580D02*
X143404761Y-49107200D01*
X143404761Y-49107200D02*
X143499999Y-49154819D01*
X143499999Y-49154819D02*
X143595237Y-49154819D01*
X143595237Y-49154819D02*
X143690475Y-49107200D01*
X143690475Y-49107200D02*
X143738094Y-49059580D01*
X143738094Y-49059580D02*
X143785713Y-48964342D01*
X143785713Y-48964342D02*
X143833332Y-48773866D01*
X143833332Y-48773866D02*
X143833332Y-48535771D01*
X143833332Y-48535771D02*
X143785713Y-48345295D01*
X143785713Y-48345295D02*
X143738094Y-48250057D01*
X143738094Y-48250057D02*
X143690475Y-48202438D01*
X143690475Y-48202438D02*
X143595237Y-48154819D01*
X114431009Y-86771428D02*
X114478628Y-86914285D01*
X114478628Y-86914285D02*
X114526247Y-86961904D01*
X114526247Y-86961904D02*
X114621485Y-87009523D01*
X114621485Y-87009523D02*
X114764342Y-87009523D01*
X114764342Y-87009523D02*
X114859580Y-86961904D01*
X114859580Y-86961904D02*
X114907200Y-86914285D01*
X114907200Y-86914285D02*
X114954819Y-86819047D01*
X114954819Y-86819047D02*
X114954819Y-86438095D01*
X114954819Y-86438095D02*
X113954819Y-86438095D01*
X113954819Y-86438095D02*
X113954819Y-86771428D01*
X113954819Y-86771428D02*
X114002438Y-86866666D01*
X114002438Y-86866666D02*
X114050057Y-86914285D01*
X114050057Y-86914285D02*
X114145295Y-86961904D01*
X114145295Y-86961904D02*
X114240533Y-86961904D01*
X114240533Y-86961904D02*
X114335771Y-86914285D01*
X114335771Y-86914285D02*
X114383390Y-86866666D01*
X114383390Y-86866666D02*
X114431009Y-86771428D01*
X114431009Y-86771428D02*
X114431009Y-86438095D01*
X114288152Y-87866666D02*
X114954819Y-87866666D01*
X114288152Y-87438095D02*
X114811961Y-87438095D01*
X114811961Y-87438095D02*
X114907200Y-87485714D01*
X114907200Y-87485714D02*
X114954819Y-87580952D01*
X114954819Y-87580952D02*
X114954819Y-87723809D01*
X114954819Y-87723809D02*
X114907200Y-87819047D01*
X114907200Y-87819047D02*
X114859580Y-87866666D01*
X114288152Y-88247619D02*
X114288152Y-88771428D01*
X114288152Y-88771428D02*
X114954819Y-88247619D01*
X114954819Y-88247619D02*
X114954819Y-88771428D01*
X114288152Y-89057143D02*
X114288152Y-89580952D01*
X114288152Y-89580952D02*
X114954819Y-89057143D01*
X114954819Y-89057143D02*
X114954819Y-89580952D01*
X114907200Y-90342857D02*
X114954819Y-90247619D01*
X114954819Y-90247619D02*
X114954819Y-90057143D01*
X114954819Y-90057143D02*
X114907200Y-89961905D01*
X114907200Y-89961905D02*
X114811961Y-89914286D01*
X114811961Y-89914286D02*
X114431009Y-89914286D01*
X114431009Y-89914286D02*
X114335771Y-89961905D01*
X114335771Y-89961905D02*
X114288152Y-90057143D01*
X114288152Y-90057143D02*
X114288152Y-90247619D01*
X114288152Y-90247619D02*
X114335771Y-90342857D01*
X114335771Y-90342857D02*
X114431009Y-90390476D01*
X114431009Y-90390476D02*
X114526247Y-90390476D01*
X114526247Y-90390476D02*
X114621485Y-89914286D01*
X114954819Y-90819048D02*
X114288152Y-90819048D01*
X114478628Y-90819048D02*
X114383390Y-90866667D01*
X114383390Y-90866667D02*
X114335771Y-90914286D01*
X114335771Y-90914286D02*
X114288152Y-91009524D01*
X114288152Y-91009524D02*
X114288152Y-91104762D01*
X145166666Y-43254819D02*
X145738094Y-43254819D01*
X145452380Y-43254819D02*
X145452380Y-42254819D01*
X145452380Y-42254819D02*
X145547618Y-42397676D01*
X145547618Y-42397676D02*
X145642856Y-42492914D01*
X145642856Y-42492914D02*
X145738094Y-42540533D01*
X144547618Y-42254819D02*
X144452380Y-42254819D01*
X144452380Y-42254819D02*
X144357142Y-42302438D01*
X144357142Y-42302438D02*
X144309523Y-42350057D01*
X144309523Y-42350057D02*
X144261904Y-42445295D01*
X144261904Y-42445295D02*
X144214285Y-42635771D01*
X144214285Y-42635771D02*
X144214285Y-42873866D01*
X144214285Y-42873866D02*
X144261904Y-43064342D01*
X144261904Y-43064342D02*
X144309523Y-43159580D01*
X144309523Y-43159580D02*
X144357142Y-43207200D01*
X144357142Y-43207200D02*
X144452380Y-43254819D01*
X144452380Y-43254819D02*
X144547618Y-43254819D01*
X144547618Y-43254819D02*
X144642856Y-43207200D01*
X144642856Y-43207200D02*
X144690475Y-43159580D01*
X144690475Y-43159580D02*
X144738094Y-43064342D01*
X144738094Y-43064342D02*
X144785713Y-42873866D01*
X144785713Y-42873866D02*
X144785713Y-42635771D01*
X144785713Y-42635771D02*
X144738094Y-42445295D01*
X144738094Y-42445295D02*
X144690475Y-42350057D01*
X144690475Y-42350057D02*
X144642856Y-42302438D01*
X144642856Y-42302438D02*
X144547618Y-42254819D01*
X143595237Y-42254819D02*
X143499999Y-42254819D01*
X143499999Y-42254819D02*
X143404761Y-42302438D01*
X143404761Y-42302438D02*
X143357142Y-42350057D01*
X143357142Y-42350057D02*
X143309523Y-42445295D01*
X143309523Y-42445295D02*
X143261904Y-42635771D01*
X143261904Y-42635771D02*
X143261904Y-42873866D01*
X143261904Y-42873866D02*
X143309523Y-43064342D01*
X143309523Y-43064342D02*
X143357142Y-43159580D01*
X143357142Y-43159580D02*
X143404761Y-43207200D01*
X143404761Y-43207200D02*
X143499999Y-43254819D01*
X143499999Y-43254819D02*
X143595237Y-43254819D01*
X143595237Y-43254819D02*
X143690475Y-43207200D01*
X143690475Y-43207200D02*
X143738094Y-43159580D01*
X143738094Y-43159580D02*
X143785713Y-43064342D01*
X143785713Y-43064342D02*
X143833332Y-42873866D01*
X143833332Y-42873866D02*
X143833332Y-42635771D01*
X143833332Y-42635771D02*
X143785713Y-42445295D01*
X143785713Y-42445295D02*
X143738094Y-42350057D01*
X143738094Y-42350057D02*
X143690475Y-42302438D01*
X143690475Y-42302438D02*
X143595237Y-42254819D01*
X119254819Y-72557142D02*
X119254819Y-71985714D01*
X119254819Y-72271428D02*
X118254819Y-72271428D01*
X118254819Y-72271428D02*
X118397676Y-72176190D01*
X118397676Y-72176190D02*
X118492914Y-72080952D01*
X118492914Y-72080952D02*
X118540533Y-71985714D01*
X118254819Y-73176190D02*
X118254819Y-73271428D01*
X118254819Y-73271428D02*
X118302438Y-73366666D01*
X118302438Y-73366666D02*
X118350057Y-73414285D01*
X118350057Y-73414285D02*
X118445295Y-73461904D01*
X118445295Y-73461904D02*
X118635771Y-73509523D01*
X118635771Y-73509523D02*
X118873866Y-73509523D01*
X118873866Y-73509523D02*
X119064342Y-73461904D01*
X119064342Y-73461904D02*
X119159580Y-73414285D01*
X119159580Y-73414285D02*
X119207200Y-73366666D01*
X119207200Y-73366666D02*
X119254819Y-73271428D01*
X119254819Y-73271428D02*
X119254819Y-73176190D01*
X119254819Y-73176190D02*
X119207200Y-73080952D01*
X119207200Y-73080952D02*
X119159580Y-73033333D01*
X119159580Y-73033333D02*
X119064342Y-72985714D01*
X119064342Y-72985714D02*
X118873866Y-72938095D01*
X118873866Y-72938095D02*
X118635771Y-72938095D01*
X118635771Y-72938095D02*
X118445295Y-72985714D01*
X118445295Y-72985714D02*
X118350057Y-73033333D01*
X118350057Y-73033333D02*
X118302438Y-73080952D01*
X118302438Y-73080952D02*
X118254819Y-73176190D01*
X118254819Y-74128571D02*
X118254819Y-74223809D01*
X118254819Y-74223809D02*
X118302438Y-74319047D01*
X118302438Y-74319047D02*
X118350057Y-74366666D01*
X118350057Y-74366666D02*
X118445295Y-74414285D01*
X118445295Y-74414285D02*
X118635771Y-74461904D01*
X118635771Y-74461904D02*
X118873866Y-74461904D01*
X118873866Y-74461904D02*
X119064342Y-74414285D01*
X119064342Y-74414285D02*
X119159580Y-74366666D01*
X119159580Y-74366666D02*
X119207200Y-74319047D01*
X119207200Y-74319047D02*
X119254819Y-74223809D01*
X119254819Y-74223809D02*
X119254819Y-74128571D01*
X119254819Y-74128571D02*
X119207200Y-74033333D01*
X119207200Y-74033333D02*
X119159580Y-73985714D01*
X119159580Y-73985714D02*
X119064342Y-73938095D01*
X119064342Y-73938095D02*
X118873866Y-73890476D01*
X118873866Y-73890476D02*
X118635771Y-73890476D01*
X118635771Y-73890476D02*
X118445295Y-73938095D01*
X118445295Y-73938095D02*
X118350057Y-73985714D01*
X118350057Y-73985714D02*
X118302438Y-74033333D01*
X118302438Y-74033333D02*
X118254819Y-74128571D01*
X118254819Y-75080952D02*
X118254819Y-75176190D01*
X118254819Y-75176190D02*
X118302438Y-75271428D01*
X118302438Y-75271428D02*
X118350057Y-75319047D01*
X118350057Y-75319047D02*
X118445295Y-75366666D01*
X118445295Y-75366666D02*
X118635771Y-75414285D01*
X118635771Y-75414285D02*
X118873866Y-75414285D01*
X118873866Y-75414285D02*
X119064342Y-75366666D01*
X119064342Y-75366666D02*
X119159580Y-75319047D01*
X119159580Y-75319047D02*
X119207200Y-75271428D01*
X119207200Y-75271428D02*
X119254819Y-75176190D01*
X119254819Y-75176190D02*
X119254819Y-75080952D01*
X119254819Y-75080952D02*
X119207200Y-74985714D01*
X119207200Y-74985714D02*
X119159580Y-74938095D01*
X119159580Y-74938095D02*
X119064342Y-74890476D01*
X119064342Y-74890476D02*
X118873866Y-74842857D01*
X118873866Y-74842857D02*
X118635771Y-74842857D01*
X118635771Y-74842857D02*
X118445295Y-74890476D01*
X118445295Y-74890476D02*
X118350057Y-74938095D01*
X118350057Y-74938095D02*
X118302438Y-74985714D01*
X118302438Y-74985714D02*
X118254819Y-75080952D01*
X110454819Y-72757142D02*
X110454819Y-72185714D01*
X110454819Y-72471428D02*
X109454819Y-72471428D01*
X109454819Y-72471428D02*
X109597676Y-72376190D01*
X109597676Y-72376190D02*
X109692914Y-72280952D01*
X109692914Y-72280952D02*
X109740533Y-72185714D01*
X109454819Y-73376190D02*
X109454819Y-73471428D01*
X109454819Y-73471428D02*
X109502438Y-73566666D01*
X109502438Y-73566666D02*
X109550057Y-73614285D01*
X109550057Y-73614285D02*
X109645295Y-73661904D01*
X109645295Y-73661904D02*
X109835771Y-73709523D01*
X109835771Y-73709523D02*
X110073866Y-73709523D01*
X110073866Y-73709523D02*
X110264342Y-73661904D01*
X110264342Y-73661904D02*
X110359580Y-73614285D01*
X110359580Y-73614285D02*
X110407200Y-73566666D01*
X110407200Y-73566666D02*
X110454819Y-73471428D01*
X110454819Y-73471428D02*
X110454819Y-73376190D01*
X110454819Y-73376190D02*
X110407200Y-73280952D01*
X110407200Y-73280952D02*
X110359580Y-73233333D01*
X110359580Y-73233333D02*
X110264342Y-73185714D01*
X110264342Y-73185714D02*
X110073866Y-73138095D01*
X110073866Y-73138095D02*
X109835771Y-73138095D01*
X109835771Y-73138095D02*
X109645295Y-73185714D01*
X109645295Y-73185714D02*
X109550057Y-73233333D01*
X109550057Y-73233333D02*
X109502438Y-73280952D01*
X109502438Y-73280952D02*
X109454819Y-73376190D01*
X109454819Y-74328571D02*
X109454819Y-74423809D01*
X109454819Y-74423809D02*
X109502438Y-74519047D01*
X109502438Y-74519047D02*
X109550057Y-74566666D01*
X109550057Y-74566666D02*
X109645295Y-74614285D01*
X109645295Y-74614285D02*
X109835771Y-74661904D01*
X109835771Y-74661904D02*
X110073866Y-74661904D01*
X110073866Y-74661904D02*
X110264342Y-74614285D01*
X110264342Y-74614285D02*
X110359580Y-74566666D01*
X110359580Y-74566666D02*
X110407200Y-74519047D01*
X110407200Y-74519047D02*
X110454819Y-74423809D01*
X110454819Y-74423809D02*
X110454819Y-74328571D01*
X110454819Y-74328571D02*
X110407200Y-74233333D01*
X110407200Y-74233333D02*
X110359580Y-74185714D01*
X110359580Y-74185714D02*
X110264342Y-74138095D01*
X110264342Y-74138095D02*
X110073866Y-74090476D01*
X110073866Y-74090476D02*
X109835771Y-74090476D01*
X109835771Y-74090476D02*
X109645295Y-74138095D01*
X109645295Y-74138095D02*
X109550057Y-74185714D01*
X109550057Y-74185714D02*
X109502438Y-74233333D01*
X109502438Y-74233333D02*
X109454819Y-74328571D01*
X109454819Y-75280952D02*
X109454819Y-75376190D01*
X109454819Y-75376190D02*
X109502438Y-75471428D01*
X109502438Y-75471428D02*
X109550057Y-75519047D01*
X109550057Y-75519047D02*
X109645295Y-75566666D01*
X109645295Y-75566666D02*
X109835771Y-75614285D01*
X109835771Y-75614285D02*
X110073866Y-75614285D01*
X110073866Y-75614285D02*
X110264342Y-75566666D01*
X110264342Y-75566666D02*
X110359580Y-75519047D01*
X110359580Y-75519047D02*
X110407200Y-75471428D01*
X110407200Y-75471428D02*
X110454819Y-75376190D01*
X110454819Y-75376190D02*
X110454819Y-75280952D01*
X110454819Y-75280952D02*
X110407200Y-75185714D01*
X110407200Y-75185714D02*
X110359580Y-75138095D01*
X110359580Y-75138095D02*
X110264342Y-75090476D01*
X110264342Y-75090476D02*
X110073866Y-75042857D01*
X110073866Y-75042857D02*
X109835771Y-75042857D01*
X109835771Y-75042857D02*
X109645295Y-75090476D01*
X109645295Y-75090476D02*
X109550057Y-75138095D01*
X109550057Y-75138095D02*
X109502438Y-75185714D01*
X109502438Y-75185714D02*
X109454819Y-75280952D01*
X108054819Y-75833333D02*
X108054819Y-75261905D01*
X108054819Y-75547619D02*
X107054819Y-75547619D01*
X107054819Y-75547619D02*
X107197676Y-75452381D01*
X107197676Y-75452381D02*
X107292914Y-75357143D01*
X107292914Y-75357143D02*
X107340533Y-75261905D01*
X107054819Y-76738095D02*
X107054819Y-76261905D01*
X107054819Y-76261905D02*
X107531009Y-76214286D01*
X107531009Y-76214286D02*
X107483390Y-76261905D01*
X107483390Y-76261905D02*
X107435771Y-76357143D01*
X107435771Y-76357143D02*
X107435771Y-76595238D01*
X107435771Y-76595238D02*
X107483390Y-76690476D01*
X107483390Y-76690476D02*
X107531009Y-76738095D01*
X107531009Y-76738095D02*
X107626247Y-76785714D01*
X107626247Y-76785714D02*
X107864342Y-76785714D01*
X107864342Y-76785714D02*
X107959580Y-76738095D01*
X107959580Y-76738095D02*
X108007200Y-76690476D01*
X108007200Y-76690476D02*
X108054819Y-76595238D01*
X108054819Y-76595238D02*
X108054819Y-76357143D01*
X108054819Y-76357143D02*
X108007200Y-76261905D01*
X108007200Y-76261905D02*
X107959580Y-76214286D01*
X107054819Y-77404762D02*
X107054819Y-77500000D01*
X107054819Y-77500000D02*
X107102438Y-77595238D01*
X107102438Y-77595238D02*
X107150057Y-77642857D01*
X107150057Y-77642857D02*
X107245295Y-77690476D01*
X107245295Y-77690476D02*
X107435771Y-77738095D01*
X107435771Y-77738095D02*
X107673866Y-77738095D01*
X107673866Y-77738095D02*
X107864342Y-77690476D01*
X107864342Y-77690476D02*
X107959580Y-77642857D01*
X107959580Y-77642857D02*
X108007200Y-77595238D01*
X108007200Y-77595238D02*
X108054819Y-77500000D01*
X108054819Y-77500000D02*
X108054819Y-77404762D01*
X108054819Y-77404762D02*
X108007200Y-77309524D01*
X108007200Y-77309524D02*
X107959580Y-77261905D01*
X107959580Y-77261905D02*
X107864342Y-77214286D01*
X107864342Y-77214286D02*
X107673866Y-77166667D01*
X107673866Y-77166667D02*
X107435771Y-77166667D01*
X107435771Y-77166667D02*
X107245295Y-77214286D01*
X107245295Y-77214286D02*
X107150057Y-77261905D01*
X107150057Y-77261905D02*
X107102438Y-77309524D01*
X107102438Y-77309524D02*
X107054819Y-77404762D01*
X130931009Y-61242857D02*
X130931009Y-61576190D01*
X131454819Y-61719047D02*
X131454819Y-61242857D01*
X131454819Y-61242857D02*
X130454819Y-61242857D01*
X130454819Y-61242857D02*
X130454819Y-61719047D01*
X131407200Y-62100000D02*
X131454819Y-62242857D01*
X131454819Y-62242857D02*
X131454819Y-62480952D01*
X131454819Y-62480952D02*
X131407200Y-62576190D01*
X131407200Y-62576190D02*
X131359580Y-62623809D01*
X131359580Y-62623809D02*
X131264342Y-62671428D01*
X131264342Y-62671428D02*
X131169104Y-62671428D01*
X131169104Y-62671428D02*
X131073866Y-62623809D01*
X131073866Y-62623809D02*
X131026247Y-62576190D01*
X131026247Y-62576190D02*
X130978628Y-62480952D01*
X130978628Y-62480952D02*
X130931009Y-62290476D01*
X130931009Y-62290476D02*
X130883390Y-62195238D01*
X130883390Y-62195238D02*
X130835771Y-62147619D01*
X130835771Y-62147619D02*
X130740533Y-62100000D01*
X130740533Y-62100000D02*
X130645295Y-62100000D01*
X130645295Y-62100000D02*
X130550057Y-62147619D01*
X130550057Y-62147619D02*
X130502438Y-62195238D01*
X130502438Y-62195238D02*
X130454819Y-62290476D01*
X130454819Y-62290476D02*
X130454819Y-62528571D01*
X130454819Y-62528571D02*
X130502438Y-62671428D01*
X131454819Y-63100000D02*
X130454819Y-63100000D01*
X130454819Y-63100000D02*
X130454819Y-63480952D01*
X130454819Y-63480952D02*
X130502438Y-63576190D01*
X130502438Y-63576190D02*
X130550057Y-63623809D01*
X130550057Y-63623809D02*
X130645295Y-63671428D01*
X130645295Y-63671428D02*
X130788152Y-63671428D01*
X130788152Y-63671428D02*
X130883390Y-63623809D01*
X130883390Y-63623809D02*
X130931009Y-63576190D01*
X130931009Y-63576190D02*
X130978628Y-63480952D01*
X130978628Y-63480952D02*
X130978628Y-63100000D01*
X130454819Y-64004762D02*
X130454819Y-64623809D01*
X130454819Y-64623809D02*
X130835771Y-64290476D01*
X130835771Y-64290476D02*
X130835771Y-64433333D01*
X130835771Y-64433333D02*
X130883390Y-64528571D01*
X130883390Y-64528571D02*
X130931009Y-64576190D01*
X130931009Y-64576190D02*
X131026247Y-64623809D01*
X131026247Y-64623809D02*
X131264342Y-64623809D01*
X131264342Y-64623809D02*
X131359580Y-64576190D01*
X131359580Y-64576190D02*
X131407200Y-64528571D01*
X131407200Y-64528571D02*
X131454819Y-64433333D01*
X131454819Y-64433333D02*
X131454819Y-64147619D01*
X131454819Y-64147619D02*
X131407200Y-64052381D01*
X131407200Y-64052381D02*
X131359580Y-64004762D01*
X130550057Y-65004762D02*
X130502438Y-65052381D01*
X130502438Y-65052381D02*
X130454819Y-65147619D01*
X130454819Y-65147619D02*
X130454819Y-65385714D01*
X130454819Y-65385714D02*
X130502438Y-65480952D01*
X130502438Y-65480952D02*
X130550057Y-65528571D01*
X130550057Y-65528571D02*
X130645295Y-65576190D01*
X130645295Y-65576190D02*
X130740533Y-65576190D01*
X130740533Y-65576190D02*
X130883390Y-65528571D01*
X130883390Y-65528571D02*
X131454819Y-64957143D01*
X131454819Y-64957143D02*
X131454819Y-65576190D01*
X131359580Y-67338095D02*
X131407200Y-67290476D01*
X131407200Y-67290476D02*
X131454819Y-67147619D01*
X131454819Y-67147619D02*
X131454819Y-67052381D01*
X131454819Y-67052381D02*
X131407200Y-66909524D01*
X131407200Y-66909524D02*
X131311961Y-66814286D01*
X131311961Y-66814286D02*
X131216723Y-66766667D01*
X131216723Y-66766667D02*
X131026247Y-66719048D01*
X131026247Y-66719048D02*
X130883390Y-66719048D01*
X130883390Y-66719048D02*
X130692914Y-66766667D01*
X130692914Y-66766667D02*
X130597676Y-66814286D01*
X130597676Y-66814286D02*
X130502438Y-66909524D01*
X130502438Y-66909524D02*
X130454819Y-67052381D01*
X130454819Y-67052381D02*
X130454819Y-67147619D01*
X130454819Y-67147619D02*
X130502438Y-67290476D01*
X130502438Y-67290476D02*
X130550057Y-67338095D01*
X130454819Y-67671429D02*
X130454819Y-68290476D01*
X130454819Y-68290476D02*
X130835771Y-67957143D01*
X130835771Y-67957143D02*
X130835771Y-68100000D01*
X130835771Y-68100000D02*
X130883390Y-68195238D01*
X130883390Y-68195238D02*
X130931009Y-68242857D01*
X130931009Y-68242857D02*
X131026247Y-68290476D01*
X131026247Y-68290476D02*
X131264342Y-68290476D01*
X131264342Y-68290476D02*
X131359580Y-68242857D01*
X131359580Y-68242857D02*
X131407200Y-68195238D01*
X131407200Y-68195238D02*
X131454819Y-68100000D01*
X131454819Y-68100000D02*
X131454819Y-67814286D01*
X131454819Y-67814286D02*
X131407200Y-67719048D01*
X131407200Y-67719048D02*
X131359580Y-67671429D01*
X131407200Y-69433334D02*
X131454819Y-69528572D01*
X131454819Y-69528572D02*
X131454819Y-69719048D01*
X131454819Y-69719048D02*
X131407200Y-69814286D01*
X131407200Y-69814286D02*
X131311961Y-69861905D01*
X131311961Y-69861905D02*
X131264342Y-69861905D01*
X131264342Y-69861905D02*
X131169104Y-69814286D01*
X131169104Y-69814286D02*
X131121485Y-69719048D01*
X131121485Y-69719048D02*
X131121485Y-69576191D01*
X131121485Y-69576191D02*
X131073866Y-69480953D01*
X131073866Y-69480953D02*
X130978628Y-69433334D01*
X130978628Y-69433334D02*
X130931009Y-69433334D01*
X130931009Y-69433334D02*
X130835771Y-69480953D01*
X130835771Y-69480953D02*
X130788152Y-69576191D01*
X130788152Y-69576191D02*
X130788152Y-69719048D01*
X130788152Y-69719048D02*
X130835771Y-69814286D01*
X130788152Y-70719048D02*
X131454819Y-70719048D01*
X130788152Y-70290477D02*
X131311961Y-70290477D01*
X131311961Y-70290477D02*
X131407200Y-70338096D01*
X131407200Y-70338096D02*
X131454819Y-70433334D01*
X131454819Y-70433334D02*
X131454819Y-70576191D01*
X131454819Y-70576191D02*
X131407200Y-70671429D01*
X131407200Y-70671429D02*
X131359580Y-70719048D01*
X130788152Y-71195239D02*
X131788152Y-71195239D01*
X130835771Y-71195239D02*
X130788152Y-71290477D01*
X130788152Y-71290477D02*
X130788152Y-71480953D01*
X130788152Y-71480953D02*
X130835771Y-71576191D01*
X130835771Y-71576191D02*
X130883390Y-71623810D01*
X130883390Y-71623810D02*
X130978628Y-71671429D01*
X130978628Y-71671429D02*
X131264342Y-71671429D01*
X131264342Y-71671429D02*
X131359580Y-71623810D01*
X131359580Y-71623810D02*
X131407200Y-71576191D01*
X131407200Y-71576191D02*
X131454819Y-71480953D01*
X131454819Y-71480953D02*
X131454819Y-71290477D01*
X131454819Y-71290477D02*
X131407200Y-71195239D01*
X130788152Y-72100001D02*
X131788152Y-72100001D01*
X130835771Y-72100001D02*
X130788152Y-72195239D01*
X130788152Y-72195239D02*
X130788152Y-72385715D01*
X130788152Y-72385715D02*
X130835771Y-72480953D01*
X130835771Y-72480953D02*
X130883390Y-72528572D01*
X130883390Y-72528572D02*
X130978628Y-72576191D01*
X130978628Y-72576191D02*
X131264342Y-72576191D01*
X131264342Y-72576191D02*
X131359580Y-72528572D01*
X131359580Y-72528572D02*
X131407200Y-72480953D01*
X131407200Y-72480953D02*
X131454819Y-72385715D01*
X131454819Y-72385715D02*
X131454819Y-72195239D01*
X131454819Y-72195239D02*
X131407200Y-72100001D01*
X131407200Y-73385715D02*
X131454819Y-73290477D01*
X131454819Y-73290477D02*
X131454819Y-73100001D01*
X131454819Y-73100001D02*
X131407200Y-73004763D01*
X131407200Y-73004763D02*
X131311961Y-72957144D01*
X131311961Y-72957144D02*
X130931009Y-72957144D01*
X130931009Y-72957144D02*
X130835771Y-73004763D01*
X130835771Y-73004763D02*
X130788152Y-73100001D01*
X130788152Y-73100001D02*
X130788152Y-73290477D01*
X130788152Y-73290477D02*
X130835771Y-73385715D01*
X130835771Y-73385715D02*
X130931009Y-73433334D01*
X130931009Y-73433334D02*
X131026247Y-73433334D01*
X131026247Y-73433334D02*
X131121485Y-72957144D01*
X131454819Y-73861906D02*
X130788152Y-73861906D01*
X130978628Y-73861906D02*
X130883390Y-73909525D01*
X130883390Y-73909525D02*
X130835771Y-73957144D01*
X130835771Y-73957144D02*
X130788152Y-74052382D01*
X130788152Y-74052382D02*
X130788152Y-74147620D01*
X131454819Y-75242859D02*
X130788152Y-75242859D01*
X130883390Y-75242859D02*
X130835771Y-75290478D01*
X130835771Y-75290478D02*
X130788152Y-75385716D01*
X130788152Y-75385716D02*
X130788152Y-75528573D01*
X130788152Y-75528573D02*
X130835771Y-75623811D01*
X130835771Y-75623811D02*
X130931009Y-75671430D01*
X130931009Y-75671430D02*
X131454819Y-75671430D01*
X130931009Y-75671430D02*
X130835771Y-75719049D01*
X130835771Y-75719049D02*
X130788152Y-75814287D01*
X130788152Y-75814287D02*
X130788152Y-75957144D01*
X130788152Y-75957144D02*
X130835771Y-76052383D01*
X130835771Y-76052383D02*
X130931009Y-76100002D01*
X130931009Y-76100002D02*
X131454819Y-76100002D01*
X131454819Y-76576192D02*
X130788152Y-76576192D01*
X130454819Y-76576192D02*
X130502438Y-76528573D01*
X130502438Y-76528573D02*
X130550057Y-76576192D01*
X130550057Y-76576192D02*
X130502438Y-76623811D01*
X130502438Y-76623811D02*
X130454819Y-76576192D01*
X130454819Y-76576192D02*
X130550057Y-76576192D01*
X130788152Y-77052382D02*
X131454819Y-77052382D01*
X130883390Y-77052382D02*
X130835771Y-77100001D01*
X130835771Y-77100001D02*
X130788152Y-77195239D01*
X130788152Y-77195239D02*
X130788152Y-77338096D01*
X130788152Y-77338096D02*
X130835771Y-77433334D01*
X130835771Y-77433334D02*
X130931009Y-77480953D01*
X130931009Y-77480953D02*
X131454819Y-77480953D01*
X131454819Y-77957144D02*
X130788152Y-77957144D01*
X130454819Y-77957144D02*
X130502438Y-77909525D01*
X130502438Y-77909525D02*
X130550057Y-77957144D01*
X130550057Y-77957144D02*
X130502438Y-78004763D01*
X130502438Y-78004763D02*
X130454819Y-77957144D01*
X130454819Y-77957144D02*
X130550057Y-77957144D01*
D12*
%TO.C,U1*%
X120780000Y-57350000D02*
X120780000Y-79850000D01*
X120780000Y-79850000D02*
X138780000Y-79850000D01*
X138780000Y-57350000D02*
X120780000Y-57350000D01*
X138780000Y-79850000D02*
X138780000Y-57350000D01*
%TD*%
M02*
