%TF.GenerationSoftware,KiCad,Pcbnew,9.0.6*%
%TF.CreationDate,2026-04-06T12:22:05+03:00*%
%TF.ProjectId,pcb,7063622e-6b69-4636-9164-5f7063625858,rev?*%
%TF.SameCoordinates,Original*%
%TF.FileFunction,Soldermask,Bot*%
%TF.FilePolarity,Negative*%
%FSLAX46Y46*%
G04 Gerber Fmt 4.6, Leading zero omitted, Abs format (unit mm)*
G04 Created by KiCad (PCBNEW 9.0.6) date 2026-04-06 12:22:05*
%MOMM*%
%LPD*%
G01*
G04 APERTURE LIST*
G04 Aperture macros list*
%AMRoundRect*
0 Rectangle with rounded corners*
0 $1 Rounding radius*
0 $2 $3 $4 $5 $6 $7 $8 $9 X,Y pos of 4 corners*
0 Add a 4 corners polygon primitive as box body*
4,1,4,$2,$3,$4,$5,$6,$7,$8,$9,$2,$3,0*
0 Add four circle primitives for the rounded corners*
1,1,$1+$1,$2,$3*
1,1,$1+$1,$4,$5*
1,1,$1+$1,$6,$7*
1,1,$1+$1,$8,$9*
0 Add four rect primitives between the rounded corners*
20,1,$1+$1,$2,$3,$4,$5,0*
20,1,$1+$1,$4,$5,$6,$7,0*
20,1,$1+$1,$6,$7,$8,$9,0*
20,1,$1+$1,$8,$9,$2,$3,0*%
%AMOutline5P*
0 Free polygon, 5 corners , with rotation*
0 The origin of the aperture is its center*
0 number of corners: always 5*
0 $1 to $10 corner X, Y*
0 $11 Rotation angle, in degrees counterclockwise*
0 create outline with 5 corners*
4,1,5,$1,$2,$3,$4,$5,$6,$7,$8,$9,$10,$1,$2,$11*%
%AMOutline6P*
0 Free polygon, 6 corners , with rotation*
0 The origin of the aperture is its center*
0 number of corners: always 6*
0 $1 to $12 corner X, Y*
0 $13 Rotation angle, in degrees counterclockwise*
0 create outline with 6 corners*
4,1,6,$1,$2,$3,$4,$5,$6,$7,$8,$9,$10,$11,$12,$1,$2,$13*%
%AMOutline7P*
0 Free polygon, 7 corners , with rotation*
0 The origin of the aperture is its center*
0 number of corners: always 7*
0 $1 to $14 corner X, Y*
0 $15 Rotation angle, in degrees counterclockwise*
0 create outline with 7 corners*
4,1,7,$1,$2,$3,$4,$5,$6,$7,$8,$9,$10,$11,$12,$13,$14,$1,$2,$15*%
%AMOutline8P*
0 Free polygon, 8 corners , with rotation*
0 The origin of the aperture is its center*
0 number of corners: always 8*
0 $1 to $16 corner X, Y*
0 $17 Rotation angle, in degrees counterclockwise*
0 create outline with 8 corners*
4,1,8,$1,$2,$3,$4,$5,$6,$7,$8,$9,$10,$11,$12,$13,$14,$15,$16,$1,$2,$17*%
G04 Aperture macros list end*
%ADD10Outline5P,-0.675000X0.405000X-0.405000X0.675000X0.675000X0.675000X0.675000X-0.675000X-0.675000X-0.675000X180.000000*%
%ADD11C,1.350000*%
%ADD12Outline5P,-0.820000X0.492000X-0.492000X0.820000X0.820000X0.820000X0.820000X-0.820000X-0.820000X-0.820000X270.000000*%
%ADD13C,1.640000*%
%ADD14O,2.200000X1.700000*%
%ADD15RoundRect,0.250000X0.850000X0.600000X-0.850000X0.600000X-0.850000X-0.600000X0.850000X-0.600000X0*%
%ADD16C,1.700000*%
%ADD17RoundRect,0.250000X0.600000X-0.850000X0.600000X0.850000X-0.600000X0.850000X-0.600000X-0.850000X0*%
%ADD18O,1.700000X2.200000*%
%ADD19R,1.800000X1.800000*%
%ADD20C,1.800000*%
%ADD21C,3.200000*%
%ADD22R,1.600000X1.600000*%
%ADD23C,1.600000*%
G04 APERTURE END LIST*
D10*
%TO.C,U1*%
X136300000Y-77660000D03*
D11*
X136300000Y-75120000D03*
X136300000Y-72580000D03*
X136300000Y-70040000D03*
X136300000Y-67500000D03*
X136300000Y-64960000D03*
X136300000Y-62420000D03*
X136300000Y-59880000D03*
X120806000Y-77660000D03*
X120806000Y-75120000D03*
X120806000Y-72580000D03*
X120806000Y-70040000D03*
X120806000Y-67500000D03*
X120806000Y-64960000D03*
X120806000Y-62420000D03*
X120806000Y-59880000D03*
%TD*%
D12*
%TO.C,U2*%
X113500000Y-72820000D03*
D13*
X113500000Y-70280000D03*
X113500000Y-67740000D03*
X113500000Y-65200000D03*
X113500000Y-62660000D03*
X113500000Y-60120000D03*
X113500000Y-57580000D03*
X113500000Y-55040000D03*
%TD*%
D14*
%TO.C,J1*%
X129345000Y-90350000D03*
D15*
X129345000Y-92850000D03*
D16*
X122165000Y-90350000D03*
X122165000Y-92850000D03*
%TD*%
%TO.C,J2*%
X150255000Y-58460000D03*
X152755000Y-58460000D03*
D17*
X150255000Y-65640000D03*
D18*
X152755000Y-65640000D03*
%TD*%
D19*
%TO.C,D3*%
X103500000Y-91700000D03*
D20*
X103500000Y-89000000D03*
X103500000Y-86300000D03*
X103500000Y-83600000D03*
%TD*%
D19*
%TO.C,D4*%
X151500000Y-91550000D03*
D20*
X151500000Y-88850000D03*
X151500000Y-86150000D03*
X151500000Y-83450000D03*
%TD*%
D19*
%TO.C,D1*%
X103005000Y-50850000D03*
D20*
X103005000Y-48150000D03*
X103005000Y-45450000D03*
X103005000Y-42750000D03*
%TD*%
D19*
%TO.C,D2*%
X151905000Y-51100000D03*
D20*
X151905000Y-48400000D03*
X151905000Y-45700000D03*
X151905000Y-43000000D03*
%TD*%
D21*
%TO.C,REF\u002A\u002A*%
X139800000Y-52700000D03*
%TD*%
D20*
%TO.C,R5*%
X140595000Y-46000000D03*
X148215000Y-46000000D03*
%TD*%
%TO.C,R1*%
X113415000Y-50900000D03*
X105795000Y-50900000D03*
%TD*%
%TO.C,R10*%
X146900000Y-61900000D03*
X146900000Y-69520000D03*
%TD*%
%TO.C,R3*%
X113415000Y-42800000D03*
X105795000Y-42800000D03*
%TD*%
%TO.C,R12*%
X141700000Y-61820000D03*
X141700000Y-69440000D03*
%TD*%
%TO.C,R2*%
X113415000Y-46000000D03*
X105795000Y-46000000D03*
%TD*%
%TO.C,R11*%
X144300000Y-61900000D03*
X144300000Y-69520000D03*
%TD*%
%TO.C,R7*%
X102400000Y-72690000D03*
X102400000Y-80310000D03*
%TD*%
%TO.C,R8*%
X105000000Y-80410000D03*
X105000000Y-72790000D03*
%TD*%
%TO.C,R13*%
X139100000Y-69440000D03*
X139100000Y-61820000D03*
%TD*%
%TO.C,R6*%
X148220000Y-48700000D03*
X140600000Y-48700000D03*
%TD*%
D22*
%TO.C,BZ1*%
X138700000Y-88500000D03*
D23*
X146300000Y-88500000D03*
%TD*%
D20*
%TO.C,R4*%
X140595000Y-42800000D03*
X148215000Y-42800000D03*
%TD*%
%TO.C,R9*%
X107600000Y-80310000D03*
X107600000Y-72690000D03*
%TD*%
D21*
%TO.C,REF\u002A\u002A*%
X114600000Y-80500000D03*
%TD*%
M02*
