M48
; DRILL file {KiCad 9.0.6} date 2026-06-29T19:27:08+0300
; FORMAT={-:-/ absolute / metric / decimal}
; #@! TF.CreationDate,2026-06-29T19:27:08+03:00
; #@! TF.GenerationSoftware,Kicad,Pcbnew,9.0.6
; #@! TF.FileFunction,Plated,1,2,PTH
FMAT,2
METRIC
; #@! TA.AperFunction,Plated,PTH,ComponentDrill
T1C0.800
; #@! TA.AperFunction,Plated,PTH,ComponentDrill
T2C0.900
; #@! TA.AperFunction,Plated,PTH,ComponentDrill
T3C1.000
%
G90
G05
T1
X107.4Y-58.33
X107.4Y-60.87
X107.4Y-63.41
X112.2Y-58.33
X112.2Y-60.87
X112.2Y-63.41
X117.0Y-58.13
X117.0Y-60.67
X117.0Y-63.21
T2
X102.4Y-72.4
X102.4Y-80.02
X103.005Y-43.0
X103.005Y-45.7
X103.005Y-48.4
X103.005Y-51.1
X103.5Y-83.6
X103.5Y-86.3
X103.5Y-89.0
X103.5Y-91.7
X105.0Y-72.29
X105.0Y-79.91
X105.795Y-42.8
X105.795Y-46.0
X105.795Y-48.7
X107.6Y-72.19
X107.6Y-79.81
X110.0Y-70.39
X110.0Y-78.01
X113.415Y-42.8
X113.415Y-46.0
X113.415Y-48.7
X114.4Y-70.19
X114.4Y-77.81
X118.8Y-70.19
X118.8Y-77.81
X119.59Y-82.4
X121.906Y-58.44
X121.906Y-60.98
X121.906Y-63.52
X121.906Y-66.06
X121.906Y-68.6
X121.906Y-71.14
X121.906Y-73.68
X121.906Y-76.22
X127.21Y-82.4
X137.4Y-58.44
X137.4Y-60.98
X137.4Y-63.52
X137.4Y-66.06
X137.4Y-68.6
X137.4Y-71.14
X137.4Y-73.68
X137.4Y-76.22
X140.595Y-42.8
X140.595Y-46.0
X140.6Y-48.7
X141.1Y-55.98
X141.1Y-58.52
X141.1Y-61.06
X141.1Y-63.6
X141.1Y-66.14
X141.1Y-68.68
X141.1Y-71.22
X141.1Y-73.76
X147.45Y-71.125
X147.45Y-78.745
X148.215Y-42.8
X148.215Y-46.0
X148.22Y-48.7
X150.05Y-71.205
X150.05Y-78.825
X151.5Y-83.45
X151.5Y-86.15
X151.5Y-88.85
X151.5Y-91.55
X151.905Y-43.0
X151.905Y-45.7
X151.905Y-48.4
X151.905Y-51.1
X152.65Y-71.205
X152.65Y-78.825
T3
X130.02Y-92.3
X132.56Y-92.3
X135.1Y-92.3
T3
X111.8Y-88.6G85X110.8Y-88.6
G05
X119.4Y-88.6G85X118.4Y-88.6
G05
M30
