%TF.GenerationSoftware,KiCad,Pcbnew,9.0.6*%
%TF.CreationDate,2026-04-06T12:22:05+03:00*%
%TF.ProjectId,pcb,7063622e-6b69-4636-9164-5f7063625858,rev?*%
%TF.SameCoordinates,Original*%
%TF.FileFunction,Copper,L2,Bot*%
%TF.FilePolarity,Positive*%
%FSLAX46Y46*%
G04 Gerber Fmt 4.6, Leading zero omitted, Abs format (unit mm)*
G04 Created by KiCad (PCBNEW 9.0.6) date 2026-04-06 12:22:05*
%MOMM*%
%LPD*%
G01*
G04 APERTURE LIST*
G04 Aperture macros list*
%AMRoundRect*
0 Rectangle with rounded corners*
0 $1 Rounding radius*
0 $2 $3 $4 $5 $6 $7 $8 $9 X,Y pos of 4 corners*
0 Add a 4 corners polygon primitive as box body*
4,1,4,$2,$3,$4,$5,$6,$7,$8,$9,$2,$3,0*
0 Add four circle primitives for the rounded corners*
1,1,$1+$1,$2,$3*
1,1,$1+$1,$4,$5*
1,1,$1+$1,$6,$7*
1,1,$1+$1,$8,$9*
0 Add four rect primitives between the rounded corners*
20,1,$1+$1,$2,$3,$4,$5,0*
20,1,$1+$1,$4,$5,$6,$7,0*
20,1,$1+$1,$6,$7,$8,$9,0*
20,1,$1+$1,$8,$9,$2,$3,0*%
%AMOutline5P*
0 Free polygon, 5 corners , with rotation*
0 The origin of the aperture is its center*
0 number of corners: always 5*
0 $1 to $10 corner X, Y*
0 $11 Rotation angle, in degrees counterclockwise*
0 create outline with 5 corners*
4,1,5,$1,$2,$3,$4,$5,$6,$7,$8,$9,$10,$1,$2,$11*%
%AMOutline6P*
0 Free polygon, 6 corners , with rotation*
0 The origin of the aperture is its center*
0 number of corners: always 6*
0 $1 to $12 corner X, Y*
0 $13 Rotation angle, in degrees counterclockwise*
0 create outline with 6 corners*
4,1,6,$1,$2,$3,$4,$5,$6,$7,$8,$9,$10,$11,$12,$1,$2,$13*%
%AMOutline7P*
0 Free polygon, 7 corners , with rotation*
0 The origin of the aperture is its center*
0 number of corners: always 7*
0 $1 to $14 corner X, Y*
0 $15 Rotation angle, in degrees counterclockwise*
0 create outline with 7 corners*
4,1,7,$1,$2,$3,$4,$5,$6,$7,$8,$9,$10,$11,$12,$13,$14,$1,$2,$15*%
%AMOutline8P*
0 Free polygon, 8 corners , with rotation*
0 The origin of the aperture is its center*
0 number of corners: always 8*
0 $1 to $16 corner X, Y*
0 $17 Rotation angle, in degrees counterclockwise*
0 create outline with 8 corners*
4,1,8,$1,$2,$3,$4,$5,$6,$7,$8,$9,$10,$11,$12,$13,$14,$15,$16,$1,$2,$17*%
G04 Aperture macros list end*
%TA.AperFunction,ComponentPad*%
%ADD10Outline5P,-0.675000X0.405000X-0.405000X0.675000X0.675000X0.675000X0.675000X-0.675000X-0.675000X-0.675000X180.000000*%
%TD*%
%TA.AperFunction,ComponentPad*%
%ADD11C,1.350000*%
%TD*%
%TA.AperFunction,ComponentPad*%
%ADD12Outline5P,-0.820000X0.492000X-0.492000X0.820000X0.820000X0.820000X0.820000X-0.820000X-0.820000X-0.820000X270.000000*%
%TD*%
%TA.AperFunction,ComponentPad*%
%ADD13C,1.640000*%
%TD*%
%TA.AperFunction,ComponentPad*%
%ADD14O,2.200000X1.700000*%
%TD*%
%TA.AperFunction,ComponentPad*%
%ADD15RoundRect,0.250000X0.850000X0.600000X-0.850000X0.600000X-0.850000X-0.600000X0.850000X-0.600000X0*%
%TD*%
%TA.AperFunction,ComponentPad*%
%ADD16RoundRect,0.250000X0.600000X-0.850000X0.600000X0.850000X-0.600000X0.850000X-0.600000X-0.850000X0*%
%TD*%
%TA.AperFunction,ComponentPad*%
%ADD17O,1.700000X2.200000*%
%TD*%
%TA.AperFunction,ComponentPad*%
%ADD18R,1.800000X1.800000*%
%TD*%
%TA.AperFunction,ComponentPad*%
%ADD19C,1.800000*%
%TD*%
%TA.AperFunction,ComponentPad*%
%ADD20R,1.600000X1.600000*%
%TD*%
%TA.AperFunction,ComponentPad*%
%ADD21C,1.600000*%
%TD*%
%TA.AperFunction,Conductor*%
%ADD22C,0.800000*%
%TD*%
G04 APERTURE END LIST*
D10*
%TO.P,U1,1,5V*%
%TO.N,Net-(J1-Pin_2)*%
X136300000Y-77660000D03*
D11*
%TO.P,U1,2,GND*%
%TO.N,GND*%
X136300000Y-75120000D03*
%TO.P,U1,3,3V3*%
%TO.N,Net-(U1-3V3)*%
X136300000Y-72580000D03*
%TO.P,U1,4,GPIO4/SCK*%
%TO.N,Net-(U1-GPIO4{slash}SCK)*%
X136300000Y-70040000D03*
%TO.P,U1,5,GPIO3*%
%TO.N,unconnected-(U1-GPIO3-Pad5)*%
X136300000Y-67500000D03*
%TO.P,U1,6,GPIO2*%
%TO.N,Net-(J2-Pin_2)*%
X136300000Y-64960000D03*
%TO.P,U1,7,GPIO1*%
%TO.N,Net-(J2-Pin_1)*%
X136300000Y-62420000D03*
%TO.P,U1,8,GPIO0*%
%TO.N,Net-(U1-GPIO0)*%
X136300000Y-59880000D03*
%TO.P,U1,9,GPIO5/MISO*%
%TO.N,Net-(U1-GPIO5{slash}MISO)*%
X120806000Y-77660000D03*
%TO.P,U1,10,GPIO6/MOSI*%
%TO.N,Net-(U1-GPIO6{slash}MOSI)*%
X120806000Y-75120000D03*
%TO.P,U1,11,GPIO7/SS*%
%TO.N,Net-(U1-GPIO7{slash}SS)*%
X120806000Y-72580000D03*
%TO.P,U1,12,GPIO8/SDA*%
%TO.N,unconnected-(U1-GPIO8{slash}SDA-Pad12)*%
X120806000Y-70040000D03*
%TO.P,U1,13,GPIO9/SCL*%
%TO.N,/R*%
X120806000Y-67500000D03*
%TO.P,U1,14,GPIO10*%
%TO.N,/G*%
X120806000Y-64960000D03*
%TO.P,U1,15,GPIO20*%
%TO.N,/B*%
X120806000Y-62420000D03*
%TO.P,U1,16,GPIO21*%
%TO.N,unconnected-(U1-GPIO21-Pad16)*%
X120806000Y-59880000D03*
%TD*%
D12*
%TO.P,U2,5,SCK*%
%TO.N,Net-(U1-GPIO4{slash}SCK)*%
X113500000Y-72820000D03*
D13*
%TO.P,U2,6,MISO*%
%TO.N,Net-(U1-GPIO5{slash}MISO)*%
X113500000Y-70280000D03*
%TO.P,U2,7,MOSI*%
%TO.N,Net-(U1-GPIO6{slash}MOSI)*%
X113500000Y-67740000D03*
%TO.P,U2,8,SS*%
%TO.N,Net-(U1-GPIO7{slash}SS)*%
X113500000Y-65200000D03*
%TO.P,U2,9,VCC*%
%TO.N,Net-(U1-3V3)*%
X113500000Y-62660000D03*
%TO.P,U2,10,GND*%
%TO.N,GND*%
X113500000Y-60120000D03*
%TO.P,U2,11,IRQ*%
%TO.N,unconnected-(U2-IRQ-Pad11)*%
X113500000Y-57580000D03*
%TO.P,U2,12,RSTO*%
%TO.N,unconnected-(U2-RSTO-Pad12)*%
X113500000Y-55040000D03*
%TD*%
D14*
%TO.P,J1,2,Pin_2*%
%TO.N,Net-(J1-Pin_2)*%
X129345000Y-90350000D03*
D15*
%TO.P,J1,1,Pin_1*%
%TO.N,GND*%
X129345000Y-92850000D03*
%TD*%
D16*
%TO.P,J2,1,Pin_1*%
%TO.N,Net-(J2-Pin_1)*%
X150255000Y-65640000D03*
D17*
%TO.P,J2,2,Pin_2*%
%TO.N,Net-(J2-Pin_2)*%
X152755000Y-65640000D03*
%TD*%
D18*
%TO.P,D3,1,RA*%
%TO.N,Net-(D3-RA)*%
X103500000Y-91700000D03*
D19*
%TO.P,D3,2,K*%
%TO.N,GND*%
X103500000Y-89000000D03*
%TO.P,D3,3,GA*%
%TO.N,Net-(D3-GA)*%
X103500000Y-86300000D03*
%TO.P,D3,4,BA*%
%TO.N,Net-(D3-BA)*%
X103500000Y-83600000D03*
%TD*%
D18*
%TO.P,D4,1,RA*%
%TO.N,Net-(D4-RA)*%
X151500000Y-91550000D03*
D19*
%TO.P,D4,2,K*%
%TO.N,GND*%
X151500000Y-88850000D03*
%TO.P,D4,3,GA*%
%TO.N,Net-(D4-GA)*%
X151500000Y-86150000D03*
%TO.P,D4,4,BA*%
%TO.N,Net-(D4-BA)*%
X151500000Y-83450000D03*
%TD*%
D18*
%TO.P,D1,1,RA*%
%TO.N,Net-(D1-RA)*%
X103005000Y-50850000D03*
D19*
%TO.P,D1,2,K*%
%TO.N,GND*%
X103005000Y-48150000D03*
%TO.P,D1,3,GA*%
%TO.N,Net-(D1-GA)*%
X103005000Y-45450000D03*
%TO.P,D1,4,BA*%
%TO.N,Net-(D1-BA)*%
X103005000Y-42750000D03*
%TD*%
D18*
%TO.P,D2,1,RA*%
%TO.N,Net-(D2-RA)*%
X151905000Y-51100000D03*
D19*
%TO.P,D2,2,K*%
%TO.N,GND*%
X151905000Y-48400000D03*
%TO.P,D2,3,GA*%
%TO.N,Net-(D2-GA)*%
X151905000Y-45700000D03*
%TO.P,D2,4,BA*%
%TO.N,Net-(D2-BA)*%
X151905000Y-43000000D03*
%TD*%
%TO.P,R5,1*%
%TO.N,/G*%
X140595000Y-46000000D03*
%TO.P,R5,2*%
%TO.N,Net-(D2-GA)*%
X148215000Y-46000000D03*
%TD*%
%TO.P,R1,1*%
%TO.N,/R*%
X113415000Y-50900000D03*
%TO.P,R1,2*%
%TO.N,Net-(D1-RA)*%
X105795000Y-50900000D03*
%TD*%
%TO.P,R10,1*%
%TO.N,/B*%
X146900000Y-61900000D03*
%TO.P,R10,2*%
%TO.N,Net-(D4-BA)*%
X146900000Y-69520000D03*
%TD*%
%TO.P,R3,1*%
%TO.N,/B*%
X113415000Y-42800000D03*
%TO.P,R3,2*%
%TO.N,Net-(D1-BA)*%
X105795000Y-42800000D03*
%TD*%
%TO.P,R12,1*%
%TO.N,/R*%
X141700000Y-61820000D03*
%TO.P,R12,2*%
%TO.N,Net-(D4-RA)*%
X141700000Y-69440000D03*
%TD*%
%TO.P,R2,1*%
%TO.N,/G*%
X113415000Y-46000000D03*
%TO.P,R2,2*%
%TO.N,Net-(D1-GA)*%
X105795000Y-46000000D03*
%TD*%
%TO.P,R11,1*%
%TO.N,/G*%
X144300000Y-61900000D03*
%TO.P,R11,2*%
%TO.N,Net-(D4-GA)*%
X144300000Y-69520000D03*
%TD*%
%TO.P,R7,1*%
%TO.N,/B*%
X102400000Y-72690000D03*
%TO.P,R7,2*%
%TO.N,Net-(D3-BA)*%
X102400000Y-80310000D03*
%TD*%
%TO.P,R8,2*%
%TO.N,Net-(D3-GA)*%
X105000000Y-80410000D03*
%TO.P,R8,1*%
%TO.N,/G*%
X105000000Y-72790000D03*
%TD*%
%TO.P,R13,2*%
%TO.N,Net-(BZ1-+)*%
X139100000Y-69440000D03*
%TO.P,R13,1*%
%TO.N,Net-(U1-GPIO0)*%
X139100000Y-61820000D03*
%TD*%
%TO.P,R6,2*%
%TO.N,Net-(D2-RA)*%
X148220000Y-48700000D03*
%TO.P,R6,1*%
%TO.N,/R*%
X140600000Y-48700000D03*
%TD*%
D20*
%TO.P,BZ1,1,+*%
%TO.N,Net-(BZ1-+)*%
X138700000Y-88500000D03*
D21*
%TO.P,BZ1,2,-*%
%TO.N,GND*%
X146300000Y-88500000D03*
%TD*%
D19*
%TO.P,R4,1*%
%TO.N,/B*%
X140595000Y-42800000D03*
%TO.P,R4,2*%
%TO.N,Net-(D2-BA)*%
X148215000Y-42800000D03*
%TD*%
%TO.P,R9,2*%
%TO.N,Net-(D3-RA)*%
X107600000Y-80310000D03*
%TO.P,R9,1*%
%TO.N,/R*%
X107600000Y-72690000D03*
%TD*%
D22*
%TO.N,/R*%
X141700000Y-61820000D02*
X141700000Y-60547208D01*
X141700000Y-60547208D02*
X139156792Y-58004000D01*
X131256594Y-58004000D02*
X128782078Y-60478516D01*
X139156792Y-58004000D02*
X131256594Y-58004000D01*
%TO.N,/G*%
X120806000Y-64960000D02*
X121760594Y-64960000D01*
X124283000Y-54117000D02*
X132400000Y-46000000D01*
X121760594Y-64960000D02*
X124283000Y-62437594D01*
X124283000Y-62437594D02*
X124283000Y-54117000D01*
X132400000Y-46000000D02*
X140595000Y-46000000D01*
%TO.N,/R*%
X131964156Y-48700000D02*
X128782078Y-51882078D01*
X140600000Y-48700000D02*
X131964156Y-48700000D01*
X128782078Y-51882078D02*
X128782078Y-60478516D01*
X121760594Y-67500000D02*
X120806000Y-67500000D01*
X128782078Y-60478516D02*
X121760594Y-67500000D01*
%TO.N,/B*%
X140595000Y-42800000D02*
X141900000Y-42800000D01*
X144500000Y-45400000D02*
X144500000Y-49800000D01*
X146900000Y-52200000D02*
X146900000Y-61900000D01*
X141900000Y-42800000D02*
X144500000Y-45400000D01*
X144500000Y-49800000D02*
X146900000Y-52200000D01*
%TO.N,/G*%
X144300000Y-61900000D02*
X144300000Y-51900000D01*
X144300000Y-51900000D02*
X142900000Y-50500000D01*
X142900000Y-50500000D02*
X142900000Y-47032208D01*
X142900000Y-47032208D02*
X141867792Y-46000000D01*
X141867792Y-46000000D02*
X140595000Y-46000000D01*
%TO.N,/B*%
X147308000Y-61492000D02*
X146900000Y-61900000D01*
%TO.N,/R*%
X140600000Y-48700000D02*
X140751162Y-48700000D01*
%TO.N,/G*%
X105000000Y-72790000D02*
X105000000Y-62740844D01*
X105000000Y-62740844D02*
X109601000Y-58139844D01*
X109601000Y-58139844D02*
X109601000Y-49814000D01*
X109601000Y-49814000D02*
X113415000Y-46000000D01*
%TO.N,/R*%
X113415000Y-50900000D02*
X111479000Y-52836000D01*
X111479000Y-52836000D02*
X111479000Y-59526000D01*
X111479000Y-59526000D02*
X107600000Y-63405000D01*
X107600000Y-63405000D02*
X107600000Y-72690000D01*
%TO.N,Net-(D3-RA)*%
X107600000Y-80310000D02*
X107600000Y-89300000D01*
X107600000Y-89300000D02*
X105200000Y-91700000D01*
X105200000Y-91700000D02*
X103500000Y-91700000D01*
%TO.N,Net-(D3-GA)*%
X105000000Y-80410000D02*
X105600000Y-81010000D01*
X105600000Y-81010000D02*
X105600000Y-85472792D01*
X105600000Y-85472792D02*
X104772792Y-86300000D01*
X104772792Y-86300000D02*
X103500000Y-86300000D01*
%TO.N,Net-(D3-BA)*%
X102400000Y-80310000D02*
X102400000Y-82500000D01*
X102400000Y-82500000D02*
X103500000Y-83600000D01*
%TO.N,/B*%
X113415000Y-42800000D02*
X108000000Y-48215000D01*
X108000000Y-48215000D02*
X108000000Y-57476688D01*
X108000000Y-57476688D02*
X102400000Y-63076688D01*
X102400000Y-63076688D02*
X102400000Y-72690000D01*
X120919065Y-62420000D02*
X122682000Y-60657065D01*
X122682000Y-60657065D02*
X122682000Y-52067000D01*
X122682000Y-52067000D02*
X113415000Y-42800000D01*
%TO.N,Net-(U1-GPIO4{slash}SCK)*%
X113500000Y-72820000D02*
X113500000Y-74000000D01*
%TO.N,Net-(U1-GPIO7{slash}SS)*%
X113500000Y-65200000D02*
X113818126Y-65200000D01*
X113818126Y-65200000D02*
X113918126Y-65300000D01*
X113918126Y-65300000D02*
X115200000Y-65300000D01*
X115200000Y-65300000D02*
X118930000Y-69030000D01*
X118930000Y-69030000D02*
X118930000Y-71658594D01*
X118930000Y-71658594D02*
X119851406Y-72580000D01*
X119851406Y-72580000D02*
X120806000Y-72580000D01*
%TO.N,Net-(U1-GPIO6{slash}MOSI)*%
X120806000Y-75120000D02*
X119148312Y-75120000D01*
X117122000Y-73093688D02*
X117122000Y-71043874D01*
X119148312Y-75120000D02*
X117122000Y-73093688D01*
X117122000Y-71043874D02*
X113818126Y-67740000D01*
X113818126Y-67740000D02*
X113500000Y-67740000D01*
%TO.N,Net-(U1-GPIO5{slash}MISO)*%
X120806000Y-77660000D02*
X119424156Y-77660000D01*
X119424156Y-77660000D02*
X115521000Y-73756844D01*
X115521000Y-73756844D02*
X115521000Y-71830528D01*
X113970472Y-70280000D02*
X113500000Y-70280000D01*
X115521000Y-71830528D02*
X113970472Y-70280000D01*
%TO.N,/R*%
X116854000Y-64136065D02*
X120217935Y-67500000D01*
X120217935Y-67500000D02*
X120806000Y-67500000D01*
%TO.N,/G*%
X118455000Y-63197065D02*
X120217935Y-64960000D01*
%TO.N,Net-(U1-GPIO0)*%
X139100000Y-61820000D02*
X137160000Y-59880000D01*
X137160000Y-59880000D02*
X136300000Y-59880000D01*
%TO.N,Net-(J2-Pin_1)*%
X136300000Y-62420000D02*
X136728737Y-62420000D01*
X136728737Y-62420000D02*
X139948737Y-65640000D01*
%TO.N,Net-(J2-Pin_2)*%
X136300000Y-64960000D02*
X136779594Y-64960000D01*
X136779594Y-64960000D02*
X139060594Y-67241000D01*
%TO.N,Net-(U1-GPIO4{slash}SCK)*%
X126215935Y-79536000D02*
X135711935Y-70040000D01*
X135711935Y-70040000D02*
X136300000Y-70040000D01*
%TO.N,Net-(U1-3V3)*%
X123290935Y-85001000D02*
X135711935Y-72580000D01*
X135711935Y-72580000D02*
X136300000Y-72580000D01*
%TO.N,Net-(J1-Pin_2)*%
X136300000Y-77660000D02*
X136300000Y-78385000D01*
X136300000Y-78385000D02*
X129345000Y-85340000D01*
%TO.N,/R*%
X116854000Y-64136065D02*
X116854000Y-52854000D01*
X116854000Y-52854000D02*
X114900000Y-50900000D01*
X114900000Y-50900000D02*
X113415000Y-50900000D01*
%TO.N,/G*%
X118455000Y-63197065D02*
X118455000Y-51040000D01*
X118455000Y-51040000D02*
X113415000Y-46000000D01*
%TO.N,Net-(U1-GPIO4{slash}SCK)*%
X119036000Y-79536000D02*
X113500000Y-74000000D01*
%TO.N,Net-(U1-3V3)*%
X113181874Y-62660000D02*
X111099000Y-64742874D01*
X111099000Y-82950162D02*
X113149838Y-85001000D01*
X113149838Y-85001000D02*
X123290935Y-85001000D01*
X111099000Y-64742874D02*
X111099000Y-82950162D01*
X113500000Y-62660000D02*
X113181874Y-62660000D01*
%TO.N,Net-(D4-BA)*%
X146900000Y-69520000D02*
X151500000Y-74120000D01*
X151500000Y-74120000D02*
X151500000Y-83450000D01*
%TO.N,Net-(D4-GA)*%
X144300000Y-69520000D02*
X144300000Y-80222792D01*
%TO.N,Net-(D4-RA)*%
X141700000Y-69440000D02*
X141700000Y-79886948D01*
%TO.N,Net-(BZ1-+)*%
X139100000Y-69440000D02*
X139100000Y-88100000D01*
X139100000Y-88100000D02*
X138700000Y-88500000D01*
%TO.N,Net-(J2-Pin_2)*%
X152755000Y-65640000D02*
X152755000Y-66648950D01*
X152755000Y-66648950D02*
X151462950Y-67941000D01*
X151462950Y-67941000D02*
X149047050Y-67941000D01*
X149047050Y-67941000D02*
X148347050Y-67241000D01*
X148347050Y-67241000D02*
X139060594Y-67241000D01*
%TO.N,Net-(J2-Pin_1)*%
X139948737Y-65640000D02*
X150255000Y-65640000D01*
%TO.N,Net-(D4-GA)*%
X150227208Y-86150000D02*
X144300000Y-80222792D01*
%TO.N,Net-(D4-RA)*%
X148301000Y-89328842D02*
X150522158Y-91550000D01*
X150522158Y-91550000D02*
X151500000Y-91550000D01*
X141700000Y-79886948D02*
X148301000Y-86487948D01*
X148301000Y-86487948D02*
X148301000Y-89328842D01*
%TO.N,Net-(D2-RA)*%
X148220000Y-48700000D02*
X150620000Y-51100000D01*
X150620000Y-51100000D02*
X151905000Y-51100000D01*
%TO.N,Net-(D4-GA)*%
X151500000Y-86150000D02*
X150227208Y-86150000D01*
%TO.N,Net-(U1-GPIO4{slash}SCK)*%
X126215935Y-79536000D02*
X119036000Y-79536000D01*
%TO.N,Net-(J1-Pin_2)*%
X129345000Y-85340000D02*
X129345000Y-90350000D01*
%TO.N,Net-(D2-GA)*%
X151905000Y-45700000D02*
X148515000Y-45700000D01*
X148515000Y-45700000D02*
X148215000Y-46000000D01*
%TO.N,Net-(D2-BA)*%
X151905000Y-43000000D02*
X148415000Y-43000000D01*
X148415000Y-43000000D02*
X148215000Y-42800000D01*
%TO.N,/B*%
X113415000Y-42800000D02*
X140595000Y-42800000D01*
%TO.N,Net-(D1-GA)*%
X103005000Y-45450000D02*
X105245000Y-45450000D01*
X105245000Y-45450000D02*
X105795000Y-46000000D01*
%TO.N,Net-(D1-BA)*%
X105795000Y-42800000D02*
X103055000Y-42800000D01*
X103055000Y-42800000D02*
X103005000Y-42750000D01*
%TO.N,Net-(D1-RA)*%
X105795000Y-50900000D02*
X103055000Y-50900000D01*
X103055000Y-50900000D02*
X103005000Y-50850000D01*
%TD*%
%TA.AperFunction,Conductor*%
%TO.N,GND*%
G36*
X152212937Y-40020185D02*
G01*
X152236549Y-40039893D01*
X154870037Y-42861487D01*
X154901389Y-42923927D01*
X154903386Y-42946162D01*
X154876581Y-92071416D01*
X154856860Y-92138444D01*
X154840262Y-92159029D01*
X152064557Y-94934734D01*
X152003234Y-94968219D01*
X151976921Y-94971053D01*
X103040978Y-94988864D01*
X102973932Y-94969204D01*
X102953252Y-94952545D01*
X100036819Y-92036112D01*
X100003334Y-91974789D01*
X100000500Y-91948431D01*
X100000500Y-80198549D01*
X100699500Y-80198549D01*
X100699500Y-80421450D01*
X100699501Y-80421466D01*
X100728594Y-80642452D01*
X100728595Y-80642457D01*
X100728596Y-80642463D01*
X100786290Y-80857780D01*
X100786293Y-80857790D01*
X100853554Y-81020171D01*
X100871595Y-81063726D01*
X100983052Y-81256774D01*
X100983057Y-81256780D01*
X100983058Y-81256782D01*
X101118751Y-81433622D01*
X101118756Y-81433628D01*
X101163180Y-81478051D01*
X101196666Y-81539374D01*
X101199500Y-81565733D01*
X101199500Y-82594486D01*
X101229059Y-82781118D01*
X101287454Y-82960836D01*
X101330159Y-83044648D01*
X101373240Y-83129199D01*
X101484310Y-83282074D01*
X101638520Y-83436284D01*
X101763181Y-83560944D01*
X101796666Y-83622267D01*
X101799500Y-83648625D01*
X101799500Y-83711450D01*
X101799501Y-83711466D01*
X101828594Y-83932452D01*
X101828595Y-83932457D01*
X101828596Y-83932463D01*
X101886290Y-84147780D01*
X101886293Y-84147790D01*
X101971593Y-84353722D01*
X101971595Y-84353726D01*
X102083052Y-84546774D01*
X102083057Y-84546780D01*
X102083058Y-84546782D01*
X102218751Y-84723622D01*
X102218757Y-84723629D01*
X102357447Y-84862319D01*
X102390932Y-84923642D01*
X102385948Y-84993334D01*
X102357447Y-85037681D01*
X102218757Y-85176370D01*
X102218751Y-85176377D01*
X102083058Y-85353217D01*
X102083052Y-85353226D01*
X101971595Y-85546273D01*
X101971593Y-85546277D01*
X101886293Y-85752209D01*
X101886290Y-85752219D01*
X101828597Y-85967534D01*
X101828594Y-85967547D01*
X101799501Y-86188533D01*
X101799500Y-86188549D01*
X101799500Y-86411450D01*
X101799501Y-86411466D01*
X101828594Y-86632452D01*
X101828595Y-86632457D01*
X101828596Y-86632463D01*
X101886290Y-86847780D01*
X101886293Y-86847790D01*
X101943215Y-86985211D01*
X101971595Y-87053726D01*
X102083052Y-87246774D01*
X102083057Y-87246780D01*
X102083058Y-87246782D01*
X102218751Y-87423622D01*
X102218757Y-87423629D01*
X102376370Y-87581242D01*
X102376376Y-87581247D01*
X102553226Y-87716948D01*
X102746274Y-87828405D01*
X102952219Y-87913710D01*
X103167537Y-87971404D01*
X103388543Y-88000500D01*
X103388550Y-88000500D01*
X103611450Y-88000500D01*
X103611457Y-88000500D01*
X103832463Y-87971404D01*
X104047781Y-87913710D01*
X104253726Y-87828405D01*
X104446774Y-87716948D01*
X104623624Y-87581247D01*
X104668051Y-87536820D01*
X104729374Y-87503334D01*
X104755733Y-87500500D01*
X104867278Y-87500500D01*
X105053910Y-87470940D01*
X105233624Y-87412547D01*
X105401991Y-87326760D01*
X105554866Y-87215690D01*
X106187819Y-86582735D01*
X106249142Y-86549251D01*
X106318833Y-86554235D01*
X106374767Y-86596106D01*
X106399184Y-86661571D01*
X106399500Y-86670417D01*
X106399500Y-88751374D01*
X106379815Y-88818413D01*
X106363181Y-88839055D01*
X105051892Y-90150343D01*
X104990569Y-90183828D01*
X104920877Y-90178844D01*
X104898239Y-90167656D01*
X104749523Y-90074211D01*
X104579254Y-90014631D01*
X104579249Y-90014630D01*
X104444960Y-89999500D01*
X104444954Y-89999500D01*
X102555046Y-89999500D01*
X102555039Y-89999500D01*
X102420750Y-90014630D01*
X102420745Y-90014631D01*
X102250476Y-90074211D01*
X102097737Y-90170184D01*
X101970184Y-90297737D01*
X101874211Y-90450476D01*
X101814631Y-90620745D01*
X101814630Y-90620750D01*
X101799500Y-90755039D01*
X101799500Y-92644960D01*
X101814630Y-92779249D01*
X101814631Y-92779254D01*
X101874211Y-92949523D01*
X101967558Y-93098082D01*
X101970184Y-93102262D01*
X102097738Y-93229816D01*
X102250478Y-93325789D01*
X102420745Y-93385368D01*
X102420750Y-93385369D01*
X102511246Y-93395565D01*
X102555040Y-93400499D01*
X102555043Y-93400500D01*
X102555046Y-93400500D01*
X104444957Y-93400500D01*
X104444958Y-93400499D01*
X104512104Y-93392934D01*
X104579249Y-93385369D01*
X104579252Y-93385368D01*
X104579255Y-93385368D01*
X104749522Y-93325789D01*
X104902262Y-93229816D01*
X105029816Y-93102262D01*
X105120130Y-92958527D01*
X105172465Y-92912237D01*
X105225124Y-92900500D01*
X105294486Y-92900500D01*
X105481118Y-92870940D01*
X105660832Y-92812547D01*
X105751738Y-92766228D01*
X121314500Y-92766228D01*
X121314500Y-92933771D01*
X121347182Y-93098074D01*
X121347184Y-93098082D01*
X121411295Y-93252860D01*
X121504373Y-93392162D01*
X121622837Y-93510626D01*
X121715494Y-93572537D01*
X121762137Y-93603703D01*
X121916918Y-93667816D01*
X122081228Y-93700499D01*
X122081232Y-93700500D01*
X122081233Y-93700500D01*
X122248768Y-93700500D01*
X122248769Y-93700499D01*
X122413082Y-93667816D01*
X122567863Y-93603703D01*
X122707162Y-93510626D01*
X122825626Y-93392162D01*
X122918703Y-93252863D01*
X122982816Y-93098082D01*
X123015500Y-92933767D01*
X123015500Y-92766233D01*
X122982816Y-92601918D01*
X122918703Y-92447137D01*
X122887537Y-92400494D01*
X122825626Y-92307837D01*
X122707162Y-92189373D01*
X122567860Y-92096295D01*
X122413082Y-92032184D01*
X122413074Y-92032182D01*
X122248771Y-91999500D01*
X122248767Y-91999500D01*
X122081233Y-91999500D01*
X122081228Y-91999500D01*
X121916925Y-92032182D01*
X121916917Y-92032184D01*
X121762139Y-92096295D01*
X121622837Y-92189373D01*
X121504373Y-92307837D01*
X121411295Y-92447139D01*
X121347184Y-92601917D01*
X121347182Y-92601925D01*
X121314500Y-92766228D01*
X105751738Y-92766228D01*
X105829199Y-92726760D01*
X105982074Y-92615690D01*
X108331535Y-90266228D01*
X121314500Y-90266228D01*
X121314500Y-90433771D01*
X121347182Y-90598074D01*
X121347184Y-90598082D01*
X121411295Y-90752860D01*
X121504373Y-90892162D01*
X121622837Y-91010626D01*
X121715494Y-91072537D01*
X121762137Y-91103703D01*
X121916918Y-91167816D01*
X122081228Y-91200499D01*
X122081232Y-91200500D01*
X122081233Y-91200500D01*
X122248768Y-91200500D01*
X122248769Y-91200499D01*
X122413082Y-91167816D01*
X122567863Y-91103703D01*
X122707162Y-91010626D01*
X122825626Y-90892162D01*
X122918703Y-90752863D01*
X122982816Y-90598082D01*
X123015500Y-90433767D01*
X123015500Y-90266233D01*
X122982816Y-90101918D01*
X122918703Y-89947137D01*
X122863574Y-89864631D01*
X122825626Y-89807837D01*
X122707162Y-89689373D01*
X122567860Y-89596295D01*
X122413082Y-89532184D01*
X122413074Y-89532182D01*
X122248771Y-89499500D01*
X122248767Y-89499500D01*
X122081233Y-89499500D01*
X122081228Y-89499500D01*
X121916925Y-89532182D01*
X121916917Y-89532184D01*
X121762139Y-89596295D01*
X121622837Y-89689373D01*
X121504373Y-89807837D01*
X121411295Y-89947139D01*
X121347184Y-90101917D01*
X121347182Y-90101925D01*
X121314500Y-90266228D01*
X108331535Y-90266228D01*
X108515690Y-90082073D01*
X108626760Y-89929199D01*
X108712547Y-89760832D01*
X108770940Y-89581118D01*
X108783867Y-89499500D01*
X108800500Y-89394486D01*
X108800500Y-81565733D01*
X108820185Y-81498694D01*
X108836820Y-81478051D01*
X108881243Y-81433628D01*
X108881247Y-81433624D01*
X109016948Y-81256774D01*
X109128405Y-81063726D01*
X109213710Y-80857781D01*
X109271404Y-80642463D01*
X109300500Y-80421457D01*
X109300500Y-80198543D01*
X109271404Y-79977537D01*
X109213710Y-79762219D01*
X109128405Y-79556274D01*
X109016948Y-79363226D01*
X108881247Y-79186376D01*
X108881242Y-79186370D01*
X108723629Y-79028757D01*
X108723622Y-79028751D01*
X108546782Y-78893058D01*
X108546780Y-78893057D01*
X108546774Y-78893052D01*
X108353726Y-78781595D01*
X108353722Y-78781593D01*
X108147790Y-78696293D01*
X108147783Y-78696291D01*
X108147781Y-78696290D01*
X107932463Y-78638596D01*
X107932457Y-78638595D01*
X107932452Y-78638594D01*
X107711466Y-78609501D01*
X107711463Y-78609500D01*
X107711457Y-78609500D01*
X107488543Y-78609500D01*
X107488537Y-78609500D01*
X107488533Y-78609501D01*
X107267547Y-78638594D01*
X107267540Y-78638595D01*
X107267537Y-78638596D01*
X107052219Y-78696290D01*
X107052209Y-78696293D01*
X106846277Y-78781593D01*
X106846273Y-78781595D01*
X106653226Y-78893052D01*
X106653217Y-78893058D01*
X106476377Y-79028751D01*
X106476370Y-79028757D01*
X106337681Y-79167447D01*
X106276358Y-79200932D01*
X106206666Y-79195948D01*
X106162319Y-79167447D01*
X106123629Y-79128757D01*
X106123622Y-79128751D01*
X105946782Y-78993058D01*
X105946780Y-78993057D01*
X105946774Y-78993052D01*
X105753726Y-78881595D01*
X105753722Y-78881593D01*
X105547790Y-78796293D01*
X105547783Y-78796291D01*
X105547781Y-78796290D01*
X105332463Y-78738596D01*
X105332457Y-78738595D01*
X105332452Y-78738594D01*
X105111466Y-78709501D01*
X105111463Y-78709500D01*
X105111457Y-78709500D01*
X104888543Y-78709500D01*
X104888537Y-78709500D01*
X104888533Y-78709501D01*
X104667547Y-78738594D01*
X104667540Y-78738595D01*
X104667537Y-78738596D01*
X104507069Y-78781593D01*
X104452219Y-78796290D01*
X104452209Y-78796293D01*
X104246277Y-78881593D01*
X104246273Y-78881595D01*
X104053226Y-78993052D01*
X104053217Y-78993058D01*
X103876377Y-79128751D01*
X103876369Y-79128758D01*
X103837678Y-79167448D01*
X103776354Y-79200932D01*
X103706663Y-79195946D01*
X103662318Y-79167446D01*
X103523629Y-79028757D01*
X103523622Y-79028751D01*
X103346782Y-78893058D01*
X103346780Y-78893057D01*
X103346774Y-78893052D01*
X103153726Y-78781595D01*
X103153722Y-78781593D01*
X102947790Y-78696293D01*
X102947783Y-78696291D01*
X102947781Y-78696290D01*
X102732463Y-78638596D01*
X102732457Y-78638595D01*
X102732452Y-78638594D01*
X102511466Y-78609501D01*
X102511463Y-78609500D01*
X102511457Y-78609500D01*
X102288543Y-78609500D01*
X102288537Y-78609500D01*
X102288533Y-78609501D01*
X102067547Y-78638594D01*
X102067540Y-78638595D01*
X102067537Y-78638596D01*
X101852219Y-78696290D01*
X101852209Y-78696293D01*
X101646277Y-78781593D01*
X101646273Y-78781595D01*
X101453226Y-78893052D01*
X101453217Y-78893058D01*
X101276377Y-79028751D01*
X101276370Y-79028757D01*
X101118757Y-79186370D01*
X101118751Y-79186377D01*
X100983058Y-79363217D01*
X100983052Y-79363226D01*
X100871595Y-79556273D01*
X100871593Y-79556277D01*
X100786293Y-79762209D01*
X100786290Y-79762219D01*
X100728597Y-79977534D01*
X100728594Y-79977547D01*
X100699501Y-80198533D01*
X100699500Y-80198549D01*
X100000500Y-80198549D01*
X100000500Y-43051569D01*
X100020185Y-42984530D01*
X100036819Y-42963888D01*
X100754434Y-42246273D01*
X101538348Y-41462358D01*
X101599669Y-41428875D01*
X101669361Y-41433859D01*
X101725294Y-41475731D01*
X101749711Y-41541195D01*
X101734859Y-41609468D01*
X101724403Y-41625527D01*
X101588058Y-41803216D01*
X101588052Y-41803226D01*
X101476595Y-41996273D01*
X101476593Y-41996277D01*
X101391293Y-42202209D01*
X101391290Y-42202219D01*
X101333597Y-42417534D01*
X101333594Y-42417547D01*
X101304501Y-42638533D01*
X101304500Y-42638549D01*
X101304500Y-42861450D01*
X101304501Y-42861466D01*
X101333594Y-43082452D01*
X101333595Y-43082457D01*
X101333596Y-43082463D01*
X101346994Y-43132465D01*
X101391290Y-43297780D01*
X101391293Y-43297790D01*
X101412004Y-43347790D01*
X101476595Y-43503726D01*
X101588052Y-43696774D01*
X101588057Y-43696780D01*
X101588058Y-43696782D01*
X101723751Y-43873622D01*
X101723757Y-43873629D01*
X101862447Y-44012319D01*
X101895932Y-44073642D01*
X101890948Y-44143334D01*
X101862447Y-44187681D01*
X101723757Y-44326370D01*
X101723751Y-44326377D01*
X101588058Y-44503217D01*
X101588052Y-44503226D01*
X101476595Y-44696273D01*
X101476593Y-44696277D01*
X101391293Y-44902209D01*
X101391290Y-44902219D01*
X101350831Y-45053217D01*
X101333597Y-45117534D01*
X101333594Y-45117547D01*
X101304501Y-45338533D01*
X101304500Y-45338549D01*
X101304500Y-45561450D01*
X101304501Y-45561466D01*
X101333594Y-45782452D01*
X101333595Y-45782457D01*
X101333596Y-45782463D01*
X101362020Y-45888543D01*
X101391290Y-45997780D01*
X101391293Y-45997790D01*
X101476593Y-46203722D01*
X101476595Y-46203726D01*
X101588052Y-46396774D01*
X101588057Y-46396780D01*
X101588058Y-46396782D01*
X101723751Y-46573622D01*
X101723757Y-46573629D01*
X101881370Y-46731242D01*
X101881377Y-46731248D01*
X101906932Y-46750857D01*
X102058226Y-46866948D01*
X102251274Y-46978405D01*
X102457219Y-47063710D01*
X102672537Y-47121404D01*
X102893543Y-47150500D01*
X102893550Y-47150500D01*
X103116450Y-47150500D01*
X103116457Y-47150500D01*
X103337463Y-47121404D01*
X103552781Y-47063710D01*
X103758726Y-46978405D01*
X103951774Y-46866948D01*
X104103068Y-46750856D01*
X104168236Y-46725663D01*
X104236681Y-46739701D01*
X104285940Y-46787233D01*
X104372305Y-46936820D01*
X104378051Y-46946773D01*
X104378058Y-46946782D01*
X104513751Y-47123622D01*
X104513757Y-47123629D01*
X104671370Y-47281242D01*
X104671377Y-47281248D01*
X104752703Y-47343651D01*
X104848226Y-47416948D01*
X105041274Y-47528405D01*
X105247219Y-47613710D01*
X105462537Y-47671404D01*
X105683543Y-47700500D01*
X105683550Y-47700500D01*
X105906450Y-47700500D01*
X105906457Y-47700500D01*
X106127463Y-47671404D01*
X106342781Y-47613710D01*
X106548726Y-47528405D01*
X106741774Y-47416948D01*
X106863608Y-47323461D01*
X106880098Y-47317086D01*
X106894102Y-47306288D01*
X106912011Y-47304749D01*
X106928775Y-47298269D01*
X106946096Y-47301821D01*
X106963716Y-47300308D01*
X106979612Y-47308695D01*
X106997219Y-47312307D01*
X107009871Y-47324661D01*
X107025511Y-47332914D01*
X107034349Y-47348563D01*
X107047209Y-47361121D01*
X107051173Y-47378354D01*
X107059869Y-47393752D01*
X107058843Y-47411694D01*
X107062873Y-47429212D01*
X107056886Y-47445928D01*
X107055881Y-47463508D01*
X107039411Y-47494723D01*
X106980091Y-47576372D01*
X106980085Y-47576380D01*
X106973243Y-47585795D01*
X106973241Y-47585798D01*
X106887454Y-47754163D01*
X106829059Y-47933881D01*
X106799500Y-48120513D01*
X106799500Y-49301605D01*
X106779815Y-49368644D01*
X106727011Y-49414399D01*
X106657853Y-49424343D01*
X106613500Y-49408992D01*
X106548733Y-49371598D01*
X106548722Y-49371593D01*
X106342790Y-49286293D01*
X106342783Y-49286291D01*
X106342781Y-49286290D01*
X106127463Y-49228596D01*
X106127457Y-49228595D01*
X106127452Y-49228594D01*
X105906466Y-49199501D01*
X105906463Y-49199500D01*
X105906457Y-49199500D01*
X105683543Y-49199500D01*
X105683537Y-49199500D01*
X105683533Y-49199501D01*
X105462547Y-49228594D01*
X105462540Y-49228595D01*
X105462537Y-49228596D01*
X105390904Y-49247790D01*
X105247219Y-49286290D01*
X105247209Y-49286293D01*
X105041277Y-49371593D01*
X105041273Y-49371595D01*
X104848226Y-49483052D01*
X104848216Y-49483058D01*
X104759771Y-49550925D01*
X104694602Y-49576119D01*
X104626157Y-49562080D01*
X104579291Y-49518520D01*
X104534818Y-49447740D01*
X104407262Y-49320184D01*
X104254523Y-49224211D01*
X104084254Y-49164631D01*
X104084249Y-49164630D01*
X103949960Y-49149500D01*
X103949954Y-49149500D01*
X102060046Y-49149500D01*
X102060039Y-49149500D01*
X101925750Y-49164630D01*
X101925745Y-49164631D01*
X101755476Y-49224211D01*
X101602737Y-49320184D01*
X101475184Y-49447737D01*
X101379211Y-49600476D01*
X101319631Y-49770745D01*
X101319630Y-49770750D01*
X101304500Y-49905039D01*
X101304500Y-51794960D01*
X101319630Y-51929249D01*
X101319631Y-51929254D01*
X101379211Y-52099523D01*
X101429671Y-52179829D01*
X101475184Y-52252262D01*
X101602738Y-52379816D01*
X101755478Y-52475789D01*
X101863839Y-52513706D01*
X101925745Y-52535368D01*
X101925750Y-52535369D01*
X102016246Y-52545565D01*
X102060040Y-52550499D01*
X102060043Y-52550500D01*
X102060046Y-52550500D01*
X103949957Y-52550500D01*
X103949958Y-52550499D01*
X104017104Y-52542934D01*
X104084249Y-52535369D01*
X104084252Y-52535368D01*
X104084255Y-52535368D01*
X104254522Y-52475789D01*
X104407262Y-52379816D01*
X104534816Y-52252262D01*
X104536896Y-52248950D01*
X104538797Y-52247268D01*
X104539159Y-52246816D01*
X104539238Y-52246879D01*
X104589228Y-52202660D01*
X104658281Y-52192009D01*
X104717377Y-52216545D01*
X104774309Y-52260230D01*
X104848226Y-52316948D01*
X105041274Y-52428405D01*
X105155667Y-52475788D01*
X105209926Y-52498263D01*
X105247219Y-52513710D01*
X105462537Y-52571404D01*
X105683543Y-52600500D01*
X105683550Y-52600500D01*
X105906450Y-52600500D01*
X105906457Y-52600500D01*
X106127463Y-52571404D01*
X106342781Y-52513710D01*
X106548726Y-52428405D01*
X106613499Y-52391007D01*
X106681398Y-52374534D01*
X106747426Y-52397386D01*
X106790617Y-52452306D01*
X106799500Y-52498394D01*
X106799500Y-56928062D01*
X106779815Y-56995101D01*
X106763181Y-57015743D01*
X101484312Y-62294611D01*
X101484307Y-62294617D01*
X101396851Y-62414991D01*
X101396850Y-62414992D01*
X101373242Y-62447484D01*
X101287454Y-62615851D01*
X101229059Y-62795569D01*
X101199500Y-62982201D01*
X101199500Y-71434266D01*
X101179815Y-71501305D01*
X101163181Y-71521947D01*
X101118757Y-71566370D01*
X101118751Y-71566377D01*
X100983058Y-71743217D01*
X100983052Y-71743226D01*
X100871595Y-71936273D01*
X100871593Y-71936277D01*
X100786293Y-72142209D01*
X100786290Y-72142219D01*
X100728597Y-72357534D01*
X100728594Y-72357547D01*
X100699501Y-72578533D01*
X100699500Y-72578549D01*
X100699500Y-72801450D01*
X100699501Y-72801466D01*
X100728594Y-73022452D01*
X100728595Y-73022457D01*
X100728596Y-73022463D01*
X100750986Y-73106024D01*
X100786290Y-73237780D01*
X100786293Y-73237790D01*
X100861436Y-73419200D01*
X100871595Y-73443726D01*
X100983052Y-73636774D01*
X100983057Y-73636780D01*
X100983058Y-73636782D01*
X101118751Y-73813622D01*
X101118757Y-73813629D01*
X101276370Y-73971242D01*
X101276377Y-73971248D01*
X101347097Y-74025513D01*
X101453226Y-74106948D01*
X101646274Y-74218405D01*
X101852219Y-74303710D01*
X102067537Y-74361404D01*
X102288543Y-74390500D01*
X102288550Y-74390500D01*
X102511450Y-74390500D01*
X102511457Y-74390500D01*
X102732463Y-74361404D01*
X102947781Y-74303710D01*
X103153726Y-74218405D01*
X103346774Y-74106948D01*
X103523624Y-73971247D01*
X103562318Y-73932552D01*
X103623639Y-73899067D01*
X103693331Y-73904051D01*
X103737680Y-73932552D01*
X103876370Y-74071242D01*
X103876377Y-74071248D01*
X103922901Y-74106947D01*
X104053226Y-74206948D01*
X104246274Y-74318405D01*
X104452219Y-74403710D01*
X104667537Y-74461404D01*
X104888543Y-74490500D01*
X104888550Y-74490500D01*
X105111450Y-74490500D01*
X105111457Y-74490500D01*
X105332463Y-74461404D01*
X105547781Y-74403710D01*
X105753726Y-74318405D01*
X105946774Y-74206948D01*
X106123624Y-74071247D01*
X106262320Y-73932550D01*
X106323641Y-73899067D01*
X106393333Y-73904051D01*
X106437682Y-73932553D01*
X106476371Y-73971243D01*
X106476377Y-73971248D01*
X106547097Y-74025513D01*
X106653226Y-74106948D01*
X106846274Y-74218405D01*
X107052219Y-74303710D01*
X107267537Y-74361404D01*
X107488543Y-74390500D01*
X107488550Y-74390500D01*
X107711450Y-74390500D01*
X107711457Y-74390500D01*
X107932463Y-74361404D01*
X108147781Y-74303710D01*
X108353726Y-74218405D01*
X108546774Y-74106948D01*
X108723624Y-73971247D01*
X108881247Y-73813624D01*
X109016948Y-73636774D01*
X109128405Y-73443726D01*
X109213710Y-73237781D01*
X109271404Y-73022463D01*
X109300500Y-72801457D01*
X109300500Y-72578543D01*
X109271404Y-72357537D01*
X109213710Y-72142219D01*
X109128405Y-71936274D01*
X109016948Y-71743226D01*
X108921455Y-71618776D01*
X108881248Y-71566377D01*
X108881242Y-71566370D01*
X108836819Y-71521947D01*
X108803334Y-71460624D01*
X108800500Y-71434266D01*
X108800500Y-63953626D01*
X108820185Y-63886587D01*
X108836819Y-63865945D01*
X110533236Y-62169528D01*
X112394690Y-60308074D01*
X112505760Y-60155199D01*
X112591547Y-59986832D01*
X112649940Y-59807118D01*
X112656589Y-59765135D01*
X112679500Y-59620481D01*
X112679500Y-59183013D01*
X112699185Y-59115974D01*
X112751989Y-59070219D01*
X112821147Y-59060275D01*
X112859797Y-59072529D01*
X112877944Y-59081776D01*
X113063221Y-59141976D01*
X113120531Y-59160598D01*
X113372459Y-59200500D01*
X113372464Y-59200500D01*
X113627541Y-59200500D01*
X113879468Y-59160598D01*
X114122056Y-59081776D01*
X114349327Y-58965976D01*
X114555685Y-58816048D01*
X114736048Y-58635685D01*
X114885976Y-58429327D01*
X115001776Y-58202056D01*
X115080598Y-57959468D01*
X115087192Y-57917837D01*
X115120500Y-57707541D01*
X115120500Y-57452458D01*
X115080598Y-57200531D01*
X115008755Y-56979424D01*
X115001776Y-56957944D01*
X115001774Y-56957941D01*
X115001774Y-56957939D01*
X114885975Y-56730672D01*
X114736048Y-56524315D01*
X114609414Y-56397681D01*
X114575929Y-56336358D01*
X114580913Y-56266666D01*
X114609414Y-56222319D01*
X114736048Y-56095685D01*
X114885976Y-55889327D01*
X115001776Y-55662056D01*
X115080598Y-55419468D01*
X115080845Y-55417906D01*
X115120500Y-55167541D01*
X115120500Y-54912458D01*
X115080598Y-54660531D01*
X115001774Y-54417939D01*
X114891815Y-54202133D01*
X114885976Y-54190673D01*
X114736048Y-53984315D01*
X114555685Y-53803952D01*
X114349327Y-53654024D01*
X114320498Y-53639335D01*
X114122060Y-53538225D01*
X113879468Y-53459401D01*
X113627541Y-53419500D01*
X113627536Y-53419500D01*
X113372464Y-53419500D01*
X113372459Y-53419500D01*
X113120531Y-53459401D01*
X112877943Y-53538224D01*
X112877934Y-53538228D01*
X112859792Y-53547472D01*
X112857088Y-53547979D01*
X112855011Y-53549780D01*
X112822957Y-53554388D01*
X112791122Y-53560367D01*
X112788574Y-53559332D01*
X112785853Y-53559724D01*
X112756396Y-53546271D01*
X112726383Y-53534089D01*
X112724798Y-53531841D01*
X112722297Y-53530699D01*
X112704785Y-53503450D01*
X112686127Y-53476981D01*
X112685554Y-53473526D01*
X112684523Y-53471921D01*
X112679500Y-53436986D01*
X112679500Y-53384626D01*
X112699185Y-53317587D01*
X112715819Y-53296945D01*
X113375945Y-52636819D01*
X113437268Y-52603334D01*
X113463626Y-52600500D01*
X113526450Y-52600500D01*
X113526457Y-52600500D01*
X113747463Y-52571404D01*
X113962781Y-52513710D01*
X114168726Y-52428405D01*
X114361774Y-52316948D01*
X114421151Y-52271385D01*
X114486317Y-52246192D01*
X114554762Y-52260230D01*
X114584317Y-52282081D01*
X115617181Y-53314945D01*
X115650666Y-53376268D01*
X115653500Y-53402626D01*
X115653500Y-64014398D01*
X115633815Y-64081437D01*
X115581011Y-64127192D01*
X115511853Y-64137136D01*
X115491187Y-64132331D01*
X115481118Y-64129059D01*
X115294486Y-64099500D01*
X115294481Y-64099500D01*
X114742595Y-64099500D01*
X114713154Y-64090855D01*
X114683168Y-64084332D01*
X114678152Y-64080577D01*
X114675556Y-64079815D01*
X114654914Y-64063181D01*
X114609414Y-64017681D01*
X114575929Y-63956358D01*
X114580913Y-63886666D01*
X114609414Y-63842319D01*
X114671593Y-63780140D01*
X114736048Y-63715685D01*
X114885976Y-63509327D01*
X115001776Y-63282056D01*
X115080598Y-63039468D01*
X115089668Y-62982201D01*
X115120500Y-62787541D01*
X115120500Y-62532458D01*
X115080598Y-62280531D01*
X115001774Y-62037939D01*
X114932068Y-61901134D01*
X114885976Y-61810673D01*
X114736048Y-61604315D01*
X114555685Y-61423952D01*
X114349327Y-61274024D01*
X114122060Y-61158225D01*
X113879468Y-61079401D01*
X113627541Y-61039500D01*
X113627536Y-61039500D01*
X113372464Y-61039500D01*
X113372459Y-61039500D01*
X113120531Y-61079401D01*
X112877939Y-61158225D01*
X112650672Y-61274024D01*
X112591015Y-61317368D01*
X112444315Y-61423952D01*
X112444313Y-61423954D01*
X112444312Y-61423954D01*
X112263954Y-61604312D01*
X112263954Y-61604313D01*
X112263952Y-61604315D01*
X112233181Y-61646668D01*
X112114024Y-61810672D01*
X111998225Y-62037939D01*
X111955469Y-62169528D01*
X111925219Y-62218890D01*
X110183310Y-63960799D01*
X110129984Y-64034198D01*
X110129983Y-64034199D01*
X110072240Y-64113674D01*
X109986454Y-64282037D01*
X109928059Y-64461755D01*
X109898500Y-64648387D01*
X109898500Y-83044648D01*
X109928059Y-83231280D01*
X109986454Y-83410998D01*
X110063144Y-83561509D01*
X110072240Y-83579361D01*
X110183310Y-83732236D01*
X112234148Y-85783073D01*
X112367765Y-85916690D01*
X112520639Y-86027760D01*
X112541814Y-86038549D01*
X112689001Y-86113545D01*
X112689003Y-86113545D01*
X112689006Y-86113547D01*
X112785335Y-86144846D01*
X112868719Y-86171940D01*
X113055352Y-86201500D01*
X113055357Y-86201500D01*
X123385421Y-86201500D01*
X123572053Y-86171940D01*
X123751767Y-86113547D01*
X123920134Y-86027760D01*
X124073009Y-85916690D01*
X135923661Y-74066035D01*
X135984982Y-74032552D01*
X136030735Y-74031245D01*
X136112407Y-74044180D01*
X136183872Y-74055500D01*
X136183876Y-74055500D01*
X136416129Y-74055500D01*
X136517502Y-74039443D01*
X136645514Y-74019169D01*
X136866396Y-73947400D01*
X137073331Y-73841961D01*
X137261224Y-73705449D01*
X137425449Y-73541224D01*
X137561961Y-73353331D01*
X137665015Y-73151077D01*
X137712990Y-73100281D01*
X137780811Y-73083486D01*
X137846946Y-73106024D01*
X137890397Y-73160739D01*
X137899500Y-73207372D01*
X137899500Y-76521310D01*
X137879815Y-76588349D01*
X137827011Y-76634104D01*
X137757853Y-76644048D01*
X137694297Y-76615023D01*
X137670507Y-76587283D01*
X137604817Y-76482739D01*
X137477262Y-76355184D01*
X137324523Y-76259211D01*
X137154254Y-76199631D01*
X137154249Y-76199630D01*
X137019960Y-76184500D01*
X137019954Y-76184500D01*
X135580046Y-76184500D01*
X135580039Y-76184500D01*
X135445750Y-76199630D01*
X135445745Y-76199631D01*
X135275476Y-76259211D01*
X135122737Y-76355184D01*
X134995184Y-76482737D01*
X134899211Y-76635476D01*
X134839631Y-76805745D01*
X134839630Y-76805750D01*
X134824500Y-76940039D01*
X134824500Y-78111374D01*
X134804815Y-78178413D01*
X134788181Y-78199055D01*
X128429312Y-84557923D01*
X128429307Y-84557929D01*
X128348095Y-84669709D01*
X128348094Y-84669710D01*
X128318242Y-84710796D01*
X128232454Y-84879163D01*
X128174059Y-85058881D01*
X128144500Y-85245513D01*
X128144500Y-88937267D01*
X128124815Y-89004306D01*
X128093387Y-89037583D01*
X128040010Y-89076364D01*
X128019768Y-89091071D01*
X127836071Y-89274768D01*
X127836066Y-89274774D01*
X127683368Y-89484945D01*
X127565422Y-89716423D01*
X127485140Y-89963506D01*
X127444500Y-90220097D01*
X127444500Y-90479902D01*
X127485140Y-90736493D01*
X127565422Y-90983576D01*
X127646534Y-91142764D01*
X127683366Y-91215051D01*
X127836069Y-91425229D01*
X128019771Y-91608931D01*
X128229949Y-91761634D01*
X128377445Y-91836787D01*
X128461423Y-91879577D01*
X128461425Y-91879577D01*
X128461428Y-91879579D01*
X128708507Y-91959860D01*
X128840706Y-91980797D01*
X128965098Y-92000500D01*
X128965103Y-92000500D01*
X129724902Y-92000500D01*
X129838298Y-91982539D01*
X129981493Y-91959860D01*
X130228572Y-91879579D01*
X130460051Y-91761634D01*
X130670229Y-91608931D01*
X130853931Y-91425229D01*
X131006634Y-91215051D01*
X131124579Y-90983572D01*
X131204860Y-90736493D01*
X131227539Y-90593298D01*
X131245500Y-90479902D01*
X131245500Y-90220097D01*
X131214724Y-90025788D01*
X131204860Y-89963507D01*
X131124579Y-89716428D01*
X131124577Y-89716425D01*
X131124577Y-89716423D01*
X131081787Y-89632445D01*
X131006634Y-89484949D01*
X130853931Y-89274771D01*
X130670229Y-89091069D01*
X130596613Y-89037583D01*
X130553949Y-88982255D01*
X130545500Y-88937267D01*
X130545500Y-85888626D01*
X130565185Y-85821587D01*
X130581819Y-85800945D01*
X133879547Y-82503217D01*
X137215690Y-79167074D01*
X137326760Y-79014199D01*
X137412547Y-78845832D01*
X137444884Y-78746305D01*
X137475135Y-78696942D01*
X137583487Y-78588591D01*
X137583487Y-78588590D01*
X137583500Y-78588578D01*
X137631987Y-78531158D01*
X137666972Y-78467856D01*
X137716629Y-78418704D01*
X137784977Y-78404201D01*
X137850316Y-78428951D01*
X137891901Y-78485097D01*
X137899500Y-78527838D01*
X137899500Y-86783677D01*
X137879815Y-86850716D01*
X137827011Y-86896471D01*
X137789385Y-86906897D01*
X137720748Y-86914631D01*
X137720745Y-86914631D01*
X137550476Y-86974211D01*
X137397737Y-87070184D01*
X137270184Y-87197737D01*
X137174211Y-87350476D01*
X137114631Y-87520745D01*
X137114630Y-87520750D01*
X137099500Y-87655039D01*
X137099500Y-89344960D01*
X137114630Y-89479249D01*
X137114631Y-89479254D01*
X137174211Y-89649523D01*
X137216251Y-89716428D01*
X137270184Y-89802262D01*
X137397738Y-89929816D01*
X137451357Y-89963507D01*
X137541557Y-90020184D01*
X137550478Y-90025789D01*
X137688860Y-90074211D01*
X137720745Y-90085368D01*
X137720750Y-90085369D01*
X137811246Y-90095565D01*
X137855040Y-90100499D01*
X137855043Y-90100500D01*
X137855046Y-90100500D01*
X139544957Y-90100500D01*
X139544958Y-90100499D01*
X139612104Y-90092934D01*
X139679249Y-90085369D01*
X139679252Y-90085368D01*
X139679255Y-90085368D01*
X139849522Y-90025789D01*
X140002262Y-89929816D01*
X140129816Y-89802262D01*
X140225789Y-89649522D01*
X140285368Y-89479255D01*
X140300500Y-89344954D01*
X140300500Y-87655046D01*
X140300500Y-80247536D01*
X140320185Y-80180497D01*
X140372989Y-80134742D01*
X140442147Y-80124798D01*
X140505703Y-80153823D01*
X140542431Y-80209217D01*
X140587454Y-80347784D01*
X140673240Y-80516147D01*
X140784310Y-80669022D01*
X140784311Y-80669023D01*
X140784312Y-80669024D01*
X147064181Y-86948892D01*
X147097666Y-87010215D01*
X147100500Y-87036573D01*
X147100500Y-89423328D01*
X147130059Y-89609960D01*
X147188454Y-89789678D01*
X147257003Y-89924211D01*
X147274240Y-89958041D01*
X147385310Y-90110916D01*
X149606468Y-92332073D01*
X149740085Y-92465690D01*
X149763832Y-92482943D01*
X149769931Y-92488792D01*
X149783278Y-92512064D01*
X149799656Y-92533304D01*
X149802819Y-92546136D01*
X149804692Y-92549401D01*
X149804510Y-92552993D01*
X149807324Y-92564405D01*
X149814630Y-92629249D01*
X149874210Y-92799521D01*
X149882394Y-92812545D01*
X149970184Y-92952262D01*
X150097738Y-93079816D01*
X150250478Y-93175789D01*
X150404878Y-93229816D01*
X150420745Y-93235368D01*
X150420750Y-93235369D01*
X150511246Y-93245565D01*
X150555040Y-93250499D01*
X150555043Y-93250500D01*
X150555046Y-93250500D01*
X152444957Y-93250500D01*
X152444958Y-93250499D01*
X152512104Y-93242934D01*
X152579249Y-93235369D01*
X152579252Y-93235368D01*
X152579255Y-93235368D01*
X152749522Y-93175789D01*
X152902262Y-93079816D01*
X153029816Y-92952262D01*
X153125789Y-92799522D01*
X153185368Y-92629255D01*
X153186897Y-92615690D01*
X153200499Y-92494960D01*
X153200500Y-92494956D01*
X153200500Y-90605043D01*
X153200499Y-90605039D01*
X153185369Y-90470750D01*
X153185368Y-90470745D01*
X153125788Y-90300476D01*
X153045350Y-90172460D01*
X153029816Y-90147738D01*
X152902262Y-90020184D01*
X152893426Y-90014632D01*
X152749523Y-89924211D01*
X152579254Y-89864631D01*
X152579249Y-89864630D01*
X152444960Y-89849500D01*
X152444954Y-89849500D01*
X150570783Y-89849500D01*
X150503744Y-89829815D01*
X150483102Y-89813181D01*
X149537819Y-88867897D01*
X149504334Y-88806574D01*
X149501500Y-88780216D01*
X149501500Y-87329935D01*
X149521185Y-87262896D01*
X149573989Y-87217141D01*
X149643147Y-87207197D01*
X149681793Y-87219450D01*
X149720308Y-87239074D01*
X149766369Y-87262544D01*
X149766372Y-87262544D01*
X149766376Y-87262547D01*
X149890499Y-87302877D01*
X149946089Y-87320940D01*
X150132722Y-87350500D01*
X150132727Y-87350500D01*
X150244267Y-87350500D01*
X150311306Y-87370185D01*
X150331949Y-87386820D01*
X150376371Y-87431243D01*
X150376376Y-87431247D01*
X150553226Y-87566948D01*
X150746274Y-87678405D01*
X150952219Y-87763710D01*
X151167537Y-87821404D01*
X151388543Y-87850500D01*
X151388550Y-87850500D01*
X151611450Y-87850500D01*
X151611457Y-87850500D01*
X151832463Y-87821404D01*
X152047781Y-87763710D01*
X152253726Y-87678405D01*
X152446774Y-87566948D01*
X152623624Y-87431247D01*
X152781247Y-87273624D01*
X152916948Y-87096774D01*
X153028405Y-86903726D01*
X153113710Y-86697781D01*
X153171404Y-86482463D01*
X153200500Y-86261457D01*
X153200500Y-86038543D01*
X153171404Y-85817537D01*
X153113710Y-85602219D01*
X153090536Y-85546273D01*
X153028406Y-85396277D01*
X153028405Y-85396274D01*
X152916948Y-85203226D01*
X152781247Y-85026376D01*
X152781242Y-85026370D01*
X152642553Y-84887681D01*
X152609068Y-84826358D01*
X152614052Y-84756666D01*
X152642553Y-84712319D01*
X152781242Y-84573629D01*
X152781247Y-84573624D01*
X152916948Y-84396774D01*
X153028405Y-84203726D01*
X153113710Y-83997781D01*
X153171404Y-83782463D01*
X153200500Y-83561457D01*
X153200500Y-83338543D01*
X153171404Y-83117537D01*
X153113710Y-82902219D01*
X153028405Y-82696274D01*
X152916948Y-82503226D01*
X152781247Y-82326376D01*
X152781242Y-82326370D01*
X152736819Y-82281947D01*
X152703334Y-82220624D01*
X152700500Y-82194266D01*
X152700500Y-74025513D01*
X152670940Y-73838881D01*
X152641957Y-73749682D01*
X152612547Y-73659168D01*
X152612545Y-73659165D01*
X152612545Y-73659163D01*
X152526759Y-73490800D01*
X152474738Y-73419199D01*
X152459976Y-73398880D01*
X152415693Y-73337929D01*
X148636819Y-69559055D01*
X148603334Y-69497732D01*
X148600500Y-69471374D01*
X148600500Y-69408549D01*
X148600499Y-69408535D01*
X148599134Y-69398170D01*
X148577965Y-69237376D01*
X148588730Y-69168344D01*
X148635110Y-69116088D01*
X148702379Y-69097202D01*
X148739222Y-69103262D01*
X148764948Y-69111620D01*
X148765932Y-69111940D01*
X148840320Y-69123721D01*
X148952564Y-69141500D01*
X148952569Y-69141500D01*
X151557436Y-69141500D01*
X151744068Y-69111940D01*
X151770776Y-69103262D01*
X151923782Y-69053547D01*
X152092149Y-68967760D01*
X152245024Y-68856690D01*
X153670690Y-67431023D01*
X153781760Y-67278149D01*
X153856729Y-67131011D01*
X153879527Y-67099631D01*
X154013931Y-66965229D01*
X154166634Y-66755051D01*
X154284579Y-66523572D01*
X154364860Y-66276493D01*
X154395118Y-66085449D01*
X154405500Y-66019902D01*
X154405500Y-65260097D01*
X154376361Y-65076124D01*
X154364860Y-65003507D01*
X154284579Y-64756428D01*
X154284577Y-64756425D01*
X154284577Y-64756423D01*
X154229529Y-64648387D01*
X154166634Y-64524949D01*
X154013931Y-64314771D01*
X153830229Y-64131069D01*
X153827464Y-64129060D01*
X153620054Y-63978368D01*
X153620053Y-63978367D01*
X153620051Y-63978366D01*
X153525128Y-63930000D01*
X153388576Y-63860422D01*
X153141493Y-63780140D01*
X152884902Y-63739500D01*
X152884897Y-63739500D01*
X152625103Y-63739500D01*
X152625098Y-63739500D01*
X152368506Y-63780140D01*
X152121423Y-63860422D01*
X151889945Y-63978368D01*
X151770231Y-64065345D01*
X151704425Y-64088825D01*
X151636371Y-64072999D01*
X151606069Y-64047536D01*
X151605713Y-64047893D01*
X151601603Y-64043783D01*
X151601490Y-64043688D01*
X151601410Y-64043590D01*
X151601407Y-64043588D01*
X151601406Y-64043586D01*
X151441452Y-63912317D01*
X151441453Y-63912317D01*
X151441450Y-63912315D01*
X151258954Y-63814768D01*
X151060934Y-63754700D01*
X151060932Y-63754699D01*
X151060934Y-63754699D01*
X150941805Y-63742966D01*
X150906608Y-63739500D01*
X149603392Y-63739500D01*
X149565298Y-63743251D01*
X149449067Y-63754699D01*
X149251043Y-63814769D01*
X149199502Y-63842319D01*
X149068550Y-63912315D01*
X149068548Y-63912316D01*
X149068547Y-63912317D01*
X148908589Y-64043589D01*
X148777317Y-64203547D01*
X148777315Y-64203550D01*
X148735360Y-64282042D01*
X148686231Y-64373954D01*
X148637268Y-64423798D01*
X148576873Y-64439500D01*
X140497362Y-64439500D01*
X140430323Y-64419815D01*
X140409681Y-64403181D01*
X139632231Y-63625730D01*
X139598746Y-63564407D01*
X139603730Y-63494715D01*
X139645602Y-63438782D01*
X139672460Y-63423488D01*
X139853716Y-63348409D01*
X139853714Y-63348409D01*
X139853726Y-63348405D01*
X140046774Y-63236948D01*
X140223624Y-63101247D01*
X140265803Y-63059068D01*
X140312319Y-63012553D01*
X140373642Y-62979068D01*
X140443334Y-62984052D01*
X140487681Y-63012553D01*
X140576370Y-63101242D01*
X140576377Y-63101248D01*
X140680628Y-63181242D01*
X140753226Y-63236948D01*
X140946274Y-63348405D01*
X141025511Y-63381226D01*
X141139411Y-63428405D01*
X141152219Y-63433710D01*
X141367537Y-63491404D01*
X141588543Y-63520500D01*
X141588550Y-63520500D01*
X141811450Y-63520500D01*
X141811457Y-63520500D01*
X142032463Y-63491404D01*
X142247781Y-63433710D01*
X142453726Y-63348405D01*
X142646774Y-63236948D01*
X142823624Y-63101247D01*
X142872318Y-63052552D01*
X142933640Y-63019067D01*
X143003331Y-63024051D01*
X143047680Y-63052552D01*
X143176370Y-63181242D01*
X143176376Y-63181247D01*
X143353226Y-63316948D01*
X143546274Y-63428405D01*
X143664979Y-63477574D01*
X143698362Y-63491402D01*
X143752219Y-63513710D01*
X143967537Y-63571404D01*
X144188543Y-63600500D01*
X144188550Y-63600500D01*
X144411450Y-63600500D01*
X144411457Y-63600500D01*
X144632463Y-63571404D01*
X144847781Y-63513710D01*
X145053726Y-63428405D01*
X145246774Y-63316948D01*
X145423624Y-63181247D01*
X145423629Y-63181242D01*
X145512319Y-63092553D01*
X145573642Y-63059068D01*
X145643334Y-63064052D01*
X145687681Y-63092553D01*
X145776370Y-63181242D01*
X145776376Y-63181247D01*
X145953226Y-63316948D01*
X146146274Y-63428405D01*
X146264979Y-63477574D01*
X146298362Y-63491402D01*
X146352219Y-63513710D01*
X146567537Y-63571404D01*
X146788543Y-63600500D01*
X146788550Y-63600500D01*
X147011450Y-63600500D01*
X147011457Y-63600500D01*
X147232463Y-63571404D01*
X147447781Y-63513710D01*
X147653726Y-63428405D01*
X147846774Y-63316948D01*
X148023624Y-63181247D01*
X148181247Y-63023624D01*
X148316948Y-62846774D01*
X148428405Y-62653726D01*
X148513710Y-62447781D01*
X148571404Y-62232463D01*
X148600500Y-62011457D01*
X148600500Y-61788543D01*
X148571404Y-61567537D01*
X148513710Y-61352219D01*
X148499273Y-61317365D01*
X148491363Y-61289320D01*
X148478940Y-61210882D01*
X148420547Y-61031168D01*
X148420545Y-61031165D01*
X148420545Y-61031163D01*
X148334759Y-60862800D01*
X148223690Y-60709927D01*
X148136819Y-60623056D01*
X148103334Y-60561733D01*
X148100500Y-60535375D01*
X148100500Y-58376228D01*
X149404500Y-58376228D01*
X149404500Y-58543771D01*
X149437182Y-58708074D01*
X149437184Y-58708082D01*
X149501295Y-58862860D01*
X149594373Y-59002162D01*
X149712837Y-59120626D01*
X149772660Y-59160598D01*
X149852137Y-59213703D01*
X149852138Y-59213703D01*
X149852139Y-59213704D01*
X149887201Y-59228227D01*
X150006918Y-59277816D01*
X150142743Y-59304833D01*
X150171228Y-59310499D01*
X150171232Y-59310500D01*
X150171233Y-59310500D01*
X150338768Y-59310500D01*
X150338769Y-59310499D01*
X150503082Y-59277816D01*
X150657863Y-59213703D01*
X150797162Y-59120626D01*
X150915626Y-59002162D01*
X151008703Y-58862863D01*
X151072816Y-58708082D01*
X151105500Y-58543767D01*
X151105500Y-58376233D01*
X151105499Y-58376228D01*
X151904500Y-58376228D01*
X151904500Y-58543771D01*
X151937182Y-58708074D01*
X151937184Y-58708082D01*
X152001295Y-58862860D01*
X152094373Y-59002162D01*
X152212837Y-59120626D01*
X152272660Y-59160598D01*
X152352137Y-59213703D01*
X152352138Y-59213703D01*
X152352139Y-59213704D01*
X152387201Y-59228227D01*
X152506918Y-59277816D01*
X152642743Y-59304833D01*
X152671228Y-59310499D01*
X152671232Y-59310500D01*
X152671233Y-59310500D01*
X152838768Y-59310500D01*
X152838769Y-59310499D01*
X153003082Y-59277816D01*
X153157863Y-59213703D01*
X153297162Y-59120626D01*
X153415626Y-59002162D01*
X153508703Y-58862863D01*
X153572816Y-58708082D01*
X153605500Y-58543767D01*
X153605500Y-58376233D01*
X153572816Y-58211918D01*
X153508703Y-58057137D01*
X153477537Y-58010494D01*
X153415626Y-57917837D01*
X153297162Y-57799373D01*
X153157860Y-57706295D01*
X153003082Y-57642184D01*
X153003074Y-57642182D01*
X152838771Y-57609500D01*
X152838767Y-57609500D01*
X152671233Y-57609500D01*
X152671228Y-57609500D01*
X152506925Y-57642182D01*
X152506917Y-57642184D01*
X152352139Y-57706295D01*
X152212837Y-57799373D01*
X152094373Y-57917837D01*
X152001295Y-58057139D01*
X151937184Y-58211917D01*
X151937182Y-58211925D01*
X151904500Y-58376228D01*
X151105499Y-58376228D01*
X151072816Y-58211918D01*
X151008703Y-58057137D01*
X150977537Y-58010494D01*
X150915626Y-57917837D01*
X150797162Y-57799373D01*
X150657860Y-57706295D01*
X150503082Y-57642184D01*
X150503074Y-57642182D01*
X150338771Y-57609500D01*
X150338767Y-57609500D01*
X150171233Y-57609500D01*
X150171228Y-57609500D01*
X150006925Y-57642182D01*
X150006917Y-57642184D01*
X149852139Y-57706295D01*
X149712837Y-57799373D01*
X149594373Y-57917837D01*
X149501295Y-58057139D01*
X149437184Y-58211917D01*
X149437182Y-58211925D01*
X149404500Y-58376228D01*
X148100500Y-58376228D01*
X148100500Y-52105513D01*
X148070940Y-51918881D01*
X148012545Y-51739163D01*
X147944778Y-51606163D01*
X147926760Y-51570801D01*
X147815690Y-51417927D01*
X147682073Y-51284310D01*
X146711469Y-50313706D01*
X145736819Y-49339055D01*
X145703334Y-49277732D01*
X145700500Y-49251374D01*
X145700500Y-45305513D01*
X145670940Y-45118881D01*
X145643846Y-45035497D01*
X145612547Y-44939168D01*
X145612545Y-44939165D01*
X145612545Y-44939163D01*
X145541383Y-44799500D01*
X145526760Y-44770801D01*
X145472613Y-44696274D01*
X145429781Y-44637320D01*
X145415693Y-44617929D01*
X143486313Y-42688549D01*
X146514500Y-42688549D01*
X146514500Y-42911450D01*
X146514501Y-42911466D01*
X146543594Y-43132452D01*
X146543595Y-43132457D01*
X146543596Y-43132463D01*
X146587893Y-43297781D01*
X146601290Y-43347780D01*
X146601293Y-43347790D01*
X146684136Y-43547790D01*
X146686595Y-43553726D01*
X146798052Y-43746774D01*
X146798057Y-43746780D01*
X146798058Y-43746782D01*
X146933751Y-43923622D01*
X146933757Y-43923629D01*
X147091370Y-44081242D01*
X147091377Y-44081248D01*
X147172290Y-44143334D01*
X147268226Y-44216948D01*
X147399281Y-44292613D01*
X147447496Y-44343181D01*
X147460718Y-44411788D01*
X147434750Y-44476652D01*
X147399281Y-44507386D01*
X147279789Y-44576376D01*
X147268226Y-44583052D01*
X147268217Y-44583058D01*
X147091377Y-44718751D01*
X147091370Y-44718757D01*
X146933757Y-44876370D01*
X146933751Y-44876377D01*
X146798058Y-45053217D01*
X146798052Y-45053226D01*
X146686595Y-45246273D01*
X146686593Y-45246277D01*
X146601293Y-45452209D01*
X146601290Y-45452219D01*
X146572018Y-45561466D01*
X146543597Y-45667534D01*
X146543594Y-45667547D01*
X146514501Y-45888533D01*
X146514500Y-45888549D01*
X146514500Y-46111450D01*
X146514501Y-46111466D01*
X146543594Y-46332452D01*
X146543595Y-46332457D01*
X146543596Y-46332463D01*
X146601290Y-46547780D01*
X146601293Y-46547790D01*
X146686593Y-46753722D01*
X146686595Y-46753726D01*
X146798052Y-46946774D01*
X146798057Y-46946780D01*
X146798058Y-46946782D01*
X146933751Y-47123622D01*
X146933757Y-47123629D01*
X147074947Y-47264819D01*
X147108432Y-47326142D01*
X147103448Y-47395834D01*
X147074947Y-47440181D01*
X146938757Y-47576370D01*
X146938756Y-47576372D01*
X146803058Y-47753217D01*
X146803052Y-47753226D01*
X146691595Y-47946273D01*
X146691593Y-47946277D01*
X146606293Y-48152209D01*
X146606290Y-48152219D01*
X146548597Y-48367534D01*
X146548594Y-48367547D01*
X146519501Y-48588533D01*
X146519500Y-48588549D01*
X146519500Y-48811450D01*
X146519501Y-48811466D01*
X146548594Y-49032452D01*
X146548595Y-49032457D01*
X146548596Y-49032463D01*
X146601150Y-49228597D01*
X146606290Y-49247780D01*
X146606293Y-49247790D01*
X146691593Y-49453722D01*
X146691595Y-49453726D01*
X146803052Y-49646774D01*
X146803057Y-49646780D01*
X146803058Y-49646782D01*
X146938751Y-49823622D01*
X146938757Y-49823629D01*
X147096370Y-49981242D01*
X147096377Y-49981248D01*
X147177373Y-50043398D01*
X147273226Y-50116948D01*
X147466274Y-50228405D01*
X147672219Y-50313710D01*
X147887537Y-50371404D01*
X148108543Y-50400500D01*
X148171374Y-50400500D01*
X148238413Y-50420185D01*
X148259055Y-50436819D01*
X149704310Y-51882073D01*
X149837927Y-52015690D01*
X149990801Y-52126760D01*
X150042679Y-52153193D01*
X150159165Y-52212546D01*
X150159167Y-52212546D01*
X150159168Y-52212547D01*
X150182098Y-52219997D01*
X150239772Y-52259430D01*
X150260824Y-52296974D01*
X150279211Y-52349523D01*
X150358549Y-52475788D01*
X150375184Y-52502262D01*
X150502738Y-52629816D01*
X150655478Y-52725789D01*
X150661417Y-52727867D01*
X150825745Y-52785368D01*
X150825750Y-52785369D01*
X150916246Y-52795565D01*
X150960040Y-52800499D01*
X150960043Y-52800500D01*
X150960046Y-52800500D01*
X152849957Y-52800500D01*
X152849958Y-52800499D01*
X152917104Y-52792934D01*
X152984249Y-52785369D01*
X152984252Y-52785368D01*
X152984255Y-52785368D01*
X153154522Y-52725789D01*
X153307262Y-52629816D01*
X153434816Y-52502262D01*
X153530789Y-52349522D01*
X153590368Y-52179255D01*
X153593305Y-52153193D01*
X153605499Y-52044960D01*
X153605500Y-52044956D01*
X153605500Y-50155043D01*
X153605499Y-50155039D01*
X153604511Y-50146274D01*
X153596419Y-50074445D01*
X153590369Y-50020750D01*
X153590368Y-50020745D01*
X153561001Y-49936819D01*
X153530789Y-49850478D01*
X153513915Y-49823624D01*
X153484224Y-49776370D01*
X153434816Y-49697738D01*
X153307262Y-49570184D01*
X153239086Y-49527346D01*
X153154523Y-49474211D01*
X152984254Y-49414631D01*
X152984249Y-49414630D01*
X152849960Y-49399500D01*
X152849954Y-49399500D01*
X150960046Y-49399500D01*
X150960039Y-49399500D01*
X150825747Y-49414631D01*
X150756055Y-49439017D01*
X150686276Y-49442578D01*
X150627420Y-49409656D01*
X149956819Y-48739055D01*
X149923334Y-48677732D01*
X149920500Y-48651374D01*
X149920500Y-48588549D01*
X149920500Y-48588543D01*
X149891404Y-48367537D01*
X149833710Y-48152219D01*
X149820579Y-48120519D01*
X149748406Y-47946277D01*
X149748405Y-47946274D01*
X149636948Y-47753226D01*
X149501247Y-47576376D01*
X149501244Y-47576372D01*
X149360053Y-47435181D01*
X149326568Y-47373858D01*
X149331552Y-47304166D01*
X149360053Y-47259819D01*
X149496242Y-47123629D01*
X149496247Y-47123624D01*
X149630229Y-46949013D01*
X149686656Y-46907811D01*
X149728605Y-46900500D01*
X150649267Y-46900500D01*
X150716306Y-46920185D01*
X150736949Y-46936820D01*
X150781371Y-46981243D01*
X150781376Y-46981247D01*
X150958226Y-47116948D01*
X151151274Y-47228405D01*
X151239188Y-47264820D01*
X151345111Y-47308695D01*
X151357219Y-47313710D01*
X151572537Y-47371404D01*
X151793543Y-47400500D01*
X151793550Y-47400500D01*
X152016450Y-47400500D01*
X152016457Y-47400500D01*
X152237463Y-47371404D01*
X152452781Y-47313710D01*
X152658726Y-47228405D01*
X152851774Y-47116948D01*
X153028624Y-46981247D01*
X153186247Y-46823624D01*
X153321948Y-46646774D01*
X153433405Y-46453726D01*
X153518710Y-46247781D01*
X153576404Y-46032463D01*
X153605500Y-45811457D01*
X153605500Y-45588543D01*
X153576404Y-45367537D01*
X153518710Y-45152219D01*
X153504348Y-45117547D01*
X153477702Y-45053217D01*
X153433405Y-44946274D01*
X153321948Y-44753226D01*
X153209941Y-44607255D01*
X153186248Y-44576377D01*
X153186242Y-44576370D01*
X153047553Y-44437681D01*
X153014068Y-44376358D01*
X153019052Y-44306666D01*
X153047553Y-44262319D01*
X153186242Y-44123629D01*
X153186247Y-44123624D01*
X153321948Y-43946774D01*
X153433405Y-43753726D01*
X153518710Y-43547781D01*
X153576404Y-43332463D01*
X153605500Y-43111457D01*
X153605500Y-42888543D01*
X153576404Y-42667537D01*
X153518710Y-42452219D01*
X153504348Y-42417547D01*
X153433406Y-42246277D01*
X153433405Y-42246274D01*
X153321948Y-42053226D01*
X153278247Y-41996273D01*
X153186248Y-41876377D01*
X153186242Y-41876370D01*
X153028629Y-41718757D01*
X153028622Y-41718751D01*
X152851782Y-41583058D01*
X152851780Y-41583057D01*
X152851774Y-41583052D01*
X152658726Y-41471595D01*
X152658722Y-41471593D01*
X152452790Y-41386293D01*
X152452783Y-41386291D01*
X152452781Y-41386290D01*
X152237463Y-41328596D01*
X152237457Y-41328595D01*
X152237452Y-41328594D01*
X152016466Y-41299501D01*
X152016463Y-41299500D01*
X152016457Y-41299500D01*
X151793543Y-41299500D01*
X151793537Y-41299500D01*
X151793533Y-41299501D01*
X151572547Y-41328594D01*
X151572540Y-41328595D01*
X151572537Y-41328596D01*
X151555885Y-41333058D01*
X151357219Y-41386290D01*
X151357209Y-41386293D01*
X151151277Y-41471593D01*
X151151273Y-41471595D01*
X150958226Y-41583052D01*
X150958217Y-41583058D01*
X150781377Y-41718751D01*
X150781371Y-41718756D01*
X150736949Y-41763180D01*
X150675626Y-41796666D01*
X150649267Y-41799500D01*
X149651873Y-41799500D01*
X149584834Y-41779815D01*
X149553497Y-41750986D01*
X149496248Y-41676377D01*
X149496242Y-41676370D01*
X149338629Y-41518757D01*
X149338622Y-41518751D01*
X149161782Y-41383058D01*
X149161780Y-41383057D01*
X149161774Y-41383052D01*
X148968726Y-41271595D01*
X148968722Y-41271593D01*
X148762790Y-41186293D01*
X148762783Y-41186291D01*
X148762781Y-41186290D01*
X148547463Y-41128596D01*
X148547457Y-41128595D01*
X148547452Y-41128594D01*
X148326466Y-41099501D01*
X148326463Y-41099500D01*
X148326457Y-41099500D01*
X148103543Y-41099500D01*
X148103537Y-41099500D01*
X148103533Y-41099501D01*
X147882547Y-41128594D01*
X147882540Y-41128595D01*
X147882537Y-41128596D01*
X147667219Y-41186290D01*
X147667209Y-41186293D01*
X147461277Y-41271593D01*
X147461273Y-41271595D01*
X147268226Y-41383052D01*
X147268217Y-41383058D01*
X147091377Y-41518751D01*
X147091370Y-41518757D01*
X146933757Y-41676370D01*
X146933751Y-41676377D01*
X146798058Y-41853217D01*
X146798052Y-41853226D01*
X146686595Y-42046273D01*
X146686593Y-42046277D01*
X146601293Y-42252209D01*
X146601290Y-42252219D01*
X146547701Y-42452219D01*
X146543597Y-42467534D01*
X146543594Y-42467547D01*
X146514501Y-42688533D01*
X146514500Y-42688549D01*
X143486313Y-42688549D01*
X142682076Y-41884312D01*
X142682074Y-41884310D01*
X142529199Y-41773240D01*
X142485523Y-41750986D01*
X142360836Y-41687454D01*
X142181118Y-41629059D01*
X141994486Y-41599500D01*
X141994481Y-41599500D01*
X141850733Y-41599500D01*
X141783694Y-41579815D01*
X141763051Y-41563180D01*
X141718628Y-41518756D01*
X141718622Y-41518751D01*
X141541782Y-41383058D01*
X141541780Y-41383057D01*
X141541774Y-41383052D01*
X141348726Y-41271595D01*
X141348722Y-41271593D01*
X141142790Y-41186293D01*
X141142783Y-41186291D01*
X141142781Y-41186290D01*
X140927463Y-41128596D01*
X140927457Y-41128595D01*
X140927452Y-41128594D01*
X140706466Y-41099501D01*
X140706463Y-41099500D01*
X140706457Y-41099500D01*
X140483543Y-41099500D01*
X140483537Y-41099500D01*
X140483533Y-41099501D01*
X140262547Y-41128594D01*
X140262540Y-41128595D01*
X140262537Y-41128596D01*
X140047219Y-41186290D01*
X140047209Y-41186293D01*
X139841277Y-41271593D01*
X139841273Y-41271595D01*
X139648226Y-41383052D01*
X139648217Y-41383058D01*
X139471377Y-41518751D01*
X139471371Y-41518756D01*
X139426949Y-41563180D01*
X139365626Y-41596666D01*
X139339267Y-41599500D01*
X114670733Y-41599500D01*
X114603694Y-41579815D01*
X114583051Y-41563180D01*
X114538628Y-41518756D01*
X114538622Y-41518751D01*
X114361782Y-41383058D01*
X114361780Y-41383057D01*
X114361774Y-41383052D01*
X114168726Y-41271595D01*
X114168722Y-41271593D01*
X113962790Y-41186293D01*
X113962783Y-41186291D01*
X113962781Y-41186290D01*
X113747463Y-41128596D01*
X113747457Y-41128595D01*
X113747452Y-41128594D01*
X113526466Y-41099501D01*
X113526463Y-41099500D01*
X113526457Y-41099500D01*
X113303543Y-41099500D01*
X113303537Y-41099500D01*
X113303533Y-41099501D01*
X113082547Y-41128594D01*
X113082540Y-41128595D01*
X113082537Y-41128596D01*
X112867219Y-41186290D01*
X112867209Y-41186293D01*
X112661277Y-41271593D01*
X112661273Y-41271595D01*
X112468226Y-41383052D01*
X112468217Y-41383058D01*
X112291377Y-41518751D01*
X112291370Y-41518757D01*
X112133757Y-41676370D01*
X112133751Y-41676377D01*
X111998058Y-41853217D01*
X111998052Y-41853226D01*
X111886595Y-42046273D01*
X111886593Y-42046277D01*
X111801293Y-42252209D01*
X111801290Y-42252219D01*
X111747701Y-42452219D01*
X111743597Y-42467534D01*
X111743594Y-42467547D01*
X111714501Y-42688533D01*
X111714500Y-42688549D01*
X111714500Y-42751374D01*
X111694815Y-42818413D01*
X111678181Y-42839055D01*
X107367369Y-47149866D01*
X107306046Y-47183351D01*
X107236354Y-47178367D01*
X107180421Y-47136495D01*
X107156004Y-47071031D01*
X107170856Y-47002758D01*
X107181313Y-46986698D01*
X107187677Y-46978405D01*
X107211948Y-46946774D01*
X107323405Y-46753726D01*
X107408710Y-46547781D01*
X107466404Y-46332463D01*
X107495500Y-46111457D01*
X107495500Y-45888543D01*
X107466404Y-45667537D01*
X107408710Y-45452219D01*
X107323405Y-45246274D01*
X107211948Y-45053226D01*
X107076247Y-44876376D01*
X107076242Y-44876370D01*
X106918629Y-44718757D01*
X106918622Y-44718751D01*
X106741782Y-44583058D01*
X106741780Y-44583056D01*
X106741774Y-44583052D01*
X106741769Y-44583049D01*
X106741766Y-44583047D01*
X106610719Y-44507387D01*
X106562503Y-44456820D01*
X106549281Y-44388213D01*
X106575249Y-44323348D01*
X106610719Y-44292613D01*
X106741774Y-44216948D01*
X106918624Y-44081247D01*
X107076247Y-43923624D01*
X107211948Y-43746774D01*
X107323405Y-43553726D01*
X107408710Y-43347781D01*
X107466404Y-43132463D01*
X107495500Y-42911457D01*
X107495500Y-42688543D01*
X107466404Y-42467537D01*
X107408710Y-42252219D01*
X107323405Y-42046274D01*
X107211948Y-41853226D01*
X107108762Y-41718751D01*
X107076248Y-41676377D01*
X107076242Y-41676370D01*
X106918629Y-41518757D01*
X106918622Y-41518751D01*
X106741782Y-41383058D01*
X106741780Y-41383057D01*
X106741774Y-41383052D01*
X106548726Y-41271595D01*
X106548722Y-41271593D01*
X106342790Y-41186293D01*
X106342783Y-41186291D01*
X106342781Y-41186290D01*
X106127463Y-41128596D01*
X106127457Y-41128595D01*
X106127452Y-41128594D01*
X105906466Y-41099501D01*
X105906463Y-41099500D01*
X105906457Y-41099500D01*
X105683543Y-41099500D01*
X105683537Y-41099500D01*
X105683533Y-41099501D01*
X105462547Y-41128594D01*
X105462540Y-41128595D01*
X105462537Y-41128596D01*
X105247219Y-41186290D01*
X105247209Y-41186293D01*
X105041277Y-41271593D01*
X105041273Y-41271595D01*
X104848226Y-41383052D01*
X104848217Y-41383058D01*
X104671377Y-41518751D01*
X104671371Y-41518756D01*
X104626949Y-41563180D01*
X104600020Y-41577884D01*
X104574202Y-41594477D01*
X104568002Y-41595368D01*
X104565626Y-41596666D01*
X104539267Y-41599500D01*
X104310733Y-41599500D01*
X104243694Y-41579815D01*
X104223056Y-41563185D01*
X104128624Y-41468753D01*
X104128623Y-41468752D01*
X104128621Y-41468750D01*
X103951782Y-41333058D01*
X103951780Y-41333057D01*
X103951774Y-41333052D01*
X103758726Y-41221595D01*
X103758722Y-41221593D01*
X103552790Y-41136293D01*
X103552783Y-41136291D01*
X103552781Y-41136290D01*
X103337463Y-41078596D01*
X103337457Y-41078595D01*
X103337452Y-41078594D01*
X103116466Y-41049501D01*
X103116463Y-41049500D01*
X103116457Y-41049500D01*
X102893543Y-41049500D01*
X102893537Y-41049500D01*
X102893533Y-41049501D01*
X102672547Y-41078594D01*
X102672540Y-41078595D01*
X102672537Y-41078596D01*
X102485941Y-41128594D01*
X102457219Y-41136290D01*
X102457209Y-41136293D01*
X102251277Y-41221593D01*
X102251273Y-41221595D01*
X102058226Y-41333052D01*
X102058216Y-41333058D01*
X101880527Y-41469403D01*
X101815357Y-41494597D01*
X101746913Y-41480558D01*
X101696923Y-41431744D01*
X101681260Y-41363652D01*
X101704897Y-41297902D01*
X101717354Y-41283352D01*
X102963888Y-40036819D01*
X103025211Y-40003334D01*
X103051569Y-40000500D01*
X152145898Y-40000500D01*
X152212937Y-40020185D01*
G37*
%TD.AperFunction*%
%TD*%
M02*
