M48
; DRILL file {KiCad 9.0.6} date 2025-11-30T22:20:58+0200
; FORMAT={-:-/ absolute / metric / decimal}
; #@! TF.CreationDate,2025-11-30T22:20:58+02:00
; #@! TF.GenerationSoftware,Kicad,Pcbnew,9.0.6
; #@! TF.FileFunction,Plated,1,2,PTH
FMAT,2
METRIC
; #@! TA.AperFunction,Plated,PTH,ComponentDrill
T1C0.700
; #@! TA.AperFunction,Plated,PTH,ComponentDrill
T2C0.800
; #@! TA.AperFunction,Plated,PTH,ComponentDrill
T3C0.900
; #@! TA.AperFunction,Plated,PTH,ComponentDrill
T4C1.000
%
G90
G05
T1
X120.68Y-41.2
X120.68Y-43.4
X120.68Y-45.6
X120.7Y-66.0
X120.7Y-73.62
X121.68Y-81.1
X121.68Y-83.3
X121.7Y-78.8
X123.0Y-66.08
X123.0Y-73.7
X128.3Y-41.2
X128.3Y-43.4
X128.3Y-45.6
X129.3Y-81.1
X129.3Y-83.3
X129.32Y-78.8
X136.821Y-81.1
X136.821Y-83.3
X136.841Y-78.7
X136.873Y-41.35
X136.873Y-43.55
X136.873Y-45.75
X144.441Y-81.1
X144.441Y-83.3
X144.461Y-78.7
X144.493Y-41.35
X144.493Y-43.55
X144.493Y-45.75
T2
X135.62Y-53.4
X135.62Y-68.894
X138.0Y-53.4
X138.0Y-68.894
X140.54Y-53.4
X140.54Y-68.894
X143.08Y-53.4
X143.08Y-68.894
X145.62Y-53.4
X145.62Y-68.894
X148.16Y-53.4
X148.16Y-68.894
X150.7Y-53.4
X150.7Y-68.894
X153.24Y-53.4
X153.24Y-68.894
T3
X111.53Y-71.4
X112.1Y-43.4
X112.582Y-81.0
X113.689Y-71.4
X114.259Y-43.4
X114.741Y-81.0
X115.848Y-71.4
X116.418Y-43.4
X116.9Y-81.0
X118.007Y-71.4
X118.577Y-43.4
X119.059Y-81.0
X146.623Y-81.1
X146.696Y-43.55
X148.782Y-81.1
X148.855Y-43.55
X150.941Y-81.1
X151.014Y-43.55
X153.1Y-81.1
X153.173Y-43.55
T4
X114.6Y-50.44
X114.6Y-52.98
X114.6Y-55.52
X114.6Y-58.06
X114.6Y-60.6
X114.6Y-63.14
X136.025Y-72.75
X136.025Y-75.29
M30
