%TF.GenerationSoftware,KiCad,Pcbnew,9.0.6*%
%TF.CreationDate,2026-01-18T12:36:42+02:00*%
%TF.ProjectId,pcb,7063622e-6b69-4636-9164-5f7063625858,rev?*%
%TF.SameCoordinates,Original*%
%TF.FileFunction,Copper,L1,Top*%
%TF.FilePolarity,Positive*%
%FSLAX46Y46*%
G04 Gerber Fmt 4.6, Leading zero omitted, Abs format (unit mm)*
G04 Created by KiCad (PCBNEW 9.0.6) date 2026-01-18 12:36:42*
%MOMM*%
%LPD*%
G01*
G04 APERTURE LIST*
G04 Aperture macros list*
%AMRoundRect*
0 Rectangle with rounded corners*
0 $1 Rounding radius*
0 $2 $3 $4 $5 $6 $7 $8 $9 X,Y pos of 4 corners*
0 Add a 4 corners polygon primitive as box body*
4,1,4,$2,$3,$4,$5,$6,$7,$8,$9,$2,$3,0*
0 Add four circle primitives for the rounded corners*
1,1,$1+$1,$2,$3*
1,1,$1+$1,$4,$5*
1,1,$1+$1,$6,$7*
1,1,$1+$1,$8,$9*
0 Add four rect primitives between the rounded corners*
20,1,$1+$1,$2,$3,$4,$5,0*
20,1,$1+$1,$4,$5,$6,$7,0*
20,1,$1+$1,$6,$7,$8,$9,0*
20,1,$1+$1,$8,$9,$2,$3,0*%
%AMOutline5P*
0 Free polygon, 5 corners , with rotation*
0 The origin of the aperture is its center*
0 number of corners: always 5*
0 $1 to $10 corner X, Y*
0 $11 Rotation angle, in degrees counterclockwise*
0 create outline with 5 corners*
4,1,5,$1,$2,$3,$4,$5,$6,$7,$8,$9,$10,$1,$2,$11*%
%AMOutline6P*
0 Free polygon, 6 corners , with rotation*
0 The origin of the aperture is its center*
0 number of corners: always 6*
0 $1 to $12 corner X, Y*
0 $13 Rotation angle, in degrees counterclockwise*
0 create outline with 6 corners*
4,1,6,$1,$2,$3,$4,$5,$6,$7,$8,$9,$10,$11,$12,$1,$2,$13*%
%AMOutline7P*
0 Free polygon, 7 corners , with rotation*
0 The origin of the aperture is its center*
0 number of corners: always 7*
0 $1 to $14 corner X, Y*
0 $15 Rotation angle, in degrees counterclockwise*
0 create outline with 7 corners*
4,1,7,$1,$2,$3,$4,$5,$6,$7,$8,$9,$10,$11,$12,$13,$14,$1,$2,$15*%
%AMOutline8P*
0 Free polygon, 8 corners , with rotation*
0 The origin of the aperture is its center*
0 number of corners: always 8*
0 $1 to $16 corner X, Y*
0 $17 Rotation angle, in degrees counterclockwise*
0 create outline with 8 corners*
4,1,8,$1,$2,$3,$4,$5,$6,$7,$8,$9,$10,$11,$12,$13,$14,$15,$16,$1,$2,$17*%
G04 Aperture macros list end*
%TA.AperFunction,ComponentPad*%
%ADD10C,1.700000*%
%TD*%
%TA.AperFunction,ComponentPad*%
%ADD11R,1.700000X1.700000*%
%TD*%
%TA.AperFunction,ComponentPad*%
%ADD12C,1.400000*%
%TD*%
%TA.AperFunction,ComponentPad*%
%ADD13R,1.800000X1.800000*%
%TD*%
%TA.AperFunction,ComponentPad*%
%ADD14C,1.800000*%
%TD*%
%TA.AperFunction,ComponentPad*%
%ADD15RoundRect,0.250000X0.725000X-0.600000X0.725000X0.600000X-0.725000X0.600000X-0.725000X-0.600000X0*%
%TD*%
%TA.AperFunction,ComponentPad*%
%ADD16O,1.950000X1.700000*%
%TD*%
%TA.AperFunction,ComponentPad*%
%ADD17Outline5P,-1.500000X0.600000X1.500000X0.600000X1.500000X-0.600000X-1.260000X-0.600000X-1.500000X-0.360000X90.000000*%
%TD*%
%TA.AperFunction,ComponentPad*%
%ADD18RoundRect,0.250000X0.350000X-1.250000X0.350000X1.250000X-0.350000X1.250000X-0.350000X-1.250000X0*%
%TD*%
%TA.AperFunction,Conductor*%
%ADD19C,0.200000*%
%TD*%
G04 APERTURE END LIST*
D10*
%TO.P,J2,2,Pin_2*%
%TO.N,GND*%
X147160000Y-75600000D03*
D11*
%TO.P,J2,1,Pin_1*%
%TO.N,Net-(J2-Pin_1)*%
X149700000Y-75600000D03*
%TD*%
D12*
%TO.P,R5,1*%
%TO.N,/G*%
X129320000Y-44600000D03*
%TO.P,R5,2*%
%TO.N,Net-(D2-GA)*%
X121700000Y-44600000D03*
%TD*%
%TO.P,R1,1*%
%TO.N,/R*%
X136200000Y-42400000D03*
%TO.P,R1,2*%
%TO.N,Net-(D1-RA)*%
X143820000Y-42400000D03*
%TD*%
D13*
%TO.P,D3,1,RA*%
%TO.N,Net-(D3-RA)*%
X152518000Y-80600000D03*
D14*
%TO.P,D3,2,K*%
%TO.N,GND*%
X150359000Y-80600000D03*
%TO.P,D3,3,GA*%
%TO.N,Net-(D3-GA)*%
X148200000Y-80600000D03*
%TO.P,D3,4,BA*%
%TO.N,Net-(D3-BA)*%
X146041000Y-80600000D03*
%TD*%
D12*
%TO.P,R10,1*%
%TO.N,/B*%
X129700000Y-78270000D03*
%TO.P,R10,2*%
%TO.N,Net-(D4-BA)*%
X122080000Y-78270000D03*
%TD*%
%TO.P,R3,1*%
%TO.N,/B*%
X136200000Y-46800000D03*
%TO.P,R3,2*%
%TO.N,Net-(D1-BA)*%
X143820000Y-46800000D03*
%TD*%
%TO.P,R12,1*%
%TO.N,/R*%
X129700000Y-82800000D03*
%TO.P,R12,2*%
%TO.N,Net-(D4-RA)*%
X122080000Y-82800000D03*
%TD*%
%TO.P,R2,1*%
%TO.N,/G*%
X136200000Y-44600000D03*
%TO.P,R2,2*%
%TO.N,Net-(D1-GA)*%
X143820000Y-44600000D03*
%TD*%
%TO.P,R11,1*%
%TO.N,/G*%
X129700000Y-80550000D03*
%TO.P,R11,2*%
%TO.N,Net-(D4-GA)*%
X122080000Y-80550000D03*
%TD*%
%TO.P,R7,1*%
%TO.N,/B*%
X135570000Y-78410000D03*
%TO.P,R7,2*%
%TO.N,Net-(D3-BA)*%
X143190000Y-78410000D03*
%TD*%
D13*
%TO.P,D2,1,RA*%
%TO.N,Net-(D2-RA)*%
X118940000Y-44600000D03*
D14*
%TO.P,D2,2,K*%
%TO.N,GND*%
X116781000Y-44600000D03*
%TO.P,D2,3,GA*%
%TO.N,Net-(D2-GA)*%
X114622000Y-44600000D03*
%TO.P,D2,4,BA*%
%TO.N,Net-(D2-BA)*%
X112463000Y-44600000D03*
%TD*%
D12*
%TO.P,R8,1*%
%TO.N,/G*%
X135580000Y-80610000D03*
%TO.P,R8,2*%
%TO.N,Net-(D3-GA)*%
X143200000Y-80610000D03*
%TD*%
D15*
%TO.P,D7,1,A1*%
%TO.N,Net-(D7-A1)*%
X114000000Y-73410000D03*
D16*
%TO.P,D7,2,K*%
%TO.N,GND*%
X114000000Y-70910000D03*
%TO.P,D7,3,A2*%
%TO.N,Net-(D7-A2)*%
X114000000Y-68410000D03*
%TD*%
D17*
%TO.P,U1,1,5V*%
%TO.N,Net-(J2-Pin_1)*%
X151940000Y-71520000D03*
D18*
%TO.P,U1,2,GND*%
%TO.N,GND*%
X149400000Y-71520000D03*
%TO.P,U1,3,3V3*%
%TO.N,unconnected-(U1-3V3-Pad3)*%
X146860000Y-71520000D03*
%TO.P,U1,4,GPIO4*%
%TO.N,unconnected-(U1-GPIO4-Pad4)*%
X144320000Y-71520000D03*
%TO.P,U1,5,GPIO3*%
%TO.N,/R*%
X141780000Y-71520000D03*
%TO.P,U1,6,GPIO2*%
%TO.N,/G*%
X139240000Y-71520000D03*
%TO.P,U1,7,GPIO1*%
%TO.N,/B*%
X136700000Y-71520000D03*
%TO.P,U1,8,GPIO0*%
%TO.N,unconnected-(U1-GPIO0-Pad8)*%
X134160000Y-71520000D03*
%TO.P,U1,9,GPIO5*%
%TO.N,Net-(U1-GPIO5)*%
X151940000Y-54680000D03*
%TO.P,U1,10,GPIO6*%
%TO.N,Net-(U1-GPIO6)*%
X149400000Y-54680000D03*
%TO.P,U1,11,GPIO7*%
%TO.N,unconnected-(U1-GPIO7-Pad11)*%
X146860000Y-54680000D03*
%TO.P,U1,12,GPIO8*%
%TO.N,unconnected-(U1-GPIO8-Pad12)*%
X144320000Y-54680000D03*
%TO.P,U1,13,GPIO9*%
%TO.N,unconnected-(U1-GPIO9-Pad13)*%
X141780000Y-54680000D03*
%TO.P,U1,14,GPIO10*%
%TO.N,unconnected-(U1-GPIO10-Pad14)*%
X139240000Y-54680000D03*
%TO.P,U1,15,GPIO20*%
%TO.N,unconnected-(U1-GPIO20-Pad15)*%
X136700000Y-54680000D03*
%TO.P,U1,16,GPIO21*%
%TO.N,unconnected-(U1-GPIO21-Pad16)*%
X134160000Y-54680000D03*
%TD*%
D12*
%TO.P,R6,1*%
%TO.N,/R*%
X129320000Y-42400000D03*
%TO.P,R6,2*%
%TO.N,Net-(D2-RA)*%
X121700000Y-42400000D03*
%TD*%
%TO.P,R14,1*%
%TO.N,Net-(U1-GPIO5)*%
X128200000Y-67100000D03*
%TO.P,R14,2*%
%TO.N,Net-(D7-A2)*%
X120580000Y-67100000D03*
%TD*%
%TO.P,R4,1*%
%TO.N,/B*%
X129310000Y-46800000D03*
%TO.P,R4,2*%
%TO.N,Net-(D2-BA)*%
X121690000Y-46800000D03*
%TD*%
D13*
%TO.P,D4,1,RA*%
%TO.N,Net-(D4-RA)*%
X119080000Y-80600000D03*
D14*
%TO.P,D4,2,K*%
%TO.N,GND*%
X116921000Y-80600000D03*
%TO.P,D4,3,GA*%
%TO.N,Net-(D4-GA)*%
X114762000Y-80600000D03*
%TO.P,D4,4,BA*%
%TO.N,Net-(D4-BA)*%
X112603000Y-80600000D03*
%TD*%
D13*
%TO.P,D1,1,RA*%
%TO.N,Net-(D1-RA)*%
X152518000Y-44600000D03*
D14*
%TO.P,D1,2,K*%
%TO.N,GND*%
X150359000Y-44600000D03*
%TO.P,D1,3,GA*%
%TO.N,Net-(D1-GA)*%
X148200000Y-44600000D03*
%TO.P,D1,4,BA*%
%TO.N,Net-(D1-BA)*%
X146041000Y-44600000D03*
%TD*%
D12*
%TO.P,R13,1*%
%TO.N,Net-(D7-A1)*%
X120580000Y-69600000D03*
%TO.P,R13,2*%
%TO.N,Net-(U1-GPIO6)*%
X128200000Y-69600000D03*
%TD*%
%TO.P,R9,1*%
%TO.N,/R*%
X135580000Y-82810000D03*
%TO.P,R9,2*%
%TO.N,Net-(D3-RA)*%
X143200000Y-82810000D03*
%TD*%
D19*
%TO.N,Net-(D4-GA)*%
X114762000Y-80600000D02*
X116262000Y-79100000D01*
X116262000Y-79100000D02*
X120630000Y-79100000D01*
X120630000Y-79100000D02*
X122080000Y-80550000D01*
%TO.N,Net-(D2-BA)*%
X112463000Y-44600000D02*
X115463000Y-47600000D01*
X115463000Y-47600000D02*
X120890000Y-47600000D01*
X120890000Y-47600000D02*
X121690000Y-46800000D01*
%TO.N,GND*%
X154200000Y-75100000D02*
X154200000Y-82100000D01*
X152200000Y-84100000D02*
X119148208Y-84100000D01*
X150359000Y-79441000D02*
X154200000Y-75600000D01*
X154200000Y-75600000D02*
X154200000Y-75100000D01*
X150359000Y-80600000D02*
X150359000Y-79441000D01*
X119148208Y-84100000D02*
X116921000Y-81872792D01*
X116921000Y-81872792D02*
X116921000Y-80600000D01*
X154200000Y-82100000D02*
X152200000Y-84100000D01*
X150359000Y-44600000D02*
X150359000Y-47259000D01*
X150359000Y-79327208D02*
X150359000Y-80600000D01*
X150359000Y-47259000D02*
X154200000Y-51100000D01*
X154200000Y-51100000D02*
X154200000Y-75486208D01*
%TO.N,Net-(D7-A2)*%
X114000000Y-68410000D02*
X115310000Y-67100000D01*
X115310000Y-67100000D02*
X120580000Y-67100000D01*
%TO.N,Net-(D1-GA)*%
X145320000Y-43100000D02*
X146700000Y-43100000D01*
X143820000Y-44600000D02*
X145320000Y-43100000D01*
X146700000Y-43100000D02*
X148200000Y-44600000D01*
%TO.N,Net-(D1-RA)*%
X150318000Y-42400000D02*
X152518000Y-44600000D01*
X143820000Y-42400000D02*
X150318000Y-42400000D01*
%TO.N,Net-(D1-BA)*%
X143820000Y-46800000D02*
X146020000Y-44600000D01*
X146020000Y-44600000D02*
X146041000Y-44600000D01*
%TO.N,GND*%
X112200000Y-42100000D02*
X110700000Y-43600000D01*
X110700000Y-67610000D02*
X114000000Y-70910000D01*
X110700000Y-43600000D02*
X110700000Y-67610000D01*
X116781000Y-44600000D02*
X114281000Y-42100000D01*
X114281000Y-42100000D02*
X112200000Y-42100000D01*
%TO.N,Net-(D2-RA)*%
X119500000Y-44600000D02*
X121700000Y-42400000D01*
X118940000Y-44600000D02*
X119500000Y-44600000D01*
%TO.N,Net-(D2-GA)*%
X119901000Y-46399000D02*
X121700000Y-44600000D01*
X114622000Y-44600000D02*
X116421000Y-46399000D01*
X116421000Y-46399000D02*
X119901000Y-46399000D01*
%TO.N,Net-(D3-BA)*%
X143190000Y-78410000D02*
X145380000Y-80600000D01*
X145380000Y-80600000D02*
X146041000Y-80600000D01*
%TO.N,Net-(D3-RA)*%
X150308000Y-82810000D02*
X152518000Y-80600000D01*
X143200000Y-82810000D02*
X150308000Y-82810000D01*
%TO.N,Net-(D4-RA)*%
X119080000Y-80600000D02*
X119880000Y-80600000D01*
X119880000Y-80600000D02*
X122080000Y-82800000D01*
%TO.N,/G*%
X125200000Y-48720000D02*
X129320000Y-44600000D01*
X129700000Y-80550000D02*
X125200000Y-76050000D01*
X129700000Y-80550000D02*
X135520000Y-80550000D01*
X135520000Y-80550000D02*
X135580000Y-80610000D01*
X139240000Y-76950000D02*
X135580000Y-80610000D01*
X129320000Y-44600000D02*
X136200000Y-44600000D01*
X125200000Y-76050000D02*
X125200000Y-48720000D01*
X139240000Y-70720000D02*
X139240000Y-76950000D01*
%TO.N,/B*%
X129310000Y-46800000D02*
X126700000Y-49410000D01*
X126700000Y-49410000D02*
X126700000Y-75270000D01*
X136700000Y-70720000D02*
X136700000Y-77280000D01*
X136700000Y-77280000D02*
X135570000Y-78410000D01*
X129840000Y-78410000D02*
X129700000Y-78270000D01*
X135570000Y-78410000D02*
X129840000Y-78410000D01*
X129310000Y-46800000D02*
X136200000Y-46800000D01*
X126700000Y-75270000D02*
X129700000Y-78270000D01*
%TO.N,/R*%
X141780000Y-76610000D02*
X135580000Y-82810000D01*
X129700000Y-82800000D02*
X135570000Y-82800000D01*
X123700000Y-48020000D02*
X123700000Y-76800000D01*
X141780000Y-70720000D02*
X141780000Y-76610000D01*
X135570000Y-82800000D02*
X135580000Y-82810000D01*
X129320000Y-42400000D02*
X123700000Y-48020000D01*
X123700000Y-76800000D02*
X129700000Y-82800000D01*
X129320000Y-42400000D02*
X136200000Y-42400000D01*
%TO.N,Net-(D7-A1)*%
X116770000Y-73410000D02*
X120580000Y-69600000D01*
X114000000Y-73410000D02*
X116770000Y-73410000D01*
%TO.N,Net-(U1-GPIO6)*%
X149400000Y-55480000D02*
X149400000Y-53800000D01*
X133700000Y-52100000D02*
X130200000Y-55600000D01*
X147700000Y-52100000D02*
X133700000Y-52100000D01*
X149400000Y-53800000D02*
X147700000Y-52100000D01*
X130200000Y-67600000D02*
X128200000Y-69600000D01*
X130200000Y-55600000D02*
X130200000Y-67600000D01*
%TO.N,Net-(U1-GPIO5)*%
X151940000Y-53340000D02*
X151940000Y-55480000D01*
X133200000Y-50100000D02*
X148700000Y-50100000D01*
X128200000Y-55100000D02*
X133200000Y-50100000D01*
X148700000Y-50100000D02*
X151940000Y-53340000D01*
X128200000Y-67100000D02*
X128200000Y-55100000D01*
%TO.N,GND*%
X147200000Y-75600000D02*
X150359000Y-78759000D01*
X147160000Y-75600000D02*
X149400000Y-73360000D01*
X149400000Y-73360000D02*
X149400000Y-70720000D01*
X147160000Y-75600000D02*
X147200000Y-75600000D01*
%TO.N,Net-(J2-Pin_1)*%
X149700000Y-75600000D02*
X151940000Y-73360000D01*
X151940000Y-73360000D02*
X151940000Y-70720000D01*
%TO.N,GND*%
X150359000Y-78759000D02*
X150359000Y-80600000D01*
X154200000Y-75486208D02*
X150359000Y-79327208D01*
%TO.N,Net-(D4-BA)*%
X121910000Y-78100000D02*
X122080000Y-78270000D01*
X115103000Y-78100000D02*
X121910000Y-78100000D01*
X112603000Y-80600000D02*
X115103000Y-78100000D01*
%TO.N,Net-(D3-GA)*%
X146700000Y-82100000D02*
X148200000Y-80600000D01*
X144690000Y-82100000D02*
X146700000Y-82100000D01*
X143200000Y-80610000D02*
X144690000Y-82100000D01*
%TO.N,GND*%
X112890000Y-70910000D02*
X114000000Y-70910000D01*
X114921000Y-82600000D02*
X111700000Y-82600000D01*
X110700000Y-73100000D02*
X112890000Y-70910000D01*
X110700000Y-81600000D02*
X110700000Y-73100000D01*
X111700000Y-82600000D02*
X110700000Y-81600000D01*
X116921000Y-80600000D02*
X114921000Y-82600000D01*
%TD*%
%TA.AperFunction,Conductor*%
%TO.N,GND*%
G36*
X149939667Y-80773694D02*
G01*
X149998910Y-80876306D01*
X150082694Y-80960090D01*
X150185306Y-81019333D01*
X150270413Y-81042137D01*
X149561485Y-81751065D01*
X149561485Y-81751066D01*
X149625243Y-81797388D01*
X149821589Y-81897432D01*
X150035800Y-81967033D01*
X150035254Y-81968712D01*
X150089251Y-81999713D01*
X150121417Y-82061738D01*
X150114944Y-82131307D01*
X150071886Y-82186333D01*
X150005915Y-82209345D01*
X149999715Y-82209500D01*
X148561435Y-82209500D01*
X148494396Y-82189815D01*
X148448641Y-82137011D01*
X148438697Y-82067853D01*
X148467722Y-82004297D01*
X148523598Y-81968387D01*
X148523317Y-81967521D01*
X148737603Y-81897896D01*
X148737606Y-81897895D01*
X148744642Y-81894310D01*
X148934022Y-81797815D01*
X149112365Y-81668242D01*
X149268242Y-81512365D01*
X149397815Y-81334022D01*
X149497895Y-81137606D01*
X149503160Y-81121398D01*
X149533411Y-81072034D01*
X149916861Y-80688583D01*
X149939667Y-80773694D01*
G37*
%TD.AperFunction*%
%TA.AperFunction,Conductor*%
G36*
X119536247Y-67720185D02*
G01*
X119569524Y-67751612D01*
X119664310Y-67882073D01*
X119797927Y-68015690D01*
X119950801Y-68126760D01*
X120030347Y-68167290D01*
X120119163Y-68212545D01*
X120119165Y-68212545D01*
X120119168Y-68212547D01*
X120179251Y-68232069D01*
X120236926Y-68271507D01*
X120264124Y-68335866D01*
X120252209Y-68404712D01*
X120204965Y-68456188D01*
X120179253Y-68467930D01*
X120160756Y-68473939D01*
X120119163Y-68487454D01*
X119950800Y-68573240D01*
X119866852Y-68634233D01*
X119797927Y-68684310D01*
X119797925Y-68684312D01*
X119797924Y-68684312D01*
X119664312Y-68817924D01*
X119664312Y-68817925D01*
X119664310Y-68817927D01*
X119616610Y-68883579D01*
X119553240Y-68970800D01*
X119467454Y-69139163D01*
X119409059Y-69318881D01*
X119379500Y-69505513D01*
X119379500Y-69694486D01*
X119404725Y-69853750D01*
X119395770Y-69923043D01*
X119369933Y-69960829D01*
X116557584Y-72773181D01*
X116496261Y-72806666D01*
X116469903Y-72809500D01*
X115592535Y-72809500D01*
X115525496Y-72789815D01*
X115479741Y-72737011D01*
X115469177Y-72698102D01*
X115468663Y-72693071D01*
X115464999Y-72657203D01*
X115409814Y-72490666D01*
X115317712Y-72341344D01*
X115193656Y-72217288D01*
X115044334Y-72125186D01*
X115044332Y-72125185D01*
X115038440Y-72121551D01*
X114991716Y-72069603D01*
X114980493Y-72000641D01*
X115008337Y-71936558D01*
X115015856Y-71928330D01*
X115154728Y-71789458D01*
X115279620Y-71617557D01*
X115376095Y-71428217D01*
X115441757Y-71226129D01*
X115441757Y-71226126D01*
X115452231Y-71160000D01*
X114404146Y-71160000D01*
X114442630Y-71093343D01*
X114475000Y-70972535D01*
X114475000Y-70847465D01*
X114442630Y-70726657D01*
X114404146Y-70660000D01*
X115452231Y-70660000D01*
X115441757Y-70593873D01*
X115441757Y-70593870D01*
X115376095Y-70391782D01*
X115279620Y-70202442D01*
X115154727Y-70030540D01*
X115154723Y-70030535D01*
X115004464Y-69880276D01*
X115004459Y-69880272D01*
X114839781Y-69760627D01*
X114797115Y-69705297D01*
X114791136Y-69635684D01*
X114823741Y-69573889D01*
X114839776Y-69559994D01*
X115004792Y-69440104D01*
X115155104Y-69289792D01*
X115155106Y-69289788D01*
X115155109Y-69289786D01*
X115280048Y-69117820D01*
X115280047Y-69117820D01*
X115280051Y-69117816D01*
X115376557Y-68928412D01*
X115442246Y-68726243D01*
X115475500Y-68516287D01*
X115475500Y-68303713D01*
X115442246Y-68093757D01*
X115397852Y-67957129D01*
X115397418Y-67941917D01*
X115392100Y-67927658D01*
X115396441Y-67907702D01*
X115395858Y-67887290D01*
X115403945Y-67873204D01*
X115406952Y-67859385D01*
X115428104Y-67831131D01*
X115522419Y-67736818D01*
X115583742Y-67703334D01*
X115610099Y-67700500D01*
X119469208Y-67700500D01*
X119536247Y-67720185D01*
G37*
%TD.AperFunction*%
%TA.AperFunction,Conductor*%
G36*
X150035394Y-43020185D02*
G01*
X150081149Y-43072989D01*
X150091093Y-43142147D01*
X150062068Y-43205703D01*
X150006673Y-43242431D01*
X149821589Y-43302567D01*
X149625233Y-43402616D01*
X149561485Y-43448931D01*
X149561485Y-43448932D01*
X150270414Y-44157861D01*
X150185306Y-44180667D01*
X150082694Y-44239910D01*
X149998910Y-44323694D01*
X149939667Y-44426306D01*
X149916861Y-44511414D01*
X149533411Y-44127964D01*
X149503160Y-44078598D01*
X149497896Y-44062396D01*
X149490935Y-44048735D01*
X149397815Y-43865978D01*
X149279500Y-43703130D01*
X149268247Y-43687641D01*
X149268243Y-43687636D01*
X149112363Y-43531756D01*
X149112358Y-43531752D01*
X148934025Y-43402187D01*
X148934024Y-43402186D01*
X148934022Y-43402185D01*
X148816791Y-43342452D01*
X148737606Y-43302104D01*
X148737603Y-43302103D01*
X148553947Y-43242431D01*
X148496272Y-43202994D01*
X148469073Y-43138635D01*
X148480987Y-43069789D01*
X148528231Y-43018313D01*
X148592265Y-43000500D01*
X149968355Y-43000500D01*
X150035394Y-43020185D01*
G37*
%TD.AperFunction*%
%TA.AperFunction,Conductor*%
G36*
X154442539Y-40520185D02*
G01*
X154488294Y-40572989D01*
X154499500Y-40624500D01*
X154499500Y-84375500D01*
X154479815Y-84442539D01*
X154427011Y-84488294D01*
X154375500Y-84499500D01*
X110624500Y-84499500D01*
X110557461Y-84479815D01*
X110511706Y-84427011D01*
X110500500Y-84375500D01*
X110500500Y-80489778D01*
X111202500Y-80489778D01*
X111202500Y-80710222D01*
X111211995Y-80770172D01*
X111236985Y-80927952D01*
X111305103Y-81137603D01*
X111305104Y-81137606D01*
X111356870Y-81239199D01*
X111404192Y-81332074D01*
X111405187Y-81334025D01*
X111534752Y-81512358D01*
X111534756Y-81512363D01*
X111690636Y-81668243D01*
X111690641Y-81668247D01*
X111782005Y-81734626D01*
X111868978Y-81797815D01*
X111997375Y-81863237D01*
X112065393Y-81897895D01*
X112065396Y-81897896D01*
X112129112Y-81918598D01*
X112275049Y-81966015D01*
X112492778Y-82000500D01*
X112492779Y-82000500D01*
X112713221Y-82000500D01*
X112713222Y-82000500D01*
X112930951Y-81966015D01*
X113140606Y-81897895D01*
X113337022Y-81797815D01*
X113515365Y-81668242D01*
X113594819Y-81588788D01*
X113656142Y-81555303D01*
X113725834Y-81560287D01*
X113770181Y-81588788D01*
X113849636Y-81668243D01*
X113849641Y-81668247D01*
X113941005Y-81734626D01*
X114027978Y-81797815D01*
X114156375Y-81863237D01*
X114224393Y-81897895D01*
X114224396Y-81897896D01*
X114288112Y-81918598D01*
X114434049Y-81966015D01*
X114651778Y-82000500D01*
X114651779Y-82000500D01*
X114872221Y-82000500D01*
X114872222Y-82000500D01*
X115089951Y-81966015D01*
X115299606Y-81897895D01*
X115496022Y-81797815D01*
X115674365Y-81668242D01*
X115830242Y-81512365D01*
X115959815Y-81334022D01*
X116059895Y-81137606D01*
X116065160Y-81121398D01*
X116095411Y-81072034D01*
X116478861Y-80688583D01*
X116501667Y-80773694D01*
X116560910Y-80876306D01*
X116644694Y-80960090D01*
X116747306Y-81019333D01*
X116832413Y-81042137D01*
X116123485Y-81751065D01*
X116123485Y-81751066D01*
X116187243Y-81797388D01*
X116383589Y-81897432D01*
X116593164Y-81965526D01*
X116810819Y-82000000D01*
X117031181Y-82000000D01*
X117248835Y-81965526D01*
X117458413Y-81897431D01*
X117458417Y-81897429D01*
X117650544Y-81799535D01*
X117719213Y-81786638D01*
X117783953Y-81812914D01*
X117806104Y-81835706D01*
X117822453Y-81857545D01*
X117822455Y-81857547D01*
X117937664Y-81943793D01*
X117937671Y-81943797D01*
X118072517Y-81994091D01*
X118072516Y-81994091D01*
X118079444Y-81994835D01*
X118132127Y-82000500D01*
X120027872Y-82000499D01*
X120087483Y-81994091D01*
X120222331Y-81943796D01*
X120223373Y-81943016D01*
X120224592Y-81942561D01*
X120230114Y-81939546D01*
X120230547Y-81940339D01*
X120288837Y-81918598D01*
X120357110Y-81933449D01*
X120385366Y-81954601D01*
X120869933Y-82439168D01*
X120903418Y-82500491D01*
X120904725Y-82546247D01*
X120879500Y-82705513D01*
X120879500Y-82894486D01*
X120909059Y-83081118D01*
X120967454Y-83260836D01*
X121022861Y-83369577D01*
X121053240Y-83429199D01*
X121164310Y-83582073D01*
X121297927Y-83715690D01*
X121450801Y-83826760D01*
X121530347Y-83867290D01*
X121619163Y-83912545D01*
X121619165Y-83912545D01*
X121619168Y-83912547D01*
X121649945Y-83922547D01*
X121798881Y-83970940D01*
X121985514Y-84000500D01*
X121985519Y-84000500D01*
X122174486Y-84000500D01*
X122361118Y-83970940D01*
X122540832Y-83912547D01*
X122709199Y-83826760D01*
X122862073Y-83715690D01*
X122995690Y-83582073D01*
X123106760Y-83429199D01*
X123192547Y-83260832D01*
X123250940Y-83081118D01*
X123280500Y-82894486D01*
X123280500Y-82705513D01*
X123250940Y-82518881D01*
X123195796Y-82349168D01*
X123192547Y-82339168D01*
X123192545Y-82339165D01*
X123192545Y-82339163D01*
X123121383Y-82199500D01*
X123106760Y-82170801D01*
X122995690Y-82017927D01*
X122862073Y-81884310D01*
X122712058Y-81775317D01*
X122669394Y-81719988D01*
X122663415Y-81650374D01*
X122696021Y-81588579D01*
X122712059Y-81574682D01*
X122731872Y-81560287D01*
X122862073Y-81465690D01*
X122995690Y-81332073D01*
X123106760Y-81179199D01*
X123192547Y-81010832D01*
X123250940Y-80831118D01*
X123280500Y-80644486D01*
X123280500Y-80455513D01*
X123250940Y-80268881D01*
X123212041Y-80149163D01*
X123192547Y-80089168D01*
X123192545Y-80089165D01*
X123192545Y-80089163D01*
X123137331Y-79980800D01*
X123106760Y-79920801D01*
X122995690Y-79767927D01*
X122862073Y-79634310D01*
X122709199Y-79523240D01*
X122703794Y-79520486D01*
X122652997Y-79472514D01*
X122636200Y-79404693D01*
X122658735Y-79338558D01*
X122703794Y-79299514D01*
X122703916Y-79299451D01*
X122709199Y-79296760D01*
X122862073Y-79185690D01*
X122995690Y-79052073D01*
X123106760Y-78899199D01*
X123192547Y-78730832D01*
X123250940Y-78551118D01*
X123258326Y-78504486D01*
X123280500Y-78364486D01*
X123280500Y-78175513D01*
X123250940Y-77988881D01*
X123223846Y-77905497D01*
X123192547Y-77809168D01*
X123192545Y-77809165D01*
X123192545Y-77809163D01*
X123110793Y-77648717D01*
X123106760Y-77640801D01*
X122995690Y-77487927D01*
X122862073Y-77354310D01*
X122709199Y-77243240D01*
X122700993Y-77239059D01*
X122540836Y-77157454D01*
X122361118Y-77099059D01*
X122174486Y-77069500D01*
X122174481Y-77069500D01*
X121985519Y-77069500D01*
X121985514Y-77069500D01*
X121798881Y-77099059D01*
X121619163Y-77157454D01*
X121450800Y-77243240D01*
X121297928Y-77354309D01*
X121189055Y-77463182D01*
X121127732Y-77496666D01*
X121101374Y-77499500D01*
X115189669Y-77499500D01*
X115189653Y-77499499D01*
X115182057Y-77499499D01*
X115023943Y-77499499D01*
X114871215Y-77540423D01*
X114871214Y-77540423D01*
X114871212Y-77540424D01*
X114838175Y-77559499D01*
X114838172Y-77559500D01*
X114734290Y-77619475D01*
X114734282Y-77619481D01*
X114622478Y-77731286D01*
X113127202Y-79226561D01*
X113065879Y-79260046D01*
X113001203Y-79256811D01*
X112963498Y-79244560D01*
X112930952Y-79233985D01*
X112802113Y-79213579D01*
X112713222Y-79199500D01*
X112492778Y-79199500D01*
X112420201Y-79210995D01*
X112275047Y-79233985D01*
X112065396Y-79302103D01*
X112065393Y-79302104D01*
X111868974Y-79402187D01*
X111690641Y-79531752D01*
X111690636Y-79531756D01*
X111534756Y-79687636D01*
X111534752Y-79687641D01*
X111405187Y-79865974D01*
X111305104Y-80062393D01*
X111305103Y-80062396D01*
X111236985Y-80272047D01*
X111223649Y-80356246D01*
X111202500Y-80489778D01*
X110500500Y-80489778D01*
X110500500Y-76879054D01*
X123099498Y-76879054D01*
X123140423Y-77031787D01*
X123149910Y-77048217D01*
X123149909Y-77048217D01*
X123149911Y-77048219D01*
X123219475Y-77168709D01*
X123219481Y-77168717D01*
X123338349Y-77287585D01*
X123338355Y-77287590D01*
X128489933Y-82439168D01*
X128523418Y-82500491D01*
X128524725Y-82546247D01*
X128499500Y-82705513D01*
X128499500Y-82894486D01*
X128529059Y-83081118D01*
X128587454Y-83260836D01*
X128642861Y-83369577D01*
X128673240Y-83429199D01*
X128784310Y-83582073D01*
X128917927Y-83715690D01*
X129070801Y-83826760D01*
X129150347Y-83867290D01*
X129239163Y-83912545D01*
X129239165Y-83912545D01*
X129239168Y-83912547D01*
X129269945Y-83922547D01*
X129418881Y-83970940D01*
X129605514Y-84000500D01*
X129605519Y-84000500D01*
X129794486Y-84000500D01*
X129981118Y-83970940D01*
X130160832Y-83912547D01*
X130329199Y-83826760D01*
X130482073Y-83715690D01*
X130615690Y-83582073D01*
X130710475Y-83451613D01*
X130765804Y-83408949D01*
X130810792Y-83400500D01*
X134461942Y-83400500D01*
X134528981Y-83420185D01*
X134562260Y-83451614D01*
X134582855Y-83479961D01*
X134664310Y-83592073D01*
X134797927Y-83725690D01*
X134950801Y-83836760D01*
X135030347Y-83877290D01*
X135119163Y-83922545D01*
X135119165Y-83922545D01*
X135119168Y-83922547D01*
X135215497Y-83953846D01*
X135298881Y-83980940D01*
X135485514Y-84010500D01*
X135485519Y-84010500D01*
X135674486Y-84010500D01*
X135861118Y-83980940D01*
X136040832Y-83922547D01*
X136209199Y-83836760D01*
X136362073Y-83725690D01*
X136495690Y-83592073D01*
X136606760Y-83439199D01*
X136692547Y-83270832D01*
X136750940Y-83091118D01*
X136752524Y-83081118D01*
X136780500Y-82904486D01*
X136780500Y-82715513D01*
X136755274Y-82556246D01*
X136764228Y-82486953D01*
X136790063Y-82449170D01*
X140923721Y-78315513D01*
X141989500Y-78315513D01*
X141989500Y-78504486D01*
X142019059Y-78691118D01*
X142077454Y-78870836D01*
X142098521Y-78912181D01*
X142163240Y-79039199D01*
X142274310Y-79192073D01*
X142407927Y-79325690D01*
X142525547Y-79411146D01*
X142528531Y-79413314D01*
X142571196Y-79468644D01*
X142577175Y-79538258D01*
X142544569Y-79600053D01*
X142528532Y-79613949D01*
X142417927Y-79694309D01*
X142284312Y-79827924D01*
X142284312Y-79827925D01*
X142284310Y-79827927D01*
X142256667Y-79865974D01*
X142173240Y-79980800D01*
X142087454Y-80149163D01*
X142029059Y-80328881D01*
X141999500Y-80515513D01*
X141999500Y-80704486D01*
X142029059Y-80891118D01*
X142087454Y-81070836D01*
X142162543Y-81218205D01*
X142173240Y-81239199D01*
X142284310Y-81392073D01*
X142417927Y-81525690D01*
X142485358Y-81574682D01*
X142533531Y-81609682D01*
X142576197Y-81665013D01*
X142582175Y-81734626D01*
X142549569Y-81796421D01*
X142533531Y-81810318D01*
X142417925Y-81894311D01*
X142284312Y-82027924D01*
X142284312Y-82027925D01*
X142284310Y-82027927D01*
X142259745Y-82061738D01*
X142173240Y-82180800D01*
X142087454Y-82349163D01*
X142029059Y-82528881D01*
X141999500Y-82715513D01*
X141999500Y-82904486D01*
X142029059Y-83091118D01*
X142087454Y-83270836D01*
X142137765Y-83369576D01*
X142173240Y-83439199D01*
X142284310Y-83592073D01*
X142417927Y-83725690D01*
X142570801Y-83836760D01*
X142650347Y-83877290D01*
X142739163Y-83922545D01*
X142739165Y-83922545D01*
X142739168Y-83922547D01*
X142835497Y-83953846D01*
X142918881Y-83980940D01*
X143105514Y-84010500D01*
X143105519Y-84010500D01*
X143294486Y-84010500D01*
X143481118Y-83980940D01*
X143660832Y-83922547D01*
X143829199Y-83836760D01*
X143982073Y-83725690D01*
X144115690Y-83592073D01*
X144210475Y-83461613D01*
X144265804Y-83418949D01*
X144310792Y-83410500D01*
X150221331Y-83410500D01*
X150221347Y-83410501D01*
X150228943Y-83410501D01*
X150387054Y-83410501D01*
X150387057Y-83410501D01*
X150539785Y-83369577D01*
X150589904Y-83340639D01*
X150676716Y-83290520D01*
X150788520Y-83178716D01*
X150788520Y-83178714D01*
X150798728Y-83168507D01*
X150798730Y-83168504D01*
X151930416Y-82036818D01*
X151991739Y-82003333D01*
X152018097Y-82000499D01*
X153465871Y-82000499D01*
X153465872Y-82000499D01*
X153525483Y-81994091D01*
X153660331Y-81943796D01*
X153775546Y-81857546D01*
X153861796Y-81742331D01*
X153912091Y-81607483D01*
X153918500Y-81547873D01*
X153918499Y-79652128D01*
X153912091Y-79592517D01*
X153889429Y-79531758D01*
X153861797Y-79457671D01*
X153861793Y-79457664D01*
X153775547Y-79342455D01*
X153775544Y-79342452D01*
X153660335Y-79256206D01*
X153660328Y-79256202D01*
X153525482Y-79205908D01*
X153525483Y-79205908D01*
X153465883Y-79199501D01*
X153465881Y-79199500D01*
X153465873Y-79199500D01*
X153465864Y-79199500D01*
X151570129Y-79199500D01*
X151570123Y-79199501D01*
X151510516Y-79205908D01*
X151375671Y-79256202D01*
X151375664Y-79256206D01*
X151260455Y-79342452D01*
X151244106Y-79364292D01*
X151188172Y-79406163D01*
X151118480Y-79411146D01*
X151088545Y-79400465D01*
X150896410Y-79302567D01*
X150686835Y-79234473D01*
X150469181Y-79200000D01*
X150248819Y-79200000D01*
X150031164Y-79234473D01*
X149821589Y-79302567D01*
X149625233Y-79402616D01*
X149561485Y-79448931D01*
X149561485Y-79448932D01*
X150270414Y-80157861D01*
X150185306Y-80180667D01*
X150082694Y-80239910D01*
X149998910Y-80323694D01*
X149939667Y-80426306D01*
X149916861Y-80511414D01*
X149533411Y-80127964D01*
X149503160Y-80078598D01*
X149497896Y-80062396D01*
X149482437Y-80032057D01*
X149397815Y-79865978D01*
X149381260Y-79843192D01*
X149268247Y-79687641D01*
X149268243Y-79687636D01*
X149112363Y-79531756D01*
X149112358Y-79531752D01*
X148934025Y-79402187D01*
X148934024Y-79402186D01*
X148934022Y-79402185D01*
X148816791Y-79342452D01*
X148737606Y-79302104D01*
X148737603Y-79302103D01*
X148527952Y-79233985D01*
X148399113Y-79213579D01*
X148310222Y-79199500D01*
X148089778Y-79199500D01*
X148017201Y-79210995D01*
X147872047Y-79233985D01*
X147662396Y-79302103D01*
X147662393Y-79302104D01*
X147465974Y-79402187D01*
X147287641Y-79531752D01*
X147287636Y-79531756D01*
X147208181Y-79611212D01*
X147146858Y-79644697D01*
X147077166Y-79639713D01*
X147032819Y-79611212D01*
X146953363Y-79531756D01*
X146953358Y-79531752D01*
X146775025Y-79402187D01*
X146775024Y-79402186D01*
X146775022Y-79402185D01*
X146657791Y-79342452D01*
X146578606Y-79302104D01*
X146578603Y-79302103D01*
X146368952Y-79233985D01*
X146240113Y-79213579D01*
X146151222Y-79199500D01*
X145930778Y-79199500D01*
X145858201Y-79210995D01*
X145713047Y-79233985D01*
X145503396Y-79302103D01*
X145503393Y-79302104D01*
X145306979Y-79402184D01*
X145306971Y-79402189D01*
X145233053Y-79455892D01*
X145167247Y-79479371D01*
X145099193Y-79463544D01*
X145072489Y-79443254D01*
X144400066Y-78770831D01*
X144366581Y-78709508D01*
X144365274Y-78663752D01*
X144390500Y-78504486D01*
X144390500Y-78315513D01*
X144360940Y-78128881D01*
X144323277Y-78012969D01*
X144302547Y-77949168D01*
X144302545Y-77949165D01*
X144302545Y-77949163D01*
X144231383Y-77809500D01*
X144216760Y-77780801D01*
X144105690Y-77627927D01*
X143972073Y-77494310D01*
X143819199Y-77383240D01*
X143650836Y-77297454D01*
X143471118Y-77239059D01*
X143284486Y-77209500D01*
X143284481Y-77209500D01*
X143095519Y-77209500D01*
X143095514Y-77209500D01*
X142908881Y-77239059D01*
X142729163Y-77297454D01*
X142560800Y-77383240D01*
X142473579Y-77446610D01*
X142407927Y-77494310D01*
X142407925Y-77494312D01*
X142407924Y-77494312D01*
X142274312Y-77627924D01*
X142274312Y-77627925D01*
X142274310Y-77627927D01*
X142259211Y-77648709D01*
X142163240Y-77780800D01*
X142077454Y-77949163D01*
X142019059Y-78128881D01*
X141989500Y-78315513D01*
X140923721Y-78315513D01*
X142138506Y-77100728D01*
X142138511Y-77100724D01*
X142148714Y-77090520D01*
X142148716Y-77090520D01*
X142260520Y-76978716D01*
X142322743Y-76870942D01*
X142339577Y-76841785D01*
X142380500Y-76689057D01*
X142380500Y-76530943D01*
X142380500Y-75493753D01*
X145810000Y-75493753D01*
X145810000Y-75706246D01*
X145843242Y-75916127D01*
X145843242Y-75916130D01*
X145908904Y-76118217D01*
X146005375Y-76307550D01*
X146044728Y-76361716D01*
X146677037Y-75729408D01*
X146694075Y-75792993D01*
X146759901Y-75907007D01*
X146852993Y-76000099D01*
X146967007Y-76065925D01*
X147030590Y-76082962D01*
X146398282Y-76715269D01*
X146398282Y-76715270D01*
X146452449Y-76754624D01*
X146641782Y-76851095D01*
X146843870Y-76916757D01*
X147053754Y-76950000D01*
X147266246Y-76950000D01*
X147476127Y-76916757D01*
X147476130Y-76916757D01*
X147678217Y-76851095D01*
X147867554Y-76754622D01*
X147921716Y-76715270D01*
X147921717Y-76715270D01*
X147289408Y-76082962D01*
X147352993Y-76065925D01*
X147467007Y-76000099D01*
X147560099Y-75907007D01*
X147625925Y-75792993D01*
X147642962Y-75729408D01*
X148313181Y-76399628D01*
X148346666Y-76460951D01*
X148349500Y-76487300D01*
X148349500Y-76497865D01*
X148349501Y-76497876D01*
X148355908Y-76557483D01*
X148406202Y-76692328D01*
X148406206Y-76692335D01*
X148492452Y-76807544D01*
X148492455Y-76807547D01*
X148607664Y-76893793D01*
X148607671Y-76893797D01*
X148742517Y-76944091D01*
X148742516Y-76944091D01*
X148749444Y-76944835D01*
X148802127Y-76950500D01*
X150597872Y-76950499D01*
X150657483Y-76944091D01*
X150792331Y-76893796D01*
X150907546Y-76807546D01*
X150993796Y-76692331D01*
X151044091Y-76557483D01*
X151050500Y-76497873D01*
X151050499Y-75150095D01*
X151070184Y-75083057D01*
X151086813Y-75062420D01*
X152298506Y-73850728D01*
X152298511Y-73850724D01*
X152308714Y-73840520D01*
X152308716Y-73840520D01*
X152420520Y-73728716D01*
X152499577Y-73591784D01*
X152519759Y-73516462D01*
X152556122Y-73456803D01*
X152563450Y-73450641D01*
X152624935Y-73402879D01*
X152922884Y-73104931D01*
X152974864Y-73038016D01*
X153029940Y-72905050D01*
X153040500Y-72820977D01*
X153040499Y-69972128D01*
X153034091Y-69912517D01*
X153022064Y-69880272D01*
X152983797Y-69777671D01*
X152983793Y-69777664D01*
X152897547Y-69662455D01*
X152897544Y-69662452D01*
X152782335Y-69576206D01*
X152782328Y-69576202D01*
X152647482Y-69525908D01*
X152647483Y-69525908D01*
X152587883Y-69519501D01*
X152587881Y-69519500D01*
X152587873Y-69519500D01*
X152587864Y-69519500D01*
X151292129Y-69519500D01*
X151292123Y-69519501D01*
X151232516Y-69525908D01*
X151097671Y-69576202D01*
X151097664Y-69576206D01*
X150982455Y-69662452D01*
X150982452Y-69662455D01*
X150896206Y-69777664D01*
X150896202Y-69777671D01*
X150845908Y-69912517D01*
X150839501Y-69972116D01*
X150839501Y-69972123D01*
X150839500Y-69972135D01*
X150839500Y-73067870D01*
X150839501Y-73067876D01*
X150845908Y-73127483D01*
X150896202Y-73262328D01*
X150896203Y-73262329D01*
X150896204Y-73262331D01*
X150956920Y-73343437D01*
X150981337Y-73408901D01*
X150966486Y-73477174D01*
X150945334Y-73505429D01*
X150237582Y-74213181D01*
X150176259Y-74246666D01*
X150149901Y-74249500D01*
X148802129Y-74249500D01*
X148802123Y-74249501D01*
X148742516Y-74255908D01*
X148607671Y-74306202D01*
X148607664Y-74306206D01*
X148492455Y-74392452D01*
X148492452Y-74392455D01*
X148406206Y-74507664D01*
X148406202Y-74507671D01*
X148355908Y-74642517D01*
X148349501Y-74702116D01*
X148349500Y-74702135D01*
X148349500Y-74712690D01*
X148329815Y-74779729D01*
X148313181Y-74800371D01*
X147642962Y-75470590D01*
X147625925Y-75407007D01*
X147560099Y-75292993D01*
X147467007Y-75199901D01*
X147352993Y-75134075D01*
X147289409Y-75117037D01*
X147921716Y-74484728D01*
X147867550Y-74445375D01*
X147678217Y-74348904D01*
X147476129Y-74283242D01*
X147266246Y-74250000D01*
X147053754Y-74250000D01*
X146843872Y-74283242D01*
X146843869Y-74283242D01*
X146641782Y-74348904D01*
X146452439Y-74445380D01*
X146398282Y-74484727D01*
X146398282Y-74484728D01*
X147030591Y-75117037D01*
X146967007Y-75134075D01*
X146852993Y-75199901D01*
X146759901Y-75292993D01*
X146694075Y-75407007D01*
X146677037Y-75470591D01*
X146044728Y-74838282D01*
X146044727Y-74838282D01*
X146005380Y-74892439D01*
X145908904Y-75081782D01*
X145843242Y-75283869D01*
X145843242Y-75283872D01*
X145810000Y-75493753D01*
X142380500Y-75493753D01*
X142380500Y-73565908D01*
X142400185Y-73498869D01*
X142444271Y-73460363D01*
X142443187Y-73458605D01*
X142449332Y-73454814D01*
X142449334Y-73454814D01*
X142598656Y-73362712D01*
X142722712Y-73238656D01*
X142814814Y-73089334D01*
X142869999Y-72922797D01*
X142880500Y-72820009D01*
X142880499Y-70219992D01*
X142880498Y-70219983D01*
X143219500Y-70219983D01*
X143219500Y-72820001D01*
X143219501Y-72820018D01*
X143230000Y-72922796D01*
X143230001Y-72922799D01*
X143285115Y-73089119D01*
X143285186Y-73089334D01*
X143377288Y-73238656D01*
X143501344Y-73362712D01*
X143650666Y-73454814D01*
X143817203Y-73509999D01*
X143919991Y-73520500D01*
X144720008Y-73520499D01*
X144720016Y-73520498D01*
X144720019Y-73520498D01*
X144776302Y-73514748D01*
X144822797Y-73509999D01*
X144989334Y-73454814D01*
X145138656Y-73362712D01*
X145262712Y-73238656D01*
X145354814Y-73089334D01*
X145409999Y-72922797D01*
X145420500Y-72820009D01*
X145420499Y-70219992D01*
X145420498Y-70219983D01*
X145759500Y-70219983D01*
X145759500Y-72820001D01*
X145759501Y-72820018D01*
X145770000Y-72922796D01*
X145770001Y-72922799D01*
X145825115Y-73089119D01*
X145825186Y-73089334D01*
X145917288Y-73238656D01*
X146041344Y-73362712D01*
X146190666Y-73454814D01*
X146357203Y-73509999D01*
X146459991Y-73520500D01*
X147260008Y-73520499D01*
X147260016Y-73520498D01*
X147260019Y-73520498D01*
X147316302Y-73514748D01*
X147362797Y-73509999D01*
X147529334Y-73454814D01*
X147678656Y-73362712D01*
X147802712Y-73238656D01*
X147894814Y-73089334D01*
X147949999Y-72922797D01*
X147953674Y-72886829D01*
X148306830Y-72886829D01*
X148310494Y-72922697D01*
X148365641Y-73089119D01*
X148365643Y-73089124D01*
X148457684Y-73238345D01*
X148581654Y-73362315D01*
X148730875Y-73454356D01*
X148730880Y-73454358D01*
X148897302Y-73509505D01*
X148897309Y-73509506D01*
X149000019Y-73519999D01*
X149799971Y-73519999D01*
X149799987Y-73519998D01*
X149902697Y-73509505D01*
X150069119Y-73454358D01*
X150069124Y-73454356D01*
X150218345Y-73362315D01*
X150342315Y-73238345D01*
X150434356Y-73089124D01*
X150434358Y-73089119D01*
X150489506Y-72922696D01*
X150493169Y-72886829D01*
X150460273Y-72871197D01*
X150409884Y-72867592D01*
X150365541Y-72839093D01*
X149400000Y-71873552D01*
X148434457Y-72839095D01*
X148373134Y-72872580D01*
X148341568Y-72870322D01*
X148306830Y-72886829D01*
X147953674Y-72886829D01*
X147960500Y-72820009D01*
X147960500Y-72266447D01*
X148300000Y-72266447D01*
X149046448Y-71520000D01*
X149046448Y-71519999D01*
X149753552Y-71519999D01*
X149753552Y-71520001D01*
X150499998Y-72266447D01*
X150499999Y-72266446D01*
X150499999Y-70773552D01*
X150499998Y-70773551D01*
X149753552Y-71519999D01*
X149046448Y-71519999D01*
X148300000Y-70773551D01*
X148300000Y-72266447D01*
X147960500Y-72266447D01*
X147960499Y-70219992D01*
X147952660Y-70143255D01*
X148307842Y-70143255D01*
X148388164Y-70171696D01*
X148434456Y-70200904D01*
X149000000Y-70766448D01*
X149000000Y-70772661D01*
X149027259Y-70874394D01*
X149079920Y-70965606D01*
X149154394Y-71040080D01*
X149245606Y-71092741D01*
X149347339Y-71120000D01*
X149353552Y-71120000D01*
X149399999Y-71166447D01*
X149446446Y-71120000D01*
X149452661Y-71120000D01*
X149554394Y-71092741D01*
X149645606Y-71040080D01*
X149720080Y-70965606D01*
X149772741Y-70874394D01*
X149800000Y-70772661D01*
X149800000Y-70766446D01*
X150365542Y-70200905D01*
X150426865Y-70167420D01*
X150458427Y-70169677D01*
X150493168Y-70153168D01*
X150489505Y-70117302D01*
X150434358Y-69950880D01*
X150434356Y-69950875D01*
X150342315Y-69801654D01*
X150218345Y-69677684D01*
X150069124Y-69585643D01*
X150069119Y-69585641D01*
X149902697Y-69530494D01*
X149902690Y-69530493D01*
X149799980Y-69520000D01*
X149000028Y-69520000D01*
X149000012Y-69520001D01*
X148897302Y-69530494D01*
X148730880Y-69585641D01*
X148730875Y-69585643D01*
X148581654Y-69677684D01*
X148457684Y-69801654D01*
X148365643Y-69950875D01*
X148365641Y-69950880D01*
X148310495Y-70117300D01*
X148310494Y-70117303D01*
X148307842Y-70143255D01*
X147952660Y-70143255D01*
X147949999Y-70117203D01*
X147894814Y-69950666D01*
X147802712Y-69801344D01*
X147678656Y-69677288D01*
X147529334Y-69585186D01*
X147362797Y-69530001D01*
X147362795Y-69530000D01*
X147260010Y-69519500D01*
X146459998Y-69519500D01*
X146459980Y-69519501D01*
X146357203Y-69530000D01*
X146357200Y-69530001D01*
X146190668Y-69585185D01*
X146190663Y-69585187D01*
X146041342Y-69677289D01*
X145917289Y-69801342D01*
X145825187Y-69950663D01*
X145825185Y-69950668D01*
X145818074Y-69972128D01*
X145770001Y-70117203D01*
X145770001Y-70117204D01*
X145770000Y-70117204D01*
X145759500Y-70219983D01*
X145420498Y-70219983D01*
X145409999Y-70117203D01*
X145354814Y-69950666D01*
X145262712Y-69801344D01*
X145138656Y-69677288D01*
X144989334Y-69585186D01*
X144822797Y-69530001D01*
X144822795Y-69530000D01*
X144720010Y-69519500D01*
X143919998Y-69519500D01*
X143919980Y-69519501D01*
X143817203Y-69530000D01*
X143817200Y-69530001D01*
X143650668Y-69585185D01*
X143650663Y-69585187D01*
X143501342Y-69677289D01*
X143377289Y-69801342D01*
X143285187Y-69950663D01*
X143285185Y-69950668D01*
X143278074Y-69972128D01*
X143230001Y-70117203D01*
X143230001Y-70117204D01*
X143230000Y-70117204D01*
X143219500Y-70219983D01*
X142880498Y-70219983D01*
X142869999Y-70117203D01*
X142814814Y-69950666D01*
X142722712Y-69801344D01*
X142598656Y-69677288D01*
X142449334Y-69585186D01*
X142282797Y-69530001D01*
X142282795Y-69530000D01*
X142180010Y-69519500D01*
X141379998Y-69519500D01*
X141379980Y-69519501D01*
X141277203Y-69530000D01*
X141277200Y-69530001D01*
X141110668Y-69585185D01*
X141110663Y-69585187D01*
X140961342Y-69677289D01*
X140837289Y-69801342D01*
X140745187Y-69950663D01*
X140745185Y-69950668D01*
X140738074Y-69972128D01*
X140690001Y-70117203D01*
X140690001Y-70117204D01*
X140690000Y-70117204D01*
X140679500Y-70219983D01*
X140679500Y-72820001D01*
X140679501Y-72820018D01*
X140690000Y-72922796D01*
X140690001Y-72922799D01*
X140745115Y-73089119D01*
X140745186Y-73089334D01*
X140837288Y-73238656D01*
X140961344Y-73362712D01*
X141110666Y-73454814D01*
X141110667Y-73454814D01*
X141116813Y-73458605D01*
X141115706Y-73460399D01*
X141160337Y-73499687D01*
X141179500Y-73565908D01*
X141179500Y-76309902D01*
X141159815Y-76376941D01*
X141143181Y-76397583D01*
X136986048Y-80554716D01*
X136974998Y-80560749D01*
X136966890Y-80570382D01*
X136944913Y-80577177D01*
X136924725Y-80588201D01*
X136912166Y-80587302D01*
X136900138Y-80591022D01*
X136877979Y-80584857D01*
X136855033Y-80583217D01*
X136844952Y-80575670D01*
X136832824Y-80572297D01*
X136817514Y-80555129D01*
X136799100Y-80541345D01*
X136793587Y-80528301D01*
X136786320Y-80520152D01*
X136775894Y-80486433D01*
X136755274Y-80356246D01*
X136764228Y-80286953D01*
X136790063Y-80249170D01*
X139720520Y-77318716D01*
X139799577Y-77181784D01*
X139840501Y-77029057D01*
X139840501Y-76870942D01*
X139840501Y-76863347D01*
X139840500Y-76863329D01*
X139840500Y-73565908D01*
X139860185Y-73498869D01*
X139904271Y-73460363D01*
X139903187Y-73458605D01*
X139909332Y-73454814D01*
X139909334Y-73454814D01*
X140058656Y-73362712D01*
X140182712Y-73238656D01*
X140274814Y-73089334D01*
X140329999Y-72922797D01*
X140340500Y-72820009D01*
X140340499Y-70219992D01*
X140329999Y-70117203D01*
X140274814Y-69950666D01*
X140182712Y-69801344D01*
X140058656Y-69677288D01*
X139909334Y-69585186D01*
X139742797Y-69530001D01*
X139742795Y-69530000D01*
X139640010Y-69519500D01*
X138839998Y-69519500D01*
X138839980Y-69519501D01*
X138737203Y-69530000D01*
X138737200Y-69530001D01*
X138570668Y-69585185D01*
X138570663Y-69585187D01*
X138421342Y-69677289D01*
X138297289Y-69801342D01*
X138205187Y-69950663D01*
X138205185Y-69950668D01*
X138198074Y-69972128D01*
X138150001Y-70117203D01*
X138150001Y-70117204D01*
X138150000Y-70117204D01*
X138139500Y-70219983D01*
X138139500Y-72820001D01*
X138139501Y-72820018D01*
X138150000Y-72922796D01*
X138150001Y-72922799D01*
X138205115Y-73089119D01*
X138205186Y-73089334D01*
X138297288Y-73238656D01*
X138421344Y-73362712D01*
X138570666Y-73454814D01*
X138570667Y-73454814D01*
X138576813Y-73458605D01*
X138575706Y-73460399D01*
X138620337Y-73499687D01*
X138639500Y-73565908D01*
X138639500Y-76649902D01*
X138619815Y-76716941D01*
X138603181Y-76737583D01*
X136977415Y-78363348D01*
X136966364Y-78369382D01*
X136958256Y-78379014D01*
X136936281Y-78385808D01*
X136916092Y-78396833D01*
X136903532Y-78395934D01*
X136891505Y-78399654D01*
X136869346Y-78393489D01*
X136846400Y-78391849D01*
X136836319Y-78384302D01*
X136824191Y-78380929D01*
X136808881Y-78363761D01*
X136790467Y-78349977D01*
X136784954Y-78336933D01*
X136777687Y-78328784D01*
X136767261Y-78295065D01*
X136745274Y-78156246D01*
X136754228Y-78086953D01*
X136780063Y-78049170D01*
X137058506Y-77770728D01*
X137058511Y-77770724D01*
X137068714Y-77760520D01*
X137068716Y-77760520D01*
X137180520Y-77648716D01*
X137259577Y-77511784D01*
X137300500Y-77359057D01*
X137300500Y-73565908D01*
X137320185Y-73498869D01*
X137364271Y-73460363D01*
X137363187Y-73458605D01*
X137369332Y-73454814D01*
X137369334Y-73454814D01*
X137518656Y-73362712D01*
X137642712Y-73238656D01*
X137734814Y-73089334D01*
X137789999Y-72922797D01*
X137800500Y-72820009D01*
X137800499Y-70219992D01*
X137789999Y-70117203D01*
X137734814Y-69950666D01*
X137642712Y-69801344D01*
X137518656Y-69677288D01*
X137369334Y-69585186D01*
X137202797Y-69530001D01*
X137202795Y-69530000D01*
X137100010Y-69519500D01*
X136299998Y-69519500D01*
X136299980Y-69519501D01*
X136197203Y-69530000D01*
X136197200Y-69530001D01*
X136030668Y-69585185D01*
X136030663Y-69585187D01*
X135881342Y-69677289D01*
X135757289Y-69801342D01*
X135665187Y-69950663D01*
X135665185Y-69950668D01*
X135658074Y-69972128D01*
X135610001Y-70117203D01*
X135610001Y-70117204D01*
X135610000Y-70117204D01*
X135599500Y-70219983D01*
X135599500Y-72820001D01*
X135599501Y-72820018D01*
X135610000Y-72922796D01*
X135610001Y-72922799D01*
X135665115Y-73089119D01*
X135665186Y-73089334D01*
X135757288Y-73238656D01*
X135881344Y-73362712D01*
X136030666Y-73454814D01*
X136030667Y-73454814D01*
X136036813Y-73458605D01*
X136035706Y-73460399D01*
X136080337Y-73499687D01*
X136099500Y-73565908D01*
X136099500Y-76979902D01*
X136090855Y-77009342D01*
X136084332Y-77039329D01*
X136080577Y-77044344D01*
X136079815Y-77046941D01*
X136063181Y-77067584D01*
X135930830Y-77199934D01*
X135869507Y-77233418D01*
X135823751Y-77234725D01*
X135664486Y-77209500D01*
X135664481Y-77209500D01*
X135475519Y-77209500D01*
X135475514Y-77209500D01*
X135288881Y-77239059D01*
X135109163Y-77297454D01*
X134940800Y-77383240D01*
X134853579Y-77446610D01*
X134787927Y-77494310D01*
X134787925Y-77494312D01*
X134787924Y-77494312D01*
X134654312Y-77627924D01*
X134654312Y-77627925D01*
X134654310Y-77627927D01*
X134579215Y-77731286D01*
X134559526Y-77758386D01*
X134504196Y-77801051D01*
X134459208Y-77809500D01*
X130888704Y-77809500D01*
X130821665Y-77789815D01*
X130778219Y-77741795D01*
X130730793Y-77648717D01*
X130726760Y-77640801D01*
X130615690Y-77487927D01*
X130482073Y-77354310D01*
X130329199Y-77243240D01*
X130320993Y-77239059D01*
X130160836Y-77157454D01*
X129981118Y-77099059D01*
X129794486Y-77069500D01*
X129794481Y-77069500D01*
X129605519Y-77069500D01*
X129605514Y-77069500D01*
X129446248Y-77094725D01*
X129376954Y-77085770D01*
X129339169Y-77059933D01*
X127336819Y-75057583D01*
X127303334Y-74996260D01*
X127300500Y-74969902D01*
X127300500Y-70673738D01*
X127320185Y-70606699D01*
X127372989Y-70560944D01*
X127442147Y-70551000D01*
X127497384Y-70573419D01*
X127570801Y-70626760D01*
X127650347Y-70667290D01*
X127739163Y-70712545D01*
X127739165Y-70712545D01*
X127739168Y-70712547D01*
X127782594Y-70726657D01*
X127918881Y-70770940D01*
X128105514Y-70800500D01*
X128105519Y-70800500D01*
X128294486Y-70800500D01*
X128481118Y-70770940D01*
X128511753Y-70760986D01*
X128660832Y-70712547D01*
X128829199Y-70626760D01*
X128982073Y-70515690D01*
X129115690Y-70382073D01*
X129226760Y-70229199D01*
X129231456Y-70219983D01*
X133059500Y-70219983D01*
X133059500Y-72820001D01*
X133059501Y-72820018D01*
X133070000Y-72922796D01*
X133070001Y-72922799D01*
X133125115Y-73089119D01*
X133125186Y-73089334D01*
X133217288Y-73238656D01*
X133341344Y-73362712D01*
X133490666Y-73454814D01*
X133657203Y-73509999D01*
X133759991Y-73520500D01*
X134560008Y-73520499D01*
X134560016Y-73520498D01*
X134560019Y-73520498D01*
X134616302Y-73514748D01*
X134662797Y-73509999D01*
X134829334Y-73454814D01*
X134978656Y-73362712D01*
X135102712Y-73238656D01*
X135194814Y-73089334D01*
X135249999Y-72922797D01*
X135260500Y-72820009D01*
X135260499Y-70219992D01*
X135249999Y-70117203D01*
X135194814Y-69950666D01*
X135102712Y-69801344D01*
X134978656Y-69677288D01*
X134829334Y-69585186D01*
X134662797Y-69530001D01*
X134662795Y-69530000D01*
X134560010Y-69519500D01*
X133759998Y-69519500D01*
X133759980Y-69519501D01*
X133657203Y-69530000D01*
X133657200Y-69530001D01*
X133490668Y-69585185D01*
X133490663Y-69585187D01*
X133341342Y-69677289D01*
X133217289Y-69801342D01*
X133125187Y-69950663D01*
X133125185Y-69950668D01*
X133118074Y-69972128D01*
X133070001Y-70117203D01*
X133070001Y-70117204D01*
X133070000Y-70117204D01*
X133059500Y-70219983D01*
X129231456Y-70219983D01*
X129312547Y-70060832D01*
X129370940Y-69881118D01*
X129383575Y-69801342D01*
X129400500Y-69694486D01*
X129400500Y-69505513D01*
X129375274Y-69346246D01*
X129384228Y-69276953D01*
X129410063Y-69239170D01*
X130568713Y-68080521D01*
X130568716Y-68080520D01*
X130680520Y-67968716D01*
X130730639Y-67881904D01*
X130759577Y-67831785D01*
X130800500Y-67679057D01*
X130800500Y-67520943D01*
X130800500Y-55900096D01*
X130820185Y-55833057D01*
X130836814Y-55812420D01*
X132847821Y-53801412D01*
X132909142Y-53767929D01*
X132978834Y-53772913D01*
X133034767Y-53814785D01*
X133059184Y-53880249D01*
X133059500Y-53889095D01*
X133059500Y-55980001D01*
X133059501Y-55980018D01*
X133070000Y-56082796D01*
X133070001Y-56082799D01*
X133125185Y-56249331D01*
X133125186Y-56249334D01*
X133217288Y-56398656D01*
X133341344Y-56522712D01*
X133490666Y-56614814D01*
X133657203Y-56669999D01*
X133759991Y-56680500D01*
X134560008Y-56680499D01*
X134560016Y-56680498D01*
X134560019Y-56680498D01*
X134616302Y-56674748D01*
X134662797Y-56669999D01*
X134829334Y-56614814D01*
X134978656Y-56522712D01*
X135102712Y-56398656D01*
X135194814Y-56249334D01*
X135249999Y-56082797D01*
X135260500Y-55980009D01*
X135260499Y-53379992D01*
X135249999Y-53277203D01*
X135194814Y-53110666D01*
X135102712Y-52961344D01*
X135053549Y-52912181D01*
X135020064Y-52850858D01*
X135025048Y-52781166D01*
X135066920Y-52725233D01*
X135132384Y-52700816D01*
X135141230Y-52700500D01*
X135718770Y-52700500D01*
X135785809Y-52720185D01*
X135831564Y-52772989D01*
X135841508Y-52842147D01*
X135812483Y-52905703D01*
X135806451Y-52912181D01*
X135757289Y-52961342D01*
X135665187Y-53110663D01*
X135665186Y-53110666D01*
X135610001Y-53277203D01*
X135610001Y-53277204D01*
X135610000Y-53277204D01*
X135599500Y-53379983D01*
X135599500Y-55980001D01*
X135599501Y-55980018D01*
X135610000Y-56082796D01*
X135610001Y-56082799D01*
X135665185Y-56249331D01*
X135665186Y-56249334D01*
X135757288Y-56398656D01*
X135881344Y-56522712D01*
X136030666Y-56614814D01*
X136197203Y-56669999D01*
X136299991Y-56680500D01*
X137100008Y-56680499D01*
X137100016Y-56680498D01*
X137100019Y-56680498D01*
X137156302Y-56674748D01*
X137202797Y-56669999D01*
X137369334Y-56614814D01*
X137518656Y-56522712D01*
X137642712Y-56398656D01*
X137734814Y-56249334D01*
X137789999Y-56082797D01*
X137800500Y-55980009D01*
X137800499Y-53379992D01*
X137789999Y-53277203D01*
X137734814Y-53110666D01*
X137642712Y-52961344D01*
X137593549Y-52912181D01*
X137560064Y-52850858D01*
X137565048Y-52781166D01*
X137606920Y-52725233D01*
X137672384Y-52700816D01*
X137681230Y-52700500D01*
X138258770Y-52700500D01*
X138325809Y-52720185D01*
X138371564Y-52772989D01*
X138381508Y-52842147D01*
X138352483Y-52905703D01*
X138346451Y-52912181D01*
X138297289Y-52961342D01*
X138205187Y-53110663D01*
X138205186Y-53110666D01*
X138150001Y-53277203D01*
X138150001Y-53277204D01*
X138150000Y-53277204D01*
X138139500Y-53379983D01*
X138139500Y-55980001D01*
X138139501Y-55980018D01*
X138150000Y-56082796D01*
X138150001Y-56082799D01*
X138205185Y-56249331D01*
X138205186Y-56249334D01*
X138297288Y-56398656D01*
X138421344Y-56522712D01*
X138570666Y-56614814D01*
X138737203Y-56669999D01*
X138839991Y-56680500D01*
X139640008Y-56680499D01*
X139640016Y-56680498D01*
X139640019Y-56680498D01*
X139696302Y-56674748D01*
X139742797Y-56669999D01*
X139909334Y-56614814D01*
X140058656Y-56522712D01*
X140182712Y-56398656D01*
X140274814Y-56249334D01*
X140329999Y-56082797D01*
X140340500Y-55980009D01*
X140340499Y-53379992D01*
X140329999Y-53277203D01*
X140274814Y-53110666D01*
X140182712Y-52961344D01*
X140133549Y-52912181D01*
X140100064Y-52850858D01*
X140105048Y-52781166D01*
X140146920Y-52725233D01*
X140212384Y-52700816D01*
X140221230Y-52700500D01*
X140798770Y-52700500D01*
X140865809Y-52720185D01*
X140911564Y-52772989D01*
X140921508Y-52842147D01*
X140892483Y-52905703D01*
X140886451Y-52912181D01*
X140837289Y-52961342D01*
X140745187Y-53110663D01*
X140745186Y-53110666D01*
X140690001Y-53277203D01*
X140690001Y-53277204D01*
X140690000Y-53277204D01*
X140679500Y-53379983D01*
X140679500Y-55980001D01*
X140679501Y-55980018D01*
X140690000Y-56082796D01*
X140690001Y-56082799D01*
X140745185Y-56249331D01*
X140745186Y-56249334D01*
X140837288Y-56398656D01*
X140961344Y-56522712D01*
X141110666Y-56614814D01*
X141277203Y-56669999D01*
X141379991Y-56680500D01*
X142180008Y-56680499D01*
X142180016Y-56680498D01*
X142180019Y-56680498D01*
X142236302Y-56674748D01*
X142282797Y-56669999D01*
X142449334Y-56614814D01*
X142598656Y-56522712D01*
X142722712Y-56398656D01*
X142814814Y-56249334D01*
X142869999Y-56082797D01*
X142880500Y-55980009D01*
X142880499Y-53379992D01*
X142869999Y-53277203D01*
X142814814Y-53110666D01*
X142722712Y-52961344D01*
X142673549Y-52912181D01*
X142640064Y-52850858D01*
X142645048Y-52781166D01*
X142686920Y-52725233D01*
X142752384Y-52700816D01*
X142761230Y-52700500D01*
X143338770Y-52700500D01*
X143405809Y-52720185D01*
X143451564Y-52772989D01*
X143461508Y-52842147D01*
X143432483Y-52905703D01*
X143426451Y-52912181D01*
X143377289Y-52961342D01*
X143285187Y-53110663D01*
X143285186Y-53110666D01*
X143230001Y-53277203D01*
X143230001Y-53277204D01*
X143230000Y-53277204D01*
X143219500Y-53379983D01*
X143219500Y-55980001D01*
X143219501Y-55980018D01*
X143230000Y-56082796D01*
X143230001Y-56082799D01*
X143285185Y-56249331D01*
X143285186Y-56249334D01*
X143377288Y-56398656D01*
X143501344Y-56522712D01*
X143650666Y-56614814D01*
X143817203Y-56669999D01*
X143919991Y-56680500D01*
X144720008Y-56680499D01*
X144720016Y-56680498D01*
X144720019Y-56680498D01*
X144776302Y-56674748D01*
X144822797Y-56669999D01*
X144989334Y-56614814D01*
X145138656Y-56522712D01*
X145262712Y-56398656D01*
X145354814Y-56249334D01*
X145409999Y-56082797D01*
X145420500Y-55980009D01*
X145420499Y-53379992D01*
X145409999Y-53277203D01*
X145354814Y-53110666D01*
X145262712Y-52961344D01*
X145213549Y-52912181D01*
X145180064Y-52850858D01*
X145185048Y-52781166D01*
X145226920Y-52725233D01*
X145292384Y-52700816D01*
X145301230Y-52700500D01*
X145878770Y-52700500D01*
X145945809Y-52720185D01*
X145991564Y-52772989D01*
X146001508Y-52842147D01*
X145972483Y-52905703D01*
X145966451Y-52912181D01*
X145917289Y-52961342D01*
X145825187Y-53110663D01*
X145825186Y-53110666D01*
X145770001Y-53277203D01*
X145770001Y-53277204D01*
X145770000Y-53277204D01*
X145759500Y-53379983D01*
X145759500Y-55980001D01*
X145759501Y-55980018D01*
X145770000Y-56082796D01*
X145770001Y-56082799D01*
X145825185Y-56249331D01*
X145825186Y-56249334D01*
X145917288Y-56398656D01*
X146041344Y-56522712D01*
X146190666Y-56614814D01*
X146357203Y-56669999D01*
X146459991Y-56680500D01*
X147260008Y-56680499D01*
X147260016Y-56680498D01*
X147260019Y-56680498D01*
X147316302Y-56674748D01*
X147362797Y-56669999D01*
X147529334Y-56614814D01*
X147678656Y-56522712D01*
X147802712Y-56398656D01*
X147894814Y-56249334D01*
X147949999Y-56082797D01*
X147960500Y-55980009D01*
X147960499Y-53509095D01*
X147966737Y-53487850D01*
X147968317Y-53465762D01*
X147976389Y-53454978D01*
X147980184Y-53442057D01*
X147996917Y-53427556D01*
X148010189Y-53409829D01*
X148022808Y-53405122D01*
X148032987Y-53396302D01*
X148054905Y-53393150D01*
X148075653Y-53385412D01*
X148088813Y-53388274D01*
X148102146Y-53386358D01*
X148122289Y-53395557D01*
X148143926Y-53400264D01*
X148161651Y-53413532D01*
X148165702Y-53415383D01*
X148172180Y-53421415D01*
X148263181Y-53512416D01*
X148296666Y-53573739D01*
X148299500Y-53600097D01*
X148299500Y-55980001D01*
X148299501Y-55980018D01*
X148310000Y-56082796D01*
X148310001Y-56082799D01*
X148365185Y-56249331D01*
X148365186Y-56249334D01*
X148457288Y-56398656D01*
X148581344Y-56522712D01*
X148730666Y-56614814D01*
X148897203Y-56669999D01*
X148999991Y-56680500D01*
X149800008Y-56680499D01*
X149800016Y-56680498D01*
X149800019Y-56680498D01*
X149856302Y-56674748D01*
X149902797Y-56669999D01*
X150069334Y-56614814D01*
X150218656Y-56522712D01*
X150342712Y-56398656D01*
X150434814Y-56249334D01*
X150489999Y-56082797D01*
X150500500Y-55980009D01*
X150500499Y-53379992D01*
X150489999Y-53277203D01*
X150434814Y-53110666D01*
X150342712Y-52961344D01*
X150218656Y-52837288D01*
X150069334Y-52745186D01*
X149902797Y-52690001D01*
X149902795Y-52690000D01*
X149800016Y-52679500D01*
X149800009Y-52679500D01*
X149180097Y-52679500D01*
X149113058Y-52659815D01*
X149092416Y-52643181D01*
X148187590Y-51738355D01*
X148187588Y-51738352D01*
X148068717Y-51619481D01*
X148068716Y-51619480D01*
X147981904Y-51569360D01*
X147981904Y-51569359D01*
X147981900Y-51569358D01*
X147931785Y-51540423D01*
X147779057Y-51499499D01*
X147620943Y-51499499D01*
X147613347Y-51499499D01*
X147613331Y-51499500D01*
X133620940Y-51499500D01*
X133580019Y-51510464D01*
X133580019Y-51510465D01*
X133542751Y-51520451D01*
X133468214Y-51540423D01*
X133468209Y-51540426D01*
X133331290Y-51619475D01*
X133331282Y-51619481D01*
X129719481Y-55231282D01*
X129719479Y-55231285D01*
X129669361Y-55318094D01*
X129669359Y-55318096D01*
X129640425Y-55368209D01*
X129640424Y-55368210D01*
X129640423Y-55368215D01*
X129599499Y-55520943D01*
X129599499Y-55520945D01*
X129599499Y-55689046D01*
X129599500Y-55689059D01*
X129599500Y-66739411D01*
X129579815Y-66806450D01*
X129527011Y-66852205D01*
X129457853Y-66862149D01*
X129394297Y-66833124D01*
X129357569Y-66777730D01*
X129312545Y-66639163D01*
X129241382Y-66499499D01*
X129226760Y-66470801D01*
X129115690Y-66317927D01*
X128982073Y-66184310D01*
X128913150Y-66134234D01*
X128851614Y-66089525D01*
X128808948Y-66034194D01*
X128800500Y-65989207D01*
X128800500Y-55400097D01*
X128820185Y-55333058D01*
X128836819Y-55312416D01*
X133412416Y-50736819D01*
X133473739Y-50703334D01*
X133500097Y-50700500D01*
X148399903Y-50700500D01*
X148466942Y-50720185D01*
X148487584Y-50736819D01*
X150840212Y-53089447D01*
X150873697Y-53150770D01*
X150870237Y-53216131D01*
X150850001Y-53277199D01*
X150839500Y-53379983D01*
X150839500Y-55980001D01*
X150839501Y-55980018D01*
X150850000Y-56082796D01*
X150850001Y-56082799D01*
X150905185Y-56249331D01*
X150905186Y-56249334D01*
X150997288Y-56398656D01*
X151121344Y-56522712D01*
X151270666Y-56614814D01*
X151437203Y-56669999D01*
X151539991Y-56680500D01*
X152340008Y-56680499D01*
X152340016Y-56680498D01*
X152340019Y-56680498D01*
X152396302Y-56674748D01*
X152442797Y-56669999D01*
X152609334Y-56614814D01*
X152758656Y-56522712D01*
X152882712Y-56398656D01*
X152974814Y-56249334D01*
X153029999Y-56082797D01*
X153040500Y-55980009D01*
X153040499Y-53379992D01*
X153029999Y-53277203D01*
X152974814Y-53110666D01*
X152882712Y-52961344D01*
X152758656Y-52837288D01*
X152609334Y-52745186D01*
X152442797Y-52690001D01*
X152442795Y-52690000D01*
X152340016Y-52679500D01*
X152340009Y-52679500D01*
X152180097Y-52679500D01*
X152113058Y-52659815D01*
X152092416Y-52643181D01*
X149187590Y-49738355D01*
X149187588Y-49738352D01*
X149068717Y-49619481D01*
X149068716Y-49619480D01*
X148981904Y-49569360D01*
X148981904Y-49569359D01*
X148981900Y-49569358D01*
X148931785Y-49540423D01*
X148779057Y-49499499D01*
X148620943Y-49499499D01*
X148613347Y-49499499D01*
X148613331Y-49499500D01*
X133286669Y-49499500D01*
X133286653Y-49499499D01*
X133279057Y-49499499D01*
X133120943Y-49499499D01*
X133013587Y-49528265D01*
X132968210Y-49540424D01*
X132968209Y-49540425D01*
X132918096Y-49569359D01*
X132918095Y-49569360D01*
X132874689Y-49594420D01*
X132831285Y-49619479D01*
X132831282Y-49619481D01*
X127719479Y-54731284D01*
X127699493Y-54765902D01*
X127691045Y-54780536D01*
X127640423Y-54868215D01*
X127599499Y-55020943D01*
X127599499Y-55020945D01*
X127599499Y-55189046D01*
X127599500Y-55189059D01*
X127599500Y-65989207D01*
X127597958Y-65994456D01*
X127599045Y-65999818D01*
X127588219Y-66027622D01*
X127579815Y-66056246D01*
X127575154Y-66061180D01*
X127573696Y-66064927D01*
X127548386Y-66089525D01*
X127497386Y-66126579D01*
X127431580Y-66150059D01*
X127363526Y-66134234D01*
X127314831Y-66084128D01*
X127300500Y-66026261D01*
X127300500Y-49710096D01*
X127320185Y-49643057D01*
X127336814Y-49622420D01*
X128949169Y-48010064D01*
X129010490Y-47976581D01*
X129056246Y-47975274D01*
X129215514Y-48000500D01*
X129215519Y-48000500D01*
X129404486Y-48000500D01*
X129591118Y-47970940D01*
X129621753Y-47960986D01*
X129770832Y-47912547D01*
X129939199Y-47826760D01*
X130092073Y-47715690D01*
X130225690Y-47582073D01*
X130320475Y-47451613D01*
X130375804Y-47408949D01*
X130420792Y-47400500D01*
X135089208Y-47400500D01*
X135156247Y-47420185D01*
X135189524Y-47451612D01*
X135284310Y-47582073D01*
X135417927Y-47715690D01*
X135570801Y-47826760D01*
X135650347Y-47867290D01*
X135739163Y-47912545D01*
X135739165Y-47912545D01*
X135739168Y-47912547D01*
X135835497Y-47943846D01*
X135918881Y-47970940D01*
X136105514Y-48000500D01*
X136105519Y-48000500D01*
X136294486Y-48000500D01*
X136481118Y-47970940D01*
X136511753Y-47960986D01*
X136660832Y-47912547D01*
X136829199Y-47826760D01*
X136982073Y-47715690D01*
X137115690Y-47582073D01*
X137226760Y-47429199D01*
X137312547Y-47260832D01*
X137370940Y-47081118D01*
X137400500Y-46894486D01*
X137400500Y-46705513D01*
X137370940Y-46518881D01*
X137312545Y-46339163D01*
X137241383Y-46199500D01*
X137226760Y-46170801D01*
X137115690Y-46017927D01*
X136982073Y-45884310D01*
X136866467Y-45800317D01*
X136823803Y-45744988D01*
X136817824Y-45675374D01*
X136850430Y-45613579D01*
X136866468Y-45599682D01*
X136982073Y-45515690D01*
X137115690Y-45382073D01*
X137226760Y-45229199D01*
X137312547Y-45060832D01*
X137370940Y-44881118D01*
X137373579Y-44864457D01*
X137400500Y-44694486D01*
X137400500Y-44505513D01*
X137370940Y-44318881D01*
X137326031Y-44180667D01*
X137312547Y-44139168D01*
X137312545Y-44139165D01*
X137312545Y-44139163D01*
X137241383Y-43999500D01*
X137226760Y-43970801D01*
X137115690Y-43817927D01*
X136982073Y-43684310D01*
X136866467Y-43600317D01*
X136823803Y-43544988D01*
X136817824Y-43475374D01*
X136850430Y-43413579D01*
X136866468Y-43399682D01*
X136982073Y-43315690D01*
X137115690Y-43182073D01*
X137226760Y-43029199D01*
X137312547Y-42860832D01*
X137370940Y-42681118D01*
X137400500Y-42494486D01*
X137400500Y-42305513D01*
X142619500Y-42305513D01*
X142619500Y-42494486D01*
X142649059Y-42681118D01*
X142707454Y-42860836D01*
X142778617Y-43000500D01*
X142793240Y-43029199D01*
X142904310Y-43182073D01*
X143037927Y-43315690D01*
X143074766Y-43342455D01*
X143153531Y-43399682D01*
X143196197Y-43455013D01*
X143202175Y-43524626D01*
X143169569Y-43586421D01*
X143153531Y-43600318D01*
X143037925Y-43684311D01*
X142904312Y-43817924D01*
X142904312Y-43817925D01*
X142904310Y-43817927D01*
X142869402Y-43865974D01*
X142793240Y-43970800D01*
X142707454Y-44139163D01*
X142649059Y-44318881D01*
X142619500Y-44505513D01*
X142619500Y-44694486D01*
X142649059Y-44881118D01*
X142707454Y-45060836D01*
X142788647Y-45220185D01*
X142793240Y-45229199D01*
X142904310Y-45382073D01*
X143037927Y-45515690D01*
X143099309Y-45560287D01*
X143153531Y-45599682D01*
X143196197Y-45655013D01*
X143202175Y-45724626D01*
X143169569Y-45786421D01*
X143153531Y-45800318D01*
X143037925Y-45884311D01*
X142904312Y-46017924D01*
X142904312Y-46017925D01*
X142904310Y-46017927D01*
X142885246Y-46044166D01*
X142793240Y-46170800D01*
X142707454Y-46339163D01*
X142649059Y-46518881D01*
X142619500Y-46705513D01*
X142619500Y-46894486D01*
X142649059Y-47081118D01*
X142707454Y-47260836D01*
X142778617Y-47400500D01*
X142793240Y-47429199D01*
X142904310Y-47582073D01*
X143037927Y-47715690D01*
X143190801Y-47826760D01*
X143270347Y-47867290D01*
X143359163Y-47912545D01*
X143359165Y-47912545D01*
X143359168Y-47912547D01*
X143455497Y-47943846D01*
X143538881Y-47970940D01*
X143725514Y-48000500D01*
X143725519Y-48000500D01*
X143914486Y-48000500D01*
X144101118Y-47970940D01*
X144131753Y-47960986D01*
X144280832Y-47912547D01*
X144449199Y-47826760D01*
X144602073Y-47715690D01*
X144735690Y-47582073D01*
X144846760Y-47429199D01*
X144932547Y-47260832D01*
X144990940Y-47081118D01*
X145020500Y-46894486D01*
X145020500Y-46705513D01*
X144995274Y-46546246D01*
X145004228Y-46476953D01*
X145030063Y-46439170D01*
X145500947Y-45968286D01*
X145562268Y-45934803D01*
X145626944Y-45938037D01*
X145713049Y-45966015D01*
X145930778Y-46000500D01*
X145930779Y-46000500D01*
X146151221Y-46000500D01*
X146151222Y-46000500D01*
X146368951Y-45966015D01*
X146578606Y-45897895D01*
X146775022Y-45797815D01*
X146953365Y-45668242D01*
X147032819Y-45588788D01*
X147094142Y-45555303D01*
X147163834Y-45560287D01*
X147208181Y-45588788D01*
X147287636Y-45668243D01*
X147287641Y-45668247D01*
X147365241Y-45724626D01*
X147465978Y-45797815D01*
X147594375Y-45863237D01*
X147662393Y-45897895D01*
X147662396Y-45897896D01*
X147713675Y-45914557D01*
X147872049Y-45966015D01*
X148089778Y-46000500D01*
X148089779Y-46000500D01*
X148310221Y-46000500D01*
X148310222Y-46000500D01*
X148527951Y-45966015D01*
X148737606Y-45897895D01*
X148934022Y-45797815D01*
X149112365Y-45668242D01*
X149268242Y-45512365D01*
X149397815Y-45334022D01*
X149497895Y-45137606D01*
X149503160Y-45121398D01*
X149533411Y-45072034D01*
X149916861Y-44688583D01*
X149939667Y-44773694D01*
X149998910Y-44876306D01*
X150082694Y-44960090D01*
X150185306Y-45019333D01*
X150270413Y-45042137D01*
X149561485Y-45751065D01*
X149561485Y-45751066D01*
X149625243Y-45797388D01*
X149821589Y-45897432D01*
X150031164Y-45965526D01*
X150248819Y-46000000D01*
X150469181Y-46000000D01*
X150686835Y-45965526D01*
X150896413Y-45897431D01*
X150896417Y-45897429D01*
X151088544Y-45799535D01*
X151157213Y-45786638D01*
X151221953Y-45812914D01*
X151244104Y-45835706D01*
X151260453Y-45857545D01*
X151260455Y-45857547D01*
X151375664Y-45943793D01*
X151375671Y-45943797D01*
X151510517Y-45994091D01*
X151510516Y-45994091D01*
X151517444Y-45994835D01*
X151570127Y-46000500D01*
X153465872Y-46000499D01*
X153525483Y-45994091D01*
X153660331Y-45943796D01*
X153775546Y-45857546D01*
X153861796Y-45742331D01*
X153912091Y-45607483D01*
X153918500Y-45547873D01*
X153918499Y-43652128D01*
X153912091Y-43592517D01*
X153909817Y-43586421D01*
X153861797Y-43457671D01*
X153861793Y-43457664D01*
X153775547Y-43342455D01*
X153775544Y-43342452D01*
X153660335Y-43256206D01*
X153660328Y-43256202D01*
X153525482Y-43205908D01*
X153525483Y-43205908D01*
X153465883Y-43199501D01*
X153465881Y-43199500D01*
X153465873Y-43199500D01*
X153465865Y-43199500D01*
X152018097Y-43199500D01*
X151951058Y-43179815D01*
X151930416Y-43163181D01*
X150805590Y-42038355D01*
X150805588Y-42038352D01*
X150686717Y-41919481D01*
X150686716Y-41919480D01*
X150579948Y-41857838D01*
X150579947Y-41857837D01*
X150549783Y-41840422D01*
X150493881Y-41825443D01*
X150397057Y-41799499D01*
X150238943Y-41799499D01*
X150231347Y-41799499D01*
X150231331Y-41799500D01*
X144930792Y-41799500D01*
X144863753Y-41779815D01*
X144830474Y-41748386D01*
X144735690Y-41617927D01*
X144602073Y-41484310D01*
X144449199Y-41373240D01*
X144280836Y-41287454D01*
X144101118Y-41229059D01*
X143914486Y-41199500D01*
X143914481Y-41199500D01*
X143725519Y-41199500D01*
X143725514Y-41199500D01*
X143538881Y-41229059D01*
X143359163Y-41287454D01*
X143190800Y-41373240D01*
X143103579Y-41436610D01*
X143037927Y-41484310D01*
X143037925Y-41484312D01*
X143037924Y-41484312D01*
X142904312Y-41617924D01*
X142904312Y-41617925D01*
X142904310Y-41617927D01*
X142856610Y-41683579D01*
X142793240Y-41770800D01*
X142707454Y-41939163D01*
X142649059Y-42118881D01*
X142619500Y-42305513D01*
X137400500Y-42305513D01*
X137370940Y-42118881D01*
X137312545Y-41939163D01*
X137262234Y-41840423D01*
X137226760Y-41770801D01*
X137115690Y-41617927D01*
X136982073Y-41484310D01*
X136829199Y-41373240D01*
X136660836Y-41287454D01*
X136481118Y-41229059D01*
X136294486Y-41199500D01*
X136294481Y-41199500D01*
X136105519Y-41199500D01*
X136105514Y-41199500D01*
X135918881Y-41229059D01*
X135739163Y-41287454D01*
X135570800Y-41373240D01*
X135483579Y-41436610D01*
X135417927Y-41484310D01*
X135417925Y-41484312D01*
X135417924Y-41484312D01*
X135284312Y-41617924D01*
X135284312Y-41617925D01*
X135284310Y-41617927D01*
X135189526Y-41748386D01*
X135134196Y-41791051D01*
X135089208Y-41799500D01*
X130430792Y-41799500D01*
X130363753Y-41779815D01*
X130330474Y-41748386D01*
X130235690Y-41617927D01*
X130102073Y-41484310D01*
X129949199Y-41373240D01*
X129780836Y-41287454D01*
X129601118Y-41229059D01*
X129414486Y-41199500D01*
X129414481Y-41199500D01*
X129225519Y-41199500D01*
X129225514Y-41199500D01*
X129038881Y-41229059D01*
X128859163Y-41287454D01*
X128690800Y-41373240D01*
X128603579Y-41436610D01*
X128537927Y-41484310D01*
X128537925Y-41484312D01*
X128537924Y-41484312D01*
X128404312Y-41617924D01*
X128404312Y-41617925D01*
X128404310Y-41617927D01*
X128356610Y-41683579D01*
X128293240Y-41770800D01*
X128207454Y-41939163D01*
X128149059Y-42118881D01*
X128119500Y-42305513D01*
X128119500Y-42494486D01*
X128144725Y-42653751D01*
X128135770Y-42723045D01*
X128109933Y-42760830D01*
X123331286Y-47539478D01*
X123219481Y-47651282D01*
X123219479Y-47651285D01*
X123182297Y-47715688D01*
X123182296Y-47715690D01*
X123140423Y-47788214D01*
X123140423Y-47788215D01*
X123099499Y-47940943D01*
X123099499Y-48099057D01*
X123099499Y-48099059D01*
X123099500Y-48109053D01*
X123099500Y-76713330D01*
X123099499Y-76713348D01*
X123099499Y-76879054D01*
X123099498Y-76879054D01*
X110500500Y-76879054D01*
X110500500Y-68303713D01*
X112524500Y-68303713D01*
X112524500Y-68516286D01*
X112551112Y-68684312D01*
X112557754Y-68726243D01*
X112587543Y-68817925D01*
X112623444Y-68928414D01*
X112719951Y-69117820D01*
X112844890Y-69289786D01*
X112995209Y-69440105D01*
X112995214Y-69440109D01*
X113160218Y-69559991D01*
X113202884Y-69615320D01*
X113208863Y-69684934D01*
X113176258Y-69746729D01*
X113160218Y-69760627D01*
X112995540Y-69880272D01*
X112995535Y-69880276D01*
X112845276Y-70030535D01*
X112845272Y-70030540D01*
X112720379Y-70202442D01*
X112623904Y-70391782D01*
X112558242Y-70593870D01*
X112558242Y-70593873D01*
X112547769Y-70660000D01*
X113595854Y-70660000D01*
X113557370Y-70726657D01*
X113525000Y-70847465D01*
X113525000Y-70972535D01*
X113557370Y-71093343D01*
X113595854Y-71160000D01*
X112547769Y-71160000D01*
X112558242Y-71226126D01*
X112558242Y-71226129D01*
X112623904Y-71428217D01*
X112720379Y-71617557D01*
X112845272Y-71789459D01*
X112845276Y-71789464D01*
X112984143Y-71928331D01*
X113017628Y-71989654D01*
X113012644Y-72059346D01*
X112970772Y-72115279D01*
X112961559Y-72121551D01*
X112806342Y-72217289D01*
X112682289Y-72341342D01*
X112590187Y-72490663D01*
X112590186Y-72490666D01*
X112535001Y-72657203D01*
X112535001Y-72657204D01*
X112535000Y-72657204D01*
X112524500Y-72759983D01*
X112524500Y-74060001D01*
X112524501Y-74060018D01*
X112535000Y-74162796D01*
X112535001Y-74162799D01*
X112582521Y-74306202D01*
X112590186Y-74329334D01*
X112682288Y-74478656D01*
X112806344Y-74602712D01*
X112955666Y-74694814D01*
X113122203Y-74749999D01*
X113224991Y-74760500D01*
X114775008Y-74760499D01*
X114877797Y-74749999D01*
X115044334Y-74694814D01*
X115193656Y-74602712D01*
X115317712Y-74478656D01*
X115409814Y-74329334D01*
X115464999Y-74162797D01*
X115469177Y-74121896D01*
X115495573Y-74057207D01*
X115552753Y-74017055D01*
X115592535Y-74010500D01*
X116683331Y-74010500D01*
X116683347Y-74010501D01*
X116690943Y-74010501D01*
X116849054Y-74010501D01*
X116849057Y-74010501D01*
X117001785Y-73969577D01*
X117088387Y-73919577D01*
X117138716Y-73890520D01*
X117250520Y-73778716D01*
X117250520Y-73778714D01*
X117260724Y-73768511D01*
X117260727Y-73768506D01*
X120219170Y-70810064D01*
X120280491Y-70776581D01*
X120326246Y-70775274D01*
X120349006Y-70778878D01*
X120485514Y-70800500D01*
X120485519Y-70800500D01*
X120674486Y-70800500D01*
X120861118Y-70770940D01*
X120891753Y-70760986D01*
X121040832Y-70712547D01*
X121209199Y-70626760D01*
X121362073Y-70515690D01*
X121495690Y-70382073D01*
X121606760Y-70229199D01*
X121692547Y-70060832D01*
X121750940Y-69881118D01*
X121763575Y-69801342D01*
X121780500Y-69694486D01*
X121780500Y-69505513D01*
X121750940Y-69318881D01*
X121692545Y-69139163D01*
X121606759Y-68970800D01*
X121495690Y-68817927D01*
X121362073Y-68684310D01*
X121209199Y-68573240D01*
X121040832Y-68487453D01*
X120980748Y-68467930D01*
X120923073Y-68428493D01*
X120895875Y-68364135D01*
X120907790Y-68295288D01*
X120955034Y-68243813D01*
X120980746Y-68232069D01*
X121040832Y-68212547D01*
X121209199Y-68126760D01*
X121362073Y-68015690D01*
X121495690Y-67882073D01*
X121606760Y-67729199D01*
X121692547Y-67560832D01*
X121750940Y-67381118D01*
X121770923Y-67254949D01*
X121780500Y-67194486D01*
X121780500Y-67005513D01*
X121750940Y-66818881D01*
X121692545Y-66639163D01*
X121621382Y-66499499D01*
X121606760Y-66470801D01*
X121495690Y-66317927D01*
X121362073Y-66184310D01*
X121209199Y-66073240D01*
X121180500Y-66058617D01*
X121040836Y-65987454D01*
X120861118Y-65929059D01*
X120674486Y-65899500D01*
X120674481Y-65899500D01*
X120485519Y-65899500D01*
X120485514Y-65899500D01*
X120298881Y-65929059D01*
X120119163Y-65987454D01*
X119950800Y-66073240D01*
X119866850Y-66134234D01*
X119797927Y-66184310D01*
X119797925Y-66184312D01*
X119797924Y-66184312D01*
X119664312Y-66317924D01*
X119664312Y-66317925D01*
X119664310Y-66317927D01*
X119569526Y-66448386D01*
X119514196Y-66491051D01*
X119469208Y-66499500D01*
X115396670Y-66499500D01*
X115396654Y-66499499D01*
X115389058Y-66499499D01*
X115230943Y-66499499D01*
X115154579Y-66519961D01*
X115078214Y-66540423D01*
X115078209Y-66540426D01*
X114941290Y-66619475D01*
X114941282Y-66619481D01*
X114509025Y-67051737D01*
X114447702Y-67085222D01*
X114401947Y-67086529D01*
X114231287Y-67059500D01*
X113768713Y-67059500D01*
X113720042Y-67067208D01*
X113558760Y-67092753D01*
X113356585Y-67158444D01*
X113167179Y-67254951D01*
X112995213Y-67379890D01*
X112844890Y-67530213D01*
X112719951Y-67702179D01*
X112623444Y-67891585D01*
X112557753Y-68093760D01*
X112524500Y-68303713D01*
X110500500Y-68303713D01*
X110500500Y-44489778D01*
X111062500Y-44489778D01*
X111062500Y-44710222D01*
X111072553Y-44773694D01*
X111096985Y-44927952D01*
X111165103Y-45137603D01*
X111165104Y-45137606D01*
X111265187Y-45334025D01*
X111394752Y-45512358D01*
X111394756Y-45512363D01*
X111550636Y-45668243D01*
X111550641Y-45668247D01*
X111628241Y-45724626D01*
X111728978Y-45797815D01*
X111857375Y-45863237D01*
X111925393Y-45897895D01*
X111925396Y-45897896D01*
X111976675Y-45914557D01*
X112135049Y-45966015D01*
X112352778Y-46000500D01*
X112352779Y-46000500D01*
X112573221Y-46000500D01*
X112573222Y-46000500D01*
X112790951Y-45966015D01*
X112861205Y-45943187D01*
X112931044Y-45941192D01*
X112987202Y-45973437D01*
X115094284Y-48080520D01*
X115094286Y-48080521D01*
X115094290Y-48080524D01*
X115231209Y-48159573D01*
X115231212Y-48159575D01*
X115231216Y-48159577D01*
X115383943Y-48200501D01*
X115383945Y-48200501D01*
X115549654Y-48200501D01*
X115549670Y-48200500D01*
X120803331Y-48200500D01*
X120803347Y-48200501D01*
X120810943Y-48200501D01*
X120969054Y-48200501D01*
X120969057Y-48200501D01*
X121121785Y-48159577D01*
X121191200Y-48119500D01*
X121258716Y-48080520D01*
X121334325Y-48004910D01*
X121340035Y-48000405D01*
X121365962Y-47989974D01*
X121390491Y-47976581D01*
X121399925Y-47976311D01*
X121404856Y-47974328D01*
X121413248Y-47975930D01*
X121436246Y-47975274D01*
X121478982Y-47982042D01*
X121595514Y-48000500D01*
X121595519Y-48000500D01*
X121784486Y-48000500D01*
X121971118Y-47970940D01*
X122001753Y-47960986D01*
X122150832Y-47912547D01*
X122319199Y-47826760D01*
X122472073Y-47715690D01*
X122605690Y-47582073D01*
X122716760Y-47429199D01*
X122802547Y-47260832D01*
X122860940Y-47081118D01*
X122890500Y-46894486D01*
X122890500Y-46705513D01*
X122860940Y-46518881D01*
X122802545Y-46339163D01*
X122731383Y-46199500D01*
X122716760Y-46170801D01*
X122605690Y-46017927D01*
X122472073Y-45884310D01*
X122465567Y-45879583D01*
X122361468Y-45803949D01*
X122318802Y-45748619D01*
X122312824Y-45679006D01*
X122345430Y-45617211D01*
X122361469Y-45603314D01*
X122366468Y-45599682D01*
X122482073Y-45515690D01*
X122615690Y-45382073D01*
X122726760Y-45229199D01*
X122812547Y-45060832D01*
X122870940Y-44881118D01*
X122873579Y-44864457D01*
X122900500Y-44694486D01*
X122900500Y-44505513D01*
X122870940Y-44318881D01*
X122826031Y-44180667D01*
X122812547Y-44139168D01*
X122812545Y-44139165D01*
X122812545Y-44139163D01*
X122741383Y-43999500D01*
X122726760Y-43970801D01*
X122615690Y-43817927D01*
X122482073Y-43684310D01*
X122366467Y-43600317D01*
X122323803Y-43544988D01*
X122317824Y-43475374D01*
X122350430Y-43413579D01*
X122366468Y-43399682D01*
X122482073Y-43315690D01*
X122615690Y-43182073D01*
X122726760Y-43029199D01*
X122812547Y-42860832D01*
X122870940Y-42681118D01*
X122900500Y-42494486D01*
X122900500Y-42305513D01*
X122870940Y-42118881D01*
X122812545Y-41939163D01*
X122762234Y-41840423D01*
X122726760Y-41770801D01*
X122615690Y-41617927D01*
X122482073Y-41484310D01*
X122329199Y-41373240D01*
X122160836Y-41287454D01*
X121981118Y-41229059D01*
X121794486Y-41199500D01*
X121794481Y-41199500D01*
X121605519Y-41199500D01*
X121605514Y-41199500D01*
X121418881Y-41229059D01*
X121239163Y-41287454D01*
X121070800Y-41373240D01*
X120983579Y-41436610D01*
X120917927Y-41484310D01*
X120917925Y-41484312D01*
X120917924Y-41484312D01*
X120784312Y-41617924D01*
X120784312Y-41617925D01*
X120784310Y-41617927D01*
X120736610Y-41683579D01*
X120673240Y-41770800D01*
X120587454Y-41939163D01*
X120529059Y-42118881D01*
X120499500Y-42305513D01*
X120499500Y-42494486D01*
X120524725Y-42653751D01*
X120515770Y-42723045D01*
X120489933Y-42760830D01*
X120074752Y-43176011D01*
X120013429Y-43209496D01*
X119955584Y-43205361D01*
X119955034Y-43207693D01*
X119947482Y-43205908D01*
X119887883Y-43199501D01*
X119887881Y-43199500D01*
X119887873Y-43199500D01*
X119887864Y-43199500D01*
X117992129Y-43199500D01*
X117992123Y-43199501D01*
X117932516Y-43205908D01*
X117797671Y-43256202D01*
X117797664Y-43256206D01*
X117682455Y-43342452D01*
X117666106Y-43364292D01*
X117610172Y-43406163D01*
X117540480Y-43411146D01*
X117510545Y-43400465D01*
X117318410Y-43302567D01*
X117108835Y-43234473D01*
X116891181Y-43200000D01*
X116670819Y-43200000D01*
X116453164Y-43234473D01*
X116243589Y-43302567D01*
X116047233Y-43402616D01*
X115983485Y-43448931D01*
X115983485Y-43448932D01*
X116692414Y-44157861D01*
X116607306Y-44180667D01*
X116504694Y-44239910D01*
X116420910Y-44323694D01*
X116361667Y-44426306D01*
X116338861Y-44511414D01*
X115955411Y-44127964D01*
X115925160Y-44078598D01*
X115919896Y-44062396D01*
X115912935Y-44048735D01*
X115819815Y-43865978D01*
X115701500Y-43703130D01*
X115690247Y-43687641D01*
X115690243Y-43687636D01*
X115534363Y-43531756D01*
X115534358Y-43531752D01*
X115356025Y-43402187D01*
X115356024Y-43402186D01*
X115356022Y-43402185D01*
X115238791Y-43342452D01*
X115159606Y-43302104D01*
X115159603Y-43302103D01*
X114949952Y-43233985D01*
X114783950Y-43207693D01*
X114732222Y-43199500D01*
X114511778Y-43199500D01*
X114460050Y-43207693D01*
X114294047Y-43233985D01*
X114084396Y-43302103D01*
X114084393Y-43302104D01*
X113887974Y-43402187D01*
X113709641Y-43531752D01*
X113709636Y-43531756D01*
X113630181Y-43611212D01*
X113568858Y-43644697D01*
X113499166Y-43639713D01*
X113454819Y-43611212D01*
X113375363Y-43531756D01*
X113375358Y-43531752D01*
X113197025Y-43402187D01*
X113197024Y-43402186D01*
X113197022Y-43402185D01*
X113079791Y-43342452D01*
X113000606Y-43302104D01*
X113000603Y-43302103D01*
X112790952Y-43233985D01*
X112624950Y-43207693D01*
X112573222Y-43199500D01*
X112352778Y-43199500D01*
X112301050Y-43207693D01*
X112135047Y-43233985D01*
X111925396Y-43302103D01*
X111925393Y-43302104D01*
X111728974Y-43402187D01*
X111550641Y-43531752D01*
X111550636Y-43531756D01*
X111394756Y-43687636D01*
X111394752Y-43687641D01*
X111265187Y-43865974D01*
X111165104Y-44062393D01*
X111165103Y-44062396D01*
X111096985Y-44272047D01*
X111077216Y-44396865D01*
X111062500Y-44489778D01*
X110500500Y-44489778D01*
X110500500Y-40624500D01*
X110520185Y-40557461D01*
X110572989Y-40511706D01*
X110624500Y-40500500D01*
X154375500Y-40500500D01*
X154442539Y-40520185D01*
G37*
%TD.AperFunction*%
%TD*%
M02*
