%TF.GenerationSoftware,KiCad,Pcbnew,9.0.6*%
%TF.CreationDate,2026-02-15T18:12:06+02:00*%
%TF.ProjectId,pcb,7063622e-6b69-4636-9164-5f7063625858,rev?*%
%TF.SameCoordinates,Original*%
%TF.FileFunction,Soldermask,Top*%
%TF.FilePolarity,Negative*%
%FSLAX46Y46*%
G04 Gerber Fmt 4.6, Leading zero omitted, Abs format (unit mm)*
G04 Created by KiCad (PCBNEW 9.0.6) date 2026-02-15 18:12:06*
%MOMM*%
%LPD*%
G01*
G04 APERTURE LIST*
G04 Aperture macros list*
%AMRoundRect*
0 Rectangle with rounded corners*
0 $1 Rounding radius*
0 $2 $3 $4 $5 $6 $7 $8 $9 X,Y pos of 4 corners*
0 Add a 4 corners polygon primitive as box body*
4,1,4,$2,$3,$4,$5,$6,$7,$8,$9,$2,$3,0*
0 Add four circle primitives for the rounded corners*
1,1,$1+$1,$2,$3*
1,1,$1+$1,$4,$5*
1,1,$1+$1,$6,$7*
1,1,$1+$1,$8,$9*
0 Add four rect primitives between the rounded corners*
20,1,$1+$1,$2,$3,$4,$5,0*
20,1,$1+$1,$4,$5,$6,$7,0*
20,1,$1+$1,$6,$7,$8,$9,0*
20,1,$1+$1,$8,$9,$2,$3,0*%
%AMOutline5P*
0 Free polygon, 5 corners , with rotation*
0 The origin of the aperture is its center*
0 number of corners: always 5*
0 $1 to $10 corner X, Y*
0 $11 Rotation angle, in degrees counterclockwise*
0 create outline with 5 corners*
4,1,5,$1,$2,$3,$4,$5,$6,$7,$8,$9,$10,$1,$2,$11*%
%AMOutline6P*
0 Free polygon, 6 corners , with rotation*
0 The origin of the aperture is its center*
0 number of corners: always 6*
0 $1 to $12 corner X, Y*
0 $13 Rotation angle, in degrees counterclockwise*
0 create outline with 6 corners*
4,1,6,$1,$2,$3,$4,$5,$6,$7,$8,$9,$10,$11,$12,$1,$2,$13*%
%AMOutline7P*
0 Free polygon, 7 corners , with rotation*
0 The origin of the aperture is its center*
0 number of corners: always 7*
0 $1 to $14 corner X, Y*
0 $15 Rotation angle, in degrees counterclockwise*
0 create outline with 7 corners*
4,1,7,$1,$2,$3,$4,$5,$6,$7,$8,$9,$10,$11,$12,$13,$14,$1,$2,$15*%
%AMOutline8P*
0 Free polygon, 8 corners , with rotation*
0 The origin of the aperture is its center*
0 number of corners: always 8*
0 $1 to $16 corner X, Y*
0 $17 Rotation angle, in degrees counterclockwise*
0 create outline with 8 corners*
4,1,8,$1,$2,$3,$4,$5,$6,$7,$8,$9,$10,$11,$12,$13,$14,$15,$16,$1,$2,$17*%
G04 Aperture macros list end*
%ADD10Outline5P,-1.500000X0.700000X1.500000X0.700000X1.500000X-0.700000X-1.220000X-0.700000X-1.500000X-0.420000X90.000000*%
%ADD11RoundRect,0.291667X0.408333X-1.208333X0.408333X1.208333X-0.408333X1.208333X-0.408333X-1.208333X0*%
%ADD12C,1.400000*%
%ADD13C,1.600000*%
%ADD14C,1.800000*%
%ADD15R,1.800000X1.800000*%
%ADD16RoundRect,0.250000X0.600000X0.725000X-0.600000X0.725000X-0.600000X-0.725000X0.600000X-0.725000X0*%
%ADD17O,1.700000X1.950000*%
%ADD18R,1.600000X1.600000*%
G04 APERTURE END LIST*
D10*
%TO.C,U1*%
X153490000Y-79140000D03*
D11*
X150950000Y-79140000D03*
X148410000Y-79140000D03*
X145870000Y-79140000D03*
X143330000Y-79140000D03*
X140790000Y-79140000D03*
X138250000Y-79140000D03*
X135710000Y-79140000D03*
X153490000Y-62300000D03*
X150950000Y-62300000D03*
X148410000Y-62300000D03*
X145870000Y-62300000D03*
X143330000Y-62300000D03*
X140790000Y-62300000D03*
X138250000Y-62300000D03*
X135710000Y-62300000D03*
%TD*%
D12*
%TO.C,R14*%
X135390000Y-82850000D03*
X143010000Y-82850000D03*
%TD*%
D13*
%TO.C,U2*%
X129646000Y-56320000D03*
X129646000Y-58860000D03*
X129646000Y-61400000D03*
X129646000Y-63940000D03*
X129646000Y-66480000D03*
X129646000Y-69020000D03*
X129646000Y-71560000D03*
X129646000Y-74100000D03*
X119740000Y-82736000D03*
X117200000Y-82736000D03*
X114660000Y-82736000D03*
X112120000Y-82736000D03*
%TD*%
D12*
%TO.C,R10*%
X113700000Y-87350000D03*
X121320000Y-87350000D03*
%TD*%
D14*
%TO.C,D3*%
X152518000Y-92100000D03*
X150359000Y-92100000D03*
X148200000Y-92100000D03*
D15*
X146041000Y-92100000D03*
%TD*%
D12*
%TO.C,R12*%
X113640000Y-91850000D03*
X121260000Y-91850000D03*
%TD*%
%TO.C,R11*%
X121320000Y-89600000D03*
X113700000Y-89600000D03*
%TD*%
%TO.C,R7*%
X128330000Y-87350000D03*
X135950000Y-87350000D03*
%TD*%
%TO.C,R9*%
X128270000Y-91850000D03*
X135890000Y-91850000D03*
%TD*%
%TO.C,R8*%
X135950000Y-89600000D03*
X128330000Y-89600000D03*
%TD*%
%TO.C,R5*%
X120760000Y-44850000D03*
X113140000Y-44850000D03*
%TD*%
%TO.C,R1*%
X134640000Y-42100000D03*
X142260000Y-42100000D03*
%TD*%
D16*
%TO.C,J1*%
X151950000Y-84350000D03*
D17*
X149450000Y-84350000D03*
X146950000Y-84350000D03*
%TD*%
D12*
%TO.C,R3*%
X130640000Y-46600000D03*
X138260000Y-46600000D03*
%TD*%
%TO.C,R2*%
X140260000Y-44350000D03*
X132640000Y-44350000D03*
%TD*%
D15*
%TO.C,D2*%
X109200000Y-43350000D03*
D14*
X107041000Y-43350000D03*
X104882000Y-43350000D03*
X102723000Y-43350000D03*
%TD*%
D12*
%TO.C,R13*%
X140200000Y-56970000D03*
X140200000Y-49350000D03*
%TD*%
%TO.C,R6*%
X120760000Y-42600000D03*
X113140000Y-42600000D03*
%TD*%
D13*
%TO.C,BZ1*%
X152000000Y-53350000D03*
D18*
X144400000Y-53350000D03*
%TD*%
D12*
%TO.C,R4*%
X120760000Y-47100000D03*
X113140000Y-47100000D03*
%TD*%
D15*
%TO.C,D4*%
X108677000Y-91850000D03*
D14*
X106518000Y-91850000D03*
X104359000Y-91850000D03*
X102200000Y-91850000D03*
%TD*%
D15*
%TO.C,D1*%
X146450000Y-43600000D03*
D14*
X148609000Y-43600000D03*
X150768000Y-43600000D03*
X152927000Y-43600000D03*
%TD*%
M02*
