M48
; DRILL file {KiCad 9.0.6} date 2026-01-18T12:40:51+0200
; FORMAT={-:-/ absolute / metric / decimal}
; #@! TF.CreationDate,2026-01-18T12:40:51+02:00
; #@! TF.GenerationSoftware,Kicad,Pcbnew,9.0.6
; #@! TF.FileFunction,Plated,1,2,PTH
FMAT,2
METRIC
; #@! TA.AperFunction,Plated,PTH,ComponentDrill
T1C0.700
; #@! TA.AperFunction,Plated,PTH,ComponentDrill
T2C0.800
; #@! TA.AperFunction,Plated,PTH,ComponentDrill
T3C0.900
; #@! TA.AperFunction,Plated,PTH,ComponentDrill
T4C0.950
; #@! TA.AperFunction,Plated,PTH,ComponentDrill
T5C1.000
%
G90
G05
T1
X120.58Y-67.1
X120.58Y-69.6
X121.69Y-46.8
X121.7Y-42.4
X121.7Y-44.6
X122.08Y-78.27
X122.08Y-80.55
X122.08Y-82.8
X128.2Y-67.1
X128.2Y-69.6
X129.31Y-46.8
X129.32Y-42.4
X129.32Y-44.6
X129.7Y-78.27
X129.7Y-80.55
X129.7Y-82.8
X135.57Y-78.41
X135.58Y-80.61
X135.58Y-82.81
X136.2Y-42.4
X136.2Y-44.6
X136.2Y-46.8
X143.19Y-78.41
X143.2Y-80.61
X143.2Y-82.81
X143.82Y-42.4
X143.82Y-44.6
X143.82Y-46.8
T2
X134.16Y-55.48
X134.16Y-70.72
X136.7Y-55.48
X136.7Y-70.72
X139.24Y-55.48
X139.24Y-70.72
X141.78Y-55.48
X141.78Y-70.72
X144.32Y-55.48
X144.32Y-70.72
X146.86Y-55.48
X146.86Y-70.72
X149.4Y-55.48
X149.4Y-70.72
X151.94Y-55.48
X151.94Y-70.72
T3
X112.463Y-44.6
X112.603Y-80.6
X114.622Y-44.6
X114.762Y-80.6
X116.781Y-44.6
X116.921Y-80.6
X118.94Y-44.6
X119.08Y-80.6
X146.041Y-44.6
X146.041Y-80.6
X148.2Y-44.6
X148.2Y-80.6
X150.359Y-44.6
X150.359Y-80.6
X152.518Y-44.6
X152.518Y-80.6
T4
X114.0Y-68.41
X114.0Y-70.91
X114.0Y-73.41
T5
X147.16Y-75.6
X149.7Y-75.6
M30
