%TF.GenerationSoftware,KiCad,Pcbnew,9.0.6*%
%TF.CreationDate,2026-01-16T21:18:51+02:00*%
%TF.ProjectId,pcb,7063622e-6b69-4636-9164-5f7063625858,rev?*%
%TF.SameCoordinates,Original*%
%TF.FileFunction,Soldermask,Top*%
%TF.FilePolarity,Negative*%
%FSLAX46Y46*%
G04 Gerber Fmt 4.6, Leading zero omitted, Abs format (unit mm)*
G04 Created by KiCad (PCBNEW 9.0.6) date 2026-01-16 21:18:51*
%MOMM*%
%LPD*%
G01*
G04 APERTURE LIST*
G04 Aperture macros list*
%AMRoundRect*
0 Rectangle with rounded corners*
0 $1 Rounding radius*
0 $2 $3 $4 $5 $6 $7 $8 $9 X,Y pos of 4 corners*
0 Add a 4 corners polygon primitive as box body*
4,1,4,$2,$3,$4,$5,$6,$7,$8,$9,$2,$3,0*
0 Add four circle primitives for the rounded corners*
1,1,$1+$1,$2,$3*
1,1,$1+$1,$4,$5*
1,1,$1+$1,$6,$7*
1,1,$1+$1,$8,$9*
0 Add four rect primitives between the rounded corners*
20,1,$1+$1,$2,$3,$4,$5,0*
20,1,$1+$1,$4,$5,$6,$7,0*
20,1,$1+$1,$6,$7,$8,$9,0*
20,1,$1+$1,$8,$9,$2,$3,0*%
%AMOutline5P*
0 Free polygon, 5 corners , with rotation*
0 The origin of the aperture is its center*
0 number of corners: always 5*
0 $1 to $10 corner X, Y*
0 $11 Rotation angle, in degrees counterclockwise*
0 create outline with 5 corners*
4,1,5,$1,$2,$3,$4,$5,$6,$7,$8,$9,$10,$1,$2,$11*%
%AMOutline6P*
0 Free polygon, 6 corners , with rotation*
0 The origin of the aperture is its center*
0 number of corners: always 6*
0 $1 to $12 corner X, Y*
0 $13 Rotation angle, in degrees counterclockwise*
0 create outline with 6 corners*
4,1,6,$1,$2,$3,$4,$5,$6,$7,$8,$9,$10,$11,$12,$1,$2,$13*%
%AMOutline7P*
0 Free polygon, 7 corners , with rotation*
0 The origin of the aperture is its center*
0 number of corners: always 7*
0 $1 to $14 corner X, Y*
0 $15 Rotation angle, in degrees counterclockwise*
0 create outline with 7 corners*
4,1,7,$1,$2,$3,$4,$5,$6,$7,$8,$9,$10,$11,$12,$13,$14,$1,$2,$15*%
%AMOutline8P*
0 Free polygon, 8 corners , with rotation*
0 The origin of the aperture is its center*
0 number of corners: always 8*
0 $1 to $16 corner X, Y*
0 $17 Rotation angle, in degrees counterclockwise*
0 create outline with 8 corners*
4,1,8,$1,$2,$3,$4,$5,$6,$7,$8,$9,$10,$11,$12,$13,$14,$15,$16,$1,$2,$17*%
G04 Aperture macros list end*
%ADD10R,1.700000X1.700000*%
%ADD11C,1.700000*%
%ADD12C,1.400000*%
%ADD13R,1.800000X1.800000*%
%ADD14C,1.800000*%
%ADD15RoundRect,0.250000X0.725000X-0.600000X0.725000X0.600000X-0.725000X0.600000X-0.725000X-0.600000X0*%
%ADD16O,1.950000X1.700000*%
%ADD17Outline5P,-1.500000X0.600000X1.500000X0.600000X1.500000X-0.600000X-1.260000X-0.600000X-1.500000X-0.360000X90.000000*%
%ADD18RoundRect,0.250000X0.350000X-1.250000X0.350000X1.250000X-0.350000X1.250000X-0.350000X-1.250000X0*%
G04 APERTURE END LIST*
D10*
%TO.C,J2*%
X149700000Y-75600000D03*
D11*
X147160000Y-75600000D03*
%TD*%
D12*
%TO.C,R5*%
X129320000Y-44600000D03*
X121700000Y-44600000D03*
%TD*%
%TO.C,R1*%
X136200000Y-42400000D03*
X143820000Y-42400000D03*
%TD*%
D13*
%TO.C,D3*%
X152518000Y-80600000D03*
D14*
X150359000Y-80600000D03*
X148200000Y-80600000D03*
X146041000Y-80600000D03*
%TD*%
D12*
%TO.C,R10*%
X129700000Y-78270000D03*
X122080000Y-78270000D03*
%TD*%
%TO.C,R3*%
X136200000Y-46800000D03*
X143820000Y-46800000D03*
%TD*%
%TO.C,R12*%
X129700000Y-82800000D03*
X122080000Y-82800000D03*
%TD*%
%TO.C,R2*%
X136200000Y-44600000D03*
X143820000Y-44600000D03*
%TD*%
%TO.C,R11*%
X129700000Y-80550000D03*
X122080000Y-80550000D03*
%TD*%
%TO.C,R7*%
X135570000Y-78410000D03*
X143190000Y-78410000D03*
%TD*%
D13*
%TO.C,D2*%
X118940000Y-44600000D03*
D14*
X116781000Y-44600000D03*
X114622000Y-44600000D03*
X112463000Y-44600000D03*
%TD*%
D12*
%TO.C,R8*%
X135580000Y-80610000D03*
X143200000Y-80610000D03*
%TD*%
D15*
%TO.C,D7*%
X114000000Y-73410000D03*
D16*
X114000000Y-70910000D03*
X114000000Y-68410000D03*
%TD*%
D17*
%TO.C,U1*%
X151940000Y-71520000D03*
D18*
X149400000Y-71520000D03*
X146860000Y-71520000D03*
X144320000Y-71520000D03*
X141780000Y-71520000D03*
X139240000Y-71520000D03*
X136700000Y-71520000D03*
X134160000Y-71520000D03*
X151940000Y-54680000D03*
X149400000Y-54680000D03*
X146860000Y-54680000D03*
X144320000Y-54680000D03*
X141780000Y-54680000D03*
X139240000Y-54680000D03*
X136700000Y-54680000D03*
X134160000Y-54680000D03*
%TD*%
D12*
%TO.C,R6*%
X129320000Y-42400000D03*
X121700000Y-42400000D03*
%TD*%
%TO.C,R14*%
X128200000Y-67100000D03*
X120580000Y-67100000D03*
%TD*%
%TO.C,R4*%
X129310000Y-46800000D03*
X121690000Y-46800000D03*
%TD*%
D13*
%TO.C,D4*%
X119080000Y-80600000D03*
D14*
X116921000Y-80600000D03*
X114762000Y-80600000D03*
X112603000Y-80600000D03*
%TD*%
D13*
%TO.C,D1*%
X152518000Y-44600000D03*
D14*
X150359000Y-44600000D03*
X148200000Y-44600000D03*
X146041000Y-44600000D03*
%TD*%
D12*
%TO.C,R13*%
X120580000Y-69600000D03*
X128200000Y-69600000D03*
%TD*%
%TO.C,R9*%
X135580000Y-82810000D03*
X143200000Y-82810000D03*
%TD*%
M02*
