%TF.GenerationSoftware,KiCad,Pcbnew,9.0.6*%
%TF.CreationDate,2025-11-30T22:19:54+02:00*%
%TF.ProjectId,led_pcb,6c65645f-7063-4622-9e6b-696361645f70,rev?*%
%TF.SameCoordinates,Original*%
%TF.FileFunction,Copper,L2,Bot*%
%TF.FilePolarity,Positive*%
%FSLAX46Y46*%
G04 Gerber Fmt 4.6, Leading zero omitted, Abs format (unit mm)*
G04 Created by KiCad (PCBNEW 9.0.6) date 2025-11-30 22:19:54*
%MOMM*%
%LPD*%
G01*
G04 APERTURE LIST*
%TA.AperFunction,ComponentPad*%
%ADD10C,1.400000*%
%TD*%
%TA.AperFunction,ComponentPad*%
%ADD11R,1.700000X1.700000*%
%TD*%
%TA.AperFunction,ComponentPad*%
%ADD12C,1.700000*%
%TD*%
%TA.AperFunction,ComponentPad*%
%ADD13R,1.800000X1.800000*%
%TD*%
%TA.AperFunction,ComponentPad*%
%ADD14C,1.800000*%
%TD*%
%TA.AperFunction,BGAPad,CuDef*%
%ADD15C,1.200000*%
%TD*%
G04 APERTURE END LIST*
D10*
%TO.P,R5,1*%
%TO.N,/G*%
X128300000Y-43400000D03*
%TO.P,R5,2*%
%TO.N,Net-(D2-GA)*%
X120680000Y-43400000D03*
%TD*%
%TO.P,R1,1*%
%TO.N,/R*%
X136873000Y-45750000D03*
%TO.P,R1,2*%
%TO.N,Net-(D1-RA)*%
X144493000Y-45750000D03*
%TD*%
D11*
%TO.P,J1,1,Pin_1*%
%TO.N,GND*%
X114600000Y-50440000D03*
D12*
%TO.P,J1,2,Pin_2*%
%TO.N,/R*%
X114600000Y-52980000D03*
%TO.P,J1,3,Pin_3*%
%TO.N,/G*%
X114600000Y-55520000D03*
%TO.P,J1,4,Pin_4*%
%TO.N,/B*%
X114600000Y-58060000D03*
%TO.P,J1,5,Pin_5*%
%TO.N,Net-(J1-Pin_5)*%
X114600000Y-60600000D03*
%TO.P,J1,6,Pin_6*%
%TO.N,Net-(J1-Pin_6)*%
X114600000Y-63140000D03*
%TD*%
D13*
%TO.P,D3,1,RA*%
%TO.N,Net-(D3-RA)*%
X146623000Y-81100000D03*
D14*
%TO.P,D3,2,K*%
%TO.N,GND*%
X148782000Y-81100000D03*
%TO.P,D3,3,GA*%
%TO.N,Net-(D3-GA)*%
X150941000Y-81100000D03*
%TO.P,D3,4,BA*%
%TO.N,Net-(D3-BA)*%
X153100000Y-81100000D03*
%TD*%
D10*
%TO.P,R10,1*%
%TO.N,/B*%
X129300000Y-83300000D03*
%TO.P,R10,2*%
%TO.N,Net-(D4-BA)*%
X121680000Y-83300000D03*
%TD*%
%TO.P,R3,1*%
%TO.N,/B*%
X136873000Y-41350000D03*
%TO.P,R3,2*%
%TO.N,Net-(D1-BA)*%
X144493000Y-41350000D03*
%TD*%
%TO.P,R12,1*%
%TO.N,/R*%
X129320000Y-78800000D03*
%TO.P,R12,2*%
%TO.N,Net-(D4-RA)*%
X121700000Y-78800000D03*
%TD*%
%TO.P,R2,1*%
%TO.N,/G*%
X136873000Y-43550000D03*
%TO.P,R2,2*%
%TO.N,Net-(D1-GA)*%
X144493000Y-43550000D03*
%TD*%
D15*
%TO.P,U1,1,5V*%
%TO.N,Net-(J2-Pin_1)*%
X135620000Y-68894000D03*
%TO.P,U1,2,GND*%
%TO.N,GND*%
X138000000Y-68894000D03*
%TO.P,U1,3,3V3*%
%TO.N,unconnected-(U1-3V3-Pad3)*%
X140540000Y-68894000D03*
%TO.P,U1,4,GPIO4*%
%TO.N,unconnected-(U1-GPIO4-Pad4)*%
X143080000Y-68894000D03*
%TO.P,U1,5,GPIO3*%
%TO.N,/R*%
X145620000Y-68894000D03*
%TO.P,U1,6,GPIO2*%
%TO.N,/G*%
X148160000Y-68894000D03*
%TO.P,U1,7,GPIO1*%
%TO.N,/B*%
X150700000Y-68894000D03*
%TO.P,U1,8,GPIO0*%
%TO.N,unconnected-(U1-GPIO0-Pad8)*%
X153240000Y-68894000D03*
%TO.P,U1,9,GPIO5*%
%TO.N,Net-(J1-Pin_5)*%
X135620000Y-53400000D03*
%TO.P,U1,10,GPIO6*%
%TO.N,Net-(J1-Pin_6)*%
X138000000Y-53400000D03*
%TO.P,U1,11,GPIO7*%
%TO.N,unconnected-(U1-GPIO7-Pad11)*%
X140540000Y-53400000D03*
%TO.P,U1,12,GPIO8*%
%TO.N,unconnected-(U1-GPIO8-Pad12)*%
X143080000Y-53400000D03*
%TO.P,U1,13,GPIO9*%
%TO.N,unconnected-(U1-GPIO9-Pad13)*%
X145620000Y-53400000D03*
%TO.P,U1,14,GPIO10*%
%TO.N,unconnected-(U1-GPIO10-Pad14)*%
X148160000Y-53400000D03*
%TO.P,U1,15,GPIO20*%
%TO.N,unconnected-(U1-GPIO20-Pad15)*%
X150700000Y-53400000D03*
%TO.P,U1,16,GPIO21*%
%TO.N,unconnected-(U1-GPIO21-Pad16)*%
X153240000Y-53400000D03*
%TD*%
D10*
%TO.P,R11,1*%
%TO.N,/G*%
X129300000Y-81100000D03*
%TO.P,R11,2*%
%TO.N,Net-(D4-GA)*%
X121680000Y-81100000D03*
%TD*%
%TO.P,R7,1*%
%TO.N,/B*%
X136821000Y-83300000D03*
%TO.P,R7,2*%
%TO.N,Net-(D3-BA)*%
X144441000Y-83300000D03*
%TD*%
D13*
%TO.P,D2,1,RA*%
%TO.N,Net-(D2-RA)*%
X112100000Y-43400000D03*
D14*
%TO.P,D2,2,K*%
%TO.N,GND*%
X114259000Y-43400000D03*
%TO.P,D2,3,GA*%
%TO.N,Net-(D2-GA)*%
X116418000Y-43400000D03*
%TO.P,D2,4,BA*%
%TO.N,Net-(D2-BA)*%
X118577000Y-43400000D03*
%TD*%
D13*
%TO.P,D5,1,RA*%
%TO.N,Net-(D5-RA)*%
X111530000Y-71400000D03*
D14*
%TO.P,D5,2,K*%
%TO.N,GND*%
X113689000Y-71400000D03*
%TO.P,D5,3,GA*%
%TO.N,Net-(D5-GA)*%
X115848000Y-71400000D03*
%TO.P,D5,4,BA*%
%TO.N,unconnected-(D5-BA-Pad4)*%
X118007000Y-71400000D03*
%TD*%
D10*
%TO.P,R8,1*%
%TO.N,/G*%
X136821000Y-81100000D03*
%TO.P,R8,2*%
%TO.N,Net-(D3-GA)*%
X144441000Y-81100000D03*
%TD*%
D11*
%TO.P,J2,1,Pin_1*%
%TO.N,Net-(J2-Pin_1)*%
X136025000Y-72750000D03*
D12*
%TO.P,J2,2,Pin_2*%
%TO.N,GND*%
X136025000Y-75290000D03*
%TD*%
D10*
%TO.P,R6,1*%
%TO.N,/R*%
X128300000Y-45600000D03*
%TO.P,R6,2*%
%TO.N,Net-(D2-RA)*%
X120680000Y-45600000D03*
%TD*%
%TO.P,R14,1*%
%TO.N,Net-(D5-RA)*%
X120700000Y-73620000D03*
%TO.P,R14,2*%
%TO.N,Net-(J1-Pin_5)*%
X120700000Y-66000000D03*
%TD*%
%TO.P,R4,1*%
%TO.N,/B*%
X128300000Y-41200000D03*
%TO.P,R4,2*%
%TO.N,Net-(D2-BA)*%
X120680000Y-41200000D03*
%TD*%
D13*
%TO.P,D4,1,RA*%
%TO.N,Net-(D4-RA)*%
X112582000Y-81000000D03*
D14*
%TO.P,D4,2,K*%
%TO.N,GND*%
X114741000Y-81000000D03*
%TO.P,D4,3,GA*%
%TO.N,Net-(D4-GA)*%
X116900000Y-81000000D03*
%TO.P,D4,4,BA*%
%TO.N,Net-(D4-BA)*%
X119059000Y-81000000D03*
%TD*%
D13*
%TO.P,D1,1,RA*%
%TO.N,Net-(D1-RA)*%
X146696000Y-43550000D03*
D14*
%TO.P,D1,2,K*%
%TO.N,GND*%
X148855000Y-43550000D03*
%TO.P,D1,3,GA*%
%TO.N,Net-(D1-GA)*%
X151014000Y-43550000D03*
%TO.P,D1,4,BA*%
%TO.N,Net-(D1-BA)*%
X153173000Y-43550000D03*
%TD*%
D10*
%TO.P,R13,1*%
%TO.N,Net-(J1-Pin_6)*%
X123000000Y-66080000D03*
%TO.P,R13,2*%
%TO.N,Net-(D5-GA)*%
X123000000Y-73700000D03*
%TD*%
%TO.P,R9,1*%
%TO.N,/R*%
X136841000Y-78700000D03*
%TO.P,R9,2*%
%TO.N,Net-(D3-RA)*%
X144461000Y-78700000D03*
%TD*%
M02*
