M48
; DRILL file {KiCad 9.0.6} date 2026-04-06T12:22:07+0300
; FORMAT={-:-/ absolute / metric / decimal}
; #@! TF.CreationDate,2026-04-06T12:22:07+03:00
; #@! TF.GenerationSoftware,Kicad,Pcbnew,9.0.6
; #@! TF.FileFunction,Plated,1,2,PTH
FMAT,2
METRIC
; #@! TA.AperFunction,Plated,PTH,ComponentDrill
T1C0.800
; #@! TA.AperFunction,Plated,PTH,ComponentDrill
T2C0.900
; #@! TA.AperFunction,Plated,PTH,ComponentDrill
T3C1.000
; #@! TA.AperFunction,Plated,PTH,ComponentDrill
T4C1.200
%
G90
G05
T1
X120.806Y-59.88
X120.806Y-62.42
X120.806Y-64.96
X120.806Y-67.5
X120.806Y-70.04
X120.806Y-72.58
X120.806Y-75.12
X120.806Y-77.66
X136.3Y-59.88
X136.3Y-62.42
X136.3Y-64.96
X136.3Y-67.5
X136.3Y-70.04
X136.3Y-72.58
X136.3Y-75.12
X136.3Y-77.66
T2
X102.4Y-72.69
X102.4Y-80.31
X103.005Y-42.75
X103.005Y-45.45
X103.005Y-48.15
X103.005Y-50.85
X103.5Y-83.6
X103.5Y-86.3
X103.5Y-89.0
X103.5Y-91.7
X105.0Y-72.79
X105.0Y-80.41
X105.795Y-42.8
X105.795Y-46.0
X105.795Y-50.9
X107.6Y-72.69
X107.6Y-80.31
X113.415Y-42.8
X113.415Y-46.0
X113.415Y-50.9
X113.5Y-55.04
X113.5Y-57.58
X113.5Y-60.12
X113.5Y-62.66
X113.5Y-65.2
X113.5Y-67.74
X113.5Y-70.28
X113.5Y-72.82
X139.1Y-61.82
X139.1Y-69.44
X140.595Y-42.8
X140.595Y-46.0
X140.6Y-48.7
X141.7Y-61.82
X141.7Y-69.44
X144.3Y-61.9
X144.3Y-69.52
X146.9Y-61.9
X146.9Y-69.52
X148.215Y-42.8
X148.215Y-46.0
X148.22Y-48.7
X151.5Y-83.45
X151.5Y-86.15
X151.5Y-88.85
X151.5Y-91.55
X151.905Y-43.0
X151.905Y-45.7
X151.905Y-48.4
X151.905Y-51.1
T3
X138.7Y-88.5
X146.3Y-88.5
T4
X129.345Y-90.35
X129.345Y-92.85
X150.255Y-65.64
X152.755Y-65.64
M30
