M48
; DRILL file {KiCad 9.0.6} date 2026-02-24T12:37:38+0200
; FORMAT={-:-/ absolute / metric / decimal}
; #@! TF.CreationDate,2026-02-24T12:37:38+02:00
; #@! TF.GenerationSoftware,Kicad,Pcbnew,9.0.6
; #@! TF.FileFunction,Plated,1,2,PTH
FMAT,2
METRIC
; #@! TA.AperFunction,Plated,PTH,ComponentDrill
T1C0.900
; #@! TA.AperFunction,Plated,PTH,ComponentDrill
T2C0.950
; #@! TA.AperFunction,Plated,PTH,ComponentDrill
T3C1.000
; #@! TA.AperFunction,Plated,PTH,ComponentDrill
T4C3.200
%
G90
G05
T1
X101.5Y-58.48
X101.5Y-73.72
X103.2Y-42.5
X103.2Y-45.2
X103.2Y-47.9
X103.2Y-50.6
X104.04Y-58.48
X104.04Y-73.72
X104.2Y-83.2
X104.2Y-85.9
X104.2Y-88.6
X104.2Y-91.3
X106.58Y-58.48
X106.58Y-73.72
X109.12Y-58.48
X109.12Y-73.72
X111.29Y-47.6
X111.3Y-50.3
X111.3Y-52.9
X111.66Y-58.48
X111.66Y-73.72
X112.49Y-86.36
X112.52Y-89.06
X112.6Y-91.75
X114.2Y-58.48
X114.2Y-73.72
X116.74Y-58.48
X116.74Y-73.72
X118.91Y-47.6
X118.92Y-50.3
X118.92Y-52.9
X119.28Y-58.48
X119.28Y-73.72
X120.11Y-86.36
X120.14Y-89.06
X120.22Y-91.75
X122.6Y-46.78
X122.6Y-54.4
X129.6Y-66.1
X129.6Y-73.72
X133.1Y-66.1
X133.1Y-73.72
X136.69Y-86.4
X136.69Y-89.1
X136.69Y-92.0
X137.29Y-42.6
X139.79Y-47.9
X140.6Y-60.54
X140.6Y-63.08
X140.6Y-65.62
X140.6Y-68.16
X140.6Y-70.7
X140.6Y-73.24
X140.6Y-75.78
X140.6Y-78.32
X141.09Y-56.6
X144.31Y-86.4
X144.31Y-89.1
X144.31Y-92.0
X144.91Y-42.6
X147.41Y-47.9
X148.71Y-56.6
X151.0Y-42.6
X151.0Y-45.3
X151.0Y-48.0
X151.0Y-50.7
X152.2Y-84.55
X152.2Y-87.25
X152.2Y-89.95
X152.2Y-92.65
T2
X112.3Y-43.5
X114.8Y-43.5
X117.3Y-43.5
T3
X102.7Y-53.6
X105.2Y-53.6
X126.1Y-46.7
X133.7Y-46.7
T4
X114.4Y-80.5
X139.6Y-52.7
M30
