%TF.GenerationSoftware,KiCad,Pcbnew,9.0.6*%
%TF.CreationDate,2026-02-24T12:37:32+02:00*%
%TF.ProjectId,pcb,7063622e-6b69-4636-9164-5f7063625858,rev?*%
%TF.SameCoordinates,Original*%
%TF.FileFunction,Copper,L1,Top*%
%TF.FilePolarity,Positive*%
%FSLAX46Y46*%
G04 Gerber Fmt 4.6, Leading zero omitted, Abs format (unit mm)*
G04 Created by KiCad (PCBNEW 9.0.6) date 2026-02-24 12:37:32*
%MOMM*%
%LPD*%
G01*
G04 APERTURE LIST*
G04 Aperture macros list*
%AMRoundRect*
0 Rectangle with rounded corners*
0 $1 Rounding radius*
0 $2 $3 $4 $5 $6 $7 $8 $9 X,Y pos of 4 corners*
0 Add a 4 corners polygon primitive as box body*
4,1,4,$2,$3,$4,$5,$6,$7,$8,$9,$2,$3,0*
0 Add four circle primitives for the rounded corners*
1,1,$1+$1,$2,$3*
1,1,$1+$1,$4,$5*
1,1,$1+$1,$6,$7*
1,1,$1+$1,$8,$9*
0 Add four rect primitives between the rounded corners*
20,1,$1+$1,$2,$3,$4,$5,0*
20,1,$1+$1,$4,$5,$6,$7,0*
20,1,$1+$1,$6,$7,$8,$9,0*
20,1,$1+$1,$8,$9,$2,$3,0*%
%AMOutline5P*
0 Free polygon, 5 corners , with rotation*
0 The origin of the aperture is its center*
0 number of corners: always 5*
0 $1 to $10 corner X, Y*
0 $11 Rotation angle, in degrees counterclockwise*
0 create outline with 5 corners*
4,1,5,$1,$2,$3,$4,$5,$6,$7,$8,$9,$10,$1,$2,$11*%
%AMOutline6P*
0 Free polygon, 6 corners , with rotation*
0 The origin of the aperture is its center*
0 number of corners: always 6*
0 $1 to $12 corner X, Y*
0 $13 Rotation angle, in degrees counterclockwise*
0 create outline with 6 corners*
4,1,6,$1,$2,$3,$4,$5,$6,$7,$8,$9,$10,$11,$12,$1,$2,$13*%
%AMOutline7P*
0 Free polygon, 7 corners , with rotation*
0 The origin of the aperture is its center*
0 number of corners: always 7*
0 $1 to $14 corner X, Y*
0 $15 Rotation angle, in degrees counterclockwise*
0 create outline with 7 corners*
4,1,7,$1,$2,$3,$4,$5,$6,$7,$8,$9,$10,$11,$12,$13,$14,$1,$2,$15*%
%AMOutline8P*
0 Free polygon, 8 corners , with rotation*
0 The origin of the aperture is its center*
0 number of corners: always 8*
0 $1 to $16 corner X, Y*
0 $17 Rotation angle, in degrees counterclockwise*
0 create outline with 8 corners*
4,1,8,$1,$2,$3,$4,$5,$6,$7,$8,$9,$10,$11,$12,$13,$14,$15,$16,$1,$2,$17*%
G04 Aperture macros list end*
%TA.AperFunction,ComponentPad*%
%ADD10C,1.800000*%
%TD*%
%TA.AperFunction,ComponentPad*%
%ADD11R,1.800000X1.800000*%
%TD*%
%TA.AperFunction,ComponentPad*%
%ADD12RoundRect,0.250000X-0.600000X-0.725000X0.600000X-0.725000X0.600000X0.725000X-0.600000X0.725000X0*%
%TD*%
%TA.AperFunction,ComponentPad*%
%ADD13O,1.700000X1.950000*%
%TD*%
%TA.AperFunction,ComponentPad*%
%ADD14RoundRect,0.250000X-0.600000X-0.750000X0.600000X-0.750000X0.600000X0.750000X-0.600000X0.750000X0*%
%TD*%
%TA.AperFunction,ComponentPad*%
%ADD15O,1.700000X2.000000*%
%TD*%
%TA.AperFunction,ComponentPad*%
%ADD16Outline5P,-1.500000X0.700000X1.500000X0.700000X1.500000X-0.700000X-1.220000X-0.700000X-1.500000X-0.420000X270.000000*%
%TD*%
%TA.AperFunction,ComponentPad*%
%ADD17RoundRect,0.291667X-0.408333X1.208333X-0.408333X-1.208333X0.408333X-1.208333X0.408333X1.208333X0*%
%TD*%
%TA.AperFunction,ComponentPad*%
%ADD18R,1.640000X1.640000*%
%TD*%
%TA.AperFunction,ComponentPad*%
%ADD19C,1.640000*%
%TD*%
%TA.AperFunction,ComponentPad*%
%ADD20R,1.600000X1.600000*%
%TD*%
%TA.AperFunction,ComponentPad*%
%ADD21C,1.600000*%
%TD*%
%TA.AperFunction,Conductor*%
%ADD22C,0.800000*%
%TD*%
G04 APERTURE END LIST*
D10*
%TO.P,R5,1*%
%TO.N,/G*%
X118920000Y-50300000D03*
%TO.P,R5,2*%
%TO.N,Net-(D2-GA)*%
X111300000Y-50300000D03*
%TD*%
%TO.P,R1,1*%
%TO.N,/R*%
X137290000Y-42600000D03*
%TO.P,R1,2*%
%TO.N,Net-(D1-RA)*%
X144910000Y-42600000D03*
%TD*%
%TO.P,R14,1*%
%TO.N,Net-(R14-Pad1)*%
X133100000Y-73720000D03*
%TO.P,R14,2*%
%TO.N,Net-(U1-3V3)*%
X133100000Y-66100000D03*
%TD*%
D11*
%TO.P,D3,1,RA*%
%TO.N,Net-(D3-RA)*%
X152200000Y-92650000D03*
D10*
%TO.P,D3,2,K*%
%TO.N,GND*%
X152200000Y-89950000D03*
%TO.P,D3,3,GA*%
%TO.N,Net-(D3-GA)*%
X152200000Y-87250000D03*
%TO.P,D3,4,BA*%
%TO.N,Net-(D3-BA)*%
X152200000Y-84550000D03*
%TD*%
%TO.P,R10,1*%
%TO.N,/B*%
X120110000Y-86360000D03*
%TO.P,R10,2*%
%TO.N,Net-(D4-BA)*%
X112490000Y-86360000D03*
%TD*%
D12*
%TO.P,J1,1,Pin_1*%
%TO.N,GND*%
X112300000Y-43500000D03*
D13*
%TO.P,J1,2,Pin_2*%
%TO.N,Net-(J1-Pin_2)*%
X114800000Y-43500000D03*
%TO.P,J1,3,Pin_3*%
%TO.N,Net-(J1-Pin_3)*%
X117300000Y-43500000D03*
%TD*%
D10*
%TO.P,R3,1*%
%TO.N,/B*%
X141090000Y-56600000D03*
%TO.P,R3,2*%
%TO.N,Net-(D1-BA)*%
X148710000Y-56600000D03*
%TD*%
%TO.P,R12,1*%
%TO.N,/R*%
X120220000Y-91750000D03*
%TO.P,R12,2*%
%TO.N,Net-(D4-RA)*%
X112600000Y-91750000D03*
%TD*%
%TO.P,R2,1*%
%TO.N,/G*%
X139790000Y-47900000D03*
%TO.P,R2,2*%
%TO.N,Net-(D1-GA)*%
X147410000Y-47900000D03*
%TD*%
%TO.P,R11,1*%
%TO.N,/G*%
X120140000Y-89060000D03*
%TO.P,R11,2*%
%TO.N,Net-(D4-GA)*%
X112520000Y-89060000D03*
%TD*%
%TO.P,R7,1*%
%TO.N,/B*%
X136690000Y-86400000D03*
%TO.P,R7,2*%
%TO.N,Net-(D3-BA)*%
X144310000Y-86400000D03*
%TD*%
D11*
%TO.P,D2,1,RA*%
%TO.N,Net-(D2-RA)*%
X103200000Y-42500000D03*
D10*
%TO.P,D2,2,K*%
%TO.N,GND*%
X103200000Y-45200000D03*
%TO.P,D2,3,GA*%
%TO.N,Net-(D2-GA)*%
X103200000Y-47900000D03*
%TO.P,D2,4,BA*%
%TO.N,Net-(D2-BA)*%
X103200000Y-50600000D03*
%TD*%
%TO.P,R8,1*%
%TO.N,/G*%
X136690000Y-89100000D03*
%TO.P,R8,2*%
%TO.N,Net-(D3-GA)*%
X144310000Y-89100000D03*
%TD*%
D14*
%TO.P,J2,1,Pin_1*%
%TO.N,Net-(J2-Pin_1)*%
X102700000Y-53600000D03*
D15*
%TO.P,J2,2,Pin_2*%
%TO.N,GND*%
X105200000Y-53600000D03*
%TD*%
D16*
%TO.P,U1,1,5V*%
%TO.N,Net-(J2-Pin_1)*%
X101500000Y-57680000D03*
D17*
%TO.P,U1,2,GND*%
%TO.N,GND*%
X104040000Y-57680000D03*
%TO.P,U1,3,3V3*%
%TO.N,Net-(U1-3V3)*%
X106580000Y-57680000D03*
%TO.P,U1,4,GPIO4/SCK*%
%TO.N,Net-(U1-GPIO4{slash}SCK)*%
X109120000Y-57680000D03*
%TO.P,U1,5,GPIO3*%
%TO.N,unconnected-(U1-GPIO3-Pad5)*%
X111660000Y-57680000D03*
%TO.P,U1,6,GPIO2*%
%TO.N,Net-(J1-Pin_2)*%
X114200000Y-57680000D03*
%TO.P,U1,7,GPIO1*%
%TO.N,Net-(J1-Pin_3)*%
X116740000Y-57680000D03*
%TO.P,U1,8,GPIO0*%
%TO.N,Net-(U1-GPIO0)*%
X119280000Y-57680000D03*
%TO.P,U1,9,GPIO5/MISO*%
%TO.N,Net-(U1-GPIO5{slash}MISO)*%
X101500000Y-74520000D03*
%TO.P,U1,10,GPIO6/MOSI*%
%TO.N,Net-(U1-GPIO6{slash}MOSI)*%
X104040000Y-74520000D03*
%TO.P,U1,11,GPIO7/SS*%
%TO.N,Net-(U1-GPIO7{slash}SS)*%
X106580000Y-74520000D03*
%TO.P,U1,12,GPIO8/SDA*%
%TO.N,unconnected-(U1-GPIO8{slash}SDA-Pad12)*%
X109120000Y-74520000D03*
%TO.P,U1,13,GPIO9/SCL*%
%TO.N,/R*%
X111660000Y-74520000D03*
%TO.P,U1,14,GPIO10*%
%TO.N,/G*%
X114200000Y-74520000D03*
%TO.P,U1,15,GPIO20*%
%TO.N,/B*%
X116740000Y-74520000D03*
%TO.P,U1,16,GPIO21*%
%TO.N,unconnected-(U1-GPIO21-Pad16)*%
X119280000Y-74520000D03*
%TD*%
D10*
%TO.P,R15,1*%
%TO.N,Net-(R15-Pad1)*%
X129600000Y-73720000D03*
%TO.P,R15,2*%
%TO.N,GND*%
X129600000Y-66100000D03*
%TD*%
D18*
%TO.P,U2,5,SCK*%
%TO.N,Net-(U1-GPIO4{slash}SCK)*%
X140600000Y-60540000D03*
D19*
%TO.P,U2,6,MISO*%
%TO.N,Net-(U1-GPIO5{slash}MISO)*%
X140600000Y-63080000D03*
%TO.P,U2,7,MOSI*%
%TO.N,Net-(U1-GPIO6{slash}MOSI)*%
X140600000Y-65620000D03*
%TO.P,U2,8,SS*%
%TO.N,Net-(U1-GPIO7{slash}SS)*%
X140600000Y-68160000D03*
%TO.P,U2,9,VCC*%
%TO.N,Net-(R14-Pad1)*%
X140600000Y-70700000D03*
%TO.P,U2,10,GND*%
%TO.N,Net-(R15-Pad1)*%
X140600000Y-73240000D03*
%TO.P,U2,11,IRQ*%
%TO.N,unconnected-(U2-IRQ-Pad11)*%
X140600000Y-75780000D03*
%TO.P,U2,12,RSTO*%
%TO.N,unconnected-(U2-RSTO-Pad12)*%
X140600000Y-78320000D03*
%TD*%
D10*
%TO.P,R13,1*%
%TO.N,Net-(U1-GPIO0)*%
X122600000Y-54400000D03*
%TO.P,R13,2*%
%TO.N,Net-(BZ1-+)*%
X122600000Y-46780000D03*
%TD*%
%TO.P,R6,1*%
%TO.N,/R*%
X118910000Y-47600000D03*
%TO.P,R6,2*%
%TO.N,Net-(D2-RA)*%
X111290000Y-47600000D03*
%TD*%
D20*
%TO.P,BZ1,1,+*%
%TO.N,Net-(BZ1-+)*%
X126100000Y-46700000D03*
D21*
%TO.P,BZ1,2,-*%
%TO.N,GND*%
X133700000Y-46700000D03*
%TD*%
D10*
%TO.P,R4,1*%
%TO.N,/B*%
X118920000Y-52900000D03*
%TO.P,R4,2*%
%TO.N,Net-(D2-BA)*%
X111300000Y-52900000D03*
%TD*%
D11*
%TO.P,D4,1,RA*%
%TO.N,Net-(D4-RA)*%
X104200000Y-91300000D03*
D10*
%TO.P,D4,2,K*%
%TO.N,GND*%
X104200000Y-88600000D03*
%TO.P,D4,3,GA*%
%TO.N,Net-(D4-GA)*%
X104200000Y-85900000D03*
%TO.P,D4,4,BA*%
%TO.N,Net-(D4-BA)*%
X104200000Y-83200000D03*
%TD*%
D11*
%TO.P,D1,1,RA*%
%TO.N,Net-(D1-RA)*%
X151000000Y-42600000D03*
D10*
%TO.P,D1,2,K*%
%TO.N,GND*%
X151000000Y-45300000D03*
%TO.P,D1,3,GA*%
%TO.N,Net-(D1-GA)*%
X151000000Y-48000000D03*
%TO.P,D1,4,BA*%
%TO.N,Net-(D1-BA)*%
X151000000Y-50700000D03*
%TD*%
%TO.P,R9,1*%
%TO.N,/R*%
X136690000Y-92000000D03*
%TO.P,R9,2*%
%TO.N,Net-(D3-RA)*%
X144310000Y-92000000D03*
%TD*%
D22*
%TO.N,Net-(D2-BA)*%
X103200000Y-50600000D02*
X108628737Y-50600000D01*
X108628737Y-50600000D02*
X110928737Y-52900000D01*
X110928737Y-52900000D02*
X111300000Y-52900000D01*
%TO.N,Net-(D2-GA)*%
X103200000Y-47900000D02*
X108618737Y-47900000D01*
X108618737Y-47900000D02*
X111018737Y-50300000D01*
X111018737Y-50300000D02*
X111300000Y-50300000D01*
%TO.N,Net-(D2-RA)*%
X103200000Y-42500000D02*
X106190000Y-42500000D01*
X106190000Y-42500000D02*
X111290000Y-47600000D01*
%TO.N,/B*%
X118920000Y-52900000D02*
X121128737Y-52900000D01*
X121128737Y-52900000D02*
X121729737Y-52299000D01*
%TO.N,/G*%
X118920000Y-50300000D02*
X120668581Y-50300000D01*
X120668581Y-50300000D02*
X121066581Y-50698000D01*
%TO.N,/R*%
X118910000Y-47600000D02*
X120448737Y-47600000D01*
X120448737Y-47600000D02*
X121848737Y-49000000D01*
%TO.N,Net-(D1-GA)*%
X151000000Y-48000000D02*
X147510000Y-48000000D01*
X147510000Y-48000000D02*
X147410000Y-47900000D01*
%TO.N,Net-(D1-RA)*%
X151000000Y-42600000D02*
X144910000Y-42600000D01*
%TO.N,Net-(D1-BA)*%
X151000000Y-54310000D02*
X148710000Y-56600000D01*
X151000000Y-50700000D02*
X151000000Y-54310000D01*
%TO.N,Net-(D3-GA)*%
X146431263Y-87250000D02*
X144581263Y-89100000D01*
X152200000Y-87250000D02*
X146431263Y-87250000D01*
X144581263Y-89100000D02*
X144310000Y-89100000D01*
%TO.N,Net-(D3-BA)*%
X146160000Y-84550000D02*
X144310000Y-86400000D01*
X152200000Y-84550000D02*
X146160000Y-84550000D01*
%TO.N,Net-(D3-RA)*%
X152200000Y-92650000D02*
X144960000Y-92650000D01*
X144960000Y-92650000D02*
X144310000Y-92000000D01*
%TO.N,Net-(D4-GA)*%
X112218737Y-89060000D02*
X112520000Y-89060000D01*
X109058737Y-85900000D02*
X112218737Y-89060000D01*
X104200000Y-85900000D02*
X109058737Y-85900000D01*
%TO.N,Net-(D4-RA)*%
X104200000Y-91300000D02*
X112150000Y-91300000D01*
X112150000Y-91300000D02*
X112600000Y-91750000D01*
%TO.N,Net-(D4-BA)*%
X109330000Y-83200000D02*
X112490000Y-86360000D01*
X104200000Y-83200000D02*
X109330000Y-83200000D01*
%TO.N,/G*%
X121660000Y-89060000D02*
X121700000Y-89100000D01*
X120140000Y-89060000D02*
X121660000Y-89060000D01*
X136992000Y-50698000D02*
X139790000Y-47900000D01*
X143300000Y-56545844D02*
X145499000Y-58744844D01*
X145499000Y-79964422D02*
X138791000Y-86672422D01*
X143300000Y-51410000D02*
X143300000Y-56545844D01*
X117900000Y-88092792D02*
X118867208Y-89060000D01*
X121700000Y-89100000D02*
X136690000Y-89100000D01*
X145499000Y-58744844D02*
X145499000Y-79964422D01*
X121066581Y-50698000D02*
X136992000Y-50698000D01*
X138791000Y-87270263D02*
X136961263Y-89100000D01*
X136961263Y-89100000D02*
X136690000Y-89100000D01*
X139790000Y-47900000D02*
X143300000Y-51410000D01*
X114200000Y-73720000D02*
X114159000Y-73761000D01*
X138791000Y-86672422D02*
X138791000Y-87270263D01*
X118867208Y-89060000D02*
X120140000Y-89060000D01*
X114200000Y-76338788D02*
X117900000Y-80038788D01*
X117900000Y-80038788D02*
X117900000Y-88092792D01*
X114200000Y-73720000D02*
X114200000Y-76338788D01*
%TO.N,/B*%
X116740000Y-73720000D02*
X116740000Y-75707616D01*
X141090000Y-56600000D02*
X143898000Y-59408000D01*
X133799000Y-52299000D02*
X121729737Y-52299000D01*
X120110000Y-86360000D02*
X136650000Y-86360000D01*
X138100000Y-56600000D02*
X133799000Y-52299000D01*
X120110000Y-79077616D02*
X120110000Y-86360000D01*
X137190000Y-86009266D02*
X137190000Y-86400000D01*
X136650000Y-86360000D02*
X136690000Y-86400000D01*
X143898000Y-59408000D02*
X143898000Y-79301266D01*
X116740000Y-75707616D02*
X120110000Y-79077616D01*
X137190000Y-86400000D02*
X136690000Y-86400000D01*
X141090000Y-56600000D02*
X138100000Y-56600000D01*
X143898000Y-79301266D02*
X137190000Y-86009266D01*
%TO.N,/R*%
X116200000Y-87098737D02*
X116200000Y-88656948D01*
X111660000Y-73720000D02*
X111300000Y-74080000D01*
X121600000Y-92000000D02*
X136690000Y-92000000D01*
X121350000Y-91750000D02*
X121600000Y-92000000D01*
X136761263Y-92000000D02*
X136690000Y-92000000D01*
X137290000Y-42600000D02*
X137290000Y-46410000D01*
X140392000Y-88369263D02*
X136761263Y-92000000D01*
X111599000Y-82497737D02*
X116200000Y-87098737D01*
X147100000Y-58081688D02*
X147100000Y-80627578D01*
X147100000Y-80627578D02*
X140392000Y-87335578D01*
X145309000Y-50447737D02*
X137461263Y-42600000D01*
X121848737Y-49000000D02*
X134700000Y-49000000D01*
X111660000Y-73720000D02*
X111599000Y-73781000D01*
X111599000Y-73781000D02*
X111599000Y-82497737D01*
X116200000Y-88656948D02*
X119293052Y-91750000D01*
X137290000Y-46410000D02*
X134700000Y-49000000D01*
X119293052Y-91750000D02*
X120220000Y-91750000D01*
X136480000Y-91790000D02*
X136690000Y-92000000D01*
X145309000Y-56290688D02*
X145309000Y-50447737D01*
X120220000Y-91750000D02*
X121350000Y-91750000D01*
X137461263Y-42600000D02*
X137290000Y-42600000D01*
X145309000Y-56290688D02*
X147100000Y-58081688D01*
X140392000Y-87335578D02*
X140392000Y-88369263D01*
%TO.N,Net-(BZ1-+)*%
X122680000Y-46700000D02*
X122600000Y-46780000D01*
X126100000Y-46700000D02*
X122680000Y-46700000D01*
%TO.N,Net-(J2-Pin_1)*%
X102700000Y-53600000D02*
X101500000Y-54800000D01*
X101500000Y-54800000D02*
X101500000Y-58480000D01*
%TO.N,Net-(U1-GPIO4{slash}SCK)*%
X140600000Y-60540000D02*
X110792384Y-60540000D01*
X109120000Y-58867616D02*
X109120000Y-58480000D01*
X110792384Y-60540000D02*
X109120000Y-58867616D01*
%TO.N,Net-(U1-GPIO7{slash}SS)*%
X135900000Y-71600000D02*
X108312384Y-71600000D01*
X140600000Y-68160000D02*
X139340000Y-68160000D01*
X108312384Y-71600000D02*
X106580000Y-73332384D01*
X139340000Y-68160000D02*
X135900000Y-71600000D01*
X106580000Y-73332384D02*
X106580000Y-73720000D01*
%TO.N,Net-(U1-GPIO6{slash}MOSI)*%
X107472384Y-69900000D02*
X104040000Y-73332384D01*
X140600000Y-65620000D02*
X139615844Y-65620000D01*
X135335844Y-69900000D02*
X107472384Y-69900000D01*
X139615844Y-65620000D02*
X135335844Y-69900000D01*
X104040000Y-73332384D02*
X104040000Y-73720000D01*
%TO.N,Net-(U1-3V3)*%
X109912384Y-62200000D02*
X106580000Y-58867616D01*
X133100000Y-66100000D02*
X129200000Y-62200000D01*
X129200000Y-62200000D02*
X109912384Y-62200000D01*
X106580000Y-58867616D02*
X106580000Y-58480000D01*
%TO.N,Net-(U1-GPIO5{slash}MISO)*%
X134672688Y-68299000D02*
X106809228Y-68299000D01*
X140600000Y-63080000D02*
X139891688Y-63080000D01*
X139891688Y-63080000D02*
X134672688Y-68299000D01*
X106808228Y-68300000D02*
X106532384Y-68300000D01*
X106532384Y-68300000D02*
X101500000Y-73332384D01*
X106809228Y-68299000D02*
X106808228Y-68300000D01*
X101500000Y-73332384D02*
X101500000Y-73720000D01*
%TO.N,Net-(J1-Pin_2)*%
X113900000Y-58180000D02*
X114200000Y-58480000D01*
X114800000Y-57880000D02*
X114200000Y-58480000D01*
X114800000Y-43500000D02*
X114800000Y-57880000D01*
%TO.N,Net-(J1-Pin_3)*%
X117300000Y-43500000D02*
X117300000Y-44025552D01*
X116740000Y-44585552D02*
X116740000Y-58480000D01*
X117300000Y-44025552D02*
X116740000Y-44585552D01*
X116400000Y-58140000D02*
X116740000Y-58480000D01*
%TO.N,Net-(R14-Pad1)*%
X140600000Y-70700000D02*
X140281874Y-70700000D01*
X137261874Y-73720000D02*
X133100000Y-73720000D01*
X140281874Y-70700000D02*
X137261874Y-73720000D01*
%TO.N,Net-(U1-GPIO0)*%
X122600000Y-55160000D02*
X119280000Y-58480000D01*
X122600000Y-54400000D02*
X122600000Y-55160000D01*
%TO.N,Net-(R15-Pad1)*%
X131601000Y-75821000D02*
X129600000Y-73820000D01*
X140600000Y-73240000D02*
X140281874Y-73240000D01*
X137700874Y-75821000D02*
X131601000Y-75821000D01*
X140281874Y-73240000D02*
X137700874Y-75821000D01*
%TD*%
%TA.AperFunction,Conductor*%
%TO.N,GND*%
G36*
X152218149Y-40020185D02*
G01*
X152235484Y-40033633D01*
X153706419Y-41399500D01*
X154959406Y-42562987D01*
X154995138Y-42623028D01*
X154999030Y-42653898D01*
X154980045Y-94865999D01*
X154960336Y-94933031D01*
X154907515Y-94978767D01*
X154856000Y-94989954D01*
X103227077Y-94971162D01*
X103160045Y-94951453D01*
X103136825Y-94932147D01*
X100061852Y-91664988D01*
X100030240Y-91602679D01*
X100028149Y-91580079D01*
X100019920Y-76497861D01*
X100039567Y-76430814D01*
X100092346Y-76385031D01*
X100161499Y-76375050D01*
X100225071Y-76404040D01*
X100241541Y-76422585D01*
X100241879Y-76422307D01*
X100245643Y-76426865D01*
X100245645Y-76426868D01*
X100393132Y-76574355D01*
X100565866Y-76691265D01*
X100565870Y-76691266D01*
X100565872Y-76691268D01*
X100577614Y-76696296D01*
X100757604Y-76773372D01*
X100961416Y-76817709D01*
X101008269Y-76820500D01*
X101991730Y-76820499D01*
X102038584Y-76817709D01*
X102242396Y-76773372D01*
X102434134Y-76691265D01*
X102606868Y-76574355D01*
X102682319Y-76498904D01*
X102743642Y-76465419D01*
X102813334Y-76470403D01*
X102857681Y-76498904D01*
X102933132Y-76574355D01*
X103105866Y-76691265D01*
X103105870Y-76691266D01*
X103105872Y-76691268D01*
X103117614Y-76696296D01*
X103297604Y-76773372D01*
X103501416Y-76817709D01*
X103548269Y-76820500D01*
X104531730Y-76820499D01*
X104578584Y-76817709D01*
X104782396Y-76773372D01*
X104974134Y-76691265D01*
X105146868Y-76574355D01*
X105222319Y-76498904D01*
X105283642Y-76465419D01*
X105353334Y-76470403D01*
X105397681Y-76498904D01*
X105473132Y-76574355D01*
X105645866Y-76691265D01*
X105645870Y-76691266D01*
X105645872Y-76691268D01*
X105657614Y-76696296D01*
X105837604Y-76773372D01*
X106041416Y-76817709D01*
X106088269Y-76820500D01*
X107071730Y-76820499D01*
X107118584Y-76817709D01*
X107322396Y-76773372D01*
X107514134Y-76691265D01*
X107686868Y-76574355D01*
X107762319Y-76498904D01*
X107823642Y-76465419D01*
X107893334Y-76470403D01*
X107937681Y-76498904D01*
X108013132Y-76574355D01*
X108185866Y-76691265D01*
X108185870Y-76691266D01*
X108185872Y-76691268D01*
X108197614Y-76696296D01*
X108377604Y-76773372D01*
X108581416Y-76817709D01*
X108628269Y-76820500D01*
X109611730Y-76820499D01*
X109658584Y-76817709D01*
X109862396Y-76773372D01*
X110054134Y-76691265D01*
X110204999Y-76589156D01*
X110271549Y-76567883D01*
X110339038Y-76585967D01*
X110386037Y-76637667D01*
X110398500Y-76691848D01*
X110398500Y-82271374D01*
X110378815Y-82338413D01*
X110326011Y-82384168D01*
X110256853Y-82394112D01*
X110193297Y-82365087D01*
X110186819Y-82359055D01*
X110112076Y-82284312D01*
X110112074Y-82284310D01*
X109959199Y-82173240D01*
X109790836Y-82087454D01*
X109611118Y-82029059D01*
X109424486Y-81999500D01*
X109424481Y-81999500D01*
X105455733Y-81999500D01*
X105388694Y-81979815D01*
X105368051Y-81963180D01*
X105323628Y-81918756D01*
X105323622Y-81918751D01*
X105146782Y-81783058D01*
X105146780Y-81783057D01*
X105146774Y-81783052D01*
X104953726Y-81671595D01*
X104953722Y-81671593D01*
X104747790Y-81586293D01*
X104747783Y-81586291D01*
X104747781Y-81586290D01*
X104532463Y-81528596D01*
X104532457Y-81528595D01*
X104532452Y-81528594D01*
X104311466Y-81499501D01*
X104311463Y-81499500D01*
X104311457Y-81499500D01*
X104088543Y-81499500D01*
X104088537Y-81499500D01*
X104088533Y-81499501D01*
X103867547Y-81528594D01*
X103867540Y-81528595D01*
X103867537Y-81528596D01*
X103652219Y-81586290D01*
X103652209Y-81586293D01*
X103446277Y-81671593D01*
X103446273Y-81671595D01*
X103253226Y-81783052D01*
X103253217Y-81783058D01*
X103076377Y-81918751D01*
X103076370Y-81918757D01*
X102918757Y-82076370D01*
X102918751Y-82076377D01*
X102783058Y-82253217D01*
X102783052Y-82253226D01*
X102671595Y-82446273D01*
X102671593Y-82446277D01*
X102586293Y-82652209D01*
X102586290Y-82652219D01*
X102528597Y-82867534D01*
X102528594Y-82867547D01*
X102499501Y-83088533D01*
X102499500Y-83088549D01*
X102499500Y-83311450D01*
X102499501Y-83311466D01*
X102528594Y-83532452D01*
X102528595Y-83532457D01*
X102528596Y-83532463D01*
X102547557Y-83603226D01*
X102586290Y-83747780D01*
X102586293Y-83747790D01*
X102671593Y-83953722D01*
X102671595Y-83953726D01*
X102783052Y-84146774D01*
X102783057Y-84146780D01*
X102783058Y-84146782D01*
X102918751Y-84323622D01*
X102918757Y-84323629D01*
X103057447Y-84462319D01*
X103090932Y-84523642D01*
X103085948Y-84593334D01*
X103057447Y-84637681D01*
X102918757Y-84776370D01*
X102918751Y-84776377D01*
X102783058Y-84953217D01*
X102783052Y-84953226D01*
X102671595Y-85146273D01*
X102671593Y-85146277D01*
X102586293Y-85352209D01*
X102586290Y-85352219D01*
X102528597Y-85567534D01*
X102528594Y-85567547D01*
X102499501Y-85788533D01*
X102499500Y-85788549D01*
X102499500Y-86011450D01*
X102499501Y-86011466D01*
X102528594Y-86232452D01*
X102528595Y-86232457D01*
X102528596Y-86232463D01*
X102547557Y-86303226D01*
X102586290Y-86447780D01*
X102586293Y-86447790D01*
X102671593Y-86653722D01*
X102671595Y-86653726D01*
X102783052Y-86846774D01*
X102783057Y-86846780D01*
X102783058Y-86846782D01*
X102918751Y-87023622D01*
X102918757Y-87023629D01*
X103076370Y-87181242D01*
X103076376Y-87181247D01*
X103253226Y-87316948D01*
X103446274Y-87428405D01*
X103652219Y-87513710D01*
X103867537Y-87571404D01*
X104088543Y-87600500D01*
X104088550Y-87600500D01*
X104311450Y-87600500D01*
X104311457Y-87600500D01*
X104532463Y-87571404D01*
X104747781Y-87513710D01*
X104953726Y-87428405D01*
X105146774Y-87316948D01*
X105323624Y-87181247D01*
X105368051Y-87136820D01*
X105429374Y-87103334D01*
X105455733Y-87100500D01*
X108510111Y-87100500D01*
X108577150Y-87120185D01*
X108597792Y-87136819D01*
X110823329Y-89362355D01*
X110855423Y-89417942D01*
X110904071Y-89599500D01*
X110906291Y-89607783D01*
X110906293Y-89607790D01*
X110922859Y-89647783D01*
X110991595Y-89813726D01*
X111049200Y-89913501D01*
X111065673Y-89981399D01*
X111042821Y-90047426D01*
X110987900Y-90090617D01*
X110941813Y-90099500D01*
X105925124Y-90099500D01*
X105858085Y-90079815D01*
X105820130Y-90041472D01*
X105729815Y-89897737D01*
X105602262Y-89770184D01*
X105449523Y-89674211D01*
X105279254Y-89614631D01*
X105279249Y-89614630D01*
X105144960Y-89599500D01*
X105144954Y-89599500D01*
X103255046Y-89599500D01*
X103255039Y-89599500D01*
X103120750Y-89614630D01*
X103120745Y-89614631D01*
X102950476Y-89674211D01*
X102797737Y-89770184D01*
X102670184Y-89897737D01*
X102574211Y-90050476D01*
X102514631Y-90220745D01*
X102514630Y-90220750D01*
X102499500Y-90355039D01*
X102499500Y-92244960D01*
X102514630Y-92379249D01*
X102514631Y-92379254D01*
X102574211Y-92549523D01*
X102647202Y-92665687D01*
X102670184Y-92702262D01*
X102797738Y-92829816D01*
X102950478Y-92925789D01*
X103010447Y-92946773D01*
X103120745Y-92985368D01*
X103120750Y-92985369D01*
X103211246Y-92995565D01*
X103255040Y-93000499D01*
X103255043Y-93000500D01*
X103255046Y-93000500D01*
X105144957Y-93000500D01*
X105144958Y-93000499D01*
X105212104Y-92992934D01*
X105279249Y-92985369D01*
X105279252Y-92985368D01*
X105279255Y-92985368D01*
X105449522Y-92925789D01*
X105602262Y-92829816D01*
X105729816Y-92702262D01*
X105820130Y-92558527D01*
X105872465Y-92512237D01*
X105925124Y-92500500D01*
X110998141Y-92500500D01*
X111065180Y-92520185D01*
X111105527Y-92562498D01*
X111183052Y-92696774D01*
X111183057Y-92696780D01*
X111183058Y-92696782D01*
X111318751Y-92873622D01*
X111318757Y-92873629D01*
X111476370Y-93031242D01*
X111476377Y-93031248D01*
X111596762Y-93123622D01*
X111653226Y-93166948D01*
X111846274Y-93278405D01*
X112052219Y-93363710D01*
X112267537Y-93421404D01*
X112488543Y-93450500D01*
X112488550Y-93450500D01*
X112711450Y-93450500D01*
X112711457Y-93450500D01*
X112932463Y-93421404D01*
X113147781Y-93363710D01*
X113353726Y-93278405D01*
X113546774Y-93166948D01*
X113723624Y-93031247D01*
X113881247Y-92873624D01*
X114016948Y-92696774D01*
X114128405Y-92503726D01*
X114213710Y-92297781D01*
X114271404Y-92082463D01*
X114300500Y-91861457D01*
X114300500Y-91638543D01*
X114271404Y-91417537D01*
X114213710Y-91202219D01*
X114128405Y-90996274D01*
X114016948Y-90803226D01*
X113893341Y-90642137D01*
X113881248Y-90626377D01*
X113881242Y-90626370D01*
X113723631Y-90468759D01*
X113723625Y-90468754D01*
X113718384Y-90464732D01*
X113677183Y-90408303D01*
X113673031Y-90338557D01*
X113706191Y-90278679D01*
X113801247Y-90183624D01*
X113936948Y-90006774D01*
X114048405Y-89813726D01*
X114133710Y-89607781D01*
X114191404Y-89392463D01*
X114220500Y-89171457D01*
X114220500Y-88948543D01*
X114191404Y-88727537D01*
X114133710Y-88512219D01*
X114123189Y-88486820D01*
X114064975Y-88346277D01*
X114048405Y-88306274D01*
X113936948Y-88113226D01*
X113801247Y-87936376D01*
X113801242Y-87936370D01*
X113647553Y-87782681D01*
X113614068Y-87721358D01*
X113619052Y-87651666D01*
X113647553Y-87607319D01*
X113771242Y-87483629D01*
X113771247Y-87483624D01*
X113906948Y-87306774D01*
X114018405Y-87113726D01*
X114022710Y-87103334D01*
X114093488Y-86932459D01*
X114137329Y-86878055D01*
X114203623Y-86855990D01*
X114271322Y-86873269D01*
X114295730Y-86892230D01*
X114963181Y-87559681D01*
X114996666Y-87621004D01*
X114999500Y-87647362D01*
X114999500Y-88751434D01*
X115029059Y-88938066D01*
X115087454Y-89117784D01*
X115135188Y-89211466D01*
X115173240Y-89286147D01*
X115284310Y-89439022D01*
X118510978Y-92665690D01*
X118663853Y-92776760D01*
X118832220Y-92862547D01*
X118832222Y-92862547D01*
X118832225Y-92862549D01*
X118866327Y-92873629D01*
X118945305Y-92899290D01*
X118994667Y-92929538D01*
X119050497Y-92985368D01*
X119096378Y-93031249D01*
X119216762Y-93123622D01*
X119273226Y-93166948D01*
X119466274Y-93278405D01*
X119672219Y-93363710D01*
X119887537Y-93421404D01*
X120108543Y-93450500D01*
X120108550Y-93450500D01*
X120331450Y-93450500D01*
X120331457Y-93450500D01*
X120552463Y-93421404D01*
X120767781Y-93363710D01*
X120973726Y-93278405D01*
X121166774Y-93166948D01*
X121166779Y-93166943D01*
X121169313Y-93165481D01*
X121237213Y-93149008D01*
X121269628Y-93154936D01*
X121318882Y-93170940D01*
X121412200Y-93185720D01*
X121505514Y-93200500D01*
X121505519Y-93200500D01*
X135434267Y-93200500D01*
X135501306Y-93220185D01*
X135521949Y-93236820D01*
X135566371Y-93281243D01*
X135566376Y-93281247D01*
X135743226Y-93416948D01*
X135936274Y-93528405D01*
X136142219Y-93613710D01*
X136357537Y-93671404D01*
X136578543Y-93700500D01*
X136578550Y-93700500D01*
X136801450Y-93700500D01*
X136801457Y-93700500D01*
X137022463Y-93671404D01*
X137237781Y-93613710D01*
X137443726Y-93528405D01*
X137636774Y-93416948D01*
X137813624Y-93281247D01*
X137971247Y-93123624D01*
X138106948Y-92946774D01*
X138218405Y-92753726D01*
X138303710Y-92547781D01*
X138361404Y-92332463D01*
X138390500Y-92111457D01*
X138391030Y-92107433D01*
X138392113Y-92107575D01*
X138414476Y-92046488D01*
X138426505Y-92032520D01*
X141307690Y-89151336D01*
X141418760Y-88998462D01*
X141504547Y-88830095D01*
X141562940Y-88650381D01*
X141576864Y-88562467D01*
X141592500Y-88463749D01*
X141592500Y-87884203D01*
X141612185Y-87817164D01*
X141628819Y-87796522D01*
X142063891Y-87361450D01*
X142501003Y-86924337D01*
X142562324Y-86890854D01*
X142632015Y-86895838D01*
X142687949Y-86937710D01*
X142703243Y-86964568D01*
X142781590Y-87153716D01*
X142781595Y-87153726D01*
X142893052Y-87346774D01*
X142893057Y-87346780D01*
X142893058Y-87346782D01*
X143028751Y-87523622D01*
X143028757Y-87523629D01*
X143167447Y-87662319D01*
X143200932Y-87723642D01*
X143195948Y-87793334D01*
X143167447Y-87837681D01*
X143028757Y-87976370D01*
X143028751Y-87976377D01*
X142893058Y-88153217D01*
X142893052Y-88153226D01*
X142781595Y-88346273D01*
X142781593Y-88346277D01*
X142696293Y-88552209D01*
X142696290Y-88552219D01*
X142665551Y-88666941D01*
X142638597Y-88767534D01*
X142638594Y-88767547D01*
X142609501Y-88988533D01*
X142609500Y-88988549D01*
X142609500Y-89211450D01*
X142609501Y-89211466D01*
X142638594Y-89432452D01*
X142638595Y-89432457D01*
X142638596Y-89432463D01*
X142687408Y-89614631D01*
X142696290Y-89647780D01*
X142696293Y-89647790D01*
X142765026Y-89813726D01*
X142781595Y-89853726D01*
X142893052Y-90046774D01*
X142893057Y-90046780D01*
X142893058Y-90046782D01*
X143028751Y-90223622D01*
X143028757Y-90223629D01*
X143186370Y-90381242D01*
X143186377Y-90381248D01*
X143278093Y-90451624D01*
X143319296Y-90508052D01*
X143323451Y-90577798D01*
X143289239Y-90638718D01*
X143278093Y-90648376D01*
X143186377Y-90718751D01*
X143186370Y-90718757D01*
X143028757Y-90876370D01*
X143028751Y-90876377D01*
X142893058Y-91053217D01*
X142893052Y-91053226D01*
X142781595Y-91246273D01*
X142781593Y-91246277D01*
X142696293Y-91452209D01*
X142696290Y-91452219D01*
X142656693Y-91600000D01*
X142638597Y-91667534D01*
X142638594Y-91667547D01*
X142609501Y-91888533D01*
X142609500Y-91888549D01*
X142609500Y-92111450D01*
X142609501Y-92111466D01*
X142638594Y-92332452D01*
X142638595Y-92332457D01*
X142638596Y-92332463D01*
X142684486Y-92503726D01*
X142696290Y-92547780D01*
X142696293Y-92547790D01*
X142758008Y-92696782D01*
X142781595Y-92753726D01*
X142893052Y-92946774D01*
X142893057Y-92946780D01*
X142893058Y-92946782D01*
X143028751Y-93123622D01*
X143028757Y-93123629D01*
X143186370Y-93281242D01*
X143186376Y-93281247D01*
X143363226Y-93416948D01*
X143556274Y-93528405D01*
X143762219Y-93613710D01*
X143977537Y-93671404D01*
X144198543Y-93700500D01*
X144347624Y-93700500D01*
X144403919Y-93714015D01*
X144499163Y-93762545D01*
X144499165Y-93762545D01*
X144499168Y-93762547D01*
X144595497Y-93793846D01*
X144678881Y-93820940D01*
X144865514Y-93850500D01*
X144865519Y-93850500D01*
X145054482Y-93850500D01*
X150474876Y-93850500D01*
X150541915Y-93870185D01*
X150579869Y-93908527D01*
X150670184Y-94052262D01*
X150797738Y-94179816D01*
X150950478Y-94275789D01*
X151120745Y-94335368D01*
X151120750Y-94335369D01*
X151211246Y-94345565D01*
X151255040Y-94350499D01*
X151255043Y-94350500D01*
X151255046Y-94350500D01*
X153144957Y-94350500D01*
X153144958Y-94350499D01*
X153212104Y-94342934D01*
X153279249Y-94335369D01*
X153279252Y-94335368D01*
X153279255Y-94335368D01*
X153449522Y-94275789D01*
X153602262Y-94179816D01*
X153729816Y-94052262D01*
X153825789Y-93899522D01*
X153885368Y-93729255D01*
X153900500Y-93594954D01*
X153900500Y-91705046D01*
X153888686Y-91600192D01*
X153885369Y-91570750D01*
X153885368Y-91570745D01*
X153843890Y-91452209D01*
X153825789Y-91400478D01*
X153729816Y-91247738D01*
X153602262Y-91120184D01*
X153449523Y-91024211D01*
X153279254Y-90964631D01*
X153279249Y-90964630D01*
X153144960Y-90949500D01*
X153144954Y-90949500D01*
X151255046Y-90949500D01*
X151255039Y-90949500D01*
X151120750Y-90964630D01*
X151120745Y-90964631D01*
X150950476Y-91024211D01*
X150797737Y-91120184D01*
X150670184Y-91247737D01*
X150579870Y-91391472D01*
X150527535Y-91437763D01*
X150474876Y-91449500D01*
X146005438Y-91449500D01*
X145938399Y-91429815D01*
X145892644Y-91377011D01*
X145890877Y-91372952D01*
X145838409Y-91246282D01*
X145838404Y-91246273D01*
X145726948Y-91053226D01*
X145591247Y-90876376D01*
X145591242Y-90876370D01*
X145433629Y-90718757D01*
X145433622Y-90718751D01*
X145341906Y-90648376D01*
X145300703Y-90591949D01*
X145296548Y-90522203D01*
X145330760Y-90461282D01*
X145341906Y-90451624D01*
X145433624Y-90381247D01*
X145591247Y-90223624D01*
X145726948Y-90046774D01*
X145838405Y-89853726D01*
X145923710Y-89647781D01*
X145981404Y-89432463D01*
X145981404Y-89432457D01*
X145982193Y-89428495D01*
X145982453Y-89428546D01*
X145982455Y-89428541D01*
X145982542Y-89428564D01*
X145983551Y-89428764D01*
X146009427Y-89370211D01*
X146016437Y-89362588D01*
X146892208Y-88486819D01*
X146953531Y-88453334D01*
X146979889Y-88450500D01*
X150944267Y-88450500D01*
X151011306Y-88470185D01*
X151031949Y-88486820D01*
X151076371Y-88531243D01*
X151076376Y-88531247D01*
X151253226Y-88666948D01*
X151446274Y-88778405D01*
X151652219Y-88863710D01*
X151867537Y-88921404D01*
X152088543Y-88950500D01*
X152088550Y-88950500D01*
X152311450Y-88950500D01*
X152311457Y-88950500D01*
X152532463Y-88921404D01*
X152747781Y-88863710D01*
X152953726Y-88778405D01*
X153146774Y-88666948D01*
X153323624Y-88531247D01*
X153481247Y-88373624D01*
X153616948Y-88196774D01*
X153728405Y-88003726D01*
X153813710Y-87797781D01*
X153871404Y-87582463D01*
X153900500Y-87361457D01*
X153900500Y-87138543D01*
X153871404Y-86917537D01*
X153813710Y-86702219D01*
X153728405Y-86496274D01*
X153616948Y-86303226D01*
X153577867Y-86252294D01*
X153481248Y-86126377D01*
X153481242Y-86126370D01*
X153342553Y-85987681D01*
X153309068Y-85926358D01*
X153314052Y-85856666D01*
X153342553Y-85812319D01*
X153481242Y-85673629D01*
X153481247Y-85673624D01*
X153616948Y-85496774D01*
X153728405Y-85303726D01*
X153813710Y-85097781D01*
X153871404Y-84882463D01*
X153900500Y-84661457D01*
X153900500Y-84438543D01*
X153871404Y-84217537D01*
X153813710Y-84002219D01*
X153728405Y-83796274D01*
X153616948Y-83603226D01*
X153577867Y-83552294D01*
X153481248Y-83426377D01*
X153481242Y-83426370D01*
X153323629Y-83268757D01*
X153323622Y-83268751D01*
X153146782Y-83133058D01*
X153146780Y-83133057D01*
X153146774Y-83133052D01*
X152953726Y-83021595D01*
X152953722Y-83021593D01*
X152747790Y-82936293D01*
X152747783Y-82936291D01*
X152747781Y-82936290D01*
X152532463Y-82878596D01*
X152532457Y-82878595D01*
X152532452Y-82878594D01*
X152311466Y-82849501D01*
X152311463Y-82849500D01*
X152311457Y-82849500D01*
X152088543Y-82849500D01*
X152088537Y-82849500D01*
X152088533Y-82849501D01*
X151867547Y-82878594D01*
X151867540Y-82878595D01*
X151867537Y-82878596D01*
X151785790Y-82900500D01*
X151652219Y-82936290D01*
X151652209Y-82936293D01*
X151446277Y-83021593D01*
X151446273Y-83021595D01*
X151253226Y-83133052D01*
X151253217Y-83133058D01*
X151076377Y-83268751D01*
X151076371Y-83268756D01*
X151031949Y-83313180D01*
X150970626Y-83346666D01*
X150944267Y-83349500D01*
X146375203Y-83349500D01*
X146308164Y-83329815D01*
X146262409Y-83277011D01*
X146252465Y-83207853D01*
X146281490Y-83144297D01*
X146287522Y-83137819D01*
X147141031Y-82284310D01*
X148015690Y-81409651D01*
X148126760Y-81256777D01*
X148212547Y-81088410D01*
X148270940Y-80908696D01*
X148300500Y-80722064D01*
X148300500Y-58402656D01*
X148320185Y-58335617D01*
X148372989Y-58289862D01*
X148440683Y-58279717D01*
X148587752Y-58299079D01*
X148598527Y-58300498D01*
X148598543Y-58300500D01*
X148598550Y-58300500D01*
X148821450Y-58300500D01*
X148821457Y-58300500D01*
X149042463Y-58271404D01*
X149257781Y-58213710D01*
X149463726Y-58128405D01*
X149656774Y-58016948D01*
X149833624Y-57881247D01*
X149991247Y-57723624D01*
X150126948Y-57546774D01*
X150238405Y-57353726D01*
X150323710Y-57147781D01*
X150381404Y-56932463D01*
X150410500Y-56711457D01*
X150410500Y-56648626D01*
X150430185Y-56581587D01*
X150446819Y-56560945D01*
X151179342Y-55828422D01*
X151915690Y-55092074D01*
X152026760Y-54939199D01*
X152112547Y-54770832D01*
X152170940Y-54591118D01*
X152196711Y-54428406D01*
X152200500Y-54404487D01*
X152200500Y-51955733D01*
X152220185Y-51888694D01*
X152236820Y-51868051D01*
X152281243Y-51823628D01*
X152281247Y-51823624D01*
X152416948Y-51646774D01*
X152528405Y-51453726D01*
X152613710Y-51247781D01*
X152671404Y-51032463D01*
X152700500Y-50811457D01*
X152700500Y-50588543D01*
X152671404Y-50367537D01*
X152613710Y-50152219D01*
X152528405Y-49946274D01*
X152416948Y-49753226D01*
X152299758Y-49600500D01*
X152281248Y-49576377D01*
X152281242Y-49576370D01*
X152142553Y-49437681D01*
X152109068Y-49376358D01*
X152114052Y-49306666D01*
X152142553Y-49262319D01*
X152281242Y-49123629D01*
X152281247Y-49123624D01*
X152416948Y-48946774D01*
X152528405Y-48753726D01*
X152613710Y-48547781D01*
X152671404Y-48332463D01*
X152700500Y-48111457D01*
X152700500Y-47888543D01*
X152671404Y-47667537D01*
X152613710Y-47452219D01*
X152528405Y-47246274D01*
X152416948Y-47053226D01*
X152281247Y-46876376D01*
X152281242Y-46876370D01*
X152123629Y-46718757D01*
X152123622Y-46718751D01*
X151946782Y-46583058D01*
X151946780Y-46583057D01*
X151946774Y-46583052D01*
X151753726Y-46471595D01*
X151753722Y-46471593D01*
X151547790Y-46386293D01*
X151547783Y-46386291D01*
X151547781Y-46386290D01*
X151332463Y-46328596D01*
X151332457Y-46328595D01*
X151332452Y-46328594D01*
X151111466Y-46299501D01*
X151111463Y-46299500D01*
X151111457Y-46299500D01*
X150888543Y-46299500D01*
X150888537Y-46299500D01*
X150888533Y-46299501D01*
X150667547Y-46328594D01*
X150667540Y-46328595D01*
X150667537Y-46328596D01*
X150538467Y-46363180D01*
X150452219Y-46386290D01*
X150452209Y-46386293D01*
X150246277Y-46471593D01*
X150246273Y-46471595D01*
X150053226Y-46583052D01*
X150053217Y-46583058D01*
X149876377Y-46718751D01*
X149876371Y-46718756D01*
X149831949Y-46763180D01*
X149770626Y-46796666D01*
X149744267Y-46799500D01*
X148765733Y-46799500D01*
X148698694Y-46779815D01*
X148678056Y-46763185D01*
X148533624Y-46618753D01*
X148533623Y-46618752D01*
X148533621Y-46618750D01*
X148356782Y-46483058D01*
X148356780Y-46483057D01*
X148356774Y-46483052D01*
X148163726Y-46371595D01*
X148163722Y-46371593D01*
X147957790Y-46286293D01*
X147957783Y-46286291D01*
X147957781Y-46286290D01*
X147742463Y-46228596D01*
X147742457Y-46228595D01*
X147742452Y-46228594D01*
X147521466Y-46199501D01*
X147521463Y-46199500D01*
X147521457Y-46199500D01*
X147298543Y-46199500D01*
X147298537Y-46199500D01*
X147298533Y-46199501D01*
X147077547Y-46228594D01*
X147077540Y-46228595D01*
X147077537Y-46228596D01*
X146881152Y-46281217D01*
X146862219Y-46286290D01*
X146862209Y-46286293D01*
X146656277Y-46371593D01*
X146656273Y-46371595D01*
X146463226Y-46483052D01*
X146463217Y-46483058D01*
X146286377Y-46618751D01*
X146286370Y-46618757D01*
X146128757Y-46776370D01*
X146128751Y-46776377D01*
X145993058Y-46953217D01*
X145993052Y-46953226D01*
X145881595Y-47146273D01*
X145881593Y-47146277D01*
X145796293Y-47352209D01*
X145796290Y-47352219D01*
X145744646Y-47544960D01*
X145738597Y-47567534D01*
X145738594Y-47567547D01*
X145709501Y-47788533D01*
X145709500Y-47788549D01*
X145709500Y-48011450D01*
X145709501Y-48011466D01*
X145738594Y-48232452D01*
X145738595Y-48232457D01*
X145738596Y-48232463D01*
X145796290Y-48447780D01*
X145796293Y-48447790D01*
X145881593Y-48653722D01*
X145881595Y-48653726D01*
X145993052Y-48846774D01*
X145993057Y-48846780D01*
X145993058Y-48846782D01*
X146128751Y-49023622D01*
X146128757Y-49023629D01*
X146286370Y-49181242D01*
X146286377Y-49181248D01*
X146344861Y-49226124D01*
X146463226Y-49316948D01*
X146656274Y-49428405D01*
X146770899Y-49475884D01*
X146823084Y-49497500D01*
X146862219Y-49513710D01*
X147077537Y-49571404D01*
X147298543Y-49600500D01*
X147298550Y-49600500D01*
X147521450Y-49600500D01*
X147521457Y-49600500D01*
X147742463Y-49571404D01*
X147957781Y-49513710D01*
X148163726Y-49428405D01*
X148356774Y-49316948D01*
X148475139Y-49226124D01*
X148540308Y-49200930D01*
X148550625Y-49200500D01*
X149744267Y-49200500D01*
X149773707Y-49209144D01*
X149803694Y-49215668D01*
X149808709Y-49219422D01*
X149811306Y-49220185D01*
X149831948Y-49236819D01*
X149857447Y-49262318D01*
X149890932Y-49323641D01*
X149885948Y-49393333D01*
X149857448Y-49437680D01*
X149718750Y-49576378D01*
X149583058Y-49753217D01*
X149583052Y-49753226D01*
X149471595Y-49946273D01*
X149471593Y-49946277D01*
X149386293Y-50152209D01*
X149386290Y-50152219D01*
X149344771Y-50307173D01*
X149328597Y-50367534D01*
X149328594Y-50367547D01*
X149299501Y-50588533D01*
X149299500Y-50588549D01*
X149299500Y-50811450D01*
X149299501Y-50811466D01*
X149328594Y-51032452D01*
X149328595Y-51032457D01*
X149328596Y-51032463D01*
X149386290Y-51247780D01*
X149386293Y-51247790D01*
X149459126Y-51423624D01*
X149471595Y-51453726D01*
X149583052Y-51646774D01*
X149583057Y-51646780D01*
X149583058Y-51646782D01*
X149718751Y-51823622D01*
X149718756Y-51823628D01*
X149763180Y-51868051D01*
X149796666Y-51929374D01*
X149799500Y-51955733D01*
X149799500Y-53761374D01*
X149779815Y-53828413D01*
X149763181Y-53849055D01*
X148749055Y-54863181D01*
X148687732Y-54896666D01*
X148661374Y-54899500D01*
X148598543Y-54899500D01*
X148598537Y-54899500D01*
X148598533Y-54899501D01*
X148377547Y-54928594D01*
X148377540Y-54928595D01*
X148377537Y-54928596D01*
X148305904Y-54947790D01*
X148162219Y-54986290D01*
X148162209Y-54986293D01*
X147956277Y-55071593D01*
X147956273Y-55071595D01*
X147763226Y-55183052D01*
X147763217Y-55183058D01*
X147586377Y-55318751D01*
X147586370Y-55318757D01*
X147428757Y-55476370D01*
X147428751Y-55476377D01*
X147293058Y-55653217D01*
X147293052Y-55653226D01*
X147181595Y-55846273D01*
X147181593Y-55846277D01*
X147096293Y-56052209D01*
X147096287Y-56052227D01*
X147082563Y-56103446D01*
X147046198Y-56163106D01*
X146983351Y-56193634D01*
X146913975Y-56185339D01*
X146875108Y-56159032D01*
X146545819Y-55829743D01*
X146512334Y-55768420D01*
X146509500Y-55742062D01*
X146509500Y-50353256D01*
X146502201Y-50307173D01*
X146502201Y-50307172D01*
X146483412Y-50188543D01*
X146479940Y-50166619D01*
X146421547Y-49986905D01*
X146421545Y-49986902D01*
X146421545Y-49986900D01*
X146376290Y-49898084D01*
X146335760Y-49818538D01*
X146224690Y-49665663D01*
X139047576Y-42488549D01*
X143209500Y-42488549D01*
X143209500Y-42711450D01*
X143209501Y-42711466D01*
X143238594Y-42932452D01*
X143238595Y-42932457D01*
X143238596Y-42932463D01*
X143238597Y-42932465D01*
X143296290Y-43147780D01*
X143296293Y-43147790D01*
X143381593Y-43353722D01*
X143381595Y-43353726D01*
X143493052Y-43546774D01*
X143493057Y-43546780D01*
X143493058Y-43546782D01*
X143628751Y-43723622D01*
X143628757Y-43723629D01*
X143786370Y-43881242D01*
X143786376Y-43881247D01*
X143963226Y-44016948D01*
X144156274Y-44128405D01*
X144362219Y-44213710D01*
X144577537Y-44271404D01*
X144798543Y-44300500D01*
X144798550Y-44300500D01*
X145021450Y-44300500D01*
X145021457Y-44300500D01*
X145242463Y-44271404D01*
X145457781Y-44213710D01*
X145663726Y-44128405D01*
X145856774Y-44016948D01*
X146033624Y-43881247D01*
X146078051Y-43836820D01*
X146139374Y-43803334D01*
X146165733Y-43800500D01*
X149274876Y-43800500D01*
X149341915Y-43820185D01*
X149379869Y-43858527D01*
X149470184Y-44002262D01*
X149597738Y-44129816D01*
X149750478Y-44225789D01*
X149880838Y-44271404D01*
X149920745Y-44285368D01*
X149920750Y-44285369D01*
X150011246Y-44295565D01*
X150055040Y-44300499D01*
X150055043Y-44300500D01*
X150055046Y-44300500D01*
X151944957Y-44300500D01*
X151944958Y-44300499D01*
X152012104Y-44292934D01*
X152079249Y-44285369D01*
X152079252Y-44285368D01*
X152079255Y-44285368D01*
X152249522Y-44225789D01*
X152402262Y-44129816D01*
X152529816Y-44002262D01*
X152625789Y-43849522D01*
X152685368Y-43679255D01*
X152700500Y-43544954D01*
X152700500Y-41655046D01*
X152685368Y-41520745D01*
X152625789Y-41350478D01*
X152529816Y-41197738D01*
X152402262Y-41070184D01*
X152249523Y-40974211D01*
X152079254Y-40914631D01*
X152079249Y-40914630D01*
X151944960Y-40899500D01*
X151944954Y-40899500D01*
X150055046Y-40899500D01*
X150055039Y-40899500D01*
X149920750Y-40914630D01*
X149920745Y-40914631D01*
X149750476Y-40974211D01*
X149597737Y-41070184D01*
X149470184Y-41197737D01*
X149406243Y-41299500D01*
X149387670Y-41329059D01*
X149379870Y-41341472D01*
X149327535Y-41387763D01*
X149274876Y-41399500D01*
X146165733Y-41399500D01*
X146098694Y-41379815D01*
X146078051Y-41363180D01*
X146033628Y-41318756D01*
X146033622Y-41318751D01*
X145856782Y-41183058D01*
X145856780Y-41183057D01*
X145856774Y-41183052D01*
X145663726Y-41071595D01*
X145663722Y-41071593D01*
X145457790Y-40986293D01*
X145457783Y-40986291D01*
X145457781Y-40986290D01*
X145242463Y-40928596D01*
X145242457Y-40928595D01*
X145242452Y-40928594D01*
X145021466Y-40899501D01*
X145021463Y-40899500D01*
X145021457Y-40899500D01*
X144798543Y-40899500D01*
X144798537Y-40899500D01*
X144798533Y-40899501D01*
X144577547Y-40928594D01*
X144577540Y-40928595D01*
X144577537Y-40928596D01*
X144422328Y-40970184D01*
X144362219Y-40986290D01*
X144362209Y-40986293D01*
X144156277Y-41071593D01*
X144156273Y-41071595D01*
X143963226Y-41183052D01*
X143963217Y-41183058D01*
X143786377Y-41318751D01*
X143786370Y-41318757D01*
X143628757Y-41476370D01*
X143628751Y-41476377D01*
X143493058Y-41653217D01*
X143493052Y-41653226D01*
X143381595Y-41846273D01*
X143381593Y-41846277D01*
X143296293Y-42052209D01*
X143296290Y-42052219D01*
X143238597Y-42267534D01*
X143238594Y-42267547D01*
X143209501Y-42488533D01*
X143209500Y-42488549D01*
X139047576Y-42488549D01*
X139011610Y-42452583D01*
X138978125Y-42391260D01*
X138976354Y-42381102D01*
X138961404Y-42267537D01*
X138903710Y-42052219D01*
X138818405Y-41846274D01*
X138706948Y-41653226D01*
X138571247Y-41476376D01*
X138571242Y-41476370D01*
X138413629Y-41318757D01*
X138413622Y-41318751D01*
X138236782Y-41183058D01*
X138236780Y-41183057D01*
X138236774Y-41183052D01*
X138043726Y-41071595D01*
X138043722Y-41071593D01*
X137837790Y-40986293D01*
X137837783Y-40986291D01*
X137837781Y-40986290D01*
X137622463Y-40928596D01*
X137622457Y-40928595D01*
X137622452Y-40928594D01*
X137401466Y-40899501D01*
X137401463Y-40899500D01*
X137401457Y-40899500D01*
X137178543Y-40899500D01*
X137178537Y-40899500D01*
X137178533Y-40899501D01*
X136957547Y-40928594D01*
X136957540Y-40928595D01*
X136957537Y-40928596D01*
X136802328Y-40970184D01*
X136742219Y-40986290D01*
X136742209Y-40986293D01*
X136536277Y-41071593D01*
X136536273Y-41071595D01*
X136343226Y-41183052D01*
X136343217Y-41183058D01*
X136166377Y-41318751D01*
X136166370Y-41318757D01*
X136008757Y-41476370D01*
X136008751Y-41476377D01*
X135873058Y-41653217D01*
X135873052Y-41653226D01*
X135761595Y-41846273D01*
X135761593Y-41846277D01*
X135676293Y-42052209D01*
X135676290Y-42052219D01*
X135618597Y-42267534D01*
X135618594Y-42267547D01*
X135589501Y-42488533D01*
X135589500Y-42488549D01*
X135589500Y-42711450D01*
X135589501Y-42711466D01*
X135618594Y-42932452D01*
X135618595Y-42932457D01*
X135618596Y-42932463D01*
X135618597Y-42932465D01*
X135676290Y-43147780D01*
X135676293Y-43147790D01*
X135761593Y-43353722D01*
X135761595Y-43353726D01*
X135873052Y-43546774D01*
X135873057Y-43546780D01*
X135873058Y-43546782D01*
X136008751Y-43723622D01*
X136008756Y-43723628D01*
X136053180Y-43768051D01*
X136086666Y-43829374D01*
X136089500Y-43855733D01*
X136089500Y-45861374D01*
X136069815Y-45928413D01*
X136053181Y-45949055D01*
X134239055Y-47763181D01*
X134177732Y-47796666D01*
X134151374Y-47799500D01*
X127810576Y-47799500D01*
X127743537Y-47779815D01*
X127697782Y-47727011D01*
X127687356Y-47661617D01*
X127697954Y-47567547D01*
X127700500Y-47544954D01*
X127700500Y-45855046D01*
X127685368Y-45720745D01*
X127625789Y-45550478D01*
X127529816Y-45397738D01*
X127402262Y-45270184D01*
X127333591Y-45227035D01*
X127249523Y-45174211D01*
X127079254Y-45114631D01*
X127079249Y-45114630D01*
X126944960Y-45099500D01*
X126944954Y-45099500D01*
X125255046Y-45099500D01*
X125255039Y-45099500D01*
X125120750Y-45114630D01*
X125120745Y-45114631D01*
X124950476Y-45174211D01*
X124797737Y-45270184D01*
X124670182Y-45397739D01*
X124642703Y-45441473D01*
X124590369Y-45487763D01*
X124537710Y-45499500D01*
X123766690Y-45499500D01*
X123699651Y-45479815D01*
X123691204Y-45473876D01*
X123546782Y-45363058D01*
X123546780Y-45363057D01*
X123546774Y-45363052D01*
X123353726Y-45251595D01*
X123353722Y-45251593D01*
X123147790Y-45166293D01*
X123147783Y-45166291D01*
X123147781Y-45166290D01*
X122932463Y-45108596D01*
X122932457Y-45108595D01*
X122932452Y-45108594D01*
X122711466Y-45079501D01*
X122711463Y-45079500D01*
X122711457Y-45079500D01*
X122488543Y-45079500D01*
X122488537Y-45079500D01*
X122488533Y-45079501D01*
X122267547Y-45108594D01*
X122267540Y-45108595D01*
X122267537Y-45108596D01*
X122109103Y-45151048D01*
X122052219Y-45166290D01*
X122052209Y-45166293D01*
X121846277Y-45251593D01*
X121846273Y-45251595D01*
X121653226Y-45363052D01*
X121653217Y-45363058D01*
X121476377Y-45498751D01*
X121476370Y-45498757D01*
X121318757Y-45656370D01*
X121318751Y-45656377D01*
X121183058Y-45833217D01*
X121183052Y-45833226D01*
X121071595Y-46026273D01*
X121071593Y-46026277D01*
X120986293Y-46232209D01*
X120986291Y-46232216D01*
X120986290Y-46232219D01*
X120951200Y-46363180D01*
X120951053Y-46363727D01*
X120914688Y-46423387D01*
X120851841Y-46453916D01*
X120792959Y-46449564D01*
X120729855Y-46429059D01*
X120543223Y-46399500D01*
X120543218Y-46399500D01*
X120165733Y-46399500D01*
X120098694Y-46379815D01*
X120078051Y-46363180D01*
X120033628Y-46318756D01*
X120033622Y-46318751D01*
X119856782Y-46183058D01*
X119856780Y-46183057D01*
X119856774Y-46183052D01*
X119663726Y-46071595D01*
X119663722Y-46071593D01*
X119457790Y-45986293D01*
X119457783Y-45986291D01*
X119457781Y-45986290D01*
X119242463Y-45928596D01*
X119242457Y-45928595D01*
X119242452Y-45928594D01*
X119021466Y-45899501D01*
X119021463Y-45899500D01*
X119021457Y-45899500D01*
X118798543Y-45899500D01*
X118798537Y-45899500D01*
X118798533Y-45899501D01*
X118577547Y-45928594D01*
X118577540Y-45928595D01*
X118577537Y-45928596D01*
X118501183Y-45949055D01*
X118362219Y-45986290D01*
X118362209Y-45986293D01*
X118156277Y-46071593D01*
X118156271Y-46071596D01*
X118126499Y-46088785D01*
X118058599Y-46105256D01*
X117992572Y-46082404D01*
X117949382Y-46027482D01*
X117940500Y-45981397D01*
X117940500Y-45227035D01*
X117960185Y-45159996D01*
X118008206Y-45116550D01*
X118165051Y-45036634D01*
X118375229Y-44883931D01*
X118558931Y-44700229D01*
X118711634Y-44490051D01*
X118829579Y-44258572D01*
X118909860Y-44011493D01*
X118934087Y-43858528D01*
X118950500Y-43754902D01*
X118950500Y-43245097D01*
X118928947Y-43109021D01*
X118909860Y-42988507D01*
X118829579Y-42741428D01*
X118829577Y-42741425D01*
X118829577Y-42741423D01*
X118757628Y-42600217D01*
X118711634Y-42509949D01*
X118558931Y-42299771D01*
X118375229Y-42116069D01*
X118165051Y-41963366D01*
X118092764Y-41926534D01*
X117933576Y-41845422D01*
X117686493Y-41765140D01*
X117429902Y-41724500D01*
X117429897Y-41724500D01*
X117170103Y-41724500D01*
X117170098Y-41724500D01*
X116913506Y-41765140D01*
X116666423Y-41845422D01*
X116434945Y-41963368D01*
X116224774Y-42116066D01*
X116224768Y-42116071D01*
X116137681Y-42203159D01*
X116076358Y-42236644D01*
X116006666Y-42231660D01*
X115962319Y-42203159D01*
X115875231Y-42116071D01*
X115875225Y-42116066D01*
X115665054Y-41963368D01*
X115665053Y-41963367D01*
X115665051Y-41963366D01*
X115592764Y-41926534D01*
X115433576Y-41845422D01*
X115186493Y-41765140D01*
X114929902Y-41724500D01*
X114929897Y-41724500D01*
X114670103Y-41724500D01*
X114670098Y-41724500D01*
X114413506Y-41765140D01*
X114166423Y-41845422D01*
X113934945Y-41963368D01*
X113724774Y-42116066D01*
X113724768Y-42116071D01*
X113541071Y-42299768D01*
X113541066Y-42299774D01*
X113388368Y-42509945D01*
X113270422Y-42741423D01*
X113190140Y-42988506D01*
X113149500Y-43245097D01*
X113149500Y-43754902D01*
X113190140Y-44011493D01*
X113270422Y-44258576D01*
X113388368Y-44490054D01*
X113541066Y-44700225D01*
X113541071Y-44700231D01*
X113563181Y-44722341D01*
X113596666Y-44783664D01*
X113599500Y-44810022D01*
X113599500Y-55295834D01*
X113579815Y-55362873D01*
X113527011Y-55408628D01*
X113501859Y-55417000D01*
X113457612Y-55426625D01*
X113457598Y-55426630D01*
X113265872Y-55508731D01*
X113093134Y-55625643D01*
X113017681Y-55701096D01*
X112956357Y-55734580D01*
X112886666Y-55729595D01*
X112842319Y-55701096D01*
X112816318Y-55675095D01*
X112766868Y-55625645D01*
X112594134Y-55508735D01*
X112594131Y-55508733D01*
X112594127Y-55508731D01*
X112402401Y-55426630D01*
X112402399Y-55426629D01*
X112402396Y-55426628D01*
X112402393Y-55426627D01*
X112402386Y-55426625D01*
X112198589Y-55382292D01*
X112198588Y-55382291D01*
X112198584Y-55382291D01*
X112151731Y-55379500D01*
X112151718Y-55379500D01*
X111168282Y-55379500D01*
X111168279Y-55379500D01*
X111168270Y-55379501D01*
X111121416Y-55382291D01*
X111121411Y-55382291D01*
X111121411Y-55382292D01*
X110917613Y-55426625D01*
X110917598Y-55426630D01*
X110725872Y-55508731D01*
X110553134Y-55625643D01*
X110477681Y-55701096D01*
X110416357Y-55734580D01*
X110346666Y-55729595D01*
X110302319Y-55701096D01*
X110276318Y-55675095D01*
X110226868Y-55625645D01*
X110054134Y-55508735D01*
X110054131Y-55508733D01*
X110054127Y-55508731D01*
X109862401Y-55426630D01*
X109862399Y-55426629D01*
X109862396Y-55426628D01*
X109862393Y-55426627D01*
X109862386Y-55426625D01*
X109658589Y-55382292D01*
X109658588Y-55382291D01*
X109658584Y-55382291D01*
X109611731Y-55379500D01*
X109611718Y-55379500D01*
X108628282Y-55379500D01*
X108628279Y-55379500D01*
X108628270Y-55379501D01*
X108581416Y-55382291D01*
X108581411Y-55382291D01*
X108581411Y-55382292D01*
X108377613Y-55426625D01*
X108377598Y-55426630D01*
X108185872Y-55508731D01*
X108013134Y-55625643D01*
X107937681Y-55701096D01*
X107876357Y-55734580D01*
X107806666Y-55729595D01*
X107762319Y-55701096D01*
X107736318Y-55675095D01*
X107686868Y-55625645D01*
X107514134Y-55508735D01*
X107514131Y-55508733D01*
X107514127Y-55508731D01*
X107322401Y-55426630D01*
X107322399Y-55426629D01*
X107322396Y-55426628D01*
X107322393Y-55426627D01*
X107322386Y-55426625D01*
X107118589Y-55382292D01*
X107118588Y-55382291D01*
X107118584Y-55382291D01*
X107071731Y-55379500D01*
X107071718Y-55379500D01*
X106088282Y-55379500D01*
X106088279Y-55379500D01*
X106088270Y-55379501D01*
X106041416Y-55382291D01*
X106041411Y-55382291D01*
X106041411Y-55382292D01*
X105837613Y-55426625D01*
X105837598Y-55426630D01*
X105645872Y-55508731D01*
X105473134Y-55625643D01*
X105473129Y-55625647D01*
X105325647Y-55773129D01*
X105325643Y-55773134D01*
X105218801Y-55930992D01*
X105211968Y-55941090D01*
X105208731Y-55945872D01*
X105126630Y-56137598D01*
X105126625Y-56137613D01*
X105087793Y-56316123D01*
X105082291Y-56341416D01*
X105079500Y-56388269D01*
X105079500Y-56388280D01*
X105079500Y-56388281D01*
X105079500Y-58971717D01*
X105079500Y-58971719D01*
X105079501Y-58971730D01*
X105082291Y-59018584D01*
X105082292Y-59018588D01*
X105126625Y-59222386D01*
X105126630Y-59222401D01*
X105208731Y-59414127D01*
X105208733Y-59414131D01*
X105208735Y-59414134D01*
X105325645Y-59586868D01*
X105473132Y-59734355D01*
X105645866Y-59851265D01*
X105645871Y-59851267D01*
X105837600Y-59933371D01*
X105837608Y-59933373D01*
X105943104Y-59956322D01*
X106004425Y-59989804D01*
X108996694Y-62982073D01*
X109130311Y-63115690D01*
X109283185Y-63226760D01*
X109362731Y-63267290D01*
X109451547Y-63312545D01*
X109451549Y-63312545D01*
X109451552Y-63312547D01*
X109547881Y-63343846D01*
X109631265Y-63370940D01*
X109817898Y-63400500D01*
X109817903Y-63400500D01*
X128651374Y-63400500D01*
X128718413Y-63420185D01*
X128739055Y-63436819D01*
X131363181Y-66060944D01*
X131396666Y-66122267D01*
X131399500Y-66148625D01*
X131399500Y-66211450D01*
X131399501Y-66211466D01*
X131428594Y-66432452D01*
X131428595Y-66432457D01*
X131428596Y-66432463D01*
X131486290Y-66647780D01*
X131486293Y-66647790D01*
X131571593Y-66853722D01*
X131571595Y-66853726D01*
X131605528Y-66912499D01*
X131622001Y-66980400D01*
X131599149Y-67046427D01*
X131544228Y-67089617D01*
X131498141Y-67098500D01*
X106714740Y-67098500D01*
X106709884Y-67098882D01*
X106709863Y-67098618D01*
X106698672Y-67099500D01*
X106437898Y-67099500D01*
X106251265Y-67129059D01*
X106071547Y-67187454D01*
X105903184Y-67273240D01*
X105851663Y-67310673D01*
X105750311Y-67384310D01*
X105750309Y-67384312D01*
X105750308Y-67384312D01*
X100924426Y-72210192D01*
X100863104Y-72243677D01*
X100757612Y-72266625D01*
X100757598Y-72266630D01*
X100565872Y-72348731D01*
X100393134Y-72465643D01*
X100393129Y-72465647D01*
X100245647Y-72613129D01*
X100245636Y-72613142D01*
X100244447Y-72614900D01*
X100243625Y-72615578D01*
X100241879Y-72617693D01*
X100241471Y-72617356D01*
X100190565Y-72659381D01*
X100121189Y-72667670D01*
X100058345Y-72637136D01*
X100021985Y-72577473D01*
X100017763Y-72545467D01*
X100010820Y-59822324D01*
X100030468Y-59755277D01*
X100083247Y-59709494D01*
X100152400Y-59699513D01*
X100215972Y-59728503D01*
X100222501Y-59734579D01*
X100297738Y-59809816D01*
X100363704Y-59851265D01*
X100449640Y-59905263D01*
X100450478Y-59905789D01*
X100529303Y-59933371D01*
X100620745Y-59965368D01*
X100620750Y-59965369D01*
X100711246Y-59975565D01*
X100755040Y-59980499D01*
X100755043Y-59980500D01*
X100755046Y-59980500D01*
X102244957Y-59980500D01*
X102244958Y-59980499D01*
X102312104Y-59972934D01*
X102379249Y-59965369D01*
X102379252Y-59965368D01*
X102379255Y-59965368D01*
X102549522Y-59905789D01*
X102702262Y-59809816D01*
X102829816Y-59682262D01*
X102925789Y-59529522D01*
X102985368Y-59359255D01*
X103000500Y-59224954D01*
X103000500Y-56135046D01*
X102985368Y-56000745D01*
X102925789Y-55830478D01*
X102919218Y-55820021D01*
X102862400Y-55729595D01*
X102829816Y-55677738D01*
X102764259Y-55612181D01*
X102730775Y-55550857D01*
X102735760Y-55481166D01*
X102777631Y-55425232D01*
X102843096Y-55400816D01*
X102851941Y-55400500D01*
X103351605Y-55400500D01*
X103351608Y-55400500D01*
X103505934Y-55385300D01*
X103703954Y-55325232D01*
X103886450Y-55227685D01*
X104046410Y-55096410D01*
X104177685Y-54936450D01*
X104275232Y-54753954D01*
X104335300Y-54555934D01*
X104350500Y-54401608D01*
X104350500Y-52798392D01*
X104335300Y-52644066D01*
X104275232Y-52446046D01*
X104177685Y-52263550D01*
X104122824Y-52196701D01*
X104095511Y-52132391D01*
X104107302Y-52063523D01*
X104144686Y-52020894D01*
X104143554Y-52019419D01*
X104226551Y-51955733D01*
X104323624Y-51881247D01*
X104368051Y-51836820D01*
X104429374Y-51803334D01*
X104455733Y-51800500D01*
X108080111Y-51800500D01*
X108147150Y-51820185D01*
X108167792Y-51836819D01*
X109628951Y-53297978D01*
X109661045Y-53353565D01*
X109686291Y-53447783D01*
X109686293Y-53447790D01*
X109768508Y-53646274D01*
X109771595Y-53653726D01*
X109883052Y-53846774D01*
X109883057Y-53846780D01*
X109883058Y-53846782D01*
X110018751Y-54023622D01*
X110018757Y-54023629D01*
X110176370Y-54181242D01*
X110176377Y-54181248D01*
X110253836Y-54240684D01*
X110353226Y-54316948D01*
X110546274Y-54428405D01*
X110588243Y-54445789D01*
X110750089Y-54512828D01*
X110752219Y-54513710D01*
X110967537Y-54571404D01*
X111188543Y-54600500D01*
X111188550Y-54600500D01*
X111411450Y-54600500D01*
X111411457Y-54600500D01*
X111632463Y-54571404D01*
X111847781Y-54513710D01*
X112053726Y-54428405D01*
X112246774Y-54316948D01*
X112423624Y-54181247D01*
X112581247Y-54023624D01*
X112716948Y-53846774D01*
X112828405Y-53653726D01*
X112913710Y-53447781D01*
X112971404Y-53232463D01*
X113000500Y-53011457D01*
X113000500Y-52788543D01*
X112971404Y-52567537D01*
X112913710Y-52352219D01*
X112828405Y-52146274D01*
X112716948Y-51953226D01*
X112656745Y-51874767D01*
X112581248Y-51776377D01*
X112581242Y-51776370D01*
X112492553Y-51687681D01*
X112459068Y-51626358D01*
X112464052Y-51556666D01*
X112492553Y-51512319D01*
X112581242Y-51423629D01*
X112581247Y-51423624D01*
X112716948Y-51246774D01*
X112828405Y-51053726D01*
X112913710Y-50847781D01*
X112971404Y-50632463D01*
X113000500Y-50411457D01*
X113000500Y-50188543D01*
X112971404Y-49967537D01*
X112913710Y-49752219D01*
X112828405Y-49546274D01*
X112716948Y-49353226D01*
X112599758Y-49200500D01*
X112581248Y-49176377D01*
X112581242Y-49176370D01*
X112437553Y-49032681D01*
X112404068Y-48971358D01*
X112409052Y-48901666D01*
X112437553Y-48857319D01*
X112571242Y-48723629D01*
X112571247Y-48723624D01*
X112706948Y-48546774D01*
X112818405Y-48353726D01*
X112903710Y-48147781D01*
X112961404Y-47932463D01*
X112990500Y-47711457D01*
X112990500Y-47488543D01*
X112961404Y-47267537D01*
X112903710Y-47052219D01*
X112818405Y-46846274D01*
X112706948Y-46653226D01*
X112627082Y-46549142D01*
X112571248Y-46476377D01*
X112571242Y-46476370D01*
X112413629Y-46318757D01*
X112413622Y-46318751D01*
X112236782Y-46183058D01*
X112236780Y-46183057D01*
X112236774Y-46183052D01*
X112043726Y-46071595D01*
X112043722Y-46071593D01*
X111837790Y-45986293D01*
X111837783Y-45986291D01*
X111837781Y-45986290D01*
X111622463Y-45928596D01*
X111622457Y-45928595D01*
X111622452Y-45928594D01*
X111401466Y-45899501D01*
X111401463Y-45899500D01*
X111401457Y-45899500D01*
X111401450Y-45899500D01*
X111338626Y-45899500D01*
X111271587Y-45879815D01*
X111250945Y-45863181D01*
X106972076Y-41584312D01*
X106972074Y-41584310D01*
X106819199Y-41473240D01*
X106650836Y-41387454D01*
X106471118Y-41329059D01*
X106284486Y-41299500D01*
X106284481Y-41299500D01*
X104925124Y-41299500D01*
X104858085Y-41279815D01*
X104820130Y-41241472D01*
X104792650Y-41197738D01*
X104729816Y-41097738D01*
X104602262Y-40970184D01*
X104536077Y-40928597D01*
X104449523Y-40874211D01*
X104279254Y-40814631D01*
X104279249Y-40814630D01*
X104144960Y-40799500D01*
X104144954Y-40799500D01*
X102255046Y-40799500D01*
X102255039Y-40799500D01*
X102120750Y-40814630D01*
X102120745Y-40814631D01*
X101950476Y-40874211D01*
X101797737Y-40970184D01*
X101670184Y-41097737D01*
X101574211Y-41250476D01*
X101514631Y-41420745D01*
X101514630Y-41420750D01*
X101499500Y-41555039D01*
X101499500Y-43444960D01*
X101514630Y-43579249D01*
X101514631Y-43579254D01*
X101574211Y-43749523D01*
X101624385Y-43829374D01*
X101670184Y-43902262D01*
X101797738Y-44029816D01*
X101950478Y-44125789D01*
X101961984Y-44129815D01*
X102120745Y-44185368D01*
X102120750Y-44185369D01*
X102211246Y-44195565D01*
X102255040Y-44200499D01*
X102255043Y-44200500D01*
X102255046Y-44200500D01*
X104144957Y-44200500D01*
X104144958Y-44200499D01*
X104212104Y-44192934D01*
X104279249Y-44185369D01*
X104279252Y-44185368D01*
X104279255Y-44185368D01*
X104449522Y-44125789D01*
X104602262Y-44029816D01*
X104729816Y-43902262D01*
X104820130Y-43758527D01*
X104872465Y-43712237D01*
X104925124Y-43700500D01*
X105641374Y-43700500D01*
X105708413Y-43720185D01*
X105729055Y-43736819D01*
X108480055Y-46487819D01*
X108513540Y-46549142D01*
X108508556Y-46618834D01*
X108466684Y-46674767D01*
X108401220Y-46699184D01*
X108392374Y-46699500D01*
X104455733Y-46699500D01*
X104388694Y-46679815D01*
X104368051Y-46663180D01*
X104323628Y-46618756D01*
X104323622Y-46618751D01*
X104146782Y-46483058D01*
X104146780Y-46483057D01*
X104146774Y-46483052D01*
X103953726Y-46371595D01*
X103953722Y-46371593D01*
X103747790Y-46286293D01*
X103747783Y-46286291D01*
X103747781Y-46286290D01*
X103532463Y-46228596D01*
X103532457Y-46228595D01*
X103532452Y-46228594D01*
X103311466Y-46199501D01*
X103311463Y-46199500D01*
X103311457Y-46199500D01*
X103088543Y-46199500D01*
X103088537Y-46199500D01*
X103088533Y-46199501D01*
X102867547Y-46228594D01*
X102867540Y-46228595D01*
X102867537Y-46228596D01*
X102671152Y-46281217D01*
X102652219Y-46286290D01*
X102652209Y-46286293D01*
X102446277Y-46371593D01*
X102446273Y-46371595D01*
X102253226Y-46483052D01*
X102253217Y-46483058D01*
X102076377Y-46618751D01*
X102076370Y-46618757D01*
X101918757Y-46776370D01*
X101918751Y-46776377D01*
X101783058Y-46953217D01*
X101783052Y-46953226D01*
X101671595Y-47146273D01*
X101671593Y-47146277D01*
X101586293Y-47352209D01*
X101586290Y-47352219D01*
X101534646Y-47544960D01*
X101528597Y-47567534D01*
X101528594Y-47567547D01*
X101499501Y-47788533D01*
X101499500Y-47788549D01*
X101499500Y-48011450D01*
X101499501Y-48011466D01*
X101528594Y-48232452D01*
X101528595Y-48232457D01*
X101528596Y-48232463D01*
X101586290Y-48447780D01*
X101586293Y-48447790D01*
X101671593Y-48653722D01*
X101671595Y-48653726D01*
X101783052Y-48846774D01*
X101783057Y-48846780D01*
X101783058Y-48846782D01*
X101918751Y-49023622D01*
X101918757Y-49023629D01*
X102057447Y-49162319D01*
X102090932Y-49223642D01*
X102085948Y-49293334D01*
X102057447Y-49337681D01*
X101918757Y-49476370D01*
X101918751Y-49476377D01*
X101783058Y-49653217D01*
X101783052Y-49653226D01*
X101671595Y-49846273D01*
X101671593Y-49846277D01*
X101586293Y-50052209D01*
X101586290Y-50052219D01*
X101528597Y-50267534D01*
X101528594Y-50267547D01*
X101499501Y-50488533D01*
X101499500Y-50488549D01*
X101499500Y-50711450D01*
X101499501Y-50711466D01*
X101528594Y-50932452D01*
X101528595Y-50932457D01*
X101528596Y-50932463D01*
X101586290Y-51147780D01*
X101586293Y-51147790D01*
X101671593Y-51353722D01*
X101671595Y-51353726D01*
X101783052Y-51546774D01*
X101783057Y-51546780D01*
X101783058Y-51546782D01*
X101861714Y-51649289D01*
X101886908Y-51714458D01*
X101872870Y-51782903D01*
X101824056Y-51832892D01*
X101799334Y-51843435D01*
X101696046Y-51874767D01*
X101605375Y-51923233D01*
X101513550Y-51972315D01*
X101513548Y-51972316D01*
X101513547Y-51972317D01*
X101353589Y-52103589D01*
X101222317Y-52263547D01*
X101124769Y-52446043D01*
X101064699Y-52644067D01*
X101053251Y-52760298D01*
X101050470Y-52788549D01*
X101049500Y-52798395D01*
X101049500Y-53501374D01*
X101029815Y-53568413D01*
X101013181Y-53589055D01*
X100584308Y-54017927D01*
X100584304Y-54017931D01*
X100500530Y-54133239D01*
X100500530Y-54133240D01*
X100473240Y-54170800D01*
X100387454Y-54339163D01*
X100329059Y-54518881D01*
X100299500Y-54705513D01*
X100299500Y-55777059D01*
X100290856Y-55806496D01*
X100284333Y-55836485D01*
X100280577Y-55841501D01*
X100279815Y-55844098D01*
X100263182Y-55864739D01*
X100220318Y-55907604D01*
X100158996Y-55941090D01*
X100089304Y-55936106D01*
X100033370Y-55894236D01*
X100008952Y-55828772D01*
X100008637Y-55820021D01*
X100001835Y-43353722D01*
X100000500Y-40907170D01*
X100000500Y-40124500D01*
X100020185Y-40057461D01*
X100072989Y-40011706D01*
X100124500Y-40000500D01*
X152151110Y-40000500D01*
X152218149Y-40020185D01*
G37*
%TD.AperFunction*%
%TA.AperFunction,Conductor*%
G36*
X127986154Y-72809741D02*
G01*
X128017954Y-72817858D01*
X128019518Y-72819538D01*
X128021720Y-72820185D01*
X128043193Y-72844966D01*
X128065565Y-72868995D01*
X128065972Y-72871255D01*
X128067475Y-72872989D01*
X128072142Y-72905452D01*
X128077971Y-72937755D01*
X128077213Y-72940720D01*
X128077419Y-72942147D01*
X128069242Y-72971952D01*
X127986295Y-73172203D01*
X127986291Y-73172216D01*
X127986290Y-73172219D01*
X127969775Y-73233856D01*
X127928597Y-73387534D01*
X127928594Y-73387547D01*
X127899501Y-73608533D01*
X127899500Y-73608549D01*
X127899500Y-73831450D01*
X127899501Y-73831466D01*
X127928594Y-74052452D01*
X127928595Y-74052457D01*
X127928596Y-74052463D01*
X127928597Y-74052465D01*
X127986290Y-74267780D01*
X127986293Y-74267790D01*
X128071593Y-74473722D01*
X128071595Y-74473726D01*
X128183052Y-74666774D01*
X128183057Y-74666780D01*
X128183058Y-74666782D01*
X128318751Y-74843622D01*
X128318757Y-74843629D01*
X128476370Y-75001242D01*
X128476376Y-75001247D01*
X128653226Y-75136948D01*
X128846274Y-75248405D01*
X129052219Y-75333710D01*
X129267537Y-75391404D01*
X129463156Y-75417157D01*
X129527052Y-75445423D01*
X129534651Y-75452415D01*
X130818929Y-76736693D01*
X130869417Y-76773374D01*
X130934281Y-76820500D01*
X130971801Y-76847760D01*
X131051347Y-76888290D01*
X131140163Y-76933545D01*
X131140165Y-76933545D01*
X131140168Y-76933547D01*
X131228719Y-76962319D01*
X131319881Y-76991940D01*
X131506514Y-77021500D01*
X131506519Y-77021500D01*
X137795360Y-77021500D01*
X137981992Y-76991940D01*
X138161706Y-76933547D01*
X138330073Y-76847760D01*
X138482948Y-76736690D01*
X138886319Y-76333317D01*
X138947640Y-76299834D01*
X139017331Y-76304818D01*
X139073265Y-76346689D01*
X139091926Y-76382676D01*
X139098224Y-76402056D01*
X139098226Y-76402061D01*
X139182717Y-76567883D01*
X139214024Y-76629327D01*
X139363952Y-76835685D01*
X139363954Y-76835687D01*
X139490586Y-76962319D01*
X139524071Y-77023642D01*
X139519087Y-77093334D01*
X139490586Y-77137681D01*
X139363954Y-77264312D01*
X139363954Y-77264313D01*
X139363952Y-77264315D01*
X139299563Y-77352938D01*
X139214024Y-77470672D01*
X139098225Y-77697939D01*
X139019401Y-77940531D01*
X138979500Y-78192458D01*
X138979500Y-78447541D01*
X139019401Y-78699468D01*
X139098225Y-78942060D01*
X139214023Y-79169325D01*
X139214024Y-79169327D01*
X139363952Y-79375685D01*
X139544315Y-79556048D01*
X139750673Y-79705976D01*
X139858050Y-79760687D01*
X139977939Y-79821774D01*
X139977941Y-79821774D01*
X139977944Y-79821776D01*
X140107976Y-79864026D01*
X140220531Y-79900598D01*
X140472459Y-79940500D01*
X140472464Y-79940500D01*
X140727541Y-79940500D01*
X140979468Y-79900598D01*
X141222056Y-79821776D01*
X141449327Y-79705976D01*
X141449337Y-79705968D01*
X141450144Y-79705475D01*
X141450497Y-79705379D01*
X141453668Y-79703764D01*
X141454007Y-79704429D01*
X141517588Y-79687226D01*
X141584192Y-79708338D01*
X141628809Y-79762106D01*
X141637274Y-79831461D01*
X141606899Y-79894383D01*
X141602622Y-79898879D01*
X136838320Y-84663181D01*
X136776997Y-84696666D01*
X136750639Y-84699500D01*
X136578543Y-84699500D01*
X136578537Y-84699500D01*
X136578533Y-84699501D01*
X136357547Y-84728594D01*
X136357540Y-84728595D01*
X136357537Y-84728596D01*
X136179241Y-84776370D01*
X136142219Y-84786290D01*
X136142209Y-84786293D01*
X135936277Y-84871593D01*
X135936273Y-84871595D01*
X135743226Y-84983052D01*
X135743217Y-84983058D01*
X135566377Y-85118751D01*
X135566370Y-85118757D01*
X135561947Y-85123181D01*
X135500624Y-85156666D01*
X135474266Y-85159500D01*
X121434500Y-85159500D01*
X121367461Y-85139815D01*
X121321706Y-85087011D01*
X121310500Y-85035500D01*
X121310500Y-78983129D01*
X121280940Y-78796497D01*
X121222545Y-78616779D01*
X121168769Y-78511238D01*
X121136760Y-78448417D01*
X121025690Y-78295543D01*
X120892073Y-78161926D01*
X119756802Y-77026655D01*
X119723317Y-76965332D01*
X119728301Y-76895640D01*
X119770173Y-76839707D01*
X119818125Y-76817808D01*
X119818578Y-76817709D01*
X119818584Y-76817709D01*
X120022396Y-76773372D01*
X120214134Y-76691265D01*
X120386868Y-76574355D01*
X120534355Y-76426868D01*
X120651265Y-76254134D01*
X120733372Y-76062396D01*
X120777709Y-75858584D01*
X120780500Y-75811731D01*
X120780499Y-73228270D01*
X120777709Y-73181416D01*
X120733372Y-72977604D01*
X120733370Y-72977599D01*
X120731536Y-72973315D01*
X120723239Y-72903939D01*
X120753767Y-72841092D01*
X120813427Y-72804726D01*
X120845523Y-72800500D01*
X127954681Y-72800500D01*
X127986154Y-72809741D01*
G37*
%TD.AperFunction*%
%TD*%
M02*
