M48
; DRILL file {KiCad 9.0.6} date 2026-02-15T18:12:32+0200
; FORMAT={-:-/ absolute / metric / decimal}
; #@! TF.CreationDate,2026-02-15T18:12:32+02:00
; #@! TF.GenerationSoftware,Kicad,Pcbnew,9.0.6
; #@! TF.FileFunction,Plated,1,2,PTH
FMAT,2
METRIC
; #@! TA.AperFunction,Plated,PTH,ComponentDrill
T1C0.700
; #@! TA.AperFunction,Plated,PTH,ComponentDrill
T2C0.900
; #@! TA.AperFunction,Plated,PTH,ComponentDrill
T3C0.950
; #@! TA.AperFunction,Plated,PTH,ComponentDrill
T4C1.000
%
G90
G05
T1
X113.14Y-42.6
X113.14Y-44.85
X113.14Y-47.1
X113.64Y-91.85
X113.7Y-87.35
X113.7Y-89.6
X120.76Y-42.6
X120.76Y-44.85
X120.76Y-47.1
X121.26Y-91.85
X121.32Y-87.35
X121.32Y-89.6
X128.33Y-87.35
X130.64Y-46.6
X132.64Y-44.35
X134.64Y-42.1
X135.95Y-87.35
X138.26Y-46.6
X140.2Y-49.35
X140.2Y-56.97
X140.26Y-44.35
X142.26Y-42.1
T2
X102.2Y-91.85
X102.723Y-43.35
X104.359Y-91.85
X104.882Y-43.35
X106.518Y-91.85
X107.041Y-43.35
X108.677Y-91.85
X109.2Y-43.35
X128.27Y-91.85
X128.33Y-89.6
X135.39Y-82.85
X135.71Y-63.1
X135.71Y-78.34
X135.89Y-91.85
X135.95Y-89.6
X138.25Y-63.1
X138.25Y-78.34
X140.79Y-63.1
X140.79Y-78.34
X143.01Y-82.85
X143.33Y-63.1
X143.33Y-78.34
X145.87Y-63.1
X145.87Y-78.34
X146.041Y-92.1
X146.45Y-43.6
X148.2Y-92.1
X148.41Y-63.1
X148.41Y-78.34
X148.609Y-43.6
X150.359Y-92.1
X150.768Y-43.6
X150.95Y-63.1
X150.95Y-78.34
X152.518Y-92.1
X152.927Y-43.6
X153.49Y-63.1
X153.49Y-78.34
T3
X146.95Y-84.35
X149.45Y-84.35
X151.95Y-84.35
T4
X112.12Y-82.736
X114.66Y-82.736
X117.2Y-82.736
X119.74Y-82.736
X129.646Y-56.32
X129.646Y-58.86
X129.646Y-61.4
X129.646Y-63.94
X129.646Y-66.48
X129.646Y-69.02
X129.646Y-71.56
X129.646Y-74.1
X144.4Y-53.35
X152.0Y-53.35
M30
