%TF.GenerationSoftware,KiCad,Pcbnew,9.0.6*%
%TF.CreationDate,2026-02-15T18:12:06+02:00*%
%TF.ProjectId,pcb,7063622e-6b69-4636-9164-5f7063625858,rev?*%
%TF.SameCoordinates,Original*%
%TF.FileFunction,Copper,L1,Top*%
%TF.FilePolarity,Positive*%
%FSLAX46Y46*%
G04 Gerber Fmt 4.6, Leading zero omitted, Abs format (unit mm)*
G04 Created by KiCad (PCBNEW 9.0.6) date 2026-02-15 18:12:06*
%MOMM*%
%LPD*%
G01*
G04 APERTURE LIST*
G04 Aperture macros list*
%AMRoundRect*
0 Rectangle with rounded corners*
0 $1 Rounding radius*
0 $2 $3 $4 $5 $6 $7 $8 $9 X,Y pos of 4 corners*
0 Add a 4 corners polygon primitive as box body*
4,1,4,$2,$3,$4,$5,$6,$7,$8,$9,$2,$3,0*
0 Add four circle primitives for the rounded corners*
1,1,$1+$1,$2,$3*
1,1,$1+$1,$4,$5*
1,1,$1+$1,$6,$7*
1,1,$1+$1,$8,$9*
0 Add four rect primitives between the rounded corners*
20,1,$1+$1,$2,$3,$4,$5,0*
20,1,$1+$1,$4,$5,$6,$7,0*
20,1,$1+$1,$6,$7,$8,$9,0*
20,1,$1+$1,$8,$9,$2,$3,0*%
%AMOutline5P*
0 Free polygon, 5 corners , with rotation*
0 The origin of the aperture is its center*
0 number of corners: always 5*
0 $1 to $10 corner X, Y*
0 $11 Rotation angle, in degrees counterclockwise*
0 create outline with 5 corners*
4,1,5,$1,$2,$3,$4,$5,$6,$7,$8,$9,$10,$1,$2,$11*%
%AMOutline6P*
0 Free polygon, 6 corners , with rotation*
0 The origin of the aperture is its center*
0 number of corners: always 6*
0 $1 to $12 corner X, Y*
0 $13 Rotation angle, in degrees counterclockwise*
0 create outline with 6 corners*
4,1,6,$1,$2,$3,$4,$5,$6,$7,$8,$9,$10,$11,$12,$1,$2,$13*%
%AMOutline7P*
0 Free polygon, 7 corners , with rotation*
0 The origin of the aperture is its center*
0 number of corners: always 7*
0 $1 to $14 corner X, Y*
0 $15 Rotation angle, in degrees counterclockwise*
0 create outline with 7 corners*
4,1,7,$1,$2,$3,$4,$5,$6,$7,$8,$9,$10,$11,$12,$13,$14,$1,$2,$15*%
%AMOutline8P*
0 Free polygon, 8 corners , with rotation*
0 The origin of the aperture is its center*
0 number of corners: always 8*
0 $1 to $16 corner X, Y*
0 $17 Rotation angle, in degrees counterclockwise*
0 create outline with 8 corners*
4,1,8,$1,$2,$3,$4,$5,$6,$7,$8,$9,$10,$11,$12,$13,$14,$15,$16,$1,$2,$17*%
G04 Aperture macros list end*
%TA.AperFunction,ComponentPad*%
%ADD10Outline5P,-1.500000X0.700000X1.500000X0.700000X1.500000X-0.700000X-1.220000X-0.700000X-1.500000X-0.420000X90.000000*%
%TD*%
%TA.AperFunction,ComponentPad*%
%ADD11RoundRect,0.291667X0.408333X-1.208333X0.408333X1.208333X-0.408333X1.208333X-0.408333X-1.208333X0*%
%TD*%
%TA.AperFunction,ComponentPad*%
%ADD12C,1.400000*%
%TD*%
%TA.AperFunction,ComponentPad*%
%ADD13C,1.600000*%
%TD*%
%TA.AperFunction,ComponentPad*%
%ADD14C,1.800000*%
%TD*%
%TA.AperFunction,ComponentPad*%
%ADD15R,1.800000X1.800000*%
%TD*%
%TA.AperFunction,ComponentPad*%
%ADD16RoundRect,0.250000X0.600000X0.725000X-0.600000X0.725000X-0.600000X-0.725000X0.600000X-0.725000X0*%
%TD*%
%TA.AperFunction,ComponentPad*%
%ADD17O,1.700000X1.950000*%
%TD*%
%TA.AperFunction,ComponentPad*%
%ADD18R,1.600000X1.600000*%
%TD*%
%TA.AperFunction,Conductor*%
%ADD19C,0.800000*%
%TD*%
G04 APERTURE END LIST*
D10*
%TO.P,U1,1,5V*%
%TO.N,unconnected-(U1-5V-Pad1)*%
X153490000Y-79140000D03*
D11*
%TO.P,U1,2,GND*%
%TO.N,GND*%
X150950000Y-79140000D03*
%TO.P,U1,3,3V3*%
%TO.N,Net-(U1-3V3)*%
X148410000Y-79140000D03*
%TO.P,U1,4,GPIO4/SCK*%
%TO.N,Net-(U1-GPIO4{slash}SCK)*%
X145870000Y-79140000D03*
%TO.P,U1,5,GPIO3*%
%TO.N,unconnected-(U1-GPIO3-Pad5)*%
X143330000Y-79140000D03*
%TO.P,U1,6,GPIO2*%
%TO.N,Net-(J1-Pin_3)*%
X140790000Y-79140000D03*
%TO.P,U1,7,GPIO1*%
%TO.N,Net-(J1-Pin_2)*%
X138250000Y-79140000D03*
%TO.P,U1,8,GPIO0*%
%TO.N,unconnected-(U1-GPIO0-Pad8)*%
X135710000Y-79140000D03*
%TO.P,U1,9,GPIO5/MISO*%
%TO.N,Net-(U1-GPIO5{slash}MISO)*%
X153490000Y-62300000D03*
%TO.P,U1,10,GPIO6/MOSI*%
%TO.N,Net-(U1-GPIO6{slash}MOSI)*%
X150950000Y-62300000D03*
%TO.P,U1,11,GPIO7/SS*%
%TO.N,Net-(U1-GPIO7{slash}SS)*%
X148410000Y-62300000D03*
%TO.P,U1,12,GPIO8/SDA*%
%TO.N,unconnected-(U1-GPIO8{slash}SDA-Pad12)*%
X145870000Y-62300000D03*
%TO.P,U1,13,GPIO9/SCL*%
%TO.N,Net-(U1-GPIO9{slash}SCL)*%
X143330000Y-62300000D03*
%TO.P,U1,14,GPIO10*%
%TO.N,/R*%
X140790000Y-62300000D03*
%TO.P,U1,15,GPIO20*%
%TO.N,/G*%
X138250000Y-62300000D03*
%TO.P,U1,16,GPIO21*%
%TO.N,/B*%
X135710000Y-62300000D03*
%TD*%
D12*
%TO.P,R14,1*%
%TO.N,Net-(R14-Pad1)*%
X135390000Y-82850000D03*
%TO.P,R14,2*%
%TO.N,Net-(U1-3V3)*%
X143010000Y-82850000D03*
%TD*%
D13*
%TO.P,U2,12,RSTO*%
%TO.N,unconnected-(U2-RSTO-Pad12)*%
X129646000Y-56320000D03*
%TO.P,U2,11,IRQ*%
%TO.N,unconnected-(U2-IRQ-Pad11)*%
X129646000Y-58860000D03*
%TO.P,U2,10,GND*%
%TO.N,GND*%
X129646000Y-61400000D03*
%TO.P,U2,9,VCC*%
%TO.N,Net-(R14-Pad1)*%
X129646000Y-63940000D03*
%TO.P,U2,8,SS*%
%TO.N,Net-(U1-GPIO7{slash}SS)*%
X129646000Y-66480000D03*
%TO.P,U2,7,MOSI*%
%TO.N,Net-(U1-GPIO6{slash}MOSI)*%
X129646000Y-69020000D03*
%TO.P,U2,6,MISO*%
%TO.N,Net-(U1-GPIO5{slash}MISO)*%
X129646000Y-71560000D03*
%TO.P,U2,5,SCK*%
%TO.N,Net-(U1-GPIO4{slash}SCK)*%
X129646000Y-74100000D03*
%TO.P,U2,4,GND*%
%TO.N,unconnected-(U2-GND-Pad4)*%
X119740000Y-82736000D03*
%TO.P,U2,3,VCC*%
%TO.N,unconnected-(U2-VCC-Pad3)*%
X117200000Y-82736000D03*
%TO.P,U2,2,SDA*%
%TO.N,unconnected-(U2-SDA-Pad2)*%
X114660000Y-82736000D03*
%TO.P,U2,1,SCL*%
%TO.N,unconnected-(U2-SCL-Pad1)*%
X112120000Y-82736000D03*
%TD*%
D12*
%TO.P,R10,2*%
%TO.N,Net-(D4-BA)*%
X113700000Y-87350000D03*
%TO.P,R10,1*%
%TO.N,/B*%
X121320000Y-87350000D03*
%TD*%
D14*
%TO.P,D3,4,BA*%
%TO.N,Net-(D3-BA)*%
X152518000Y-92100000D03*
%TO.P,D3,3,GA*%
%TO.N,Net-(D3-GA)*%
X150359000Y-92100000D03*
%TO.P,D3,2,K*%
%TO.N,GND*%
X148200000Y-92100000D03*
D15*
%TO.P,D3,1,RA*%
%TO.N,Net-(D3-RA)*%
X146041000Y-92100000D03*
%TD*%
D12*
%TO.P,R12,2*%
%TO.N,Net-(D4-RA)*%
X113640000Y-91850000D03*
%TO.P,R12,1*%
%TO.N,/R*%
X121260000Y-91850000D03*
%TD*%
%TO.P,R11,1*%
%TO.N,/G*%
X121320000Y-89600000D03*
%TO.P,R11,2*%
%TO.N,Net-(D4-GA)*%
X113700000Y-89600000D03*
%TD*%
%TO.P,R7,1*%
%TO.N,/B*%
X128330000Y-87350000D03*
%TO.P,R7,2*%
%TO.N,Net-(D3-BA)*%
X135950000Y-87350000D03*
%TD*%
%TO.P,R9,1*%
%TO.N,/R*%
X128270000Y-91850000D03*
%TO.P,R9,2*%
%TO.N,Net-(D3-RA)*%
X135890000Y-91850000D03*
%TD*%
%TO.P,R8,2*%
%TO.N,Net-(D3-GA)*%
X135950000Y-89600000D03*
%TO.P,R8,1*%
%TO.N,/G*%
X128330000Y-89600000D03*
%TD*%
%TO.P,R5,1*%
%TO.N,/G*%
X120760000Y-44850000D03*
%TO.P,R5,2*%
%TO.N,Net-(D2-GA)*%
X113140000Y-44850000D03*
%TD*%
%TO.P,R1,1*%
%TO.N,/R*%
X134640000Y-42100000D03*
%TO.P,R1,2*%
%TO.N,Net-(D1-RA)*%
X142260000Y-42100000D03*
%TD*%
D16*
%TO.P,J1,1,Pin_1*%
%TO.N,GND*%
X151950000Y-84350000D03*
D17*
%TO.P,J1,2,Pin_2*%
%TO.N,Net-(J1-Pin_2)*%
X149450000Y-84350000D03*
%TO.P,J1,3,Pin_3*%
%TO.N,Net-(J1-Pin_3)*%
X146950000Y-84350000D03*
%TD*%
D12*
%TO.P,R3,1*%
%TO.N,/B*%
X130640000Y-46600000D03*
%TO.P,R3,2*%
%TO.N,Net-(D1-BA)*%
X138260000Y-46600000D03*
%TD*%
%TO.P,R2,2*%
%TO.N,Net-(D1-GA)*%
X140260000Y-44350000D03*
%TO.P,R2,1*%
%TO.N,/G*%
X132640000Y-44350000D03*
%TD*%
D15*
%TO.P,D2,1,RA*%
%TO.N,Net-(D2-RA)*%
X109200000Y-43350000D03*
D14*
%TO.P,D2,2,K*%
%TO.N,GND*%
X107041000Y-43350000D03*
%TO.P,D2,3,GA*%
%TO.N,Net-(D2-GA)*%
X104882000Y-43350000D03*
%TO.P,D2,4,BA*%
%TO.N,Net-(D2-BA)*%
X102723000Y-43350000D03*
%TD*%
D12*
%TO.P,R13,1*%
%TO.N,Net-(U1-GPIO9{slash}SCL)*%
X140200000Y-56970000D03*
%TO.P,R13,2*%
%TO.N,Net-(BZ1-+)*%
X140200000Y-49350000D03*
%TD*%
%TO.P,R6,1*%
%TO.N,/R*%
X120760000Y-42600000D03*
%TO.P,R6,2*%
%TO.N,Net-(D2-RA)*%
X113140000Y-42600000D03*
%TD*%
D13*
%TO.P,BZ1,2,-*%
%TO.N,unconnected-(BZ1---Pad2)*%
X152000000Y-53350000D03*
D18*
%TO.P,BZ1,1,+*%
%TO.N,Net-(BZ1-+)*%
X144400000Y-53350000D03*
%TD*%
D12*
%TO.P,R4,1*%
%TO.N,/B*%
X120760000Y-47100000D03*
%TO.P,R4,2*%
%TO.N,Net-(D2-BA)*%
X113140000Y-47100000D03*
%TD*%
D15*
%TO.P,D4,1,RA*%
%TO.N,Net-(D4-RA)*%
X108677000Y-91850000D03*
D14*
%TO.P,D4,2,K*%
%TO.N,GND*%
X106518000Y-91850000D03*
%TO.P,D4,3,GA*%
%TO.N,Net-(D4-GA)*%
X104359000Y-91850000D03*
%TO.P,D4,4,BA*%
%TO.N,Net-(D4-BA)*%
X102200000Y-91850000D03*
%TD*%
D15*
%TO.P,D1,1,RA*%
%TO.N,Net-(D1-RA)*%
X146450000Y-43600000D03*
D14*
%TO.P,D1,2,K*%
%TO.N,GND*%
X148609000Y-43600000D03*
%TO.P,D1,3,GA*%
%TO.N,Net-(D1-GA)*%
X150768000Y-43600000D03*
%TO.P,D1,4,BA*%
%TO.N,Net-(D1-BA)*%
X152927000Y-43600000D03*
%TD*%
D19*
%TO.N,/R*%
X120760000Y-42600000D02*
X121010000Y-42350000D01*
X121010000Y-42350000D02*
X134390000Y-42350000D01*
X134390000Y-42350000D02*
X134640000Y-42100000D01*
%TO.N,Net-(R14-Pad1)*%
X135390000Y-82850000D02*
X135390000Y-82673842D01*
X126950000Y-74233842D02*
X126950000Y-65600000D01*
X126950000Y-65600000D02*
X128610000Y-63940000D01*
X128610000Y-63940000D02*
X129646000Y-63940000D01*
X135390000Y-82673842D02*
X126950000Y-74233842D01*
X135390000Y-82540000D02*
X135390000Y-82850000D01*
%TO.N,/B*%
X128330000Y-87350000D02*
X128330000Y-82980000D01*
X128330000Y-82980000D02*
X118700000Y-73350000D01*
X118700000Y-73350000D02*
X118700000Y-49160000D01*
X118700000Y-49160000D02*
X120760000Y-47100000D01*
%TO.N,/G*%
X121320000Y-89600000D02*
X120881580Y-89600000D01*
X120881580Y-89600000D02*
X119419000Y-88137420D01*
X119419000Y-88137420D02*
X119419000Y-85886842D01*
X121741000Y-79699000D02*
X116642000Y-74600000D01*
X119419000Y-85886842D02*
X121741000Y-83564842D01*
X121741000Y-83564842D02*
X121741000Y-79699000D01*
X116642000Y-74600000D02*
X116642000Y-46922156D01*
X118714156Y-44850000D02*
X120760000Y-44850000D01*
X116642000Y-46922156D02*
X118714156Y-44850000D01*
%TO.N,/R*%
X120760000Y-42600000D02*
X118700000Y-42600000D01*
X118700000Y-42600000D02*
X115014210Y-46285790D01*
X115014210Y-46285790D02*
X115041000Y-46312580D01*
X115041000Y-66509000D02*
X110119000Y-71431000D01*
X115041000Y-46312580D02*
X115041000Y-66509000D01*
X110119000Y-71431000D02*
X110119000Y-83564842D01*
X110119000Y-83564842D02*
X111291158Y-84737000D01*
X111291158Y-84737000D02*
X113831158Y-84737000D01*
X113831158Y-84737000D02*
X115601000Y-86506842D01*
X115601000Y-87180949D02*
X120270051Y-91850000D01*
X115601000Y-86506842D02*
X115601000Y-87180949D01*
X120270051Y-91850000D02*
X121260000Y-91850000D01*
%TO.N,/G*%
X120760000Y-44850000D02*
X121749949Y-44850000D01*
X122249949Y-44350000D02*
X132640000Y-44350000D01*
X121749949Y-44850000D02*
X122249949Y-44350000D01*
%TO.N,/B*%
X120760000Y-47100000D02*
X130140000Y-47100000D01*
X130140000Y-47100000D02*
X130640000Y-46600000D01*
%TO.N,Net-(D1-RA)*%
X145008000Y-42100000D02*
X146508000Y-43600000D01*
X142260000Y-42100000D02*
X145008000Y-42100000D01*
X146508000Y-43600000D02*
X146450000Y-43600000D01*
%TO.N,Net-(D1-GA)*%
X150768000Y-43600000D02*
X150768000Y-44412263D01*
X149332263Y-45848000D02*
X141758000Y-45848000D01*
X150768000Y-44412263D02*
X149332263Y-45848000D01*
X141758000Y-45848000D02*
X140260000Y-44350000D01*
%TO.N,Net-(D1-BA)*%
X138260000Y-46600000D02*
X139109000Y-47449000D01*
X139109000Y-47449000D02*
X150350792Y-47449000D01*
X150350792Y-47449000D02*
X152927000Y-44872792D01*
X152927000Y-44872792D02*
X152927000Y-43600000D01*
%TO.N,/G*%
X132640000Y-44350000D02*
X132640000Y-53025844D01*
X132640000Y-53025844D02*
X133801000Y-54186844D01*
X133801000Y-54186844D02*
X133801000Y-57686844D01*
X133801000Y-57686844D02*
X135625540Y-59511384D01*
X135625540Y-59511384D02*
X136649000Y-59511384D01*
X138250000Y-61112384D02*
X138250000Y-63100000D01*
X136649000Y-59511384D02*
X138250000Y-61112384D01*
%TO.N,/R*%
X138299000Y-53751000D02*
X138450000Y-53600000D01*
X140790000Y-60248420D02*
X138299000Y-57757420D01*
X138299000Y-57757420D02*
X138299000Y-53751000D01*
X140790000Y-63100000D02*
X140790000Y-60248420D01*
X138450000Y-53600000D02*
X134640000Y-49790000D01*
X134640000Y-49790000D02*
X134640000Y-42100000D01*
%TO.N,/B*%
X130640000Y-46600000D02*
X130640000Y-53290000D01*
X130640000Y-53290000D02*
X132200000Y-54850000D01*
X132200000Y-58350000D02*
X135710000Y-61860000D01*
X132200000Y-54850000D02*
X132200000Y-58350000D01*
X135710000Y-61860000D02*
X135710000Y-63100000D01*
%TO.N,Net-(BZ1-+)*%
X140200000Y-50600000D02*
X142950000Y-53350000D01*
X140200000Y-49350000D02*
X140200000Y-50600000D01*
X142950000Y-53350000D02*
X144400000Y-53350000D01*
%TO.N,Net-(U1-GPIO9{slash}SCL)*%
X140200000Y-56970000D02*
X143330000Y-60100000D01*
X143330000Y-60100000D02*
X143330000Y-63100000D01*
%TO.N,/B*%
X135710000Y-61112384D02*
X135710000Y-63100000D01*
%TO.N,Net-(D2-BA)*%
X102723000Y-43350000D02*
X102723000Y-44727948D01*
X102723000Y-44727948D02*
X105095052Y-47100000D01*
X105095052Y-47100000D02*
X113140000Y-47100000D01*
%TO.N,Net-(D2-GA)*%
X104882000Y-43350000D02*
X104882000Y-44622792D01*
X111700000Y-44850000D02*
X113140000Y-44850000D01*
X104882000Y-44622792D02*
X105710208Y-45451000D01*
X105710208Y-45451000D02*
X111099000Y-45451000D01*
X111099000Y-45451000D02*
X111700000Y-44850000D01*
%TO.N,Net-(D2-RA)*%
X113140000Y-42600000D02*
X109950000Y-42600000D01*
X109950000Y-42600000D02*
X109200000Y-43350000D01*
%TO.N,/R*%
X121260000Y-91850000D02*
X128270000Y-91850000D01*
%TO.N,/G*%
X121320000Y-89600000D02*
X128330000Y-89600000D01*
%TO.N,/B*%
X121320000Y-87350000D02*
X128330000Y-87350000D01*
%TO.N,Net-(D4-BA)*%
X102200000Y-91850000D02*
X102200000Y-90577208D01*
X102200000Y-90577208D02*
X105427208Y-87350000D01*
X105427208Y-87350000D02*
X113700000Y-87350000D01*
%TO.N,Net-(D4-GA)*%
X104359000Y-91850000D02*
X104359000Y-91037737D01*
X104359000Y-91037737D02*
X105796737Y-89600000D01*
X105796737Y-89600000D02*
X113700000Y-89600000D01*
%TO.N,Net-(D4-RA)*%
X108677000Y-91850000D02*
X113640000Y-91850000D01*
%TO.N,unconnected-(U1-GPIO3-Pad5)*%
X143330000Y-77952384D02*
X143330000Y-78340000D01*
%TO.N,Net-(U1-GPIO7{slash}SS)*%
X148410000Y-63487616D02*
X148410000Y-63100000D01*
%TO.N,Net-(U1-GPIO4{slash}SCK)*%
X129646000Y-74100000D02*
X142017616Y-74100000D01*
%TO.N,Net-(U1-GPIO5{slash}MISO)*%
X129646000Y-71560000D02*
X145417616Y-71560000D01*
%TO.N,Net-(U1-GPIO6{slash}MOSI)*%
X150950000Y-63487616D02*
X150950000Y-63100000D01*
%TO.N,Net-(U1-GPIO5{slash}MISO)*%
X145417616Y-71560000D02*
X153490000Y-63487616D01*
%TO.N,Net-(U1-GPIO7{slash}SS)*%
X129646000Y-66480000D02*
X145417616Y-66480000D01*
X145417616Y-66480000D02*
X148410000Y-63487616D01*
%TO.N,Net-(U1-GPIO6{slash}MOSI)*%
X129646000Y-69020000D02*
X145417616Y-69020000D01*
%TO.N,Net-(U1-GPIO4{slash}SCK)*%
X142017616Y-74100000D02*
X145870000Y-77952384D01*
%TO.N,Net-(U1-GPIO6{slash}MOSI)*%
X145417616Y-69020000D02*
X150950000Y-63487616D01*
%TO.N,Net-(U1-GPIO5{slash}MISO)*%
X153490000Y-63487616D02*
X153490000Y-63100000D01*
%TO.N,Net-(U1-GPIO4{slash}SCK)*%
X145870000Y-77952384D02*
X145870000Y-78340000D01*
%TO.N,Net-(D3-BA)*%
X135950000Y-87350000D02*
X136450000Y-87350000D01*
X137227000Y-88127000D02*
X149922948Y-88127000D01*
X136450000Y-87350000D02*
X137227000Y-88127000D01*
X149922948Y-88127000D02*
X152518000Y-90722052D01*
X152518000Y-90722052D02*
X152518000Y-92100000D01*
%TO.N,Net-(D3-GA)*%
X135950000Y-89600000D02*
X136200000Y-89850000D01*
X136200000Y-89850000D02*
X149381792Y-89850000D01*
X149381792Y-89850000D02*
X150359000Y-90827208D01*
X150359000Y-90827208D02*
X150359000Y-92100000D01*
X135950000Y-89600000D02*
X136051000Y-89499000D01*
%TO.N,Net-(D3-RA)*%
X135890000Y-91850000D02*
X145791000Y-91850000D01*
X145791000Y-91850000D02*
X146041000Y-91600000D01*
%TO.N,Net-(J1-Pin_2)*%
X149450000Y-84350000D02*
X149450000Y-84875552D01*
X147799552Y-86526000D02*
X141733424Y-86526000D01*
X149450000Y-84875552D02*
X147799552Y-86526000D01*
X141733424Y-86526000D02*
X138250000Y-83042576D01*
X138250000Y-83042576D02*
X138250000Y-78340000D01*
%TO.N,Net-(J1-Pin_3)*%
X146950000Y-84350000D02*
X146549000Y-84751000D01*
X146549000Y-84751000D02*
X142222580Y-84751000D01*
X140790000Y-83318420D02*
X140790000Y-78340000D01*
X142222580Y-84751000D02*
X140790000Y-83318420D01*
%TO.N,Net-(U1-3V3)*%
X143010000Y-82850000D02*
X143710000Y-82150000D01*
X143710000Y-82150000D02*
X147865616Y-82150000D01*
X147865616Y-82150000D02*
X148410000Y-81605616D01*
X148410000Y-81605616D02*
X148410000Y-78340000D01*
%TD*%
%TA.AperFunction,Conductor*%
%TO.N,GND*%
G36*
X154942539Y-40020185D02*
G01*
X154988294Y-40072989D01*
X154999500Y-40124500D01*
X154999500Y-94875500D01*
X154979815Y-94942539D01*
X154927011Y-94988294D01*
X154875500Y-94999500D01*
X100124500Y-94999500D01*
X100057461Y-94979815D01*
X100011706Y-94927011D01*
X100000500Y-94875500D01*
X100000500Y-91739778D01*
X100799500Y-91739778D01*
X100799500Y-91960221D01*
X100833985Y-92177952D01*
X100902103Y-92387603D01*
X100902104Y-92387606D01*
X101002187Y-92584025D01*
X101131752Y-92762358D01*
X101131756Y-92762363D01*
X101287636Y-92918243D01*
X101287641Y-92918247D01*
X101443192Y-93031260D01*
X101465978Y-93047815D01*
X101594375Y-93113237D01*
X101662393Y-93147895D01*
X101662396Y-93147896D01*
X101725032Y-93168247D01*
X101872049Y-93216015D01*
X102089778Y-93250500D01*
X102089779Y-93250500D01*
X102310221Y-93250500D01*
X102310222Y-93250500D01*
X102527951Y-93216015D01*
X102737606Y-93147895D01*
X102934022Y-93047815D01*
X103112365Y-92918242D01*
X103191819Y-92838788D01*
X103253142Y-92805303D01*
X103322834Y-92810287D01*
X103367181Y-92838788D01*
X103446636Y-92918243D01*
X103446641Y-92918247D01*
X103602192Y-93031260D01*
X103624978Y-93047815D01*
X103753375Y-93113237D01*
X103821393Y-93147895D01*
X103821396Y-93147896D01*
X103884032Y-93168247D01*
X104031049Y-93216015D01*
X104248778Y-93250500D01*
X104248779Y-93250500D01*
X104469221Y-93250500D01*
X104469222Y-93250500D01*
X104686951Y-93216015D01*
X104896606Y-93147895D01*
X105093022Y-93047815D01*
X105271365Y-92918242D01*
X105427242Y-92762365D01*
X105556815Y-92584022D01*
X105656895Y-92387606D01*
X105725015Y-92177951D01*
X105759500Y-91960222D01*
X105759500Y-91739778D01*
X105725015Y-91522049D01*
X105656895Y-91312394D01*
X105656893Y-91312388D01*
X105596853Y-91194556D01*
X105583956Y-91125887D01*
X105610232Y-91061146D01*
X105619646Y-91050589D01*
X106133418Y-90536819D01*
X106194741Y-90503334D01*
X106221099Y-90500500D01*
X107240568Y-90500500D01*
X107307607Y-90520185D01*
X107353362Y-90572989D01*
X107363306Y-90642147D01*
X107339835Y-90698810D01*
X107333206Y-90707665D01*
X107333202Y-90707671D01*
X107282908Y-90842517D01*
X107276501Y-90902116D01*
X107276500Y-90902135D01*
X107276500Y-92797870D01*
X107276501Y-92797876D01*
X107282908Y-92857483D01*
X107333202Y-92992328D01*
X107333206Y-92992335D01*
X107419452Y-93107544D01*
X107419455Y-93107547D01*
X107534664Y-93193793D01*
X107534671Y-93193797D01*
X107669517Y-93244091D01*
X107669516Y-93244091D01*
X107676444Y-93244835D01*
X107729127Y-93250500D01*
X109624872Y-93250499D01*
X109684483Y-93244091D01*
X109819331Y-93193796D01*
X109934546Y-93107546D01*
X110020796Y-92992331D01*
X110071091Y-92857483D01*
X110071091Y-92857481D01*
X110072874Y-92849938D01*
X110075146Y-92850474D01*
X110097429Y-92796688D01*
X110154823Y-92756843D01*
X110193976Y-92750500D01*
X112796730Y-92750500D01*
X112863769Y-92770185D01*
X112869602Y-92774172D01*
X113010801Y-92876760D01*
X113090347Y-92917290D01*
X113179163Y-92962545D01*
X113179165Y-92962545D01*
X113179168Y-92962547D01*
X113270824Y-92992328D01*
X113358881Y-93020940D01*
X113545514Y-93050500D01*
X113545519Y-93050500D01*
X113734486Y-93050500D01*
X113921118Y-93020940D01*
X113947515Y-93012363D01*
X114100832Y-92962547D01*
X114269199Y-92876760D01*
X114422073Y-92765690D01*
X114555690Y-92632073D01*
X114666760Y-92479199D01*
X114752547Y-92310832D01*
X114810940Y-92131118D01*
X114833326Y-91989778D01*
X114840500Y-91944486D01*
X114840500Y-91755513D01*
X114810940Y-91568881D01*
X114752545Y-91389163D01*
X114666759Y-91220800D01*
X114653921Y-91203130D01*
X114555690Y-91067927D01*
X114422073Y-90934310D01*
X114298678Y-90844658D01*
X114256014Y-90789329D01*
X114250035Y-90719715D01*
X114282641Y-90657920D01*
X114315272Y-90633855D01*
X114329199Y-90626760D01*
X114482073Y-90515690D01*
X114615690Y-90382073D01*
X114726760Y-90229199D01*
X114812547Y-90060832D01*
X114870940Y-89881118D01*
X114900500Y-89694486D01*
X114900500Y-89505513D01*
X114870940Y-89318881D01*
X114812545Y-89139163D01*
X114726759Y-88970800D01*
X114615690Y-88817927D01*
X114482073Y-88684310D01*
X114332058Y-88575317D01*
X114289394Y-88519988D01*
X114283415Y-88450374D01*
X114316021Y-88388579D01*
X114332059Y-88374682D01*
X114482073Y-88265690D01*
X114615690Y-88132073D01*
X114726760Y-87979199D01*
X114783952Y-87866952D01*
X114831927Y-87816157D01*
X114899747Y-87799362D01*
X114965882Y-87821899D01*
X114982118Y-87835567D01*
X119570587Y-92424035D01*
X119696016Y-92549464D01*
X119843504Y-92648013D01*
X119925444Y-92681953D01*
X120007385Y-92715895D01*
X120181354Y-92750499D01*
X120181358Y-92750500D01*
X120181359Y-92750500D01*
X120181360Y-92750500D01*
X120416730Y-92750500D01*
X120483769Y-92770185D01*
X120489602Y-92774172D01*
X120630801Y-92876760D01*
X120710347Y-92917290D01*
X120799163Y-92962545D01*
X120799165Y-92962545D01*
X120799168Y-92962547D01*
X120890824Y-92992328D01*
X120978881Y-93020940D01*
X121165514Y-93050500D01*
X121165519Y-93050500D01*
X121354486Y-93050500D01*
X121541118Y-93020940D01*
X121567515Y-93012363D01*
X121720832Y-92962547D01*
X121889199Y-92876760D01*
X122030385Y-92774181D01*
X122096190Y-92750702D01*
X122103270Y-92750500D01*
X127426730Y-92750500D01*
X127493769Y-92770185D01*
X127499602Y-92774172D01*
X127640801Y-92876760D01*
X127720347Y-92917290D01*
X127809163Y-92962545D01*
X127809165Y-92962545D01*
X127809168Y-92962547D01*
X127900824Y-92992328D01*
X127988881Y-93020940D01*
X128175514Y-93050500D01*
X128175519Y-93050500D01*
X128364486Y-93050500D01*
X128551118Y-93020940D01*
X128577515Y-93012363D01*
X128730832Y-92962547D01*
X128899199Y-92876760D01*
X129052073Y-92765690D01*
X129185690Y-92632073D01*
X129296760Y-92479199D01*
X129382547Y-92310832D01*
X129440940Y-92131118D01*
X129463326Y-91989778D01*
X129470500Y-91944486D01*
X129470500Y-91755513D01*
X129440940Y-91568881D01*
X129382545Y-91389163D01*
X129296759Y-91220800D01*
X129283921Y-91203130D01*
X129185690Y-91067927D01*
X129052073Y-90934310D01*
X128928678Y-90844658D01*
X128886014Y-90789329D01*
X128880035Y-90719715D01*
X128912641Y-90657920D01*
X128945272Y-90633855D01*
X128959199Y-90626760D01*
X129112073Y-90515690D01*
X129245690Y-90382073D01*
X129356760Y-90229199D01*
X129442547Y-90060832D01*
X129500940Y-89881118D01*
X129530500Y-89694486D01*
X129530500Y-89505513D01*
X129500940Y-89318881D01*
X129442545Y-89139163D01*
X129356759Y-88970800D01*
X129245690Y-88817927D01*
X129112073Y-88684310D01*
X128962058Y-88575317D01*
X128919394Y-88519988D01*
X128913415Y-88450374D01*
X128946021Y-88388579D01*
X128962059Y-88374682D01*
X129112073Y-88265690D01*
X129245690Y-88132073D01*
X129356760Y-87979199D01*
X129442547Y-87810832D01*
X129500940Y-87631118D01*
X129530500Y-87444486D01*
X129530500Y-87255513D01*
X129500940Y-87068881D01*
X129442545Y-86889163D01*
X129356759Y-86720800D01*
X129254181Y-86579614D01*
X129230702Y-86513810D01*
X129230500Y-86506730D01*
X129230500Y-82891308D01*
X129230499Y-82891304D01*
X129211980Y-82798203D01*
X129195895Y-82717334D01*
X129142047Y-82587334D01*
X129128013Y-82553453D01*
X129052928Y-82441081D01*
X129029465Y-82405966D01*
X129003686Y-82380187D01*
X128904035Y-82280536D01*
X124284707Y-77661208D01*
X119636819Y-73013319D01*
X119603334Y-72951996D01*
X119600500Y-72925638D01*
X119600500Y-56217648D01*
X128345500Y-56217648D01*
X128345500Y-56422351D01*
X128377522Y-56624534D01*
X128440781Y-56819223D01*
X128533715Y-57001613D01*
X128654028Y-57167213D01*
X128798786Y-57311971D01*
X128953749Y-57424556D01*
X128964390Y-57432287D01*
X129055840Y-57478883D01*
X129057080Y-57479515D01*
X129107876Y-57527490D01*
X129124671Y-57595311D01*
X129102134Y-57661446D01*
X129057080Y-57700485D01*
X128964386Y-57747715D01*
X128798786Y-57868028D01*
X128654028Y-58012786D01*
X128533715Y-58178386D01*
X128440781Y-58360776D01*
X128377522Y-58555465D01*
X128345500Y-58757648D01*
X128345500Y-58962351D01*
X128377522Y-59164534D01*
X128440781Y-59359223D01*
X128504691Y-59484653D01*
X128525741Y-59525965D01*
X128533715Y-59541613D01*
X128654028Y-59707213D01*
X128798786Y-59851971D01*
X128946950Y-59959616D01*
X128964390Y-59972287D01*
X129076104Y-60029208D01*
X129146776Y-60065218D01*
X129146778Y-60065218D01*
X129146781Y-60065220D01*
X129251137Y-60099127D01*
X129341465Y-60128477D01*
X129442557Y-60144488D01*
X129543648Y-60160500D01*
X129543649Y-60160500D01*
X129748351Y-60160500D01*
X129748352Y-60160500D01*
X129950534Y-60128477D01*
X130145219Y-60065220D01*
X130327610Y-59972287D01*
X130430874Y-59897262D01*
X130493213Y-59851971D01*
X130493215Y-59851968D01*
X130493219Y-59851966D01*
X130637966Y-59707219D01*
X130637968Y-59707215D01*
X130637971Y-59707213D01*
X130690732Y-59634590D01*
X130758287Y-59541610D01*
X130851220Y-59359219D01*
X130914477Y-59164534D01*
X130946500Y-58962352D01*
X130946500Y-58757648D01*
X130934111Y-58679430D01*
X130914477Y-58555465D01*
X130851218Y-58360776D01*
X130784116Y-58229083D01*
X130758287Y-58178390D01*
X130688654Y-58082547D01*
X130637971Y-58012786D01*
X130493213Y-57868028D01*
X130327614Y-57747715D01*
X130321006Y-57744348D01*
X130234917Y-57700483D01*
X130184123Y-57652511D01*
X130167328Y-57584690D01*
X130189865Y-57518555D01*
X130234917Y-57479516D01*
X130327610Y-57432287D01*
X130440645Y-57350163D01*
X130493213Y-57311971D01*
X130493215Y-57311968D01*
X130493219Y-57311966D01*
X130637966Y-57167219D01*
X130637968Y-57167215D01*
X130637971Y-57167213D01*
X130690732Y-57094590D01*
X130758287Y-57001610D01*
X130851220Y-56819219D01*
X130914477Y-56624534D01*
X130946500Y-56422352D01*
X130946500Y-56217648D01*
X130941792Y-56187924D01*
X130914477Y-56015465D01*
X130851218Y-55820776D01*
X130817503Y-55754607D01*
X130758287Y-55638390D01*
X130750556Y-55627749D01*
X130637971Y-55472786D01*
X130493213Y-55328028D01*
X130327613Y-55207715D01*
X130327612Y-55207714D01*
X130327610Y-55207713D01*
X130270653Y-55178691D01*
X130145223Y-55114781D01*
X129950534Y-55051522D01*
X129775995Y-55023878D01*
X129748352Y-55019500D01*
X129543648Y-55019500D01*
X129519329Y-55023351D01*
X129341465Y-55051522D01*
X129146776Y-55114781D01*
X128964386Y-55207715D01*
X128798786Y-55328028D01*
X128654028Y-55472786D01*
X128533715Y-55638386D01*
X128440781Y-55820776D01*
X128377522Y-56015465D01*
X128345500Y-56217648D01*
X119600500Y-56217648D01*
X119600500Y-49584362D01*
X119620185Y-49517323D01*
X119636819Y-49496681D01*
X120064619Y-49068881D01*
X120800469Y-48333030D01*
X120861790Y-48299547D01*
X120868751Y-48298240D01*
X120941485Y-48286719D01*
X121041118Y-48270940D01*
X121220832Y-48212547D01*
X121389199Y-48126760D01*
X121530385Y-48024181D01*
X121596190Y-48000702D01*
X121603270Y-48000500D01*
X129615500Y-48000500D01*
X129682539Y-48020185D01*
X129728294Y-48072989D01*
X129739500Y-48124500D01*
X129739500Y-53378696D01*
X129765879Y-53511311D01*
X129774105Y-53552666D01*
X129799017Y-53612808D01*
X129841987Y-53716547D01*
X129882078Y-53776547D01*
X129912448Y-53821999D01*
X129940537Y-53864038D01*
X129940538Y-53864039D01*
X131263181Y-55186681D01*
X131296666Y-55248004D01*
X131299500Y-55274362D01*
X131299500Y-58438696D01*
X131334103Y-58612658D01*
X131334105Y-58612666D01*
X131368046Y-58694606D01*
X131401987Y-58776547D01*
X131425623Y-58811920D01*
X131430017Y-58818496D01*
X131500537Y-58924038D01*
X131500538Y-58924039D01*
X134473181Y-61896680D01*
X134506666Y-61958003D01*
X134509500Y-61984361D01*
X134509500Y-63552822D01*
X134524473Y-63685716D01*
X134583432Y-63854212D01*
X134583433Y-63854214D01*
X134583434Y-63854216D01*
X134678407Y-64005366D01*
X134804634Y-64131593D01*
X134955784Y-64226566D01*
X135124278Y-64285525D01*
X135124281Y-64285525D01*
X135124283Y-64285526D01*
X135205264Y-64294650D01*
X135257178Y-64300499D01*
X135257181Y-64300500D01*
X135257184Y-64300500D01*
X136162819Y-64300500D01*
X136162820Y-64300499D01*
X136229269Y-64293012D01*
X136295716Y-64285526D01*
X136295717Y-64285525D01*
X136295722Y-64285525D01*
X136464216Y-64226566D01*
X136615366Y-64131593D01*
X136741593Y-64005366D01*
X136836566Y-63854216D01*
X136862958Y-63778791D01*
X136903680Y-63722016D01*
X136968632Y-63696268D01*
X137037194Y-63709724D01*
X137087597Y-63758111D01*
X137097042Y-63778792D01*
X137123432Y-63854212D01*
X137123433Y-63854214D01*
X137123434Y-63854216D01*
X137218407Y-64005366D01*
X137344634Y-64131593D01*
X137495784Y-64226566D01*
X137664278Y-64285525D01*
X137664281Y-64285525D01*
X137664283Y-64285526D01*
X137745264Y-64294650D01*
X137797178Y-64300499D01*
X137797181Y-64300500D01*
X137797184Y-64300500D01*
X138702819Y-64300500D01*
X138702820Y-64300499D01*
X138769269Y-64293012D01*
X138835716Y-64285526D01*
X138835717Y-64285525D01*
X138835722Y-64285525D01*
X139004216Y-64226566D01*
X139155366Y-64131593D01*
X139281593Y-64005366D01*
X139376566Y-63854216D01*
X139402958Y-63778791D01*
X139443680Y-63722016D01*
X139508632Y-63696268D01*
X139577194Y-63709724D01*
X139627597Y-63758111D01*
X139637042Y-63778792D01*
X139663432Y-63854212D01*
X139663433Y-63854214D01*
X139663434Y-63854216D01*
X139758407Y-64005366D01*
X139884634Y-64131593D01*
X140035784Y-64226566D01*
X140204278Y-64285525D01*
X140204281Y-64285525D01*
X140204283Y-64285526D01*
X140285264Y-64294650D01*
X140337178Y-64300499D01*
X140337181Y-64300500D01*
X140337184Y-64300500D01*
X141242819Y-64300500D01*
X141242820Y-64300499D01*
X141309269Y-64293012D01*
X141375716Y-64285526D01*
X141375717Y-64285525D01*
X141375722Y-64285525D01*
X141544216Y-64226566D01*
X141695366Y-64131593D01*
X141821593Y-64005366D01*
X141916566Y-63854216D01*
X141942958Y-63778791D01*
X141983680Y-63722016D01*
X142048632Y-63696268D01*
X142117194Y-63709724D01*
X142167597Y-63758111D01*
X142177042Y-63778792D01*
X142203432Y-63854212D01*
X142203433Y-63854214D01*
X142203434Y-63854216D01*
X142298407Y-64005366D01*
X142424634Y-64131593D01*
X142575784Y-64226566D01*
X142744278Y-64285525D01*
X142744281Y-64285525D01*
X142744283Y-64285526D01*
X142825264Y-64294650D01*
X142877178Y-64300499D01*
X142877181Y-64300500D01*
X142877184Y-64300500D01*
X143782819Y-64300500D01*
X143782820Y-64300499D01*
X143849269Y-64293012D01*
X143915716Y-64285526D01*
X143915717Y-64285525D01*
X143915722Y-64285525D01*
X144084216Y-64226566D01*
X144235366Y-64131593D01*
X144361593Y-64005366D01*
X144456566Y-63854216D01*
X144482958Y-63778791D01*
X144523680Y-63722016D01*
X144588632Y-63696268D01*
X144657194Y-63709724D01*
X144707597Y-63758111D01*
X144717042Y-63778792D01*
X144743432Y-63854212D01*
X144743433Y-63854214D01*
X144743434Y-63854216D01*
X144838407Y-64005366D01*
X144964634Y-64131593D01*
X145115784Y-64226566D01*
X145284278Y-64285525D01*
X145284281Y-64285525D01*
X145284283Y-64285526D01*
X145365264Y-64294650D01*
X145417178Y-64300499D01*
X145417181Y-64300500D01*
X146024253Y-64300500D01*
X146091292Y-64320185D01*
X146137047Y-64372989D01*
X146146991Y-64442147D01*
X146117966Y-64505703D01*
X146111934Y-64512181D01*
X145080935Y-65543181D01*
X145019612Y-65576666D01*
X144993254Y-65579500D01*
X130636047Y-65579500D01*
X130569008Y-65559815D01*
X130548366Y-65543181D01*
X130493213Y-65488028D01*
X130327614Y-65367715D01*
X130321006Y-65364348D01*
X130234917Y-65320483D01*
X130184123Y-65272511D01*
X130167328Y-65204690D01*
X130189865Y-65138555D01*
X130234917Y-65099516D01*
X130327610Y-65052287D01*
X130363841Y-65025964D01*
X130493213Y-64931971D01*
X130493215Y-64931968D01*
X130493219Y-64931966D01*
X130637966Y-64787219D01*
X130637968Y-64787215D01*
X130637971Y-64787213D01*
X130690732Y-64714590D01*
X130758287Y-64621610D01*
X130851220Y-64439219D01*
X130914477Y-64244534D01*
X130946500Y-64042352D01*
X130946500Y-63837648D01*
X130914477Y-63635466D01*
X130851220Y-63440781D01*
X130851218Y-63440778D01*
X130851218Y-63440776D01*
X130817503Y-63374607D01*
X130758287Y-63258390D01*
X130745315Y-63240536D01*
X130637971Y-63092786D01*
X130493213Y-62948028D01*
X130327613Y-62827715D01*
X130327612Y-62827714D01*
X130327610Y-62827713D01*
X130270653Y-62798691D01*
X130145223Y-62734781D01*
X129950534Y-62671522D01*
X129775995Y-62643878D01*
X129748352Y-62639500D01*
X129543648Y-62639500D01*
X129519329Y-62643351D01*
X129341465Y-62671522D01*
X129146776Y-62734781D01*
X128964386Y-62827715D01*
X128798786Y-62948028D01*
X128798782Y-62948032D01*
X128743634Y-63003181D01*
X128682311Y-63036666D01*
X128655953Y-63039500D01*
X128521304Y-63039500D01*
X128347339Y-63074103D01*
X128347323Y-63074108D01*
X128231453Y-63122102D01*
X128231454Y-63122103D01*
X128183454Y-63141986D01*
X128059291Y-63224950D01*
X128059290Y-63224951D01*
X128035962Y-63240537D01*
X126250533Y-65025966D01*
X126235310Y-65048750D01*
X126235302Y-65048763D01*
X126232948Y-65052287D01*
X126151987Y-65173453D01*
X126124216Y-65240500D01*
X126121181Y-65247826D01*
X126121178Y-65247832D01*
X126084105Y-65337333D01*
X126084103Y-65337341D01*
X126049500Y-65511303D01*
X126049500Y-74322538D01*
X126084103Y-74496501D01*
X126084105Y-74496508D01*
X126096548Y-74526547D01*
X126151987Y-74660389D01*
X126170899Y-74688692D01*
X126176137Y-74696531D01*
X126250537Y-74807880D01*
X126250538Y-74807881D01*
X134153181Y-82710522D01*
X134186666Y-82771845D01*
X134189500Y-82798203D01*
X134189500Y-82944486D01*
X134219059Y-83131118D01*
X134277454Y-83310836D01*
X134358106Y-83469123D01*
X134363240Y-83479199D01*
X134474310Y-83632073D01*
X134607927Y-83765690D01*
X134760801Y-83876760D01*
X134823599Y-83908757D01*
X134929163Y-83962545D01*
X134929165Y-83962545D01*
X134929168Y-83962547D01*
X135025497Y-83993846D01*
X135108881Y-84020940D01*
X135295514Y-84050500D01*
X135295519Y-84050500D01*
X135484486Y-84050500D01*
X135671118Y-84020940D01*
X135850832Y-83962547D01*
X136019199Y-83876760D01*
X136172073Y-83765690D01*
X136305690Y-83632073D01*
X136416760Y-83479199D01*
X136502547Y-83310832D01*
X136560940Y-83131118D01*
X136561412Y-83128140D01*
X136590500Y-82944486D01*
X136590500Y-82755513D01*
X136560940Y-82568881D01*
X136533846Y-82485497D01*
X136502547Y-82389168D01*
X136502545Y-82389165D01*
X136502545Y-82389163D01*
X136416759Y-82220800D01*
X136412306Y-82214671D01*
X136305690Y-82067927D01*
X136172073Y-81934310D01*
X136019199Y-81823240D01*
X136011111Y-81819119D01*
X135850836Y-81737454D01*
X135695872Y-81687103D01*
X135646510Y-81656853D01*
X135341839Y-81352181D01*
X135308354Y-81290858D01*
X135313338Y-81221166D01*
X135355210Y-81165233D01*
X135420674Y-81140816D01*
X135429520Y-81140500D01*
X136162819Y-81140500D01*
X136162820Y-81140499D01*
X136229269Y-81133012D01*
X136295716Y-81125526D01*
X136295717Y-81125525D01*
X136295722Y-81125525D01*
X136464216Y-81066566D01*
X136615366Y-80971593D01*
X136741593Y-80845366D01*
X136836566Y-80694216D01*
X136862958Y-80618791D01*
X136903680Y-80562016D01*
X136968632Y-80536268D01*
X137037194Y-80549724D01*
X137087597Y-80598111D01*
X137097042Y-80618792D01*
X137123432Y-80694212D01*
X137123433Y-80694214D01*
X137218407Y-80845366D01*
X137313181Y-80940140D01*
X137346666Y-81001463D01*
X137349500Y-81027821D01*
X137349500Y-83131272D01*
X137384103Y-83305235D01*
X137384106Y-83305245D01*
X137400660Y-83345209D01*
X137451985Y-83469120D01*
X137505669Y-83549462D01*
X137505669Y-83549463D01*
X137550537Y-83616614D01*
X137550540Y-83616617D01*
X140948744Y-87014819D01*
X140982229Y-87076142D01*
X140977245Y-87145834D01*
X140935373Y-87201767D01*
X140869909Y-87226184D01*
X140861063Y-87226500D01*
X137651362Y-87226500D01*
X137584323Y-87206815D01*
X137563681Y-87190181D01*
X137024039Y-86650538D01*
X137023655Y-86650281D01*
X136941719Y-86595534D01*
X136876547Y-86551987D01*
X136845591Y-86539164D01*
X136838124Y-86534768D01*
X136831542Y-86527746D01*
X136813360Y-86515597D01*
X136732075Y-86434312D01*
X136732073Y-86434310D01*
X136579199Y-86323240D01*
X136555577Y-86311204D01*
X136410836Y-86237454D01*
X136231118Y-86179059D01*
X136044486Y-86149500D01*
X136044481Y-86149500D01*
X135855519Y-86149500D01*
X135855514Y-86149500D01*
X135668881Y-86179059D01*
X135489163Y-86237454D01*
X135320800Y-86323240D01*
X135261409Y-86366391D01*
X135167927Y-86434310D01*
X135167925Y-86434312D01*
X135167924Y-86434312D01*
X135034312Y-86567924D01*
X135034312Y-86567925D01*
X135034310Y-86567927D01*
X135012833Y-86597488D01*
X134923240Y-86720800D01*
X134837454Y-86889163D01*
X134779059Y-87068881D01*
X134749500Y-87255513D01*
X134749500Y-87444486D01*
X134779059Y-87631118D01*
X134837454Y-87810836D01*
X134923240Y-87979199D01*
X135034310Y-88132073D01*
X135167927Y-88265690D01*
X135236573Y-88315564D01*
X135317940Y-88374682D01*
X135360605Y-88430013D01*
X135366584Y-88499626D01*
X135333978Y-88561421D01*
X135317940Y-88575318D01*
X135167925Y-88684311D01*
X135034312Y-88817924D01*
X135034312Y-88817925D01*
X135034310Y-88817927D01*
X135013698Y-88846297D01*
X134923240Y-88970800D01*
X134837454Y-89139163D01*
X134779059Y-89318881D01*
X134749500Y-89505513D01*
X134749500Y-89694486D01*
X134779059Y-89881118D01*
X134837454Y-90060836D01*
X134923240Y-90229199D01*
X135034310Y-90382073D01*
X135167927Y-90515690D01*
X135235163Y-90564540D01*
X135291319Y-90605340D01*
X135333984Y-90660671D01*
X135339963Y-90730284D01*
X135307357Y-90792079D01*
X135274733Y-90816140D01*
X135260803Y-90823238D01*
X135194768Y-90871216D01*
X135107927Y-90934310D01*
X135107925Y-90934312D01*
X135107924Y-90934312D01*
X134974312Y-91067924D01*
X134974312Y-91067925D01*
X134974310Y-91067927D01*
X134943706Y-91110050D01*
X134863240Y-91220800D01*
X134777454Y-91389163D01*
X134719059Y-91568881D01*
X134689500Y-91755513D01*
X134689500Y-91944486D01*
X134719059Y-92131118D01*
X134777454Y-92310836D01*
X134837128Y-92427951D01*
X134863240Y-92479199D01*
X134974310Y-92632073D01*
X135107927Y-92765690D01*
X135260801Y-92876760D01*
X135340347Y-92917290D01*
X135429163Y-92962545D01*
X135429165Y-92962545D01*
X135429168Y-92962547D01*
X135520824Y-92992328D01*
X135608881Y-93020940D01*
X135795514Y-93050500D01*
X135795519Y-93050500D01*
X135984486Y-93050500D01*
X136171118Y-93020940D01*
X136197515Y-93012363D01*
X136350832Y-92962547D01*
X136519199Y-92876760D01*
X136660385Y-92774181D01*
X136726190Y-92750702D01*
X136733270Y-92750500D01*
X144516501Y-92750500D01*
X144583540Y-92770185D01*
X144629295Y-92822989D01*
X144640501Y-92874500D01*
X144640501Y-93047876D01*
X144646908Y-93107483D01*
X144697202Y-93242328D01*
X144697206Y-93242335D01*
X144783452Y-93357544D01*
X144783455Y-93357547D01*
X144898664Y-93443793D01*
X144898671Y-93443797D01*
X145033517Y-93494091D01*
X145033516Y-93494091D01*
X145040444Y-93494835D01*
X145093127Y-93500500D01*
X146988872Y-93500499D01*
X147048483Y-93494091D01*
X147183331Y-93443796D01*
X147298546Y-93357546D01*
X147384796Y-93242331D01*
X147435091Y-93107483D01*
X147441500Y-93047873D01*
X147441499Y-91152128D01*
X147435091Y-91092517D01*
X147425918Y-91067924D01*
X147384797Y-90957671D01*
X147384793Y-90957665D01*
X147378165Y-90948810D01*
X147353748Y-90883346D01*
X147368600Y-90815073D01*
X147418005Y-90765668D01*
X147477432Y-90750500D01*
X148957430Y-90750500D01*
X149024469Y-90770185D01*
X149045111Y-90786819D01*
X149281184Y-91022892D01*
X149314669Y-91084215D01*
X149309685Y-91153907D01*
X149292618Y-91182964D01*
X149293621Y-91183693D01*
X149161187Y-91365974D01*
X149061104Y-91562393D01*
X149061103Y-91562396D01*
X148992985Y-91772047D01*
X148958500Y-91989778D01*
X148958500Y-92210221D01*
X148992985Y-92427952D01*
X149061103Y-92637603D01*
X149061104Y-92637606D01*
X149126366Y-92765687D01*
X149155563Y-92822989D01*
X149161187Y-92834025D01*
X149290752Y-93012358D01*
X149290756Y-93012363D01*
X149446636Y-93168243D01*
X149446641Y-93168247D01*
X149559854Y-93250500D01*
X149624978Y-93297815D01*
X149753375Y-93363237D01*
X149821393Y-93397895D01*
X149821396Y-93397896D01*
X149926221Y-93431955D01*
X150031049Y-93466015D01*
X150248778Y-93500500D01*
X150248779Y-93500500D01*
X150469221Y-93500500D01*
X150469222Y-93500500D01*
X150686951Y-93466015D01*
X150896606Y-93397895D01*
X151093022Y-93297815D01*
X151271365Y-93168242D01*
X151350819Y-93088788D01*
X151412142Y-93055303D01*
X151481834Y-93060287D01*
X151526181Y-93088788D01*
X151605636Y-93168243D01*
X151605641Y-93168247D01*
X151718854Y-93250500D01*
X151783978Y-93297815D01*
X151912375Y-93363237D01*
X151980393Y-93397895D01*
X151980396Y-93397896D01*
X152085221Y-93431955D01*
X152190049Y-93466015D01*
X152407778Y-93500500D01*
X152407779Y-93500500D01*
X152628221Y-93500500D01*
X152628222Y-93500500D01*
X152845951Y-93466015D01*
X153055606Y-93397895D01*
X153252022Y-93297815D01*
X153430365Y-93168242D01*
X153586242Y-93012365D01*
X153715815Y-92834022D01*
X153815895Y-92637606D01*
X153884015Y-92427951D01*
X153918500Y-92210222D01*
X153918500Y-91989778D01*
X153884015Y-91772049D01*
X153815895Y-91562394D01*
X153815895Y-91562393D01*
X153781237Y-91494375D01*
X153715815Y-91365978D01*
X153676884Y-91312394D01*
X153586248Y-91187642D01*
X153586244Y-91187638D01*
X153586242Y-91187635D01*
X153454818Y-91056211D01*
X153421334Y-90994888D01*
X153418500Y-90968530D01*
X153418500Y-90633359D01*
X153406491Y-90572989D01*
X153404811Y-90564542D01*
X153395760Y-90519040D01*
X153383896Y-90459393D01*
X153383895Y-90459386D01*
X153323898Y-90314542D01*
X153316013Y-90295505D01*
X153217464Y-90148017D01*
X153092035Y-90022588D01*
X152574960Y-89505513D01*
X150496987Y-87427538D01*
X150496986Y-87427537D01*
X150477179Y-87414303D01*
X150414971Y-87372737D01*
X150349495Y-87328987D01*
X150267554Y-87295046D01*
X150262219Y-87292836D01*
X150262217Y-87292835D01*
X150185614Y-87261105D01*
X150185606Y-87261103D01*
X150011644Y-87226500D01*
X150011640Y-87226500D01*
X150011639Y-87226500D01*
X148671915Y-87226500D01*
X148604876Y-87206815D01*
X148559121Y-87154011D01*
X148549177Y-87084853D01*
X148578202Y-87021297D01*
X148584234Y-87014819D01*
X149599909Y-85999142D01*
X149805279Y-85793771D01*
X149854641Y-85763523D01*
X149968406Y-85726559D01*
X149968412Y-85726557D01*
X150157816Y-85630051D01*
X150195195Y-85602894D01*
X150329786Y-85505109D01*
X150329788Y-85505106D01*
X150329792Y-85505104D01*
X150480104Y-85354792D01*
X150480106Y-85354788D01*
X150480109Y-85354786D01*
X150605048Y-85182820D01*
X150605047Y-85182820D01*
X150605051Y-85182816D01*
X150701557Y-84993412D01*
X150767246Y-84791243D01*
X150800500Y-84581287D01*
X150800500Y-84118713D01*
X150767246Y-83908757D01*
X150701557Y-83706588D01*
X150605051Y-83517184D01*
X150605049Y-83517181D01*
X150605048Y-83517179D01*
X150480109Y-83345213D01*
X150329786Y-83194890D01*
X150157820Y-83069951D01*
X149968414Y-82973444D01*
X149968413Y-82973443D01*
X149968412Y-82973443D01*
X149766243Y-82907754D01*
X149766241Y-82907753D01*
X149766240Y-82907753D01*
X149604957Y-82882208D01*
X149556287Y-82874500D01*
X149343713Y-82874500D01*
X149295042Y-82882208D01*
X149133760Y-82907753D01*
X148931585Y-82973444D01*
X148742179Y-83069951D01*
X148570213Y-83194890D01*
X148419894Y-83345209D01*
X148419890Y-83345214D01*
X148300318Y-83509793D01*
X148244989Y-83552459D01*
X148175375Y-83558438D01*
X148113580Y-83525833D01*
X148099682Y-83509793D01*
X147980109Y-83345214D01*
X147980105Y-83345209D01*
X147894051Y-83259155D01*
X147860566Y-83197832D01*
X147865550Y-83128140D01*
X147907422Y-83072207D01*
X147957537Y-83049857D01*
X148128282Y-83015895D01*
X148210222Y-82981953D01*
X148292163Y-82948013D01*
X148380575Y-82888936D01*
X148439652Y-82849464D01*
X149109463Y-82179652D01*
X149109464Y-82179651D01*
X149208013Y-82032163D01*
X149241953Y-81950222D01*
X149275895Y-81868282D01*
X149310500Y-81694308D01*
X149310500Y-81516924D01*
X149310500Y-81027821D01*
X149330185Y-80960782D01*
X149346819Y-80940140D01*
X149441593Y-80845366D01*
X149536566Y-80694216D01*
X149595525Y-80525722D01*
X149610500Y-80392816D01*
X149610500Y-77887184D01*
X149595525Y-77754278D01*
X149538788Y-77592135D01*
X152289500Y-77592135D01*
X152289500Y-80687870D01*
X152289501Y-80687876D01*
X152295908Y-80747483D01*
X152346202Y-80882328D01*
X152346206Y-80882335D01*
X152432452Y-80997544D01*
X152432455Y-80997547D01*
X152547664Y-81083793D01*
X152547671Y-81083797D01*
X152682517Y-81134091D01*
X152682516Y-81134091D01*
X152689444Y-81134835D01*
X152742127Y-81140500D01*
X153950973Y-81140501D01*
X154035050Y-81129940D01*
X154168016Y-81074863D01*
X154234935Y-81022879D01*
X154572882Y-80684931D01*
X154624864Y-80618017D01*
X154679940Y-80485050D01*
X154690500Y-80400977D01*
X154690499Y-77592128D01*
X154684091Y-77532517D01*
X154633796Y-77397669D01*
X154633795Y-77397668D01*
X154633793Y-77397664D01*
X154547547Y-77282455D01*
X154547544Y-77282452D01*
X154432335Y-77196206D01*
X154432328Y-77196202D01*
X154297482Y-77145908D01*
X154297483Y-77145908D01*
X154237883Y-77139501D01*
X154237881Y-77139500D01*
X154237873Y-77139500D01*
X154237864Y-77139500D01*
X152742129Y-77139500D01*
X152742123Y-77139501D01*
X152682516Y-77145908D01*
X152547671Y-77196202D01*
X152547664Y-77196206D01*
X152432455Y-77282452D01*
X152432452Y-77282455D01*
X152346206Y-77397664D01*
X152346202Y-77397671D01*
X152295908Y-77532517D01*
X152289501Y-77592116D01*
X152289501Y-77592123D01*
X152289500Y-77592135D01*
X149538788Y-77592135D01*
X149536566Y-77585784D01*
X149441593Y-77434634D01*
X149315366Y-77308407D01*
X149164216Y-77213434D01*
X149164215Y-77213433D01*
X149164214Y-77213433D01*
X149164212Y-77213432D01*
X148995716Y-77154473D01*
X148862822Y-77139500D01*
X148862816Y-77139500D01*
X147957184Y-77139500D01*
X147957177Y-77139500D01*
X147824283Y-77154473D01*
X147655787Y-77213432D01*
X147655785Y-77213433D01*
X147504633Y-77308407D01*
X147378407Y-77434633D01*
X147283433Y-77585785D01*
X147257042Y-77661208D01*
X147216320Y-77717984D01*
X147151367Y-77743731D01*
X147082805Y-77730275D01*
X147032403Y-77681888D01*
X147022958Y-77661208D01*
X146998786Y-77592128D01*
X146996566Y-77585784D01*
X146901593Y-77434634D01*
X146775366Y-77308407D01*
X146624216Y-77213434D01*
X146624215Y-77213433D01*
X146624214Y-77213433D01*
X146624212Y-77213432D01*
X146455716Y-77154473D01*
X146374720Y-77145347D01*
X146310306Y-77118280D01*
X146300923Y-77109808D01*
X142591651Y-73400535D01*
X142591646Y-73400531D01*
X142537238Y-73364178D01*
X142537232Y-73364175D01*
X142532575Y-73361063D01*
X142444163Y-73301987D01*
X142362222Y-73268046D01*
X142325381Y-73252786D01*
X142280282Y-73234105D01*
X142280274Y-73234103D01*
X142106312Y-73199500D01*
X142106308Y-73199500D01*
X142106307Y-73199500D01*
X130636047Y-73199500D01*
X130569008Y-73179815D01*
X130548366Y-73163181D01*
X130493213Y-73108028D01*
X130327614Y-72987715D01*
X130321006Y-72984348D01*
X130234917Y-72940483D01*
X130184123Y-72892511D01*
X130167328Y-72824690D01*
X130189865Y-72758555D01*
X130234917Y-72719516D01*
X130327610Y-72672287D01*
X130348770Y-72656913D01*
X130493213Y-72551971D01*
X130493215Y-72551968D01*
X130493219Y-72551966D01*
X130548366Y-72496819D01*
X130609689Y-72463334D01*
X130636047Y-72460500D01*
X145506309Y-72460500D01*
X145506310Y-72460499D01*
X145680282Y-72425895D01*
X145762222Y-72391953D01*
X145844163Y-72358013D01*
X145935632Y-72296895D01*
X145991652Y-72259464D01*
X153920926Y-64330188D01*
X153982247Y-64296705D01*
X153994702Y-64294653D01*
X154075722Y-64285525D01*
X154244216Y-64226566D01*
X154395366Y-64131593D01*
X154521593Y-64005366D01*
X154616566Y-63854216D01*
X154675525Y-63685722D01*
X154690500Y-63552816D01*
X154690500Y-61047184D01*
X154675525Y-60914278D01*
X154616566Y-60745784D01*
X154521593Y-60594634D01*
X154395366Y-60468407D01*
X154244216Y-60373434D01*
X154244215Y-60373433D01*
X154244214Y-60373433D01*
X154244212Y-60373432D01*
X154075716Y-60314473D01*
X153942822Y-60299500D01*
X153942816Y-60299500D01*
X153037184Y-60299500D01*
X153037177Y-60299500D01*
X152904283Y-60314473D01*
X152735787Y-60373432D01*
X152735785Y-60373433D01*
X152584633Y-60468407D01*
X152458407Y-60594633D01*
X152363433Y-60745785D01*
X152337042Y-60821208D01*
X152296320Y-60877984D01*
X152231367Y-60903731D01*
X152162805Y-60890275D01*
X152112403Y-60841888D01*
X152102958Y-60821208D01*
X152076566Y-60745785D01*
X152076566Y-60745784D01*
X151981593Y-60594634D01*
X151855366Y-60468407D01*
X151704216Y-60373434D01*
X151704215Y-60373433D01*
X151704214Y-60373433D01*
X151704212Y-60373432D01*
X151535716Y-60314473D01*
X151402822Y-60299500D01*
X151402816Y-60299500D01*
X150497184Y-60299500D01*
X150497177Y-60299500D01*
X150364283Y-60314473D01*
X150195787Y-60373432D01*
X150195785Y-60373433D01*
X150044633Y-60468407D01*
X149918407Y-60594633D01*
X149823433Y-60745785D01*
X149797042Y-60821208D01*
X149756320Y-60877984D01*
X149691367Y-60903731D01*
X149622805Y-60890275D01*
X149572403Y-60841888D01*
X149562958Y-60821208D01*
X149536566Y-60745785D01*
X149536566Y-60745784D01*
X149441593Y-60594634D01*
X149315366Y-60468407D01*
X149164216Y-60373434D01*
X149164215Y-60373433D01*
X149164214Y-60373433D01*
X149164212Y-60373432D01*
X148995716Y-60314473D01*
X148862822Y-60299500D01*
X148862816Y-60299500D01*
X147957184Y-60299500D01*
X147957177Y-60299500D01*
X147824283Y-60314473D01*
X147655787Y-60373432D01*
X147655785Y-60373433D01*
X147504633Y-60468407D01*
X147378407Y-60594633D01*
X147283433Y-60745785D01*
X147257042Y-60821208D01*
X147216320Y-60877984D01*
X147151367Y-60903731D01*
X147082805Y-60890275D01*
X147032403Y-60841888D01*
X147022958Y-60821208D01*
X146996566Y-60745785D01*
X146996566Y-60745784D01*
X146901593Y-60594634D01*
X146775366Y-60468407D01*
X146624216Y-60373434D01*
X146624215Y-60373433D01*
X146624214Y-60373433D01*
X146624212Y-60373432D01*
X146455716Y-60314473D01*
X146322822Y-60299500D01*
X146322816Y-60299500D01*
X145417184Y-60299500D01*
X145417177Y-60299500D01*
X145284283Y-60314473D01*
X145115787Y-60373432D01*
X145115785Y-60373433D01*
X144964633Y-60468407D01*
X144838407Y-60594633D01*
X144743433Y-60745785D01*
X144717042Y-60821208D01*
X144676320Y-60877984D01*
X144611367Y-60903731D01*
X144542805Y-60890275D01*
X144492403Y-60841888D01*
X144482958Y-60821208D01*
X144456566Y-60745785D01*
X144456566Y-60745784D01*
X144361593Y-60594634D01*
X144266818Y-60499859D01*
X144233334Y-60438535D01*
X144230500Y-60412178D01*
X144230500Y-60011306D01*
X144230499Y-60011304D01*
X144195896Y-59837341D01*
X144195893Y-59837332D01*
X144128016Y-59673459D01*
X144128009Y-59673446D01*
X144029465Y-59525966D01*
X144029464Y-59525965D01*
X143904035Y-59400536D01*
X141433032Y-56929532D01*
X141399547Y-56868209D01*
X141398240Y-56861249D01*
X141391583Y-56819219D01*
X141370940Y-56688882D01*
X141312547Y-56509168D01*
X141312545Y-56509165D01*
X141312545Y-56509163D01*
X141226759Y-56340800D01*
X141115690Y-56187927D01*
X140982073Y-56054310D01*
X140829199Y-55943240D01*
X140660836Y-55857454D01*
X140481118Y-55799059D01*
X140294486Y-55769500D01*
X140294481Y-55769500D01*
X140105519Y-55769500D01*
X140105514Y-55769500D01*
X139918881Y-55799059D01*
X139739163Y-55857454D01*
X139570800Y-55943240D01*
X139483579Y-56006610D01*
X139417927Y-56054310D01*
X139417925Y-56054312D01*
X139417924Y-56054312D01*
X139411181Y-56061056D01*
X139349858Y-56094541D01*
X139280166Y-56089557D01*
X139224233Y-56047685D01*
X139199816Y-55982221D01*
X139199500Y-55973375D01*
X139199500Y-54136766D01*
X139219185Y-54069727D01*
X139220398Y-54067875D01*
X139231014Y-54051987D01*
X139248013Y-54026547D01*
X139315895Y-53862666D01*
X139350500Y-53688692D01*
X139350500Y-53511309D01*
X139345740Y-53487380D01*
X139315895Y-53337334D01*
X139284404Y-53261309D01*
X139248013Y-53173454D01*
X139248011Y-53173451D01*
X139248009Y-53173447D01*
X139149464Y-53025965D01*
X139149461Y-53025961D01*
X135576819Y-49453319D01*
X135543334Y-49391996D01*
X135540500Y-49365638D01*
X135540500Y-46505513D01*
X137059500Y-46505513D01*
X137059500Y-46694486D01*
X137089059Y-46881118D01*
X137147454Y-47060836D01*
X137233240Y-47229199D01*
X137344310Y-47382073D01*
X137477927Y-47515690D01*
X137630801Y-47626760D01*
X137710347Y-47667290D01*
X137799163Y-47712545D01*
X137799165Y-47712545D01*
X137799168Y-47712547D01*
X137961653Y-47765342D01*
X137978882Y-47770940D01*
X138151249Y-47798240D01*
X138214384Y-47828169D01*
X138219533Y-47833032D01*
X138409536Y-48023035D01*
X138474280Y-48087779D01*
X138534966Y-48148465D01*
X138682446Y-48247009D01*
X138682459Y-48247016D01*
X138747468Y-48273943D01*
X138846334Y-48314894D01*
X138888935Y-48323368D01*
X139020305Y-48349500D01*
X139020308Y-48349500D01*
X139020309Y-48349500D01*
X139203375Y-48349500D01*
X139270414Y-48369185D01*
X139316169Y-48421989D01*
X139326113Y-48491147D01*
X139297088Y-48554703D01*
X139291056Y-48561181D01*
X139284312Y-48567924D01*
X139284312Y-48567925D01*
X139284310Y-48567927D01*
X139236610Y-48633579D01*
X139173240Y-48720800D01*
X139087454Y-48889163D01*
X139029059Y-49068881D01*
X138999500Y-49255513D01*
X138999500Y-49444486D01*
X139029059Y-49631118D01*
X139087454Y-49810836D01*
X139122029Y-49878692D01*
X139173240Y-49979199D01*
X139275819Y-50120386D01*
X139299298Y-50186189D01*
X139299500Y-50193269D01*
X139299500Y-50688696D01*
X139334103Y-50862658D01*
X139334105Y-50862666D01*
X139365526Y-50938524D01*
X139365529Y-50938529D01*
X139368046Y-50944606D01*
X139401987Y-51026547D01*
X139461063Y-51114959D01*
X139464169Y-51119607D01*
X139464172Y-51119613D01*
X139500534Y-51174034D01*
X139500535Y-51174035D01*
X139500536Y-51174036D01*
X142250536Y-53924035D01*
X142353045Y-54026544D01*
X142375966Y-54049465D01*
X142523446Y-54148009D01*
X142523459Y-54148016D01*
X142642234Y-54197213D01*
X142687334Y-54215894D01*
X142729935Y-54224368D01*
X142861305Y-54250500D01*
X142861308Y-54250500D01*
X142861309Y-54250500D01*
X143017209Y-54250500D01*
X143084248Y-54270185D01*
X143130003Y-54322989D01*
X143133391Y-54331167D01*
X143156202Y-54392328D01*
X143156206Y-54392335D01*
X143242452Y-54507544D01*
X143242455Y-54507547D01*
X143357664Y-54593793D01*
X143357671Y-54593797D01*
X143492517Y-54644091D01*
X143492516Y-54644091D01*
X143499444Y-54644835D01*
X143552127Y-54650500D01*
X145247872Y-54650499D01*
X145307483Y-54644091D01*
X145442331Y-54593796D01*
X145557546Y-54507546D01*
X145643796Y-54392331D01*
X145694091Y-54257483D01*
X145700500Y-54197873D01*
X145700499Y-53247648D01*
X150699500Y-53247648D01*
X150699500Y-53452351D01*
X150731522Y-53654534D01*
X150794781Y-53849223D01*
X150832977Y-53924185D01*
X150885133Y-54026547D01*
X150887715Y-54031613D01*
X151008028Y-54197213D01*
X151152786Y-54341971D01*
X151307749Y-54454556D01*
X151318390Y-54462287D01*
X151407212Y-54507544D01*
X151500776Y-54555218D01*
X151500778Y-54555218D01*
X151500781Y-54555220D01*
X151605137Y-54589127D01*
X151695465Y-54618477D01*
X151796557Y-54634488D01*
X151897648Y-54650500D01*
X151897649Y-54650500D01*
X152102351Y-54650500D01*
X152102352Y-54650500D01*
X152304534Y-54618477D01*
X152499219Y-54555220D01*
X152681610Y-54462287D01*
X152777901Y-54392328D01*
X152847213Y-54341971D01*
X152847215Y-54341968D01*
X152847219Y-54341966D01*
X152991966Y-54197219D01*
X152991968Y-54197215D01*
X152991971Y-54197213D01*
X153063942Y-54098152D01*
X153112287Y-54031610D01*
X153205220Y-53849219D01*
X153268477Y-53654534D01*
X153300500Y-53452352D01*
X153300500Y-53247648D01*
X153268477Y-53045466D01*
X153262139Y-53025961D01*
X153205218Y-52850776D01*
X153171503Y-52784607D01*
X153112287Y-52668390D01*
X153082825Y-52627839D01*
X152991971Y-52502786D01*
X152847213Y-52358028D01*
X152681613Y-52237715D01*
X152681612Y-52237714D01*
X152681610Y-52237713D01*
X152601573Y-52196932D01*
X152499223Y-52144781D01*
X152304534Y-52081522D01*
X152129995Y-52053878D01*
X152102352Y-52049500D01*
X151897648Y-52049500D01*
X151873329Y-52053351D01*
X151695465Y-52081522D01*
X151500776Y-52144781D01*
X151318386Y-52237715D01*
X151152786Y-52358028D01*
X151008028Y-52502786D01*
X150887715Y-52668386D01*
X150794781Y-52850776D01*
X150731522Y-53045465D01*
X150699500Y-53247648D01*
X145700499Y-53247648D01*
X145700499Y-52502128D01*
X145694091Y-52442517D01*
X145643796Y-52307669D01*
X145643795Y-52307668D01*
X145643793Y-52307664D01*
X145557547Y-52192455D01*
X145557544Y-52192452D01*
X145442335Y-52106206D01*
X145442328Y-52106202D01*
X145307482Y-52055908D01*
X145307483Y-52055908D01*
X145247883Y-52049501D01*
X145247881Y-52049500D01*
X145247873Y-52049500D01*
X145247864Y-52049500D01*
X143552129Y-52049500D01*
X143552123Y-52049501D01*
X143492516Y-52055908D01*
X143357671Y-52106202D01*
X143357664Y-52106206D01*
X143242455Y-52192452D01*
X143241878Y-52193030D01*
X143241161Y-52193420D01*
X143235355Y-52197768D01*
X143234729Y-52196932D01*
X143180552Y-52226510D01*
X143110861Y-52221521D01*
X143066522Y-52193023D01*
X141144238Y-50270738D01*
X141110753Y-50209415D01*
X141115737Y-50139723D01*
X141131599Y-50110175D01*
X141226760Y-49979199D01*
X141312547Y-49810832D01*
X141370940Y-49631118D01*
X141400500Y-49444486D01*
X141400500Y-49255513D01*
X141370940Y-49068881D01*
X141343846Y-48985497D01*
X141312547Y-48889168D01*
X141312545Y-48889165D01*
X141312545Y-48889163D01*
X141267290Y-48800347D01*
X141226760Y-48720801D01*
X141115690Y-48567927D01*
X141108944Y-48561181D01*
X141075459Y-48499858D01*
X141080443Y-48430166D01*
X141122315Y-48374233D01*
X141187779Y-48349816D01*
X141196625Y-48349500D01*
X150439485Y-48349500D01*
X150439486Y-48349499D01*
X150613458Y-48314895D01*
X150719573Y-48270940D01*
X150777339Y-48247013D01*
X150879037Y-48179060D01*
X150924828Y-48148464D01*
X153626463Y-45446828D01*
X153626558Y-45446686D01*
X153725013Y-45299339D01*
X153792894Y-45135458D01*
X153810024Y-45049339D01*
X153821705Y-44990617D01*
X153827500Y-44961485D01*
X153827500Y-44731469D01*
X153847185Y-44664430D01*
X153863819Y-44643788D01*
X153917658Y-44589949D01*
X153995242Y-44512365D01*
X154124815Y-44334022D01*
X154224895Y-44137606D01*
X154293015Y-43927951D01*
X154327500Y-43710222D01*
X154327500Y-43489778D01*
X154293015Y-43272049D01*
X154253197Y-43149500D01*
X154224896Y-43062396D01*
X154224895Y-43062393D01*
X154164197Y-42943269D01*
X154124815Y-42865978D01*
X154085884Y-42812394D01*
X153995247Y-42687641D01*
X153995243Y-42687636D01*
X153839363Y-42531756D01*
X153839358Y-42531752D01*
X153661025Y-42402187D01*
X153661024Y-42402186D01*
X153661022Y-42402185D01*
X153580609Y-42361212D01*
X153464606Y-42302104D01*
X153464603Y-42302103D01*
X153254952Y-42233985D01*
X153088811Y-42207671D01*
X153037222Y-42199500D01*
X152816778Y-42199500D01*
X152765233Y-42207664D01*
X152599047Y-42233985D01*
X152389396Y-42302103D01*
X152389393Y-42302104D01*
X152192974Y-42402187D01*
X152014641Y-42531752D01*
X152014636Y-42531756D01*
X151935181Y-42611212D01*
X151873858Y-42644697D01*
X151804166Y-42639713D01*
X151759819Y-42611212D01*
X151680363Y-42531756D01*
X151680358Y-42531752D01*
X151502025Y-42402187D01*
X151502024Y-42402186D01*
X151502022Y-42402185D01*
X151421609Y-42361212D01*
X151305606Y-42302104D01*
X151305603Y-42302103D01*
X151095952Y-42233985D01*
X150929811Y-42207671D01*
X150878222Y-42199500D01*
X150657778Y-42199500D01*
X150606233Y-42207664D01*
X150440047Y-42233985D01*
X150230396Y-42302103D01*
X150230393Y-42302104D01*
X150033974Y-42402187D01*
X149855641Y-42531752D01*
X149855636Y-42531756D01*
X149699756Y-42687636D01*
X149699752Y-42687641D01*
X149570187Y-42865974D01*
X149470104Y-43062393D01*
X149470103Y-43062396D01*
X149401985Y-43272047D01*
X149379344Y-43414999D01*
X149367500Y-43489778D01*
X149367500Y-43710222D01*
X149369176Y-43720801D01*
X149401985Y-43927952D01*
X149470103Y-44137603D01*
X149470104Y-44137606D01*
X149530146Y-44255443D01*
X149543042Y-44324112D01*
X149516766Y-44388853D01*
X149507342Y-44399419D01*
X148995582Y-44911181D01*
X148934259Y-44944666D01*
X148907901Y-44947500D01*
X147887929Y-44947500D01*
X147820890Y-44927815D01*
X147775135Y-44875011D01*
X147765191Y-44805853D01*
X147788662Y-44749189D01*
X147793796Y-44742331D01*
X147844091Y-44607483D01*
X147850500Y-44547873D01*
X147850499Y-42652128D01*
X147844091Y-42592517D01*
X147832273Y-42560832D01*
X147793797Y-42457671D01*
X147793793Y-42457664D01*
X147707547Y-42342455D01*
X147707544Y-42342452D01*
X147592335Y-42256206D01*
X147592328Y-42256202D01*
X147457482Y-42205908D01*
X147457483Y-42205908D01*
X147397883Y-42199501D01*
X147397881Y-42199500D01*
X147397873Y-42199500D01*
X147397865Y-42199500D01*
X146432362Y-42199500D01*
X146365323Y-42179815D01*
X146344681Y-42163181D01*
X145582039Y-41400538D01*
X145582038Y-41400537D01*
X145563099Y-41387883D01*
X145500861Y-41346297D01*
X145434547Y-41301987D01*
X145352606Y-41268046D01*
X145347241Y-41265824D01*
X145347236Y-41265821D01*
X145270666Y-41234105D01*
X145270658Y-41234103D01*
X145096696Y-41199500D01*
X145096692Y-41199500D01*
X145096691Y-41199500D01*
X143103270Y-41199500D01*
X143036231Y-41179815D01*
X143030397Y-41175827D01*
X142889199Y-41073240D01*
X142720836Y-40987454D01*
X142541118Y-40929059D01*
X142354486Y-40899500D01*
X142354481Y-40899500D01*
X142165519Y-40899500D01*
X142165514Y-40899500D01*
X141978881Y-40929059D01*
X141799163Y-40987454D01*
X141630800Y-41073240D01*
X141543579Y-41136610D01*
X141477927Y-41184310D01*
X141477925Y-41184312D01*
X141477924Y-41184312D01*
X141344312Y-41317924D01*
X141344312Y-41317925D01*
X141344310Y-41317927D01*
X141323698Y-41346297D01*
X141233240Y-41470800D01*
X141147454Y-41639163D01*
X141089059Y-41818881D01*
X141059500Y-42005513D01*
X141059500Y-42194486D01*
X141089059Y-42381118D01*
X141147454Y-42560836D01*
X141212065Y-42687641D01*
X141233240Y-42729199D01*
X141344310Y-42882073D01*
X141477927Y-43015690D01*
X141630801Y-43126760D01*
X141675431Y-43149500D01*
X141799163Y-43212545D01*
X141799165Y-43212545D01*
X141799168Y-43212547D01*
X141882976Y-43239778D01*
X141978881Y-43270940D01*
X142165514Y-43300500D01*
X142165519Y-43300500D01*
X142354486Y-43300500D01*
X142541118Y-43270940D01*
X142604025Y-43250500D01*
X142720832Y-43212547D01*
X142889199Y-43126760D01*
X143030385Y-43024181D01*
X143096190Y-43000702D01*
X143103270Y-43000500D01*
X144583638Y-43000500D01*
X144650677Y-43020185D01*
X144671319Y-43036819D01*
X145013181Y-43378680D01*
X145046666Y-43440003D01*
X145049500Y-43466361D01*
X145049500Y-44547870D01*
X145049501Y-44547876D01*
X145055908Y-44607483D01*
X145106202Y-44742328D01*
X145106203Y-44742330D01*
X145111338Y-44749189D01*
X145135755Y-44814653D01*
X145120904Y-44882926D01*
X145071499Y-44932332D01*
X145012071Y-44947500D01*
X142182362Y-44947500D01*
X142115323Y-44927815D01*
X142094681Y-44911181D01*
X141493032Y-44309532D01*
X141459547Y-44248209D01*
X141458240Y-44241249D01*
X141454942Y-44220428D01*
X141430940Y-44068882D01*
X141372547Y-43889168D01*
X141372545Y-43889165D01*
X141372545Y-43889163D01*
X141301447Y-43749626D01*
X141286760Y-43720801D01*
X141175690Y-43567927D01*
X141042073Y-43434310D01*
X140889199Y-43323240D01*
X140720836Y-43237454D01*
X140541118Y-43179059D01*
X140354486Y-43149500D01*
X140354481Y-43149500D01*
X140165519Y-43149500D01*
X140165514Y-43149500D01*
X139978881Y-43179059D01*
X139799163Y-43237454D01*
X139630800Y-43323240D01*
X139554495Y-43378680D01*
X139477927Y-43434310D01*
X139477925Y-43434312D01*
X139477924Y-43434312D01*
X139344312Y-43567924D01*
X139344312Y-43567925D01*
X139344310Y-43567927D01*
X139303207Y-43624500D01*
X139233240Y-43720800D01*
X139147454Y-43889163D01*
X139089059Y-44068881D01*
X139059500Y-44255513D01*
X139059500Y-44444486D01*
X139089059Y-44631118D01*
X139147454Y-44810836D01*
X139224214Y-44961484D01*
X139233240Y-44979199D01*
X139344310Y-45132073D01*
X139477927Y-45265690D01*
X139630801Y-45376760D01*
X139661000Y-45392147D01*
X139799163Y-45462545D01*
X139799165Y-45462545D01*
X139799168Y-45462547D01*
X139978882Y-45520940D01*
X140130428Y-45544942D01*
X140151249Y-45548240D01*
X140214383Y-45578169D01*
X140219532Y-45583032D01*
X140973318Y-46336819D01*
X141006803Y-46398142D01*
X141001819Y-46467834D01*
X140959947Y-46523767D01*
X140894483Y-46548184D01*
X140885637Y-46548500D01*
X139573214Y-46548500D01*
X139506175Y-46528815D01*
X139460420Y-46476011D01*
X139450741Y-46443898D01*
X139430940Y-46318881D01*
X139392150Y-46199500D01*
X139372547Y-46139168D01*
X139372545Y-46139165D01*
X139372545Y-46139163D01*
X139301447Y-45999626D01*
X139286760Y-45970801D01*
X139175690Y-45817927D01*
X139042073Y-45684310D01*
X138889199Y-45573240D01*
X138720836Y-45487454D01*
X138541118Y-45429059D01*
X138354486Y-45399500D01*
X138354481Y-45399500D01*
X138165519Y-45399500D01*
X138165514Y-45399500D01*
X137978881Y-45429059D01*
X137799163Y-45487454D01*
X137630800Y-45573240D01*
X137609197Y-45588936D01*
X137477927Y-45684310D01*
X137477925Y-45684312D01*
X137477924Y-45684312D01*
X137344312Y-45817924D01*
X137344312Y-45817925D01*
X137344310Y-45817927D01*
X137314292Y-45859243D01*
X137233240Y-45970800D01*
X137147454Y-46139163D01*
X137089059Y-46318881D01*
X137059500Y-46505513D01*
X135540500Y-46505513D01*
X135540500Y-42943269D01*
X135560185Y-42876230D01*
X135564160Y-42870413D01*
X135666760Y-42729199D01*
X135752547Y-42560832D01*
X135810940Y-42381118D01*
X135820797Y-42318882D01*
X135840500Y-42194486D01*
X135840500Y-42005513D01*
X135810940Y-41818881D01*
X135772150Y-41699500D01*
X135752547Y-41639168D01*
X135752545Y-41639165D01*
X135752545Y-41639163D01*
X135675245Y-41487454D01*
X135666760Y-41470801D01*
X135555690Y-41317927D01*
X135422073Y-41184310D01*
X135269199Y-41073240D01*
X135100836Y-40987454D01*
X134921118Y-40929059D01*
X134734486Y-40899500D01*
X134734481Y-40899500D01*
X134545519Y-40899500D01*
X134545514Y-40899500D01*
X134358881Y-40929059D01*
X134179163Y-40987454D01*
X134010800Y-41073240D01*
X133923579Y-41136610D01*
X133857927Y-41184310D01*
X133857925Y-41184312D01*
X133857924Y-41184312D01*
X133724311Y-41317925D01*
X133665853Y-41398386D01*
X133610522Y-41441051D01*
X133565535Y-41449500D01*
X121123665Y-41449500D01*
X121085347Y-41443431D01*
X121041115Y-41429059D01*
X120854486Y-41399500D01*
X120854481Y-41399500D01*
X120665519Y-41399500D01*
X120665514Y-41399500D01*
X120478881Y-41429059D01*
X120299163Y-41487454D01*
X120130800Y-41573240D01*
X120053281Y-41629561D01*
X119989614Y-41675818D01*
X119923810Y-41699298D01*
X119916730Y-41699500D01*
X118611303Y-41699500D01*
X118437341Y-41734103D01*
X118437329Y-41734106D01*
X118355392Y-41768045D01*
X118355393Y-41768046D01*
X118273455Y-41801985D01*
X118185040Y-41861063D01*
X118185039Y-41861064D01*
X118125961Y-41900537D01*
X114314750Y-45711748D01*
X114314744Y-45711755D01*
X114216198Y-45859241D01*
X114148315Y-46023123D01*
X114148313Y-46023129D01*
X114129294Y-46118744D01*
X114096909Y-46180655D01*
X114036193Y-46215229D01*
X113966423Y-46211488D01*
X113934262Y-46194483D01*
X113926664Y-46188901D01*
X113922073Y-46184310D01*
X113771847Y-46075164D01*
X113771530Y-46074931D01*
X113750586Y-46047470D01*
X113729394Y-46019988D01*
X113729364Y-46019647D01*
X113729158Y-46019376D01*
X113726380Y-45984901D01*
X113723415Y-45950374D01*
X113723574Y-45950071D01*
X113723547Y-45949732D01*
X113739843Y-45919239D01*
X113756021Y-45888579D01*
X113756408Y-45888243D01*
X113756479Y-45888111D01*
X113756709Y-45887982D01*
X113772059Y-45874682D01*
X113922073Y-45765690D01*
X114055690Y-45632073D01*
X114166760Y-45479199D01*
X114252547Y-45310832D01*
X114310940Y-45131118D01*
X114340500Y-44944486D01*
X114340500Y-44755513D01*
X114310940Y-44568881D01*
X114264874Y-44427107D01*
X114252547Y-44389168D01*
X114252545Y-44389165D01*
X114252545Y-44389163D01*
X114206030Y-44297873D01*
X114166760Y-44220801D01*
X114055690Y-44067927D01*
X113922073Y-43934310D01*
X113772058Y-43825317D01*
X113729394Y-43769988D01*
X113723415Y-43700374D01*
X113756021Y-43638579D01*
X113772059Y-43624682D01*
X113922073Y-43515690D01*
X114055690Y-43382073D01*
X114166760Y-43229199D01*
X114252547Y-43060832D01*
X114310940Y-42881118D01*
X114313339Y-42865974D01*
X114340500Y-42694486D01*
X114340500Y-42505513D01*
X114310940Y-42318881D01*
X114274803Y-42207664D01*
X114252547Y-42139168D01*
X114252545Y-42139165D01*
X114252545Y-42139163D01*
X114207290Y-42050347D01*
X114166760Y-41970801D01*
X114055690Y-41817927D01*
X113922073Y-41684310D01*
X113769199Y-41573240D01*
X113600836Y-41487454D01*
X113421118Y-41429059D01*
X113234486Y-41399500D01*
X113234481Y-41399500D01*
X113045519Y-41399500D01*
X113045514Y-41399500D01*
X112858881Y-41429059D01*
X112679163Y-41487454D01*
X112510800Y-41573240D01*
X112433281Y-41629561D01*
X112369614Y-41675818D01*
X112303810Y-41699298D01*
X112296730Y-41699500D01*
X109861303Y-41699500D01*
X109687341Y-41734103D01*
X109687329Y-41734106D01*
X109605392Y-41768045D01*
X109605393Y-41768046D01*
X109523455Y-41801985D01*
X109435040Y-41861063D01*
X109375965Y-41900535D01*
X109363316Y-41913184D01*
X109301992Y-41946667D01*
X109275637Y-41949500D01*
X108252129Y-41949500D01*
X108252123Y-41949501D01*
X108192516Y-41955908D01*
X108057671Y-42006202D01*
X108057664Y-42006206D01*
X107942455Y-42092452D01*
X107942452Y-42092455D01*
X107856206Y-42207664D01*
X107856202Y-42207671D01*
X107805908Y-42342517D01*
X107799501Y-42402116D01*
X107799500Y-42402135D01*
X107799500Y-44297870D01*
X107799501Y-44297876D01*
X107805909Y-44357484D01*
X107815488Y-44383168D01*
X107820472Y-44452860D01*
X107786986Y-44514182D01*
X107725663Y-44547667D01*
X107699306Y-44550500D01*
X106134570Y-44550500D01*
X106105129Y-44541855D01*
X106075143Y-44535332D01*
X106070127Y-44531577D01*
X106067531Y-44530815D01*
X106046889Y-44514181D01*
X105959815Y-44427107D01*
X105926330Y-44365784D01*
X105931314Y-44296092D01*
X105948409Y-44267056D01*
X105947378Y-44266307D01*
X105961500Y-44246869D01*
X106079815Y-44084022D01*
X106179895Y-43887606D01*
X106248015Y-43677951D01*
X106282500Y-43460222D01*
X106282500Y-43239778D01*
X106248015Y-43022049D01*
X106207470Y-42897263D01*
X106179896Y-42812396D01*
X106179895Y-42812393D01*
X106145237Y-42744375D01*
X106079815Y-42615978D01*
X106018622Y-42531752D01*
X105950247Y-42437641D01*
X105950243Y-42437636D01*
X105794363Y-42281756D01*
X105794358Y-42281752D01*
X105616025Y-42152187D01*
X105616024Y-42152186D01*
X105616022Y-42152185D01*
X105498791Y-42092452D01*
X105419606Y-42052104D01*
X105419603Y-42052103D01*
X105209952Y-41983985D01*
X105101086Y-41966742D01*
X104992222Y-41949500D01*
X104771778Y-41949500D01*
X104699201Y-41960995D01*
X104554047Y-41983985D01*
X104344396Y-42052103D01*
X104344393Y-42052104D01*
X104147974Y-42152187D01*
X103969641Y-42281752D01*
X103969636Y-42281756D01*
X103890181Y-42361212D01*
X103828858Y-42394697D01*
X103759166Y-42389713D01*
X103714819Y-42361212D01*
X103635363Y-42281756D01*
X103635358Y-42281752D01*
X103457025Y-42152187D01*
X103457024Y-42152186D01*
X103457022Y-42152185D01*
X103339791Y-42092452D01*
X103260606Y-42052104D01*
X103260603Y-42052103D01*
X103050952Y-41983985D01*
X102942086Y-41966742D01*
X102833222Y-41949500D01*
X102612778Y-41949500D01*
X102540201Y-41960995D01*
X102395047Y-41983985D01*
X102185396Y-42052103D01*
X102185393Y-42052104D01*
X101988974Y-42152187D01*
X101810641Y-42281752D01*
X101810636Y-42281756D01*
X101654756Y-42437636D01*
X101654752Y-42437641D01*
X101525187Y-42615974D01*
X101425104Y-42812393D01*
X101425103Y-42812396D01*
X101356985Y-43022047D01*
X101340400Y-43126760D01*
X101322500Y-43239778D01*
X101322500Y-43460222D01*
X101329328Y-43503334D01*
X101356985Y-43677952D01*
X101425103Y-43887603D01*
X101425104Y-43887606D01*
X101474275Y-43984107D01*
X101517470Y-44068881D01*
X101525187Y-44084025D01*
X101654752Y-44262358D01*
X101654756Y-44262363D01*
X101786181Y-44393788D01*
X101819666Y-44455111D01*
X101822500Y-44481469D01*
X101822500Y-44816644D01*
X101857103Y-44990607D01*
X101857104Y-44990613D01*
X101857105Y-44990614D01*
X101871122Y-45024453D01*
X101924987Y-45154495D01*
X101955727Y-45200500D01*
X102002289Y-45270185D01*
X102023537Y-45301986D01*
X104521013Y-47799462D01*
X104551623Y-47819915D01*
X104551627Y-47819917D01*
X104555726Y-47822656D01*
X104668505Y-47898013D01*
X104750445Y-47931953D01*
X104832386Y-47965895D01*
X105006355Y-48000499D01*
X105006359Y-48000500D01*
X105006360Y-48000500D01*
X105006361Y-48000500D01*
X112296730Y-48000500D01*
X112363769Y-48020185D01*
X112369602Y-48024172D01*
X112510801Y-48126760D01*
X112553388Y-48148459D01*
X112679163Y-48212545D01*
X112679165Y-48212545D01*
X112679168Y-48212547D01*
X112775497Y-48243846D01*
X112858881Y-48270940D01*
X113045514Y-48300500D01*
X113045519Y-48300500D01*
X113234486Y-48300500D01*
X113421118Y-48270940D01*
X113600832Y-48212547D01*
X113769199Y-48126760D01*
X113922073Y-48015690D01*
X113928819Y-48008944D01*
X113990142Y-47975459D01*
X114059834Y-47980443D01*
X114115767Y-48022315D01*
X114140184Y-48087779D01*
X114140500Y-48096625D01*
X114140500Y-66084638D01*
X114120815Y-66151677D01*
X114104181Y-66172319D01*
X109419535Y-70856964D01*
X109419533Y-70856966D01*
X109405222Y-70878387D01*
X109405220Y-70878390D01*
X109320988Y-71004449D01*
X109287174Y-71086085D01*
X109253106Y-71168331D01*
X109253103Y-71168341D01*
X109235773Y-71255467D01*
X109218500Y-71342304D01*
X109218500Y-83653538D01*
X109253103Y-83827500D01*
X109253105Y-83827508D01*
X109277866Y-83887287D01*
X109277870Y-83887294D01*
X109280008Y-83892456D01*
X109320987Y-83991389D01*
X109370478Y-84065457D01*
X109398049Y-84106721D01*
X109419534Y-84138876D01*
X109419538Y-84138881D01*
X110591694Y-85311035D01*
X110717123Y-85436464D01*
X110864611Y-85535013D01*
X110912610Y-85554895D01*
X111028492Y-85602895D01*
X111165002Y-85630048D01*
X111202461Y-85637499D01*
X111202465Y-85637500D01*
X111202466Y-85637500D01*
X111202467Y-85637500D01*
X113406796Y-85637500D01*
X113473835Y-85657185D01*
X113494477Y-85673819D01*
X113628037Y-85807379D01*
X113758478Y-85937819D01*
X113791963Y-85999142D01*
X113786979Y-86068833D01*
X113745108Y-86124767D01*
X113679643Y-86149184D01*
X113670797Y-86149500D01*
X113605514Y-86149500D01*
X113418881Y-86179059D01*
X113239163Y-86237454D01*
X113070800Y-86323240D01*
X113011409Y-86366391D01*
X112929614Y-86425818D01*
X112863810Y-86449298D01*
X112856730Y-86449500D01*
X105338513Y-86449500D01*
X105164609Y-86484091D01*
X105164610Y-86484092D01*
X105164547Y-86484104D01*
X105164537Y-86484107D01*
X105000667Y-86551983D01*
X105000654Y-86551990D01*
X104853174Y-86650534D01*
X104853172Y-86650537D01*
X101500536Y-90003171D01*
X101487562Y-90022589D01*
X101469093Y-90050231D01*
X101401987Y-90150661D01*
X101369456Y-90229199D01*
X101366762Y-90235701D01*
X101366760Y-90235706D01*
X101334106Y-90314539D01*
X101334105Y-90314542D01*
X101304435Y-90463699D01*
X101304436Y-90463700D01*
X101299500Y-90488517D01*
X101299500Y-90718530D01*
X101279815Y-90785569D01*
X101263182Y-90806211D01*
X101131751Y-90937642D01*
X101002187Y-91115974D01*
X100902104Y-91312393D01*
X100902103Y-91312396D01*
X100833985Y-91522047D01*
X100799500Y-91739778D01*
X100000500Y-91739778D01*
X100000500Y-40124500D01*
X100020185Y-40057461D01*
X100072989Y-40011706D01*
X100124500Y-40000500D01*
X154875500Y-40000500D01*
X154942539Y-40020185D01*
G37*
%TD.AperFunction*%
%TD*%
M02*
