%TF.GenerationSoftware,KiCad,Pcbnew,9.0.6*%
%TF.CreationDate,2026-02-24T12:37:32+02:00*%
%TF.ProjectId,pcb,7063622e-6b69-4636-9164-5f7063625858,rev?*%
%TF.SameCoordinates,Original*%
%TF.FileFunction,Soldermask,Top*%
%TF.FilePolarity,Negative*%
%FSLAX46Y46*%
G04 Gerber Fmt 4.6, Leading zero omitted, Abs format (unit mm)*
G04 Created by KiCad (PCBNEW 9.0.6) date 2026-02-24 12:37:32*
%MOMM*%
%LPD*%
G01*
G04 APERTURE LIST*
G04 Aperture macros list*
%AMRoundRect*
0 Rectangle with rounded corners*
0 $1 Rounding radius*
0 $2 $3 $4 $5 $6 $7 $8 $9 X,Y pos of 4 corners*
0 Add a 4 corners polygon primitive as box body*
4,1,4,$2,$3,$4,$5,$6,$7,$8,$9,$2,$3,0*
0 Add four circle primitives for the rounded corners*
1,1,$1+$1,$2,$3*
1,1,$1+$1,$4,$5*
1,1,$1+$1,$6,$7*
1,1,$1+$1,$8,$9*
0 Add four rect primitives between the rounded corners*
20,1,$1+$1,$2,$3,$4,$5,0*
20,1,$1+$1,$4,$5,$6,$7,0*
20,1,$1+$1,$6,$7,$8,$9,0*
20,1,$1+$1,$8,$9,$2,$3,0*%
%AMOutline5P*
0 Free polygon, 5 corners , with rotation*
0 The origin of the aperture is its center*
0 number of corners: always 5*
0 $1 to $10 corner X, Y*
0 $11 Rotation angle, in degrees counterclockwise*
0 create outline with 5 corners*
4,1,5,$1,$2,$3,$4,$5,$6,$7,$8,$9,$10,$1,$2,$11*%
%AMOutline6P*
0 Free polygon, 6 corners , with rotation*
0 The origin of the aperture is its center*
0 number of corners: always 6*
0 $1 to $12 corner X, Y*
0 $13 Rotation angle, in degrees counterclockwise*
0 create outline with 6 corners*
4,1,6,$1,$2,$3,$4,$5,$6,$7,$8,$9,$10,$11,$12,$1,$2,$13*%
%AMOutline7P*
0 Free polygon, 7 corners , with rotation*
0 The origin of the aperture is its center*
0 number of corners: always 7*
0 $1 to $14 corner X, Y*
0 $15 Rotation angle, in degrees counterclockwise*
0 create outline with 7 corners*
4,1,7,$1,$2,$3,$4,$5,$6,$7,$8,$9,$10,$11,$12,$13,$14,$1,$2,$15*%
%AMOutline8P*
0 Free polygon, 8 corners , with rotation*
0 The origin of the aperture is its center*
0 number of corners: always 8*
0 $1 to $16 corner X, Y*
0 $17 Rotation angle, in degrees counterclockwise*
0 create outline with 8 corners*
4,1,8,$1,$2,$3,$4,$5,$6,$7,$8,$9,$10,$11,$12,$13,$14,$15,$16,$1,$2,$17*%
G04 Aperture macros list end*
%ADD10C,4.000000*%
%ADD11C,1.800000*%
%ADD12R,1.800000X1.800000*%
%ADD13RoundRect,0.250000X-0.600000X-0.725000X0.600000X-0.725000X0.600000X0.725000X-0.600000X0.725000X0*%
%ADD14O,1.700000X1.950000*%
%ADD15RoundRect,0.250000X-0.600000X-0.750000X0.600000X-0.750000X0.600000X0.750000X-0.600000X0.750000X0*%
%ADD16O,1.700000X2.000000*%
%ADD17Outline5P,-1.500000X0.700000X1.500000X0.700000X1.500000X-0.700000X-1.220000X-0.700000X-1.500000X-0.420000X270.000000*%
%ADD18RoundRect,0.291667X-0.408333X1.208333X-0.408333X-1.208333X0.408333X-1.208333X0.408333X1.208333X0*%
%ADD19R,1.640000X1.640000*%
%ADD20C,1.640000*%
%ADD21R,1.600000X1.600000*%
%ADD22C,1.600000*%
G04 APERTURE END LIST*
D10*
%TO.C,*%
X114400000Y-80500000D03*
%TD*%
%TO.C,REF\u002A\u002A*%
X139600000Y-52700000D03*
%TD*%
D11*
%TO.C,R5*%
X118920000Y-50300000D03*
X111300000Y-50300000D03*
%TD*%
%TO.C,R1*%
X137290000Y-42600000D03*
X144910000Y-42600000D03*
%TD*%
%TO.C,R14*%
X133100000Y-73720000D03*
X133100000Y-66100000D03*
%TD*%
D12*
%TO.C,D3*%
X152200000Y-92650000D03*
D11*
X152200000Y-89950000D03*
X152200000Y-87250000D03*
X152200000Y-84550000D03*
%TD*%
%TO.C,R10*%
X120110000Y-86360000D03*
X112490000Y-86360000D03*
%TD*%
D13*
%TO.C,J1*%
X112300000Y-43500000D03*
D14*
X114800000Y-43500000D03*
X117300000Y-43500000D03*
%TD*%
D11*
%TO.C,R3*%
X141090000Y-56600000D03*
X148710000Y-56600000D03*
%TD*%
%TO.C,R12*%
X120220000Y-91750000D03*
X112600000Y-91750000D03*
%TD*%
%TO.C,R2*%
X139790000Y-47900000D03*
X147410000Y-47900000D03*
%TD*%
%TO.C,R11*%
X120140000Y-89060000D03*
X112520000Y-89060000D03*
%TD*%
%TO.C,R7*%
X136690000Y-86400000D03*
X144310000Y-86400000D03*
%TD*%
D12*
%TO.C,D2*%
X103200000Y-42500000D03*
D11*
X103200000Y-45200000D03*
X103200000Y-47900000D03*
X103200000Y-50600000D03*
%TD*%
%TO.C,R8*%
X136690000Y-89100000D03*
X144310000Y-89100000D03*
%TD*%
D15*
%TO.C,J2*%
X102700000Y-53600000D03*
D16*
X105200000Y-53600000D03*
%TD*%
D17*
%TO.C,U1*%
X101500000Y-57680000D03*
D18*
X104040000Y-57680000D03*
X106580000Y-57680000D03*
X109120000Y-57680000D03*
X111660000Y-57680000D03*
X114200000Y-57680000D03*
X116740000Y-57680000D03*
X119280000Y-57680000D03*
X101500000Y-74520000D03*
X104040000Y-74520000D03*
X106580000Y-74520000D03*
X109120000Y-74520000D03*
X111660000Y-74520000D03*
X114200000Y-74520000D03*
X116740000Y-74520000D03*
X119280000Y-74520000D03*
%TD*%
D11*
%TO.C,R15*%
X129600000Y-73720000D03*
X129600000Y-66100000D03*
%TD*%
D19*
%TO.C,U2*%
X140600000Y-60540000D03*
D20*
X140600000Y-63080000D03*
X140600000Y-65620000D03*
X140600000Y-68160000D03*
X140600000Y-70700000D03*
X140600000Y-73240000D03*
X140600000Y-75780000D03*
X140600000Y-78320000D03*
%TD*%
D11*
%TO.C,R13*%
X122600000Y-54400000D03*
X122600000Y-46780000D03*
%TD*%
%TO.C,R6*%
X118910000Y-47600000D03*
X111290000Y-47600000D03*
%TD*%
D21*
%TO.C,BZ1*%
X126100000Y-46700000D03*
D22*
X133700000Y-46700000D03*
%TD*%
D11*
%TO.C,R4*%
X118920000Y-52900000D03*
X111300000Y-52900000D03*
%TD*%
D12*
%TO.C,D4*%
X104200000Y-91300000D03*
D11*
X104200000Y-88600000D03*
X104200000Y-85900000D03*
X104200000Y-83200000D03*
%TD*%
D12*
%TO.C,D1*%
X151000000Y-42600000D03*
D11*
X151000000Y-45300000D03*
X151000000Y-48000000D03*
X151000000Y-50700000D03*
%TD*%
%TO.C,R9*%
X136690000Y-92000000D03*
X144310000Y-92000000D03*
%TD*%
M02*
