%TF.GenerationSoftware,KiCad,Pcbnew,9.0.6*%
%TF.CreationDate,2025-11-30T22:19:54+02:00*%
%TF.ProjectId,led_pcb,6c65645f-7063-4622-9e6b-696361645f70,rev?*%
%TF.SameCoordinates,Original*%
%TF.FileFunction,Soldermask,Top*%
%TF.FilePolarity,Negative*%
%FSLAX46Y46*%
G04 Gerber Fmt 4.6, Leading zero omitted, Abs format (unit mm)*
G04 Created by KiCad (PCBNEW 9.0.6) date 2025-11-30 22:19:54*
%MOMM*%
%LPD*%
G01*
G04 APERTURE LIST*
%ADD10C,1.400000*%
%ADD11R,1.700000X1.700000*%
%ADD12C,1.700000*%
%ADD13R,1.800000X1.800000*%
%ADD14C,1.800000*%
%ADD15C,1.200000*%
G04 APERTURE END LIST*
D10*
%TO.C,R5*%
X128300000Y-43400000D03*
X120680000Y-43400000D03*
%TD*%
%TO.C,R1*%
X136873000Y-45750000D03*
X144493000Y-45750000D03*
%TD*%
D11*
%TO.C,J1*%
X114600000Y-50440000D03*
D12*
X114600000Y-52980000D03*
X114600000Y-55520000D03*
X114600000Y-58060000D03*
X114600000Y-60600000D03*
X114600000Y-63140000D03*
%TD*%
D13*
%TO.C,D3*%
X146623000Y-81100000D03*
D14*
X148782000Y-81100000D03*
X150941000Y-81100000D03*
X153100000Y-81100000D03*
%TD*%
D10*
%TO.C,R10*%
X129300000Y-83300000D03*
X121680000Y-83300000D03*
%TD*%
%TO.C,R3*%
X136873000Y-41350000D03*
X144493000Y-41350000D03*
%TD*%
%TO.C,R12*%
X129320000Y-78800000D03*
X121700000Y-78800000D03*
%TD*%
%TO.C,R2*%
X136873000Y-43550000D03*
X144493000Y-43550000D03*
%TD*%
D15*
%TO.C,U1*%
X135620000Y-68894000D03*
X138000000Y-68894000D03*
X140540000Y-68894000D03*
X143080000Y-68894000D03*
X145620000Y-68894000D03*
X148160000Y-68894000D03*
X150700000Y-68894000D03*
X153240000Y-68894000D03*
X135620000Y-53400000D03*
X138000000Y-53400000D03*
X140540000Y-53400000D03*
X143080000Y-53400000D03*
X145620000Y-53400000D03*
X148160000Y-53400000D03*
X150700000Y-53400000D03*
X153240000Y-53400000D03*
%TD*%
D10*
%TO.C,R11*%
X129300000Y-81100000D03*
X121680000Y-81100000D03*
%TD*%
%TO.C,R7*%
X136821000Y-83300000D03*
X144441000Y-83300000D03*
%TD*%
D13*
%TO.C,D2*%
X112100000Y-43400000D03*
D14*
X114259000Y-43400000D03*
X116418000Y-43400000D03*
X118577000Y-43400000D03*
%TD*%
D13*
%TO.C,D5*%
X111530000Y-71400000D03*
D14*
X113689000Y-71400000D03*
X115848000Y-71400000D03*
X118007000Y-71400000D03*
%TD*%
D10*
%TO.C,R8*%
X136821000Y-81100000D03*
X144441000Y-81100000D03*
%TD*%
D11*
%TO.C,J2*%
X136025000Y-72750000D03*
D12*
X136025000Y-75290000D03*
%TD*%
D10*
%TO.C,R6*%
X128300000Y-45600000D03*
X120680000Y-45600000D03*
%TD*%
%TO.C,R14*%
X120700000Y-73620000D03*
X120700000Y-66000000D03*
%TD*%
%TO.C,R4*%
X128300000Y-41200000D03*
X120680000Y-41200000D03*
%TD*%
D13*
%TO.C,D4*%
X112582000Y-81000000D03*
D14*
X114741000Y-81000000D03*
X116900000Y-81000000D03*
X119059000Y-81000000D03*
%TD*%
D13*
%TO.C,D1*%
X146696000Y-43550000D03*
D14*
X148855000Y-43550000D03*
X151014000Y-43550000D03*
X153173000Y-43550000D03*
%TD*%
D10*
%TO.C,R13*%
X123000000Y-66080000D03*
X123000000Y-73700000D03*
%TD*%
%TO.C,R9*%
X136841000Y-78700000D03*
X144461000Y-78700000D03*
%TD*%
M02*
